<svg width="355" height="220" viewBox="0 0 355 220" fill="none" xmlns="http://www.w3.org/2000/svg">
<rect x="18" y="78" width="299" height="142" rx="22" fill="#DADDED"/>
<rect x="10" y="65" width="315" height="150" rx="22" fill="#A3ABD3"/>
<rect y="49.0908" width="335" height="160" rx="22" fill="url(#paint0_linear)"/>
<path opacity="0.2" d="M171 49C171 61.9956 165.89 74.4589 156.795 83.6482C147.699 92.8375 135.363 98 122.5 98C109.637 98 97.3008 92.8375 88.2053 83.6482C79.1098 74.459 74 61.9956 74 49L122.5 49L171 49Z" fill="url(#paint1_linear)"/>
<path opacity="0.2" d="M335 85C323.596 85 312.658 89.4777 304.594 97.448C296.53 105.418 292 116.228 292 127.5C292 138.772 296.53 149.582 304.594 157.552C312.658 165.522 323.596 170 335 170L335 127.5L335 85Z" fill="url(#paint2_linear)"/>
<mask id="mask0" mask-type="alpha" maskUnits="userSpaceOnUse" x="218" y="74" width="103" height="136">
<rect width="102.162" height="135.091" rx="22" transform="matrix(-1 0 0 1 320.362 74)" fill="url(#paint3_linear)"/>
</mask>
<g mask="url(#mask0)">
<path d="M260.007 121.165C262.387 121.165 264.319 119.233 264.319 116.852C264.319 114.472 262.387 112.54 260.007 112.54C257.626 112.54 255.694 114.472 255.694 116.852C255.694 119.233 257.626 121.165 260.007 121.165Z" fill="#FEC2AC"/>
<path d="M260.006 112.885C257.832 112.885 256.038 114.645 256.038 116.852C256.038 119.06 257.798 120.82 260.006 120.82C262.214 120.82 263.973 119.06 263.973 116.852C263.973 114.645 262.179 112.885 260.006 112.885ZM260.006 112.161C262.593 112.161 264.698 114.265 264.698 116.852C264.698 119.44 262.593 121.544 260.006 121.544C257.418 121.544 255.314 119.44 255.314 116.852C255.314 114.265 257.418 112.161 260.006 112.161Z" fill="#1C2034"/>
<path d="M256.555 102.881C256.555 102.881 254.002 109.021 258.797 114.61L263.489 102.191L256.555 102.881Z" fill="#1C2034"/>
<path d="M287.603 195.821L290.087 164.427L300.299 174.225L311.511 159.597L291.502 143.59L275.149 136.966L269.768 141.485L264.627 136.966L248.309 143.59L227.127 159.218L238.063 173.88L250.172 165.6L250.138 195.821H287.603Z" fill="white"/>
<path d="M264.558 137.414L248.481 143.934L227.644 159.286L238.132 173.327L250.551 164.875V195.406H287.258L289.777 163.564L300.264 173.637L310.993 159.665L291.329 143.934L275.252 137.379L269.802 141.967L264.558 137.414ZM264.696 136.517L265.041 136.827L269.767 141.001L274.701 136.827L275.045 136.517L275.494 136.689L291.57 143.244L291.674 143.278L291.777 143.347L311.442 159.079L312.028 159.562L311.58 160.148L300.851 174.12L300.333 174.81L299.712 174.224L290.397 165.289L288.017 195.51L287.948 196.234H287.224H250.517H249.723V195.441V166.358L238.511 173.982L237.89 174.396L237.442 173.81L226.954 159.769L226.471 159.148L227.092 158.699L247.929 143.347L247.998 143.278L248.102 143.244L264.178 136.724L264.696 136.517Z" fill="#1C2034"/>
<path d="M269.941 142.347C273.046 142.347 275.564 139.828 275.564 136.723V125.235H264.352V136.723C264.318 139.828 266.836 142.347 269.941 142.347Z" fill="#FEC2AC"/>
<path d="M264.663 125.581V136.724C264.663 139.622 267.009 142.003 269.941 142.003C272.839 142.003 275.219 139.657 275.219 136.724V125.581H264.663ZM263.973 124.891H264.663H275.185H275.875V125.581V136.724C275.875 140.002 273.184 142.693 269.907 142.693C266.629 142.693 263.938 140.002 263.938 136.724V125.581V124.891H263.973Z" fill="#1C2034"/>
<path d="M276.288 126.995L264.662 135.517V126.995H276.288Z" fill="#1C2034"/>
<path d="M268.871 129.582C273.838 129.582 278.22 126.097 279.703 121.095C280.393 121.509 281.152 121.75 281.946 121.75C284.326 121.75 286.258 119.818 286.258 117.438C286.258 115.058 284.326 113.126 281.946 113.126C281.29 113.126 280.669 113.264 280.117 113.54C280.186 112.953 280.221 112.401 280.221 111.815C280.221 105.087 275.115 99.6021 268.836 99.6021C262.557 99.6021 257.451 105.087 257.451 111.815C257.451 112.746 257.555 113.678 257.762 114.609C257.555 115.541 257.451 116.472 257.451 117.403C257.486 124.131 262.592 129.582 268.871 129.582Z" fill="#FEC2AC"/>
<path d="M268.87 99.9479C262.764 99.9479 257.83 105.261 257.83 111.815C257.83 112.781 257.934 113.713 258.141 114.61C257.934 115.507 257.83 116.438 257.83 117.404C257.83 123.959 262.764 129.272 268.87 129.272C273.941 129.272 278.219 125.581 279.496 120.544C280.186 121.096 281.014 121.406 281.945 121.406C284.118 121.406 285.912 119.647 285.912 117.439C285.912 115.231 284.153 113.471 281.945 113.471C281.083 113.471 280.289 113.747 279.634 114.23C279.772 113.437 279.875 112.643 279.875 111.815C279.91 105.261 274.942 99.9479 268.87 99.9479ZM268.87 99.2234C275.356 99.2234 280.6 104.881 280.6 111.781C280.6 112.16 280.565 112.574 280.531 112.954C280.979 112.816 281.462 112.747 281.945 112.747C284.532 112.747 286.602 114.851 286.602 117.404C286.602 119.992 284.498 122.062 281.945 122.062C281.221 122.062 280.531 121.889 279.91 121.579C278.254 126.547 273.838 129.927 268.87 129.927C262.384 129.927 257.14 124.27 257.14 117.37C257.14 116.438 257.244 115.507 257.416 114.575C257.209 113.644 257.14 112.712 257.14 111.781C257.106 104.881 262.384 99.2234 268.87 99.2234Z" fill="#1C2034"/>
<path d="M279.911 117.336C280.704 115.231 282.809 115.749 282.878 115.783L283.085 115.024C282.084 114.748 280.014 114.852 279.186 117.06L279.911 117.336Z" fill="#1C2034"/>
<path d="M269.319 109.629L273.666 109.659L273.66 110.591L269.313 110.561L269.319 109.629Z" fill="#1C2034"/>
<path d="M257.829 109.629L262.176 109.659L262.17 110.591L257.823 110.561L257.829 109.629Z" fill="#1C2034"/>
<path d="M271.425 115.749C270.778 115.749 270.252 115.224 270.252 114.576C270.252 113.928 270.778 113.403 271.425 113.403C272.073 113.403 272.598 113.928 272.598 114.576C272.598 115.224 272.073 115.749 271.425 115.749Z" fill="#1C2034"/>
<path d="M260.42 115.749C259.772 115.749 259.247 115.224 259.247 114.576C259.247 113.928 259.772 113.403 260.42 113.403C261.067 113.403 261.593 113.928 261.593 114.576C261.593 115.224 261.067 115.749 260.42 115.749Z" fill="#1C2034"/>
<path d="M265.457 119.785L265.595 119.026L264.112 118.785L264.871 113.713L264.112 113.575L263.215 119.44L265.457 119.785Z" fill="#1C2034"/>
<path d="M257.97 108.78C257.97 108.78 260.143 102.743 265.973 102.743C272.528 102.743 272.873 106.158 276.875 106.883C276.875 106.883 276.185 111.954 278.876 115.783C278.876 115.783 280.221 112.023 284.775 114.196C284.775 114.196 290.675 98.4649 281.567 97.568C271.424 96.5675 270.769 90.2197 263.248 90.9442C255.762 91.6342 251.346 102.122 257.97 108.78Z" fill="#1C2034"/>
<path d="M270.218 240.36L284.5 334.093H298.403L288.053 189.854H250.174L248.759 334.369L263.283 334.749L270.218 240.36Z" fill="#E6E6E6"/>
<path d="M250.552 190.232L249.172 333.955L262.937 334.334L270.079 236.909L284.81 333.713H297.954L287.673 190.232H270.734H269.389H250.552ZM249.759 189.473H250.518H269.389H270.734H287.673H288.398L288.432 190.198L298.713 333.679L298.782 334.507H297.954H284.81H284.154L284.051 333.851L270.355 243.809L263.696 334.403L263.627 335.128L262.903 335.093L249.138 334.714L248.379 334.679V333.92L249.759 190.198V189.473Z" fill="#1C2034"/>
<path d="M284.258 205.41C284.43 205.41 284.568 205.376 284.741 205.341L289.778 203.34C289.812 203.34 289.847 203.375 289.881 203.375C290.399 203.513 290.916 203.582 291.468 203.582C293.055 203.582 294.642 202.926 295.815 201.788L317.308 180.813C319.171 178.881 320.171 176.259 319.999 173.602C319.826 170.946 318.55 168.428 316.445 166.772L310.063 161.666L301.093 173.464L303.922 175.396L291.675 194.957C290.399 194.095 286.086 191.3 284.741 191.3C284.568 191.3 284.43 191.335 284.327 191.404C283.809 191.714 283.671 192.128 283.637 192.404C283.568 193.025 283.982 193.646 284.292 194.026L281.222 195.785C281.153 195.82 281.119 195.82 281.084 195.854L278.945 197.096C278.221 197.51 277.945 198.407 278.29 199.097C278.531 199.615 279.083 199.96 279.67 199.96C279.704 199.96 279.739 199.96 279.773 199.96C279.704 200.408 279.808 200.856 280.084 201.201C280.36 201.546 280.774 201.753 281.222 201.753C281.222 201.788 281.222 201.822 281.188 201.857C281.119 202.305 281.222 202.754 281.498 203.099C281.774 203.444 282.222 203.651 282.671 203.651C282.705 203.651 282.74 203.651 282.774 203.651C282.705 203.996 282.774 204.375 282.947 204.686C283.223 205.1 283.706 205.41 284.258 205.41Z" fill="#FEC2AC"/>
<path d="M310.132 162.081L301.611 173.293L304.405 175.225L291.813 195.407C291.813 195.407 286.224 191.612 284.775 191.612C284.672 191.612 284.603 191.612 284.534 191.646C283.189 192.474 284.879 194.061 284.879 194.061L281.395 196.028C281.36 196.062 281.326 196.062 281.257 196.097L279.773 196.959L279.118 197.339C278.566 197.649 278.324 198.339 278.6 198.891C278.807 199.305 279.221 199.547 279.67 199.547C279.877 199.547 280.084 199.512 280.256 199.374L280.67 199.133L280.981 198.96L280.636 199.167C280.015 199.512 279.842 200.34 280.325 200.927C280.567 201.203 280.877 201.341 281.222 201.341C281.429 201.341 281.636 201.272 281.843 201.168L282.188 200.961L282.05 201.03C281.429 201.375 281.257 202.203 281.74 202.789C281.981 203.065 282.292 203.203 282.637 203.203C282.844 203.203 283.051 203.134 283.258 203.031L283.396 202.927L283.43 202.962C283.051 203.341 282.947 203.928 283.223 204.376C283.43 204.756 283.844 204.963 284.258 204.963C284.396 204.963 284.499 204.928 284.637 204.894L289.778 202.824C289.847 202.858 289.916 202.858 289.985 202.893C290.468 203.031 290.985 203.1 291.468 203.1C292.986 203.1 294.47 202.479 295.574 201.41L317.066 180.434C320.861 176.57 320.447 170.292 316.238 166.911L310.132 162.081ZM309.994 161.08L310.546 161.529L316.652 166.428C318.826 168.153 320.171 170.74 320.344 173.5C320.516 176.26 319.481 178.985 317.549 180.986L296.022 201.962C294.78 203.169 293.124 203.859 291.434 203.859C290.882 203.859 290.33 203.79 289.778 203.652L284.879 205.618H284.844H284.81C284.637 205.687 284.43 205.722 284.223 205.722C283.568 205.722 282.913 205.377 282.602 204.79C282.43 204.514 282.361 204.204 282.361 203.928C281.878 203.859 281.464 203.617 281.153 203.272C280.877 202.927 280.705 202.444 280.739 201.996C280.36 201.892 280.015 201.686 279.739 201.375C279.463 201.065 279.325 200.651 279.325 200.237C278.704 200.133 278.186 199.754 277.91 199.202C277.496 198.305 277.841 197.235 278.704 196.718L279.359 196.338L280.808 195.51C280.877 195.476 280.946 195.441 280.981 195.441L283.706 193.889C283.43 193.475 283.189 192.923 283.223 192.336C283.258 191.991 283.43 191.474 284.051 191.094C284.223 190.991 284.43 190.922 284.637 190.922C285.983 190.922 289.674 193.233 291.468 194.441L303.336 175.466L301.093 173.914L300.472 173.5L300.921 172.913L309.442 161.701L309.994 161.08Z" fill="#1C2034"/>
<path d="M307.325 170.394L307.869 170.817L304.268 175.446L303.723 175.022L307.325 170.394Z" fill="#1C2034"/>
<path d="M254.623 205.411C255.175 205.411 255.692 205.135 255.934 204.652C256.106 204.341 256.175 203.962 256.106 203.617C256.141 203.617 256.175 203.617 256.21 203.617C256.693 203.617 257.107 203.41 257.383 203.065C257.659 202.72 257.762 202.271 257.693 201.823C257.693 201.788 257.693 201.754 257.659 201.719C258.107 201.719 258.521 201.512 258.797 201.167C259.073 200.822 259.177 200.374 259.108 199.925C259.142 199.925 259.177 199.925 259.211 199.925C259.798 199.925 260.315 199.58 260.591 199.063C260.936 198.338 260.66 197.476 259.936 197.062L257.797 195.82C257.762 195.785 257.728 195.785 257.659 195.751L254.554 193.992C254.864 193.612 255.278 192.991 255.209 192.37C255.175 192.094 255.037 191.68 254.519 191.37C254.416 191.301 254.278 191.266 254.105 191.266C252.725 191.266 248.447 194.061 247.171 194.923L234.924 175.362L237.753 173.43L228.783 161.632L222.401 166.737C220.296 168.393 219.02 170.912 218.847 173.568C218.675 176.225 219.675 178.881 221.538 180.778L243.066 201.754C244.239 202.892 245.826 203.548 247.412 203.548C247.93 203.548 248.482 203.479 248.999 203.341C249.034 203.341 249.068 203.306 249.103 203.306L254.105 205.307C254.312 205.376 254.45 205.411 254.623 205.411Z" fill="#FEC2AC"/>
<path d="M228.75 162.081L222.643 166.98C218.434 170.361 218.02 176.639 221.815 180.503L243.308 201.479C244.412 202.548 245.895 203.169 247.413 203.169C247.896 203.169 248.414 203.1 248.897 202.962C248.966 202.927 249.035 202.927 249.104 202.893L254.244 204.963C254.348 204.997 254.486 205.032 254.624 205.032C255.038 205.032 255.417 204.825 255.659 204.445C255.935 203.962 255.831 203.376 255.452 203.031L255.486 202.996L255.624 203.1C255.831 203.203 256.038 203.272 256.245 203.272C256.59 203.272 256.935 203.134 257.142 202.858C257.591 202.272 257.418 201.444 256.832 201.099L256.694 201.03L257.039 201.237C257.246 201.341 257.453 201.41 257.66 201.41C258.005 201.41 258.35 201.272 258.557 200.996C259.005 200.409 258.833 199.581 258.246 199.236L257.901 199.029L258.212 199.202L258.626 199.443C258.798 199.547 259.005 199.616 259.212 199.616C259.661 199.616 260.074 199.374 260.281 198.96C260.557 198.408 260.316 197.718 259.764 197.408L259.109 197.028L257.625 196.166C257.591 196.131 257.556 196.131 257.487 196.097L254.003 194.13C254.003 194.13 255.659 192.543 254.348 191.715C254.279 191.681 254.21 191.681 254.106 191.681C252.657 191.681 247.068 195.476 247.068 195.476L234.476 175.294L237.271 173.362L228.75 162.081ZM228.888 161.08L229.336 161.667L237.857 172.879L238.306 173.465L237.685 173.879L235.442 175.432L247.31 194.406C249.104 193.233 252.795 190.887 254.141 190.887C254.382 190.887 254.555 190.956 254.727 191.06C255.348 191.439 255.521 191.957 255.555 192.302C255.624 192.888 255.348 193.44 255.072 193.854L257.798 195.407C257.832 195.407 257.901 195.441 257.97 195.476L259.419 196.304H259.454L260.109 196.683C260.971 197.201 261.316 198.27 260.902 199.167C260.626 199.719 260.109 200.099 259.488 200.202C259.488 200.616 259.316 200.996 259.074 201.341C258.833 201.651 258.453 201.892 258.074 201.961C258.108 202.41 257.936 202.858 257.66 203.238C257.349 203.617 256.935 203.859 256.452 203.893C256.452 204.204 256.349 204.48 256.211 204.756C255.866 205.342 255.245 205.687 254.589 205.687C254.382 205.687 254.175 205.653 254.003 205.584H253.968H253.934L249.035 203.617C248.483 203.755 247.931 203.824 247.379 203.824C245.688 203.824 243.998 203.134 242.791 201.927L221.298 180.952C219.331 178.951 218.331 176.225 218.503 173.465C218.676 170.705 220.021 168.118 222.195 166.393L228.336 161.529L228.888 161.08Z" fill="#1C2034"/>
<path d="M231.622 170.399L235.224 175.027L234.68 175.45L231.078 170.822L231.622 170.399Z" fill="#1C2034"/>
<path d="M285.554 159.597L290.714 164.484L290.192 165.035L285.032 160.148L285.554 159.597Z" fill="#1C2034"/>
<path d="M249.793 154.595H250.587V161.805H249.793V154.595Z" fill="#1C2034"/>
<path d="M284.293 193.993C284.293 193.993 285.949 192.924 287.743 193.648L284.293 193.993Z" fill="#FEC2AC"/>
<path d="M284.464 194.303C284.464 194.303 286.017 193.337 287.604 193.993L287.88 193.337C285.948 192.544 284.188 193.648 284.085 193.717L284.464 194.303Z" fill="#1C2034"/>
<path d="M254.59 193.957C254.59 193.957 252.934 192.887 251.14 193.612L254.59 193.957Z" fill="#FEC2AC"/>
<path d="M254.417 194.268L254.796 193.681C254.727 193.647 252.968 192.508 251.001 193.302L251.277 193.957C252.864 193.302 254.382 194.268 254.417 194.268Z" fill="#1C2034"/>
<path d="M266.422 125.236C268.527 125.236 270.217 123.752 270.252 121.855C270.252 121.786 270.252 121.751 270.252 121.682V121.372L262.558 121.165L262.524 121.441C262.524 121.51 262.524 121.544 262.524 121.613C262.489 123.511 264.18 125.132 266.284 125.167L266.422 125.236Z" fill="white"/>
<path d="M262.835 121.511C262.835 121.545 262.835 121.614 262.835 121.649C262.8 123.408 264.353 124.857 266.319 124.892C266.354 124.892 266.388 124.892 266.423 124.892C268.355 124.892 269.907 123.546 269.942 121.821C269.942 121.787 269.942 121.718 269.942 121.683L262.835 121.511ZM262.248 120.89H262.835L269.942 121.062H270.528V121.649C270.528 121.718 270.528 121.787 270.528 121.821C270.459 123.891 268.665 125.513 266.388 125.513C266.354 125.513 266.319 125.513 266.285 125.513C263.973 125.444 262.145 123.719 262.214 121.614C262.214 121.545 262.214 121.476 262.214 121.442L262.248 120.89Z" fill="#1C2034"/>
<path d="M283.352 94.5475L283.914 95.0566L280.975 98.3054L280.412 97.7962L283.352 94.5475Z" fill="#1C2034"/>
<path d="M279.565 94.8076H280.358V98.0505H279.565V94.8076Z" fill="#1C2034"/>
</g>
<defs>
<linearGradient id="paint0_linear" x1="-95.5" y1="76" x2="297.204" y2="382.934" gradientUnits="userSpaceOnUse">
<stop offset="0.0163255" stop-color="#778BEB"/>
<stop offset="1" stop-color="#313B6C"/>
</linearGradient>
<linearGradient id="paint1_linear" x1="46.3478" y1="16.4819" x2="207.516" y2="76.0315" gradientUnits="userSpaceOnUse">
<stop offset="0.0163255" stop-color="#778BEB"/>
<stop offset="1" stop-color="#313B6C"/>
</linearGradient>
<linearGradient id="paint2_linear" x1="306.464" y1="194.231" x2="358.589" y2="52.9528" gradientUnits="userSpaceOnUse">
<stop offset="0.0163255" stop-color="#778BEB"/>
<stop offset="1" stop-color="#313B6C"/>
</linearGradient>
<linearGradient id="paint3_linear" x1="-12.3957" y1="21.6145" x2="132.15" y2="57.757" gradientUnits="userSpaceOnUse">
<stop stop-color="#4299FF"/>
<stop offset="1" stop-color="#1577EA"/>
</linearGradient>
</defs>
</svg>
