<svg width="18" height="18" viewBox="0 0 18 18" fill="none" xmlns="http://www.w3.org/2000/svg">
<path d="M9 16.8749C10.2426 16.8749 11.25 15.8676 11.25 14.6249C11.25 14.4069 11.0602 14.2481 10.8422 14.2457L7.20832 14.2044C6.96628 14.2017 6.75102 14.3733 6.75002 14.6154L6.75 14.6249C6.75 15.8676 7.75736 16.8749 9 16.8749Z" fill="#B2B7D0"/>
<path d="M3.75 6.75C3.75 3.85051 6.1005 1.125 9 1.125C11.8995 1.125 14.25 3.85051 14.25 6.75V8.59551C14.25 9.56837 14.666 10.4948 15.3932 11.1411C16.1734 11.8347 15.6828 13.125 14.6389 13.125H3.3611C2.31716 13.125 1.82659 11.8347 2.60684 11.1411C3.33397 10.4948 3.75 9.56837 3.75 8.59551V6.75Z" fill="#B2B7D0"/>
</svg>
