<svg width="12" height="12" viewBox="0 0 12 12" fill="none" xmlns="http://www.w3.org/2000/svg">
<path fill-rule="evenodd" clip-rule="evenodd" d="M4.3125 0.75C4.3125 0.43934 4.06066 0.1875 3.75 0.1875C3.43934 0.1875 3.1875 0.43934 3.1875 0.75V1.5H3C1.75736 1.5 0.75 2.50736 0.75 3.75V4.5V9C0.75 10.2426 1.75736 11.25 3 11.25H9C10.2426 11.25 11.25 10.2426 11.25 9V4.5V3.75C11.25 2.50736 10.2426 1.5 9 1.5H8.8125V0.75C8.8125 0.43934 8.56066 0.1875 8.25 0.1875C7.93934 0.1875 7.6875 0.43934 7.6875 0.75V1.5H4.3125V0.75ZM1.875 4.5H10.125V9C10.125 9.62132 9.62132 10.125 9 10.125H3C2.37868 10.125 1.875 9.62132 1.875 9V4.5ZM5.8125 5.625C5.50184 5.625 5.25 5.87684 5.25 6.1875C5.25 6.49816 5.50184 6.75 5.8125 6.75H8.4375C8.74816 6.75 9 6.49816 9 6.1875C9 5.87684 8.74816 5.625 8.4375 5.625H5.8125ZM5.25 8.4375C5.25 8.12684 5.50184 7.875 5.8125 7.875H8.4375C8.74816 7.875 9 8.12684 9 8.4375C9 8.74816 8.74816 9 8.4375 9H5.8125C5.50184 9 5.25 8.74816 5.25 8.4375ZM4.575 6.18743C4.575 6.64306 4.20563 7.01243 3.75 7.01243C3.29436 7.01243 2.925 6.64306 2.925 6.18743C2.925 5.73179 3.29436 5.36243 3.75 5.36243C4.20563 5.36243 4.575 5.73179 4.575 6.18743ZM3.75 9.26243C4.20563 9.26243 4.575 8.89306 4.575 8.43743C4.575 7.98179 4.20563 7.61243 3.75 7.61243C3.29436 7.61243 2.925 7.98179 2.925 8.43743C2.925 8.89306 3.29436 9.26243 3.75 9.26243Z" fill="#100F0F" fill-opacity="0.5"/>
</svg>
