<svg width="221" height="241" viewBox="0 0 221 241" fill="none" xmlns="http://www.w3.org/2000/svg">
<path d="M137.096 121.315C158.436 113.728 204.624 144.635 208.83 117.747C213.036 90.8648 179.009 91.1301 185.505 64.6161C192.005 38.1021 164.858 20.1525 144.977 48.0522C125.096 75.9519 100.818 30.8348 54.3154 52.6317C10.5299 73.1511 17.6596 155.902 84.3476 155.066C112.522 154.713 120.188 127.324 137.096 121.315Z" fill="#DAEDEC"/>
<path d="M123.824 142.63C127.966 136.522 135.371 127.265 146.869 128.818C158.362 130.371 171.491 143.033 196.216 142.63C220.942 142.222 227.821 177.581 211.002 195.717C194.182 213.853 156.2 166.186 126.885 179.183C97.5702 192.184 118.153 150.993 123.824 142.63Z" fill="#DAEDEC"/>
<path d="M158.362 229.582C168.563 229.582 176.832 221.312 176.832 211.111C176.832 200.911 168.563 192.641 158.362 192.641C148.161 192.641 139.891 200.911 139.891 211.111C139.891 221.312 148.161 229.582 158.362 229.582Z" fill="#DAEDEC"/>
<path d="M10.5299 90.555C16.3455 90.555 21.0599 85.8406 21.0599 80.0251C21.0599 74.2095 16.3455 69.4951 10.5299 69.4951C4.71441 69.4951 0 74.2095 0 80.0251C0 85.8406 4.71441 90.555 10.5299 90.555Z" fill="#DAEDEC"/>
<path d="M57.6657 200.129C59.9264 186.428 50.6518 173.488 36.9503 171.227C23.2489 168.967 10.309 178.241 8.04833 191.943C5.78766 205.644 15.0623 218.584 28.7637 220.845C42.4652 223.105 55.4051 213.831 57.6657 200.129Z" fill="#DAEDEC"/>
<path d="M38.4493 195.628C38.4493 195.628 35.9629 197.54 35.4863 200.979C35.0097 204.419 35.2456 208.291 34.8672 208.433C34.4839 208.576 31.3294 208.527 30.6611 207.858C29.9929 207.19 27.0299 204.419 27.2658 199.063C27.5066 193.712 28.0766 189.265 29.0347 189.408C29.9929 189.55 38.4493 190.218 38.4493 190.218V195.628Z" fill="#313B6C"/>
<path d="M46.9105 217.323C46.9105 217.323 43.1369 223.106 44.0901 227.17C45.0483 231.233 46.0015 231.518 45.9082 232.093C45.8148 232.668 40.8422 233.67 38.69 230.516C36.5378 227.361 38.7883 226.167 35.3438 222.728C33.2408 220.625 33.6241 218.094 33.8157 217.947C34.0073 217.804 42.0362 213.598 42.0362 213.598C42.0362 213.598 46.6698 214.601 46.9105 217.323Z" fill="#313B6C"/>
<path d="M55.136 62.3462C55.136 62.3462 43.8837 60.7689 40.6014 71.746C39.3583 75.9029 39.884 83.1211 31.7618 89.9068C23.6346 96.6925 17.1879 114.839 31.3638 123.3C35.3143 125.658 34.9311 133.049 31.747 136.68C28.563 140.311 35.3143 144.581 39.7121 140.183C44.1098 135.785 53.2491 104.373 53.2491 104.373C53.2491 104.373 63.042 72.827 55.136 62.3462Z" fill="#313B6C"/>
<path d="M38.4493 213.883C38.4493 213.883 42.9403 220.05 48.9153 219.908C48.9153 219.908 71.2822 179.665 71.3756 173.262C71.4689 166.86 62.7718 135.029 62.7718 135.029L55.5094 137.417C55.5094 137.417 59.4305 168.865 58.379 172.211C57.3275 175.557 38.4493 213.883 38.4493 213.883Z" fill="#17B092"/>
<path d="M33.6585 187.118C33.6585 187.118 32.2876 195.624 39.6433 197.344C39.6433 197.344 63.9216 173.64 65.0665 171.92C66.2113 170.201 58.2168 142.385 58.2168 142.385C58.2168 142.385 59.8924 140.719 59.5239 138.463C59.1553 136.213 55.6028 127.088 55.6028 127.088L37.4272 134.611C37.4272 134.611 38.0169 145.731 42.3163 145.539C42.3163 145.539 52.6399 166.948 52.2566 168.958C51.8782 170.967 33.6585 187.118 33.6585 187.118Z" fill="#1ABC9C"/>
<path d="M90.4946 82.8659C89.728 85.4308 64.1034 98.2112 64.1034 98.2112L58.2168 87.4257C58.2168 87.4257 70.9481 83.9616 70.9481 83.8682C70.8498 83.7994 63.6317 81.8782 63.6317 81.8782C61.337 76.7582 64.8453 73.5054 64.8453 73.5054C64.8453 73.5054 86.3327 75.6723 87.0059 75.9081C87.6741 76.144 91.2611 80.3059 90.4946 82.8659Z" fill="#7FD0C0"/>
<path d="M64.3343 79.9029C64.1525 80.5122 63.9216 81.1707 63.6366 81.8782C63.3418 81.2198 63.1403 80.5908 63.0224 79.9963C62.4917 77.4314 63.3811 75.4954 64.0936 74.434C64.5014 73.8297 64.8503 73.5054 64.8503 73.5054C64.8503 73.5054 65.0615 74.0655 65.0812 75.1907C65.1107 76.2521 64.9682 77.8245 64.3343 79.9029Z" fill="#4A9E98"/>
<path d="M64.3343 79.9028C63.9658 79.8143 63.4253 79.7553 63.0224 79.9961C63.0027 80.0059 62.988 80.0207 62.9683 80.0305C62.3001 80.4826 59.5288 79.9077 59.5288 79.9077C59.5288 79.9077 60.6393 70.1885 61.1355 70.1885C61.1355 70.1885 61.794 72.3554 62.4622 73.058C62.7276 73.3381 63.3909 73.8786 64.0936 74.429C64.4277 74.6845 64.7716 74.9498 65.0861 75.1857C65.1107 76.2519 64.9682 77.8243 64.3343 79.9028Z" fill="#FEC2AC"/>
<path d="M60.3248 83.2488L60.256 82.4871C60.8751 82.4331 61.3173 82.2513 61.4746 81.9909C61.563 81.8484 61.5581 81.6715 61.4647 81.4553C61.1257 80.6593 59.2143 77.4064 59.1946 77.377L59.8531 76.9888C59.9317 77.1264 61.8136 80.3153 62.1723 81.1605C62.4082 81.7255 62.2804 82.1383 62.133 82.3889C61.8382 82.8753 61.2142 83.1701 60.3248 83.2488Z" fill="#FBA319"/>
<path d="M60.6393 73.4995H61.563C61.563 73.4995 61.9119 75.4748 60.9586 78.31H60.4132C60.4132 78.31 59.7155 74.1383 60.6393 73.4995Z" fill="url(#paint0_linear)"/>
<path d="M67.8722 137.575C67.8722 137.575 47.225 145.54 34.9311 132.283C34.9311 132.283 37.4616 126.357 39.6629 120.834C40.5523 118.593 41.3925 116.412 41.9822 114.726C42.562 113.08 42.901 111.896 42.8322 111.577C42.5128 110.107 33.7666 96.3148 33.7666 96.3148C33.7666 96.3148 33.0492 93.971 34.5331 93.0128C36.017 92.0546 47.2938 85.9912 47.2938 85.9912C47.2938 85.9912 56.8165 87.2344 58.2218 87.426C59.6271 87.6176 65.2188 100.138 65.1205 101.238C65.0271 102.339 64.6488 107.646 61.2977 108.933C61.2977 108.933 61.4549 112.122 61.9463 116.431C61.9463 116.441 61.9512 116.451 61.9512 116.456C62.2755 119.311 62.7521 122.662 63.4253 125.895C63.897 128.194 64.4768 130.435 65.1696 132.401C65.9214 134.543 66.8157 136.356 67.8722 137.575Z" fill="#7FD0C0"/>
<path d="M54.512 85.2531C54.512 85.2531 52.0404 84.8158 51.6571 87.4544C51.6571 87.4544 51.8291 89.2528 51.6129 90.7613C51.4901 91.6507 51.2345 92.4418 50.7284 92.7022C49.1954 93.4884 42.8273 88.3635 42.8273 88.3635L47.6427 76.4282L52.0109 82.0396L54.512 85.2531Z" fill="#FEC2AC"/>
<path d="M54.512 85.253C54.512 85.253 52.0404 84.8157 51.6571 87.4544C51.6571 87.4544 51.8291 89.2527 51.6129 90.7612C51.2689 90.7858 51.0184 90.8055 50.9201 90.8005C50.4287 90.7907 51.1117 87.5723 51.1559 86.4667C51.2051 85.3661 48.3699 82.6734 48.3699 82.6734C48.3699 82.6734 50.5319 82.2754 52.0109 82.0444L54.512 85.253Z" fill="#DB9795"/>
<path d="M60.6098 71.5591C60.6098 71.5591 60.8948 77.485 60.0054 80.384C59.1111 83.2831 57.583 85.7055 56.8852 85.7694C56.1826 85.8333 49.333 83.9513 48.3797 82.6787C47.4216 81.4061 45.8394 74.2027 45.8394 74.2027L58.605 68.5962C58.6001 68.5962 60.5705 70.1243 60.6098 71.5591Z" fill="#FEC2AC"/>
<path d="M59.0178 70.8906C59.0178 70.8906 57.6812 76.6297 47.8048 77.1849L46.6501 78.8998C46.6501 78.8998 38.9799 65.0581 52.4384 62.444C61.7055 60.6456 60.6442 73.4997 60.6442 73.4997C60.6442 73.4997 59.2241 72.5366 59.0178 70.8906Z" fill="#313B6C"/>
<path d="M47.2152 78.3101C47.6378 80.0987 47.6967 81.617 47.3479 81.7005C46.999 81.784 46.37 80.3984 45.9475 78.6098C45.5249 76.8213 45.4659 75.303 45.8148 75.2194C46.1637 75.1359 46.7926 76.5166 47.2152 78.3101Z" fill="#FBA319"/>
<path d="M45.8147 75.2201L45.0687 75.3965L46.6007 81.876L47.3467 81.6997L45.8147 75.2201Z" fill="#FBA319"/>
<path d="M44.326 75.5683C44.326 75.5683 43.8149 71.1755 43.7511 70.5023C43.6872 69.834 43.7069 68.8759 44.7191 68.5909C45.7313 68.3059 59.4944 64.7042 59.8776 64.6403C60.2609 64.5764 61.0864 64.4831 61.1208 66.5517C61.1503 68.6204 61.1208 74.1679 61.1208 74.1679L60.654 74.0745L60.4525 66.5321C60.4525 66.5321 60.5164 65.7262 59.5288 65.9768L45.4463 69.6768C45.4463 69.6768 44.8075 69.8046 44.8714 70.3451L45.2792 75.3472C45.2792 75.3472 44.7731 76.0793 44.326 75.5683Z" fill="url(#paint1_linear)"/>
<path d="M49.6474 90.8013L50.7334 92.7029C50.7334 92.7029 48.2225 93.3023 48.1979 93.204C48.1733 93.1107 49.6474 90.8013 49.6474 90.8013Z" fill="#FBA319"/>
<path d="M50.6351 90.2461L50.7334 92.7078L52.7136 91.4745L50.6351 90.2461Z" fill="#FBA319"/>
<path d="M43.014 87.9116L49.6474 90.8008L47.736 98.2106L41.6824 90.5453L42.8322 88.3637L43.014 87.9116Z" fill="url(#paint2_linear)"/>
<path d="M46.4732 78.483C46.8958 80.2716 46.9548 81.7899 46.6059 81.8735C46.257 81.957 45.6281 80.5713 45.2055 78.7828C44.7829 76.9942 44.724 75.4759 45.0728 75.3924C45.4217 75.3137 46.0507 76.6945 46.4732 78.483Z" fill="url(#paint3_linear)"/>
<path d="M45.3578 78.7481C45.7804 80.5366 45.8394 82.055 45.4905 82.1385C45.1416 82.222 44.5127 80.8364 44.0901 79.0478C43.6675 77.2592 43.6086 75.7409 43.9574 75.6574C44.3063 75.5739 44.9353 76.9595 45.3578 78.7481Z" fill="url(#paint4_linear)"/>
<path d="M51.6866 87.2881L50.6351 90.2461L54.3154 92.9437L51.893 86.5903L51.6866 87.2881Z" fill="url(#paint5_linear)"/>
<path d="M45.0703 75.3953L43.9561 75.6587L45.4881 82.1382L46.6023 81.8748L45.0703 75.3953Z" fill="url(#paint6_linear)"/>
<path d="M58.1972 82.4089L60.0594 82.1485C60.4624 82.0895 60.8309 82.3696 60.8849 82.7725C60.939 83.1754 60.6638 83.5439 60.2609 83.598L58.3986 83.8584C57.9957 83.9125 57.6272 83.6373 57.5731 83.2344C57.5191 82.8364 57.7992 82.4679 58.1972 82.4089Z" fill="#313B6C"/>
<path d="M42.8322 88.3648C42.8322 88.3648 47.5788 96.9833 50.64 100.615C53.7012 104.246 56.615 108.118 56.615 108.118C56.615 108.118 46.4192 104.816 43.3285 101.524C42.8371 100.998 45.7657 96.9833 44.9991 96.1234C44.2326 95.2636 38.4836 94.7132 37.2258 91.4751C37.2208 91.4751 39.599 88.2321 42.8322 88.3648Z" fill="#1ABC9C"/>
<path d="M51.893 86.59C51.893 86.59 56.2268 102.142 56.6101 108.117C56.6101 108.117 58.6787 93.0613 58.2168 92.2014C57.755 91.3415 53.6472 90.9091 53.5489 90.2409C53.4555 89.5726 55.421 87.6366 55.4161 87.0519C55.421 87.0568 53.2 86.1429 51.893 86.59Z" fill="#1ABC9C"/>
<path d="M65.1598 132.405C59.3764 131.275 46.2275 128.582 44.5176 127.093C43.0975 125.86 40.9749 122.828 39.658 120.833C40.5474 118.593 41.3876 116.411 41.9772 114.726C43.4513 116.146 45.6035 118.239 45.6625 118.489C45.7411 118.789 58.0645 123.565 63.4155 125.894C63.8921 128.194 64.4719 130.434 65.1598 132.405Z" fill="#7FD0C0"/>
<path d="M72.9873 122.012C72.9873 122.012 74.8495 121.708 75.5669 121.118C76.2843 120.528 78.3726 117.452 78.8492 117.772C79.3259 118.091 77.9893 120.528 78.353 121.02C78.7215 121.516 81.3503 120.351 82.0185 120.017C82.6868 119.683 83.9299 118.44 84.2985 118.533C84.667 118.627 83.0062 124.061 82.5639 124.729C82.1168 125.398 79.3848 128.026 78.6723 128.218C77.9599 128.41 72.0045 127.167 72.0045 127.167L72.9873 122.012Z" fill="#FEC2AC"/>
<path d="M73.4835 121.58C73.4835 121.58 74.1862 125.786 71.9996 128.242L68.4765 128.174L70.1963 121.58H73.4835Z" fill="url(#paint7_linear)"/>
<path d="M72.0979 121.261C72.0979 121.261 72.4222 125.305 69.646 130.371C69.646 130.371 48.7728 128.513 45.6674 124.907C42.562 121.305 33.3145 105.842 32.2384 102.476C31.1378 99.0364 31.1869 95.0907 33.9582 93.597C36.7295 92.1033 40.1739 97.5033 40.8422 98.7023C41.5105 99.8963 48.8662 114.141 49.8194 115.492C53.5047 120.691 72.0979 121.261 72.0979 121.261Z" fill="#7FD0C0"/>
<path d="M61.9414 116.431C61.5041 113.139 57.0376 110.653 57.0376 110.653L61.2879 108.933C61.2928 108.933 61.45 112.122 61.9414 116.431Z" fill="#7FD0C0"/>
<path d="M85.8632 67.6379L85.8629 67.6381C84.6423 68.3407 83.5247 69.5571 82.7117 70.9651C81.8987 72.3731 81.4037 73.9493 81.4037 75.3569V211.583C81.4037 212.992 81.8968 213.915 82.622 214.334C83.3473 214.753 84.3936 214.718 85.6132 214.015C85.6132 214.015 85.6132 214.015 85.6133 214.015L147.962 178.018L85.8632 67.6379ZM85.8632 67.6379L148.212 31.6357M85.8632 67.6379L148.212 31.6357M148.212 31.6357C148.212 31.6357 148.212 31.6357 148.212 31.6357M148.212 31.6357L148.212 31.6357M148.212 31.6357C149.432 30.9324 150.478 30.8975 151.204 31.3163M148.212 31.6357L151.204 31.3163M151.204 31.3163C151.929 31.735 152.422 32.6585 152.422 34.0676M151.204 31.3163L152.422 34.0676M152.422 34.0676V170.293M152.422 34.0676V170.293M152.422 170.293C152.422 171.701 151.926 173.277 151.112 174.686M152.422 170.293L151.112 174.686M151.112 174.686C150.298 176.095 149.181 177.312 147.962 178.017L151.112 174.686Z" fill="white" stroke="#1ABC9C" stroke-width="0.5"/>
<path d="M165.065 36.2578C172.001 24.2441 172 11.2581 165.063 7.2526C158.126 3.24714 146.879 9.73906 139.942 21.7527C133.006 33.7664 133.007 46.7524 139.944 50.7579C146.882 54.7634 158.129 48.2715 165.065 36.2578Z" fill="url(#paint8_linear)"/>
<path d="M128.923 87.2286C135.561 75.7319 135.562 63.3058 128.925 59.474C122.289 55.6422 111.528 61.8558 104.89 73.3524C98.2522 84.8491 98.2512 97.2752 104.888 101.107C111.525 104.939 122.286 98.7252 128.923 87.2286Z" fill="#7FD0C0"/>
<path d="M121.836 76.0001C124.557 71.2882 124.556 66.1946 121.835 64.6234C119.113 63.0521 114.702 65.5982 111.981 70.3101C109.261 75.022 109.262 80.1155 111.983 81.6868C114.704 83.258 119.116 80.712 121.836 76.0001Z" fill="#F5F6F9"/>
<path d="M105.52 94.8199C105.52 94.8199 109.82 87.9506 116.91 83.8576C124.001 79.7645 127.971 82.3147 127.971 82.3147C127.971 82.3147 124.61 90.8841 116.91 95.3309C109.211 99.7729 105.52 94.8199 105.52 94.8199Z" fill="#F5F6F9"/>
<path d="M133.41 100.265L100.41 119.32C100.135 119.478 99.914 119.35 99.914 119.036C99.914 118.721 100.135 118.333 100.41 118.176L133.41 99.1205C133.685 98.9633 133.907 99.091 133.907 99.4055C133.907 99.72 133.685 100.108 133.41 100.265Z" fill="#7FD0C0"/>
<path d="M141.606 103.311L92.2684 131.795C91.9932 131.952 91.7721 131.825 91.7721 131.51C91.7721 131.196 91.9932 130.808 92.2684 130.65L141.606 102.166C141.881 102.009 142.103 102.136 142.103 102.451C142.103 102.765 141.881 103.149 141.606 103.311Z" fill="#7FD0C0"/>
<path d="M141.606 110.573L92.2684 139.057C91.9932 139.215 91.7721 139.087 91.7721 138.772C91.7721 138.458 91.9932 138.07 92.2684 137.913L141.606 109.428C141.881 109.271 142.103 109.399 142.103 109.713C142.103 110.028 141.881 110.416 141.606 110.573Z" fill="#7FD0C0"/>
<path d="M94.8628 157.759L112.522 147.563C114.227 146.576 115.613 147.377 115.613 149.347C115.613 151.317 114.227 153.715 112.522 154.698L94.8628 164.894C93.1578 165.881 91.7721 165.08 91.7721 163.11C91.7721 161.145 93.1578 158.747 94.8628 157.759Z" fill="#73C6C0"/>
<path d="M121.352 142.468L139.012 132.272C140.717 131.285 142.103 132.086 142.103 134.056C142.103 136.026 140.717 138.424 139.012 139.407L121.352 149.603C119.647 150.59 118.262 149.789 118.262 147.819C118.262 145.849 119.647 143.451 121.352 142.468Z" fill="#58AFA7"/>
<path d="M109.053 179.211C112.017 174.079 112.016 168.531 109.053 166.82C106.09 165.109 101.285 167.883 98.3215 173.015C95.3581 178.148 95.3582 183.696 98.3216 185.407C101.285 187.118 106.09 184.344 109.053 179.211Z" fill="#7FD0C0"/>
<path d="M135.545 163.919C138.508 158.787 138.508 153.239 135.545 151.528C132.581 149.817 127.777 152.591 124.813 157.723C121.85 162.856 121.85 168.404 124.813 170.115C127.777 171.826 132.581 169.052 135.545 163.919Z" fill="#7FD0C0"/>
<path d="M101.413 182.136L98.8674 180.819C98.5333 180.647 98.5234 180.052 98.8379 179.487C99.1524 178.922 99.6782 178.603 100.007 178.775L101.442 179.517C101.757 179.679 102.243 179.404 102.567 178.883L107.604 170.726C107.943 170.176 108.469 169.906 108.773 170.122C109.078 170.338 109.053 170.957 108.714 171.508L102.543 181.507C102.214 182.023 101.727 182.298 101.413 182.136Z" fill="#F5F6F9"/>
<path d="M133.057 163.98L126.005 159.912C125.647 159.705 125.647 159.032 126.005 158.408C126.364 157.784 126.949 157.45 127.308 157.656L134.359 161.725C134.717 161.931 134.717 162.604 134.359 163.228C134 163.852 133.415 164.186 133.057 163.98Z" fill="#58AFA7"/>
<path d="M126.276 167.582C125.917 167.376 125.917 166.702 126.276 166.078L132.781 154.806C133.14 154.182 133.725 153.848 134.083 154.055C134.442 154.261 134.442 154.934 134.083 155.558L127.578 166.83C127.219 167.454 126.634 167.788 126.276 167.582Z" fill="#58AFA7"/>
<path d="M165.065 36.2578C172.001 24.2441 172 11.2581 165.063 7.2526C158.126 3.24714 146.879 9.73906 139.942 21.7527C133.006 33.7664 133.007 46.7524 139.944 50.7579C146.882 54.7634 158.129 48.2715 165.065 36.2578Z" fill="#7FD0C0"/>
<path d="M167.26 20.4819C167.26 20.59 167.26 20.6981 167.26 20.8111C167.192 25.2039 165.708 30.0095 163.32 34.3531C163.084 34.7855 162.833 35.213 162.578 35.6356C160.013 39.8859 156.593 43.5858 152.819 45.8559C152.716 45.9198 152.608 45.9837 152.505 46.0427C152.259 46.1852 152.013 46.3178 151.773 46.4456C148.063 48.3766 144.712 48.5191 142.216 47.1581C141.965 47.0205 141.724 46.8682 141.493 46.7011C139.223 45.0747 137.818 42.0331 137.749 37.8467C137.749 37.7386 137.749 37.6305 137.749 37.5224C137.749 37.2276 137.754 36.9279 137.769 36.633C137.951 32.3778 139.42 27.7737 141.724 23.5971C141.96 23.1647 142.211 22.7373 142.466 22.3147C144.933 18.2462 148.186 14.6838 151.778 12.4039C152.018 12.2515 152.264 12.1041 152.51 11.9616C152.613 11.9027 152.721 11.8437 152.824 11.7848C156.475 9.76525 159.797 9.46551 162.332 10.6153C162.592 10.7332 162.843 10.8659 163.089 11.0133C165.506 12.4874 167.059 15.4503 167.246 19.6122C167.255 19.8972 167.26 20.1871 167.26 20.4819Z" stroke="#313B6C" stroke-width="0.25" stroke-miterlimit="10"/>
<path d="M167.26 20.4819C167.26 20.59 167.26 20.6981 167.26 20.8111C167.192 25.2039 165.708 30.0095 163.32 34.3531C163.084 34.7855 162.833 35.213 162.578 35.6356C160.013 39.8859 156.593 43.5858 152.819 45.8559C152.716 45.9198 152.608 45.9837 152.505 46.0427C152.259 46.1852 152.013 46.3178 151.773 46.4456C148.063 48.3766 144.712 48.5191 142.216 47.1581C141.965 47.0205 141.724 46.8682 141.493 46.7011C139.223 45.0747 137.818 42.0331 137.749 37.8467C137.749 37.7386 137.749 37.6305 137.749 37.5224C137.749 37.2276 137.754 36.9279 137.769 36.633C137.951 32.3778 139.42 27.7737 141.724 23.5971C141.96 23.1647 142.211 22.7373 142.466 22.3147C144.933 18.2462 148.186 14.6838 151.778 12.4039C152.018 12.2515 152.264 12.1041 152.51 11.9616C152.613 11.9027 152.721 11.8437 152.824 11.7848C156.475 9.76525 159.797 9.46551 162.332 10.6153C162.592 10.7332 162.843 10.8659 163.089 11.0133C165.506 12.4874 167.059 15.4503 167.246 19.6122C167.255 19.8972 167.26 20.1871 167.26 20.4819Z" fill="#AFDDDA"/>
<path d="M152.819 11.79V14.4385C152.716 14.4975 152.608 14.5564 152.505 14.6154C152.259 14.7579 152.013 14.9053 151.773 15.0625V12.4092C152.013 12.2568 152.259 12.1094 152.505 11.9669C152.608 11.9031 152.716 11.8441 152.819 11.79Z" fill="#1ABC9C"/>
<path d="M152.505 43.3942C152.608 43.3353 152.716 43.2714 152.819 43.2075V45.856C152.716 45.9199 152.608 45.9837 152.505 46.0427C152.259 46.1852 152.013 46.3179 151.773 46.4456V43.7922C152.013 43.6694 152.259 43.5318 152.505 43.3942Z" fill="#1ABC9C"/>
<path d="M140.063 35.3022C140.049 35.602 140.039 35.9017 140.039 36.1965C140.039 36.3046 140.039 36.4127 140.044 36.5208L137.749 37.8475C137.749 37.7394 137.749 37.6313 137.749 37.5232C137.749 37.2284 137.754 36.9287 137.769 36.6338L140.063 35.3022Z" fill="#1ABC9C"/>
<path d="M167.26 20.4815C167.26 20.5896 167.26 20.6977 167.26 20.8107L164.966 22.1374C164.971 22.0244 164.971 21.9163 164.971 21.8082C164.971 21.5134 164.961 21.2235 164.946 20.9434L167.246 19.6167C167.255 19.8968 167.26 20.1867 167.26 20.4815Z" fill="#1ABC9C"/>
<path d="M142.461 22.3145L144.083 23.253C143.827 23.6706 143.577 24.0981 143.341 24.5354L141.719 23.5969C141.96 23.1645 142.211 22.737 142.461 22.3145Z" fill="#1ABC9C"/>
<path d="M163.315 34.3526C163.079 34.785 162.828 35.2125 162.573 35.635L160.951 34.6965C161.207 34.274 161.457 33.8465 161.688 33.4141L163.315 34.3526Z" fill="#1ABC9C"/>
<path d="M152.293 29.1201C152.121 29.2184 151.979 29.1398 151.979 28.9383V17.6369C151.979 17.4355 152.121 17.1947 152.293 17.0915C152.465 16.9932 152.608 17.0718 152.608 17.2733V28.5747C152.608 28.7811 152.47 29.0218 152.293 29.1201Z" fill="#1ABC9C"/>
<path d="M158.706 25.784L152.613 29.3022C152.441 29.4005 152.298 29.3218 152.298 29.1204C152.298 28.9189 152.441 28.6782 152.613 28.5799L158.706 25.0617C158.878 24.9634 159.02 25.0421 159.02 25.2435C159.02 25.4401 158.878 25.6858 158.706 25.784Z" fill="#1ABC9C"/>
<path d="M143.12 43.8857C143.351 44.0577 143.591 44.21 143.842 44.3476L142.221 47.1582C141.97 47.0206 141.729 46.8683 141.498 46.7013L143.12 43.8857Z" fill="#1ABC9C"/>
<path d="M163.084 11.0127L161.462 13.8233C161.222 13.6759 160.966 13.5432 160.706 13.4302L162.327 10.6196C162.588 10.7326 162.838 10.8653 163.084 11.0127Z" fill="#1ABC9C"/>
<path d="M153.62 28.3587C153.62 29.2038 153.026 30.2308 152.298 30.6533C151.566 31.0759 150.977 30.732 150.977 29.8868C150.977 29.0417 151.571 28.0147 152.298 27.5921C153.026 27.1745 153.62 27.5135 153.62 28.3587Z" fill="url(#paint9_linear)"/>
<path d="M153.06 28.6827C153.06 29.1691 152.716 29.7587 152.298 30.0044C151.876 30.2452 151.537 30.0486 151.537 29.5622C151.537 29.0757 151.881 28.4861 152.298 28.2404C152.716 27.9997 153.06 28.1962 153.06 28.6827Z" fill="#1ABC9C"/>
<path d="M101.84 212.959C101.84 212.959 99.2261 213.086 96.2976 212.128C93.3641 211.17 90.4995 209.008 89.9246 209.067C89.3497 209.131 89.7968 214.418 92.5386 218.182C95.2805 221.941 100.872 226.211 101.516 226.019C102.16 225.828 106.174 217.548 106.174 217.548L101.84 212.959Z" fill="#313B6C"/>
<path d="M144.599 135.917C144.599 135.917 145.906 130.311 150.972 127.825C150.972 127.825 161.133 142.738 163.59 144.231C166.042 145.73 170.474 144.998 170.474 144.998L172.13 154.299L164.627 155.066C164.627 155.066 160.563 154.909 158.716 153.346C156.868 151.784 144.599 135.917 144.599 135.917Z" fill="#7FD0C0"/>
<path d="M177.987 143.726L171.56 148.178L170.661 148.802L170.626 148.826C170.626 148.821 170.626 148.821 170.626 148.816C169.894 144.654 167.776 145.224 167.776 145.224C167.776 145.224 167.786 142.802 167.904 141.701C167.934 141.421 167.968 141.23 168.017 141.176C168.238 140.925 173.004 136.527 173.004 136.527L177.987 143.726Z" fill="#FEC2AC"/>
<path d="M171.619 148.281C171.619 148.281 171.196 148.571 170.661 148.797C170.651 148.802 170.636 148.807 170.626 148.812C169.894 144.65 167.776 145.22 167.776 145.22C167.776 145.22 167.786 142.797 167.904 141.697C169.015 141.284 170.002 140.925 170.056 140.911C170.012 141.043 169.113 143.815 169.668 144.778C170.174 145.642 171.29 147.691 171.555 148.178C171.599 148.242 171.619 148.281 171.619 148.281Z" fill="#DB9795"/>
<path d="M166.229 130.533C166.229 130.533 165.496 136.139 165.207 137.829C165.207 137.829 164.504 138.306 164.632 138.91C164.759 139.515 165.423 139.869 165.423 139.869C165.423 139.869 166.386 144.487 166.735 145.062C167.084 145.637 167.609 145.382 167.767 145.224C167.924 145.067 169.761 140.92 169.761 140.92L175.368 140.635L175.496 132.031C175.501 132.031 166.523 128.336 166.229 130.533Z" fill="#FEC2AC"/>
<path d="M170.061 136.267C170.061 136.267 170.616 134.739 172.002 134.857C173.388 134.975 173.27 140.233 170.449 139.948C170.449 139.948 171.594 140.591 171.358 142.409C171.118 144.227 172.769 145.466 174.272 145.087C175.776 144.704 178.621 143.078 178.621 143.078C178.621 143.078 185.77 133.614 180.817 129.241C177.137 125.993 174.031 126.519 171.879 123.556C169.727 120.593 164.519 120.544 162.322 123.556C160.126 126.568 160.602 132.494 165.378 132.877C170.164 133.26 170.061 136.267 170.061 136.267Z" fill="#313B6C"/>
<path d="M168.97 152.35C168.97 152.35 168.71 149.362 169.187 148.935C169.663 148.502 175.962 142.994 177.55 142.675C179.137 142.355 179.201 143.967 179.318 146.856L168.97 152.35Z" fill="url(#paint10_linear)"/>
<path d="M144.5 131.201C144.407 131.138 138.127 128.111 138.575 126.612C139.022 125.113 139.243 124.73 139.243 124.73C139.243 124.73 135.037 118.549 135.612 117.561C136.187 116.574 138.609 120.745 139.597 120.971C140.584 121.192 143.645 119.984 144.692 120.495C145.744 121.006 148.898 126.769 148.898 126.769L144.5 131.201Z" fill="#FEC2AC"/>
<path d="M143.513 131.392C143.513 131.392 145.237 127.102 148.372 125.839L150.967 128.616L145.935 133.495L143.513 131.392Z" fill="url(#paint11_linear)"/>
<path d="M139.022 161.312C139.022 161.312 138.098 157.391 138.191 156.119C138.285 154.846 138.575 152.679 139.243 152.296C139.911 151.912 145.518 150.163 146.063 150.542C146.603 150.925 147.37 152.07 147.178 152.708C146.987 153.347 146.54 153.996 146.54 153.996C146.54 153.996 147.395 154.62 147.208 155.48C147.016 156.34 143.867 157.868 143.832 159.971L139.022 161.312Z" fill="#FEC2AC"/>
<path d="M138.86 165.169L138.349 160.82C138.349 160.82 141.12 158.191 144.594 159.434L145.262 162.589L138.86 165.169Z" fill="url(#paint12_linear)"/>
<path d="M183.146 193.781C180.203 206.119 171.869 201.746 171.869 201.746C171.869 201.746 161.61 196.587 158.042 203.338C154.48 210.089 156.706 224.491 156.706 224.491C151.861 232.456 144.982 228.186 144.982 228.186C144.982 228.186 143.071 187.211 148.805 184.981C150.775 184.214 157.025 184.533 157.025 184.533C157.025 184.533 187.814 174.215 183.146 193.781Z" fill="#17B092"/>
<path d="M156.706 224.491C156.416 224.968 156.121 225.4 155.816 225.794C153.05 229.385 149.837 229.607 147.635 229.164C146.048 228.85 144.982 228.191 144.982 228.191C144.982 228.191 146.122 226.786 147.955 225.548C149.733 224.349 152.166 223.297 154.844 223.853C155.453 223.976 156.077 224.182 156.706 224.491Z" fill="#07514D"/>
<path d="M158.042 231.439C158.234 233.542 148.544 240.869 147.144 240.996C145.739 241.124 140.452 237.807 140.452 236.726C140.452 235.645 143.188 235.837 145.675 233.926C146.751 233.1 147.321 231.135 147.63 229.164C147.837 227.843 147.92 226.521 147.95 225.543C149.729 224.344 152.161 223.293 154.839 223.848C155.134 224.423 155.468 225.091 155.812 225.789C156.858 227.931 157.949 230.368 158.042 231.439Z" fill="#313B6C"/>
<path d="M157.738 187.217L155.586 191.182C155.586 191.182 134.653 190.307 130.639 191.182C126.625 192.057 101.516 211.942 101.516 211.942C101.516 211.942 101.069 219.46 107.25 220.738C107.25 220.738 129.617 204.871 133.184 203.977C136.752 203.083 162.686 204.999 165.811 204.935C168.931 204.871 176.518 203.304 177.378 195.865C183.274 144.841 157.738 187.217 157.738 187.217Z" fill="#1ABC9C"/>
<path d="M187.991 191.325C187.991 191.325 185.608 193.487 181.539 194.882C182.512 189.62 181.117 184.981 181.117 184.981C181.559 193.639 179.26 195.516 179.255 195.531C174.631 196.558 168.459 196.322 161.408 191.914C161.408 191.914 161.403 191.909 161.398 191.909C159.163 190.509 156.834 188.691 154.441 186.357C154.441 186.357 160.75 175.459 163.079 164.383C163.516 162.31 163.811 160.236 163.904 158.222C163.904 158.222 163.841 154.143 165.688 152.93C167.536 151.721 178.744 146.493 180.439 145.751C182.134 145.009 184.424 149.102 185.569 155.288C186.718 161.474 189.234 183.203 187.991 191.325Z" fill="#7FD0C0"/>
<path d="M170.788 165.164C168.621 170.264 156.067 181.413 157.595 185.619C159.079 189.693 161.266 191.776 161.398 191.904C159.163 190.503 156.834 188.685 154.441 186.351C154.441 186.351 160.75 175.453 163.079 164.378L169.87 157.051C169.87 157.056 172.955 160.068 170.788 165.164Z" fill="#7FD0C0"/>
<path d="M137.749 165.169C137.749 165.169 139.759 161.12 145.842 161.312C145.842 161.312 148.549 167.208 149.537 167.842C150.525 168.481 164.956 153.533 165.324 153.234C165.693 152.934 174.469 157.027 168.258 165.169C162.047 173.311 148.235 182.676 146.176 182.008C144.117 181.335 137.749 165.169 137.749 165.169Z" fill="#7FD0C0"/>
<defs>
<linearGradient id="paint0_linear" x1="59.7431" y1="74.3085" x2="62.4737" y2="74.6189" gradientUnits="userSpaceOnUse">
<stop offset="0.0163255" stop-color="#778BEB"/>
<stop offset="1" stop-color="#313B6C"/>
</linearGradient>
<linearGradient id="paint1_linear" x1="38.7685" y1="66.4882" x2="63.2854" y2="80.7945" gradientUnits="userSpaceOnUse">
<stop offset="0.0163255" stop-color="#778BEB"/>
<stop offset="1" stop-color="#313B6C"/>
</linearGradient>
<linearGradient id="paint2_linear" x1="39.4118" y1="89.6437" x2="53.2955" y2="93.6519" gradientUnits="userSpaceOnUse">
<stop offset="0.0163255" stop-color="#778BEB"/>
<stop offset="1" stop-color="#313B6C"/>
</linearGradient>
<linearGradient id="paint3_linear" x1="44.2787" y1="76.4803" x2="47.9841" y2="76.9041" gradientUnits="userSpaceOnUse">
<stop offset="0.0163255" stop-color="#778BEB"/>
<stop offset="1" stop-color="#313B6C"/>
</linearGradient>
<linearGradient id="paint4_linear" x1="43.1633" y1="76.745" x2="46.8687" y2="77.1688" gradientUnits="userSpaceOnUse">
<stop offset="0.0163255" stop-color="#778BEB"/>
<stop offset="1" stop-color="#313B6C"/>
</linearGradient>
<linearGradient id="paint5_linear" x1="49.5859" y1="87.6589" x2="56.2252" y2="89.0945" gradientUnits="userSpaceOnUse">
<stop offset="0.0163255" stop-color="#778BEB"/>
<stop offset="1" stop-color="#313B6C"/>
</linearGradient>
<linearGradient id="paint6_linear" x1="43.8962" y1="76.8235" x2="46.0233" y2="76.4626" gradientUnits="userSpaceOnUse">
<stop offset="0.0163255" stop-color="#778BEB"/>
<stop offset="1" stop-color="#313B6C"/>
</linearGradient>
<linearGradient id="paint7_linear" x1="67.0185" y1="122.7" x2="75.9438" y2="125.258" gradientUnits="userSpaceOnUse">
<stop offset="0.0163255" stop-color="#778BEB"/>
<stop offset="1" stop-color="#313B6C"/>
</linearGradient>
<linearGradient id="paint8_linear" x1="124.448" y1="58.3471" x2="195.356" y2="22.0317" gradientUnits="userSpaceOnUse">
<stop offset="0.0163255" stop-color="#778BEB"/>
<stop offset="1" stop-color="#313B6C"/>
</linearGradient>
<linearGradient id="paint9_linear" x1="150.223" y1="27.9888" x2="154.831" y2="29.3184" gradientUnits="userSpaceOnUse">
<stop offset="0.0163255" stop-color="#778BEB"/>
<stop offset="1" stop-color="#313B6C"/>
</linearGradient>
<linearGradient id="paint10_linear" x1="165.929" y1="144.269" x2="182.886" y2="151.058" gradientUnits="userSpaceOnUse">
<stop offset="0.0163255" stop-color="#778BEB"/>
<stop offset="1" stop-color="#313B6C"/>
</linearGradient>
<linearGradient id="paint11_linear" x1="141.388" y1="127.127" x2="153.821" y2="131.646" gradientUnits="userSpaceOnUse">
<stop offset="0.0163255" stop-color="#778BEB"/>
<stop offset="1" stop-color="#313B6C"/>
</linearGradient>
<linearGradient id="paint12_linear" x1="136.378" y1="160.121" x2="147.433" y2="164.823" gradientUnits="userSpaceOnUse">
<stop offset="0.0163255" stop-color="#778BEB"/>
<stop offset="1" stop-color="#313B6C"/>
</linearGradient>
</defs>
</svg>
