<svg width="36" height="36" viewBox="0 0 36 36" fill="none" xmlns="http://www.w3.org/2000/svg">
<path fill-rule="evenodd" clip-rule="evenodd" d="M2.25 14.8746C2.25 12.0444 4.54437 9.75 7.37461 9.75C8.83041 9.75 10.1613 8.92749 10.8123 7.62539L11.55 6.15C11.9085 5.433 12.0877 5.07451 12.3314 4.79174C12.734 4.32444 13.2709 3.99262 13.869 3.84146C14.2308 3.75 14.6317 3.75 15.4333 3.75H20.5667C21.3683 3.75 21.7692 3.75 22.131 3.84146C22.7291 3.99262 23.266 4.32444 23.6686 4.79174C23.9123 5.07451 24.0915 5.43301 24.45 6.15L25.1877 7.62539C25.8387 8.92749 27.1696 9.75 28.6254 9.75C31.4556 9.75 33.75 12.0444 33.75 14.8746V22.65C33.75 26.0103 33.75 27.6905 33.096 28.9739C32.5208 30.1029 31.6029 31.0208 30.4739 31.596C29.1905 32.25 27.5103 32.25 24.15 32.25H11.85C8.48969 32.25 6.80953 32.25 5.52606 31.596C4.39708 31.0208 3.4792 30.1029 2.90396 28.9739C2.25 27.6905 2.25 26.0103 2.25 22.65V14.8746ZM23.9999 21.0001C23.9999 24.3138 21.3136 27.0001 17.9999 27.0001C14.6862 27.0001 11.9999 24.3138 11.9999 21.0001C11.9999 17.6864 14.6862 15.0001 17.9999 15.0001C21.3136 15.0001 23.9999 17.6864 23.9999 21.0001ZM28.5001 17.2501C29.7427 17.2501 30.7501 16.2427 30.7501 15.0001C30.7501 13.7575 29.7427 12.7501 28.5001 12.7501C27.2575 12.7501 26.2501 13.7575 26.2501 15.0001C26.2501 16.2427 27.2575 17.2501 28.5001 17.2501Z" fill="#66676C"/>
</svg>
