<svg width="24" height="24" viewBox="0 0 24 24" fill="none" xmlns="http://www.w3.org/2000/svg">
<path fill-rule="evenodd" clip-rule="evenodd" d="M21.8182 11.6899C20.8523 16.1296 16.1524 19.4983 10.5 19.4983C9.68464 19.4983 8.88909 19.4282 8.1217 19.2949C9.67929 20.6459 11.9595 21.4982 14.5 21.4982C15.8976 21.4982 17.2165 21.2403 18.3796 20.7832C18.9455 20.5608 20.8344 21.1848 22.0146 21.6189C22.4108 21.7646 22.8201 21.3896 22.7114 20.9816C22.4075 19.8412 22.0071 18.0906 22.2727 17.633C22.7402 16.8277 23 15.9362 23 14.9982C23 13.7902 22.569 12.6591 21.8182 11.6899Z" fill="#66676C"/>
<path d="M20 10C20 14.1421 15.7467 17.5 10.5 17.5C9.07102 17.5 7.71574 17.2509 6.5 16.8048C5.85423 16.5678 3.42216 17.2467 2.0178 17.6764C1.61212 17.8006 1.22655 17.397 1.36365 16.9955C1.77292 15.797 2.33908 13.8878 2 13.3531C1.3601 12.3441 1 11.2052 1 10C1 5.85786 5.25329 2.5 10.5 2.5C15.7467 2.5 20 5.85786 20 10Z" fill="#66676C"/>
</svg>
