<svg width="57" height="44" viewBox="0 0 57 44" fill="none" xmlns="http://www.w3.org/2000/svg">
<path d="M25.9115 3.94231V1H39.7077V3.94231" fill="white"/>
<path d="M25.9115 3.94231V1H39.7077V3.94231" stroke="#313B6C" stroke-width="1.5" stroke-miterlimit="10" stroke-linecap="round" stroke-linejoin="round"/>
<path d="M22.9038 17.0193V4.59619H42.7154V26.827" fill="white"/>
<path d="M22.9038 17.0193V4.59619H42.7154V26.827" stroke="#313B6C" stroke-width="1.5" stroke-miterlimit="10" stroke-linecap="round" stroke-linejoin="round"/>
<path d="M53.5038 30.6193C54.1577 29.1809 53.7 27.5462 52.4577 26.6309C53.3077 25.5193 53.1115 23.9501 52 23.1001C50.8885 22.2501 49.3192 22.4462 48.4692 23.5578C47.8154 24.4732 47.8154 25.7155 48.4692 26.5655C47.2269 27.4809 46.7692 29.1809 47.4231 30.5539C45.8538 32.2539 45.9192 34.8693 47.6192 36.4385C49.3192 38.0078 51.9346 37.9424 53.5038 36.2424C55.0077 34.6732 55.0077 32.1885 53.5038 30.6193Z" fill="#00AC8A" stroke="#313B6C" stroke-width="1.5" stroke-miterlimit="10"/>
<path d="M50.4308 38.2693V42.6501" stroke="#313B6C" stroke-width="1.5" stroke-miterlimit="10" stroke-linecap="round" stroke-linejoin="round"/>
<path d="M19.7654 21.4653H6.88462V40.8846H19.7654V21.4653Z" fill="white" stroke="#313B6C" stroke-width="1.5" stroke-miterlimit="10" stroke-linecap="round" stroke-linejoin="round"/>
<path d="M27.2846 16.5615H14.4038V40.5577H27.2846V16.5615Z" fill="white" stroke="#313B6C" stroke-width="1.5" stroke-miterlimit="10" stroke-linecap="round" stroke-linejoin="round"/>
<path d="M38.0731 42.65C38.1385 42.3231 38.2038 41.9962 38.2038 41.6692C38.2038 38.9885 36.0462 36.8308 33.3654 36.8308C33.1692 36.8308 32.9731 36.8308 32.7769 36.8962C32.2538 34.8038 30.3577 33.2346 28.0692 33.2346C25.7154 33.2346 23.7538 34.8692 23.3615 37.0923C22.9038 36.9615 22.3808 36.8308 21.8577 36.8308C21.2038 36.8308 20.6154 36.9615 20.0923 37.1577C19.5692 35.0654 17.6731 33.5615 15.45 33.5615C12.7692 33.5615 10.6115 35.7192 10.6115 38.4C10.6115 38.5308 10.6115 38.6615 10.6115 38.7923C10.2846 38.7269 9.95769 38.7269 9.56538 38.7269C7.21154 38.7269 5.25 40.4269 4.7923 42.65H38.0731Z" fill="#00AC8A" stroke="#313B6C" stroke-width="1.5" stroke-miterlimit="10"/>
<path d="M38.3346 30.1616V42.6501" stroke="#313B6C" stroke-width="1.5" stroke-miterlimit="10" stroke-linecap="round" stroke-linejoin="round"/>
<path d="M38.3346 33.8884C41.6929 33.8884 44.4154 30.3755 44.4154 26.0422C44.4154 21.7089 41.6929 18.196 38.3346 18.196C34.9763 18.196 32.2538 21.7089 32.2538 26.0422C32.2538 30.3755 34.9763 33.8884 38.3346 33.8884Z" fill="#00AC8A" stroke="#313B6C" stroke-width="1.5" stroke-miterlimit="10"/>
<path d="M26.3038 8.97681H38.9885" stroke="#313B6C" stroke-width="1.5" stroke-miterlimit="10" stroke-linecap="round" stroke-linejoin="round"/>
<path d="M26.3038 12.6384H38.9885" stroke="#313B6C" stroke-width="1.5" stroke-miterlimit="10" stroke-linecap="round" stroke-linejoin="round"/>
<path d="M17.2154 20.0269H19.3077" stroke="#313B6C" stroke-width="1.5" stroke-miterlimit="10" stroke-linecap="round" stroke-linejoin="round"/>
<path d="M17.2154 23.4922H19.3077" stroke="#313B6C" stroke-width="1.5" stroke-miterlimit="10" stroke-linecap="round" stroke-linejoin="round"/>
<path d="M17.2154 27.0229H19.3077" stroke="#313B6C" stroke-width="1.5" stroke-miterlimit="10" stroke-linecap="round" stroke-linejoin="round"/>
<path d="M17.2154 30.4883H19.3077" stroke="#313B6C" stroke-width="1.5" stroke-miterlimit="10" stroke-linecap="round" stroke-linejoin="round"/>
<path d="M22.4462 20.0269H24.4731" stroke="#313B6C" stroke-width="1.5" stroke-miterlimit="10" stroke-linecap="round" stroke-linejoin="round"/>
<path d="M22.4462 23.4922H24.4731" stroke="#313B6C" stroke-width="1.5" stroke-miterlimit="10" stroke-linecap="round" stroke-linejoin="round"/>
<path d="M22.4462 27.0229H24.4731" stroke="#313B6C" stroke-width="1.5" stroke-miterlimit="10" stroke-linecap="round" stroke-linejoin="round"/>
<path d="M22.4462 30.4883H24.4731" stroke="#313B6C" stroke-width="1.5" stroke-miterlimit="10" stroke-linecap="round" stroke-linejoin="round"/>
<path d="M9.56538 24.9307H11.5923" stroke="#313B6C" stroke-width="1.5" stroke-miterlimit="10" stroke-linecap="round" stroke-linejoin="round"/>
<path d="M9.56538 28.4614H11.5923" stroke="#313B6C" stroke-width="1.5" stroke-miterlimit="10" stroke-linecap="round" stroke-linejoin="round"/>
<path d="M9.56538 31.927H11.5923" stroke="#313B6C" stroke-width="1.5" stroke-miterlimit="10" stroke-linecap="round" stroke-linejoin="round"/>
<path d="M42.9115 9.89233H49.6462V21.8577" fill="white"/>
<path d="M42.9115 9.89233H49.6462V21.8577" stroke="#313B6C" stroke-width="1.5" stroke-miterlimit="10" stroke-linecap="round" stroke-linejoin="round"/>
<path d="M1 42.6499H55.3346" stroke="#313B6C" stroke-width="1.5" stroke-miterlimit="10" stroke-linecap="round" stroke-linejoin="round"/>
</svg>
