<svg width="18" height="18" viewBox="0 0 18 18" fill="none" xmlns="http://www.w3.org/2000/svg">
<path d="M1.45234 7.64517C1.45234 8.00976 1.59734 8.34951 1.84728 8.60007C1.56395 8.91007 1.41958 9.32565 1.45902 9.75818C1.53 10.5293 2.22464 11.1335 3.0412 11.1335L6.78857 11.1335C6.60293 11.6971 6.30568 12.7302 6.30568 13.5602C6.30568 14.876 7.42375 15.9868 8.12568 15.9868C8.7554 15.9868 9.20616 15.6319 9.22496 15.6174C9.29716 15.5597 9.33902 15.4724 9.33902 15.3802C9.33902 15.3802 9.2254 14.1183 9.33902 13.323C9.56928 11.7112 11.0868 9.53796 11.0868 9.53796L11.159 9.50097L11.159 9.61685C11.159 9.78429 11.2949 9.92019 11.4624 9.92019L14.4957 9.92019C15.3322 9.92016 16.0123 9.24008 16.0123 8.40351L16.0123 3.55017C16.0123 2.71356 15.3322 2.03351 14.4957 2.03351L12.6757 2.03351C12.0199 2.03351 11.4593 2.45211 11.2482 3.03633C10.7434 2.77667 10.064 2.64017 9.64233 2.64017L4.07373 2.64017C3.41307 2.64017 2.83491 3.08547 2.69904 3.69941C2.62928 4.01609 2.66992 4.33459 2.80824 4.61123C2.36052 4.83631 2.05899 5.29919 2.05899 5.82517C2.05899 6.03993 2.10813 6.24559 2.20095 6.43123C1.75323 6.65691 1.45234 7.11919 1.45234 7.64517ZM2.7318 6.89655C2.84887 6.88259 2.94778 6.80313 2.98537 6.69089C3.02237 6.57865 2.99143 6.45551 2.90529 6.37421C2.75119 6.22921 2.66565 6.03387 2.66565 5.82517C2.66565 5.44237 2.95503 5.12083 3.33783 5.07655C3.4549 5.06259 3.55381 4.98313 3.5914 4.87089C3.6284 4.75865 3.59746 4.63551 3.51132 4.55421C3.31172 4.36615 3.23164 4.10225 3.2917 3.83045C3.36632 3.49193 3.69514 3.24683 4.0737 3.24683L9.64233 3.24683C10.135 3.24683 10.9612 3.47796 11.2476 3.76493C11.3343 3.85107 11.4654 3.87654 11.5782 3.83045C11.6917 3.78372 11.7657 3.67271 11.7657 3.55017C11.7657 3.04845 12.174 2.64017 12.6757 2.64017L14.4957 2.64017C14.9974 2.64017 15.4057 3.04844 15.4057 3.55017L15.4057 8.40351C15.4057 8.90523 14.9974 9.31351 14.4957 9.31351L11.7657 9.31351L11.7657 9.01016C11.7657 8.9052 11.7111 8.80755 11.6213 8.75172C11.5327 8.69835 11.4211 8.69289 11.3265 8.73898L10.7198 9.04233C10.6585 9.07267 10.6094 9.12363 10.5803 9.18611L8.76026 13.1294C8.76026 13.1294 8.73236 13.2132 8.73236 13.2568L8.73236 15.2158C8.60616 15.2855 8.38713 15.3802 8.12568 15.3802C7.79321 15.3802 6.91233 14.5539 6.91233 13.5602C6.91233 12.4924 7.49351 10.9533 7.49897 10.9381C7.53415 10.8453 7.52203 10.7404 7.46561 10.6579C7.4086 10.576 7.31515 10.5268 7.21568 10.5268L3.0412 10.5268C2.53524 10.5268 2.10572 10.1646 2.06326 9.70236C2.0311 9.35656 2.19734 9.02774 2.4952 8.84392C2.58802 8.7869 2.64321 8.68376 2.63898 8.57396C2.63474 8.46417 2.57164 8.36589 2.47458 8.31552C2.21796 8.18508 2.05902 7.92786 2.05902 7.64517C2.05899 7.26237 2.34837 6.94083 2.7318 6.89655Z" fill="#100F0F" stroke="#100F0F" stroke-width="0.606666"/>
<path d="M11.463 9.01025C11.6305 9.01025 11.7664 8.87435 11.7664 8.70691L11.7664 3.24691C11.7664 3.07947 11.6305 2.94356 11.463 2.94356C11.2956 2.94356 11.1597 3.07947 11.1597 3.24691L11.1597 8.70691C11.1597 8.87435 11.2956 9.01025 11.463 9.01025Z" fill="#100F0F" stroke="#100F0F" stroke-width="0.606666"/>
</svg>
