<svg width="273" height="145" viewBox="0 0 273 145" fill="none" xmlns="http://www.w3.org/2000/svg">
<path d="M137.307 135.791L136.436 135.621C136.912 133.136 136.403 130.562 135.016 128.445C133.628 126.328 131.472 124.833 129.003 124.276C126.533 123.719 123.944 124.144 121.781 125.46C119.619 126.777 118.054 128.882 117.416 131.331L117.329 131.678H116.975H116.675C114.804 131.677 112.973 132.225 111.41 133.254L110.736 133.699V132.911C110.686 130.163 109.563 127.545 107.605 125.615C105.648 123.686 103.013 122.6 100.264 122.589C98.6685 122.565 97.0892 122.911 95.649 123.597L95.3179 123.759L95.0972 123.463C93.4359 121.234 91.0146 119.691 88.2918 119.126C85.5689 118.561 82.7334 119.014 80.3219 120.398L79.8765 120.654L79.6873 120.174C78.4291 116.953 76.1244 114.248 73.1434 112.494C70.1624 110.74 66.6781 110.038 63.2502 110.502C59.8224 110.966 56.6498 112.568 54.2423 115.05C51.8347 117.533 50.3318 120.753 49.975 124.192L49.9199 124.744L49.3918 124.563C47.6547 123.974 45.7976 123.831 43.9907 124.146C42.1839 124.461 40.4851 125.225 39.0502 126.367L38.6561 126.686L38.396 126.245C37.4665 124.644 36.1204 123.325 34.5008 122.427C32.8812 121.53 31.0487 121.088 29.198 121.149C27.3473 121.21 25.5476 121.77 23.9902 122.772C22.4329 123.773 21.1761 125.178 20.3534 126.836L20.2233 127.1H19.9317C19.7149 127.1 19.4982 127.08 19.2775 127.08C17.393 127.075 15.5389 127.555 13.8935 128.473C12.2481 129.392 10.8666 130.718 9.88178 132.324L9.3379 133.214L9.0896 132.182C8.3236 129.054 6.56677 126.257 4.08101 124.208C1.59525 122.159 -1.48633 120.968 -4.7044 120.812H-4.96451L-5.08275 120.58C-6.84683 117.043 -9.70228 114.168 -13.2271 112.378C-16.7519 110.589 -20.7591 109.981 -24.6564 110.643C-28.5537 111.306 -32.1344 113.204 -34.8693 116.058C-37.6043 118.911 -39.3483 122.568 -39.8437 126.489L-39.9107 127.025L-40.423 126.852C-41.7454 126.411 -43.1579 126.311 -44.5293 126.561C-45.9007 126.811 -47.1866 127.404 -48.2677 128.284C-49.3488 129.164 -50.19 130.302 -50.7133 131.594C-51.2366 132.886 -51.4251 134.289 -51.2612 135.673L-52.14 135.779C-52.1844 135.417 -52.2068 135.052 -52.207 134.688C-52.208 133.281 -51.8843 131.893 -51.2612 130.631C-50.6382 129.37 -49.7324 128.269 -48.6145 127.415C-47.4965 126.56 -46.1965 125.975 -44.8154 125.704C-43.4344 125.434 -42.0095 125.485 -40.6516 125.855C-40.0332 121.824 -38.1538 118.092 -35.2829 115.195C-32.412 112.298 -28.697 110.384 -24.6707 109.728C-20.6444 109.072 -16.5137 109.707 -12.8709 111.543C-9.22802 113.378 -6.26022 116.32 -4.39305 119.945C-1.1954 120.152 1.86447 121.323 4.38273 123.303C6.901 125.284 8.75927 127.981 9.71231 131.039C10.8171 129.531 12.2632 128.305 13.9324 127.463C15.6017 126.62 17.4468 126.183 19.3169 126.19H19.7386C20.6538 124.486 21.997 123.049 23.636 122.022C25.2749 120.994 27.1533 120.411 29.0863 120.329C31.0192 120.247 32.9403 120.669 34.6603 121.555C36.3804 122.44 37.8403 123.758 38.8965 125.378C40.354 124.317 42.0346 123.602 43.8104 123.288C45.5861 122.974 47.4101 123.069 49.1435 123.566C49.6284 120.031 51.2595 116.753 53.7868 114.234C56.3141 111.715 59.5982 110.094 63.1355 109.62C66.6727 109.145 70.2681 109.844 73.3703 111.608C76.4724 113.372 78.9103 116.104 80.31 119.386C82.8361 118.072 85.7412 117.678 88.526 118.273C91.3109 118.867 93.8016 120.413 95.5702 122.644C97.0293 121.986 98.6122 121.648 100.213 121.651C103.062 121.667 105.802 122.746 107.897 124.677C109.991 126.607 111.289 129.25 111.536 132.087C113.089 131.221 114.837 130.766 116.616 130.764C117.283 128.021 119.012 125.655 121.424 124.187C123.836 122.719 126.732 122.269 129.476 122.935C132.22 123.602 134.586 125.331 136.055 127.742C137.523 130.153 137.974 133.048 137.307 135.791Z" fill="#313B6B"/>
<path d="M272.342 134.122C271.482 133.119 270.415 132.313 269.215 131.761C268.014 131.209 266.708 130.923 265.386 130.923C263.935 130.921 262.505 131.267 261.216 131.932L260.751 132.172L260.594 131.672C259.845 129.302 258.438 127.194 256.535 125.595C254.633 123.996 252.314 122.971 249.85 122.64C247.386 122.31 244.879 122.687 242.622 123.728C240.365 124.77 238.451 126.432 237.104 128.52L236.671 129.19L236.332 128.469C235.243 126.18 233.53 124.246 231.389 122.889C229.248 121.531 226.768 120.807 224.233 120.798C223.738 120.798 223.243 120.824 222.751 120.877L222.494 120.905L222.345 120.696C221.477 119.494 220.327 118.524 218.995 117.874C217.663 117.223 216.19 116.911 214.709 116.965C213.227 117.02 211.782 117.439 210.502 118.186C209.221 118.933 208.145 119.985 207.368 121.247L206.809 122.15L206.56 121.117C206.122 119.307 205.273 117.621 204.08 116.19C202.886 114.759 201.38 113.62 199.678 112.863C197.975 112.105 196.121 111.748 194.259 111.819C192.397 111.89 190.575 112.388 188.936 113.273L188.482 113.518L188.309 113.029C187.557 110.935 186.035 109.206 184.053 108.193C182.071 107.18 179.777 106.96 177.638 107.577C175.5 108.194 173.676 109.602 172.539 111.515C171.402 113.428 171.036 115.702 171.516 117.875L171.591 118.214L171.279 118.368C170.752 118.63 170.242 118.928 169.754 119.258L169.399 119.498L169.147 119.155C168.199 117.884 166.833 116.988 165.288 116.626C163.744 116.264 162.121 116.459 160.707 117.177C159.293 117.895 158.177 119.089 157.558 120.549C156.939 122.009 156.856 123.64 157.324 125.156L157.505 125.731H156.902C154.476 125.722 152.116 126.526 150.201 128.014C148.285 129.502 146.923 131.589 146.332 133.941L145.473 133.724C146.089 131.275 147.48 129.09 149.438 127.494C151.397 125.899 153.818 124.978 156.342 124.868C155.957 123.197 156.146 121.445 156.881 119.896C157.616 118.346 158.852 117.09 160.39 116.331C161.928 115.572 163.678 115.354 165.355 115.713C167.032 116.072 168.539 116.986 169.632 118.308C169.947 118.107 170.27 117.914 170.605 117.741C170.171 115.401 170.619 112.983 171.861 110.953C173.104 108.923 175.053 107.424 177.335 106.745C179.617 106.066 182.069 106.254 184.221 107.274C186.372 108.294 188.069 110.073 188.987 112.269C190.67 111.443 192.512 110.989 194.386 110.938C196.261 110.887 198.125 111.239 199.851 111.972C201.577 112.704 203.125 113.799 204.39 115.183C205.656 116.567 206.608 118.206 207.183 119.991C208.106 118.78 209.296 117.799 210.661 117.124C212.025 116.449 213.527 116.098 215.05 116.098C216.572 116.098 218.074 116.449 219.439 117.124C220.803 117.799 221.993 118.78 222.916 119.991C225.703 119.745 228.501 120.318 230.967 121.639C233.432 122.961 235.459 124.973 236.797 127.429C238.29 125.368 240.318 123.754 242.662 122.761C245.005 121.767 247.576 121.433 250.096 121.793C252.616 122.153 254.99 123.194 256.961 124.804C258.933 126.413 260.427 128.531 261.283 130.927C262.575 130.345 263.977 130.045 265.394 130.049C266.839 130.05 268.266 130.363 269.579 130.966C270.891 131.569 272.058 132.448 273 133.543L272.342 134.122Z" fill="#313B6B"/>
<path d="M182.275 84.4295C180.433 84.4316 178.62 83.9667 177.006 83.0782L167.401 77.0583L174.704 62.0875L180.691 65.9957L199.005 40.8092C199.454 40.1986 200.041 39.702 200.717 39.3598C201.394 39.0176 202.141 38.8393 202.899 38.8394H203.061H207.396L209.997 37.3856C210.188 37.2711 210.406 37.2111 210.628 37.2123C210.87 37.2236 211.106 37.2872 211.321 37.3987C211.537 37.5103 211.725 37.6671 211.873 37.8584C211.944 37.9451 212.007 38.0199 212.058 38.0869C212.188 38.0567 212.32 38.0421 212.453 38.0436C212.785 38.0579 213.106 38.1662 213.379 38.3559C213.651 38.5457 213.865 38.809 213.994 39.1152H214.084C214.401 39.1275 214.706 39.2374 214.958 39.43C215.21 39.6225 215.396 39.8883 215.491 40.1907L215.606 40.4625C215.95 40.5991 216.231 40.8589 216.394 41.1914C216.622 41.5959 216.688 42.0717 216.58 42.5232C216.472 42.9748 216.197 43.3688 215.81 43.6261L211.976 45.9505C212.138 46.1862 212.252 46.4517 212.311 46.7317C212.369 47.0117 212.372 47.3005 212.319 47.5816C212.078 48.8305 210.884 49.1575 210.005 49.3111H209.942L203.522 49.4726C199.912 58.857 192.357 77.6926 192.278 77.8857C191.437 79.8431 190.039 81.5109 188.259 82.6825C186.479 83.854 184.395 84.4779 182.263 84.4768L182.275 84.4295Z" fill="#F6CCBD"/>
<path d="M210.638 37.6033C210.815 37.6159 210.987 37.666 211.144 37.7502C211.3 37.8344 211.437 37.9509 211.544 38.0918C211.673 38.2382 211.788 38.3965 211.887 38.5646C212.061 38.4822 212.251 38.4379 212.443 38.4346C212.999 38.4346 213.452 38.8483 213.724 39.5614C213.838 39.5237 213.958 39.5038 214.079 39.5023C214.305 39.5181 214.521 39.6018 214.699 39.7423C214.877 39.8829 215.008 40.0738 215.076 40.2902L215.277 40.7748C215.635 40.8221 215.793 41.0269 215.994 41.3579C216.161 41.6622 216.209 42.0175 216.129 42.3551C216.049 42.6928 215.846 42.9887 215.56 43.1859L211.269 45.79C211.507 45.9863 211.688 46.2432 211.793 46.5337C211.898 46.8242 211.922 47.1375 211.864 47.4407C211.694 48.3311 210.874 48.6581 209.913 48.8196L203.213 48.989C199.611 58.3773 191.866 77.67 191.866 77.67C191.291 79.0086 190.441 80.2119 189.372 81.2025C188.303 82.193 187.039 82.9488 185.66 83.4212C184.281 83.8937 182.818 84.0723 181.366 83.9455C179.914 83.8187 178.505 83.3894 177.229 82.6852L167.983 76.8899L174.892 62.7071L180.804 66.5719L199.366 41.0427C199.773 40.4835 200.306 40.0287 200.923 39.7157C201.54 39.4027 202.222 39.2404 202.913 39.2422H203.059L207.536 39.2225L210.24 37.7136C210.359 37.6401 210.495 37.5993 210.634 37.5954L210.638 37.6033ZM210.634 36.709C210.333 36.7099 210.038 36.7915 209.779 36.9454L207.288 38.3361H203.055H202.898C202.068 38.3376 201.251 38.5345 200.512 38.911C199.773 39.2875 199.134 39.8329 198.645 40.5029L180.579 65.3506L175.369 61.9467L174.525 61.4109L174.076 62.321L167.167 76.5038L166.816 77.2209L167.49 77.6424L176.736 83.4377H176.756H176.776C178.16 84.206 179.69 84.6758 181.266 84.8167C182.843 84.9575 184.432 84.7664 185.931 84.2556C187.429 83.7448 188.804 82.9257 189.966 81.8511C191.128 80.7765 192.052 79.4702 192.678 78.0167V77.997C192.753 77.8079 200.166 59.3307 203.816 49.8558L209.909 49.7021H209.972H210.035C210.614 49.6036 212.4 49.3081 212.711 47.618C212.816 47.0867 212.753 46.5357 212.53 46.0421L215.998 43.9383C216.487 43.6215 216.837 43.1288 216.973 42.562C217.109 41.9952 217.023 41.3977 216.731 40.893C216.547 40.5422 216.265 40.2521 215.919 40.0577L215.872 39.9474C215.749 39.5929 215.53 39.2797 215.239 39.043C214.948 38.8063 214.597 38.6556 214.224 38.6079C214.045 38.2861 213.784 38.017 213.468 37.8276C213.152 37.6382 212.792 37.535 212.423 37.5285H212.234L212.203 37.493C212.012 37.2562 211.772 37.0632 211.5 36.9272C211.228 36.7912 210.93 36.7155 210.626 36.7051L210.634 36.709Z" fill="#313B6B"/>
<path d="M212.618 44.9652L208.947 47.0719L209.389 47.8407L213.06 45.734L212.618 44.9652Z" fill="#313B6B"/>
<path d="M55.2597 12.951C53.4424 11.9356 51.3681 11.4727 49.2913 11.619C47.2145 11.7653 45.2256 12.5145 43.5688 13.7746C41.9119 15.0347 40.659 16.751 39.964 18.7128C39.269 20.6745 39.162 22.7964 39.6562 24.8181C40.1504 26.8398 41.2243 28.6733 42.7461 30.0935C44.2678 31.5138 46.1713 32.459 48.2228 32.8133C50.2744 33.1676 52.3848 32.9154 54.295 32.0878C56.2052 31.2602 57.8322 29.8931 58.9762 28.1543L64.3362 31.1445L63.8829 31.9561L79.5726 40.718L81.3856 37.4717L65.6959 28.7098L65.2426 29.5214L59.863 26.5193C60.9097 24.089 61.0185 21.3572 60.1684 18.8514C59.3182 16.3455 57.5694 14.2435 55.2597 12.951ZM46.6483 28.3671C45.0339 27.4659 43.8438 25.9605 43.3397 24.1821C42.8356 22.4037 43.0589 20.498 43.9604 18.8842C44.862 17.2704 46.3679 16.0807 48.1469 15.5768C49.926 15.0729 51.8324 15.2961 53.4468 16.1973C54.2462 16.6436 54.9498 17.2428 55.5175 17.9609C56.0852 18.6789 56.5058 19.5017 56.7554 20.3823C57.005 21.2629 57.0786 22.1839 56.9721 23.093C56.8656 24.002 56.581 24.8811 56.1346 25.6802C55.6882 26.4793 55.0888 27.1826 54.3705 27.7501C53.6521 28.3176 52.829 28.7381 51.9481 28.9876C51.0673 29.2371 50.1458 29.3107 49.2365 29.2042C48.3271 29.0978 47.4477 28.8133 46.6483 28.3671Z" fill="#313B6B"/>
<path d="M93.283 84.4309C91.1125 84.4375 88.9899 83.7935 87.1893 82.5821C85.3887 81.3707 83.9928 79.6474 83.1818 77.6349L74.9054 53.9337C74.866 53.8431 74.8266 53.7328 74.7832 53.6028L72.8797 48.1542H72.9624L72.5683 46.992L68.6272 40.4954C68.0242 39.5006 67.6391 38.3894 67.4971 37.2349C67.3551 36.0805 67.4595 34.9091 67.8035 33.7979L68.9385 30.138V30.1183C69.079 29.7834 69.3133 29.4962 69.6133 29.2914C69.9133 29.0866 70.2661 28.9729 70.6293 28.9639C70.7619 28.9628 70.8942 28.9773 71.0234 29.0073C71.391 29.0908 71.7229 29.2881 71.9719 29.571C72.221 29.8539 72.3745 30.208 72.4107 30.5831C72.6594 30.5153 72.92 30.502 73.1744 30.5441C73.4288 30.5863 73.6711 30.6829 73.8846 30.8274C74.0781 30.9593 74.2431 31.1288 74.3697 31.3258C74.4963 31.5227 74.582 31.7431 74.6216 31.9739C74.8866 31.8785 75.1703 31.847 75.4497 31.8819C75.7291 31.9168 75.9963 32.0172 76.2296 32.1748C76.4519 32.3266 76.6364 32.5274 76.7689 32.7617C76.9015 32.9959 76.9785 33.2574 76.9942 33.5261C77.3856 33.4151 77.8034 33.4429 78.1766 33.6049C78.5538 33.7683 78.8633 34.0563 79.0535 34.4206C79.2436 34.7849 79.3027 35.2035 79.221 35.6062L78.7322 37.3791C78.9199 37.876 79.1576 38.3525 79.4417 38.8013C80.1432 39.9832 80.8092 41.11 80.0249 43.9466L81.4753 46.3104H81.5226L95.0407 66.0089L98.367 63.9405L106.683 78.7971L98.367 83.1741C96.8017 84.0051 95.0553 84.4368 93.283 84.4309Z" fill="#F6CCBD"/>
<path d="M70.6407 29.3822C70.7336 29.3822 70.8261 29.3928 70.9166 29.4137C71.1093 29.4573 71.2901 29.5427 71.4462 29.6639C71.6022 29.7851 71.7297 29.9391 71.8196 30.115C71.9094 30.291 71.9595 30.4845 71.9663 30.6819C71.973 30.8793 71.9362 31.0758 71.8586 31.2575L71.6378 31.7657C71.7168 31.5843 71.8347 31.4225 71.9832 31.2919C72.1317 31.1612 72.3071 31.0648 72.4971 31.0095C72.6871 30.9542 72.8869 30.9414 73.0824 30.972C73.2778 31.0026 73.4642 31.0759 73.6281 31.1865C73.8885 31.3762 74.0754 31.65 74.1573 31.9615C74.2391 32.273 74.2109 32.6032 74.0774 32.8964L73.9119 33.2903L73.9828 33.1209C74.0617 32.9396 74.1796 32.7778 74.3282 32.6471C74.4767 32.5164 74.6521 32.42 74.8421 32.3647C75.032 32.3095 75.2319 32.2967 75.4273 32.3273C75.6228 32.3579 75.8091 32.4311 75.9731 32.5418C76.2344 32.7317 76.4219 33.0061 76.5038 33.3185C76.5857 33.6309 76.5569 33.962 76.4224 34.2556L76.3554 34.4092H76.3987C76.5248 34.2457 76.6865 34.1132 76.8716 34.0217C77.0567 33.9302 77.2603 33.8822 77.4668 33.8813C77.6469 33.8806 77.8253 33.9168 77.991 33.9877C78.2752 34.1099 78.5087 34.3263 78.6522 34.6003C78.7958 34.8744 78.8406 35.1894 78.7792 35.4926L78.2708 37.3758C78.2686 37.3835 78.2686 37.3917 78.2708 37.3994C78.996 39.6254 80.6907 40.0666 79.5438 44.0063L81.2582 46.7877H81.3212L94.9103 66.6122L98.2012 64.5636L106.056 78.6204L98.142 82.7886C96.8512 83.4697 95.4319 83.8726 93.9756 83.9712C92.5194 84.0699 91.0586 83.862 89.6878 83.3612C88.3169 82.8603 87.0663 82.0776 86.0169 81.0635C84.9675 80.0494 84.1425 78.8266 83.5953 77.474L75.3189 53.7925C75.3189 53.7925 75.2755 53.6704 75.2046 53.4615L73.4665 48.4818H73.5414L72.9818 46.8035L69.013 40.2675C68.4404 39.3268 68.0741 38.2754 67.9382 37.1826C67.8023 36.0899 67.9 34.9808 68.2248 33.9286L69.3599 30.2843C69.4659 30.0286 69.6436 29.809 69.8715 29.6518C70.0994 29.4945 70.3679 29.4064 70.6447 29.3979L70.6407 29.3822ZM70.6447 28.5115C70.1953 28.5215 69.7583 28.661 69.3864 28.9133C69.0144 29.1656 68.7233 29.5199 68.548 29.9337V29.9771V30.0204L67.4208 33.6567C67.0581 34.8281 66.9483 36.0631 67.0984 37.2801C67.2485 38.4971 67.6553 39.6684 68.2918 40.7167L72.2093 47.1699L72.4221 47.812H72.3354L72.6665 48.7576L74.3651 53.7452C74.4006 53.8516 74.44 53.9658 74.4873 54.0722L82.7637 77.7537V77.7734V77.7931C83.3579 79.258 84.2526 80.5822 85.3899 81.6805C86.5273 82.7788 87.8822 83.6267 89.3673 84.1697C90.8525 84.7127 92.4349 84.9387 94.0127 84.8331C95.5905 84.7276 97.1288 84.2928 98.5283 83.5569L106.442 79.3887L107.23 78.9671L106.789 78.1792L98.9342 64.1224L98.481 63.3108L97.6927 63.8032L95.1231 65.4028L82.0543 46.2795L81.7193 45.787H81.6878L80.5054 43.8684C81.2582 40.9846 80.533 39.7593 79.8275 38.5695C79.5839 38.1826 79.3742 37.7753 79.2009 37.3522L79.6423 35.729L79.8788 34.8623L79.662 34.8071C79.5926 34.45 79.4372 34.1152 79.2092 33.8317C78.9812 33.5482 78.6875 33.3245 78.3535 33.18C78.0774 33.0604 77.7796 32.9987 77.4786 32.9988H77.3564C77.2175 32.5036 76.9075 32.0737 76.4815 31.7854C76.0273 31.4784 75.4759 31.3494 74.9326 31.4229C74.7738 31.0235 74.4994 30.6806 74.1444 30.438C73.7779 30.1854 73.3442 30.0482 72.899 30.044H72.7768C72.7396 29.922 72.6922 29.8034 72.6349 29.6894C72.4887 29.3944 72.2789 29.1354 72.0207 28.9311C71.7624 28.7267 71.4621 28.5821 71.1413 28.5075C70.9862 28.4715 70.8275 28.453 70.6683 28.4524L70.6447 28.5115Z" fill="#313B6B"/>
<path d="M116.744 117.729L115.995 74.321L106.588 80.6364L97.0068 63.3569L117.134 50.1195L131.425 51.4078L137.482 56.5057L143.26 51.4117L156.396 50.1195L176.602 62.9274L166.627 80.7664L159.876 76.5903L159.904 118.548L116.744 117.729Z" fill="white"/>
<path d="M156.289 50.5747L175.994 63.0753L166.449 80.146L159.414 75.8123L159.442 118.113L117.161 117.325L116.408 73.5312L106.721 80.0317L97.5933 63.4969L117.248 50.5707L131.247 51.8314L137.486 57.0752L143.445 51.8236L156.285 50.5628L156.289 50.5747ZM156.502 49.6528L156.198 49.6843L143.358 50.945L143.074 50.9726L142.861 51.1617L137.474 55.909L131.818 51.1656L131.605 50.9844L131.326 50.9608L117.323 49.6922L117.015 49.6646L116.755 49.834L97.1046 62.7562L96.4346 63.2093L96.8287 63.9263L105.976 80.4257L106.445 81.2688L107.233 80.7291L115.565 75.1347L116.29 117.289V118.144H117.145L159.426 118.932H160.328V118.03L160.305 77.3212L165.984 80.8354L166.772 81.324L167.225 80.5163L176.771 63.4456L177.165 62.7129L176.456 62.2637L156.75 49.7631L156.494 49.6016L156.502 49.6528Z" fill="#313B6B"/>
<path d="M136.99 169.412L120.678 276.462H104.799L116.595 111.739H159.896L161.496 276.753L144.92 277.202L136.99 169.412Z" fill="#E6E6E6"/>
<path d="M159.454 112.182L161.03 276.322L145.309 276.747L137.143 165.459L120.295 276.019H105.271L117.008 112.182H159.454ZM160.333 111.296H116.192L116.133 112.119L104.388 275.955L104.317 276.909H121.055L121.17 276.156L136.832 173.37L144.442 276.818L144.505 277.661L145.353 277.638L161.07 277.208L161.941 277.185V276.314L160.364 112.175V111.296H160.333Z" fill="#313B6B"/>
<path d="M136.824 173.387L135.949 173.249L141.144 139.825L147.623 135.996L148.076 136.756L141.956 140.377L136.824 173.387Z" fill="#313B6B"/>
<path d="M136.944 58.917C135.242 58.9119 133.61 58.2368 132.403 57.0377C131.195 55.8387 130.509 54.2124 130.492 52.5111L130.397 39.3486L143.305 39.254L143.399 52.4323C143.41 54.1432 142.741 55.7884 141.54 57.007C140.338 58.2257 138.703 58.9182 136.991 58.9328L136.944 58.917Z" fill="#F6CCBD"/>
<path d="M142.863 39.6849L142.957 52.418C142.963 53.207 142.813 53.9894 142.516 54.7205C142.219 55.4516 141.782 56.1172 141.227 56.6791C140.673 57.241 140.014 57.6883 139.287 57.9955C138.56 58.3027 137.779 58.4637 136.99 58.4694H136.947C135.36 58.4694 133.838 57.8424 132.712 56.725C131.586 55.6077 130.948 54.0906 130.937 52.5047L130.842 39.7716L142.863 39.6849ZM143.73 38.7946H142.843L130.822 38.8812H129.936V39.7677L130.03 52.5008C130.049 54.3188 130.783 56.0563 132.074 57.3371C133.365 58.6179 135.108 59.3389 136.927 59.344H136.978C137.884 59.3373 138.78 59.1523 139.614 58.7996C140.448 58.447 141.205 57.9335 141.84 57.2885C142.476 56.6435 142.978 55.8797 143.319 55.0407C143.659 54.2016 143.831 53.3037 143.824 52.3983L143.73 39.6652V38.7788V38.7946Z" fill="#313B6B"/>
<path d="M130.146 41.345L142.943 51.0248L142.872 41.2701L130.146 41.345Z" fill="#313B6B"/>
<path d="M139.104 44.4018C138.891 44.4018 138.678 44.4018 138.465 44.4018C132.806 44.1103 127.998 39.9027 126.567 34.0877C125.851 34.4716 125.05 34.6719 124.238 34.6708H123.978C122.673 34.6217 121.44 34.0607 120.547 33.1093C119.653 32.1579 119.171 30.8927 119.204 29.5881C119.237 28.2835 119.783 27.0445 120.724 26.1397C121.665 25.235 122.924 24.7373 124.23 24.7546H124.49C125.195 24.7899 125.885 24.9767 126.512 25.3022C126.461 24.6679 126.452 24.0309 126.484 23.3954C126.878 15.91 132.632 10.0792 139.6 10.0792C139.813 10.0792 140.026 10.0792 140.239 10.0792C147.423 10.4496 152.945 17.021 152.547 24.727C152.49 25.7926 152.319 26.8491 152.039 27.8788C152.211 28.9345 152.271 30.0055 152.216 31.0738C151.822 38.5593 146.068 44.39 139.1 44.39L139.104 44.4018Z" fill="#F6CCBD"/>
<path d="M139.6 10.5076C139.805 10.5076 139.994 10.5076 140.215 10.5076C147.167 10.8661 152.491 17.205 152.101 24.6904C152.045 25.7568 151.872 26.8137 151.585 27.8422C151.765 28.8971 151.829 29.9686 151.774 31.0373C151.38 38.2903 145.788 43.9319 139.099 43.9319C138.894 43.9319 138.705 43.9319 138.485 43.9319C132.687 43.6325 128.025 39.1649 126.862 33.3538C126.098 33.9041 125.179 34.2003 124.237 34.2009H124.001C122.83 34.1323 121.732 33.6114 120.938 32.7484C120.144 31.8853 119.717 30.7476 119.746 29.5755C119.776 28.4034 120.26 27.2887 121.097 26.4669C121.933 25.645 123.057 25.1804 124.229 25.1711H124.466C125.41 25.2194 126.315 25.564 127.051 26.156C126.922 25.2428 126.879 24.3194 126.925 23.3982C127.319 16.1453 132.912 10.5036 139.6 10.5036V10.5076ZM139.6 9.61719C132.396 9.61719 126.44 15.6528 126.042 23.3549C126.023 23.7489 126.019 24.1743 126.042 24.592C125.554 24.4196 125.043 24.3187 124.525 24.2925H124.241C122.834 24.2966 121.483 24.8491 120.477 25.8327C119.47 26.8162 118.887 28.1533 118.851 29.5598C118.815 30.9664 119.33 32.3315 120.285 33.3651C121.239 34.3987 122.56 35.0193 123.965 35.0952H124.249C124.948 35.0978 125.64 34.964 126.287 34.7012C127.914 40.4335 132.77 44.5504 138.453 44.8302C138.674 44.8302 138.894 44.8302 139.115 44.8302C146.32 44.8302 152.275 38.7945 152.673 31.0924C152.728 30.0246 152.673 28.9538 152.507 27.8974C152.781 26.8667 152.947 25.8105 153.004 24.7456C153.227 20.9825 152.013 17.275 149.607 14.3724C148.465 12.9804 147.046 11.8412 145.44 11.0273C143.834 10.2134 142.076 9.74253 140.278 9.64477C140.057 9.64477 139.836 9.64477 139.616 9.64477L139.6 9.61719Z" fill="#313B6B"/>
<path d="M126.577 29.73C125.789 27.2756 123.369 27.7602 123.266 27.7602L123.085 26.8934C123.997 26.6924 124.951 26.844 125.755 27.3176C126.559 27.7913 127.154 28.5519 127.42 29.4464L126.577 29.73Z" fill="#313B6B"/>
<path d="M134.14 21.4055L134.1 22.291L139.053 22.5141L139.092 21.6286L134.14 21.4055Z" fill="#313B6B"/>
<path d="M147.28 22.0904L147.24 22.976L152.193 23.199L152.233 22.3135L147.28 22.0904Z" fill="#313B6B"/>
<path d="M137.781 27.1099C137.819 26.3646 137.246 25.7291 136.5 25.6906C135.755 25.652 135.119 26.225 135.081 26.9703C135.042 27.7156 135.615 28.3511 136.361 28.3896C137.106 28.4281 137.742 27.8552 137.781 27.1099Z" fill="#313B6B"/>
<path d="M150.32 27.7926C150.358 27.0473 149.785 26.4119 149.039 26.3733C148.294 26.3348 147.658 26.9077 147.62 27.6531C147.581 28.3984 148.154 29.0338 148.9 29.0723C149.645 29.1109 150.281 28.5379 150.32 27.7926Z" fill="#313B6B"/>
<path d="M142.928 33.3625L142.829 32.48L144.528 32.2988L143.944 26.4484L144.827 26.3617L145.497 33.0828L142.928 33.3625Z" fill="#313B6B"/>
<path d="M152.116 21.2266C152.116 21.2266 149.988 14.2021 143.335 13.8554C135.847 13.4614 135.252 17.3539 130.665 17.933C130.665 17.933 131.165 23.748 127.866 27.9556C127.866 27.9556 126.538 23.5983 121.214 25.7887C121.214 25.7887 115.408 7.51644 125.837 7.02792C137.483 6.48424 138.586 -0.729337 147.119 0.547123C155.651 1.82358 160.089 14.0406 152.116 21.2266Z" fill="#313B6B"/>
<path d="M124.036 3.50774L123.349 4.06763L126.52 7.95886L127.208 7.39897L124.036 3.50774Z" fill="#313B6B"/>
<path d="M127.402 3.97385L127.21 7.69189L128.096 7.73767L128.288 4.01962L127.402 3.97385Z" fill="#313B6B"/>
<path d="M143.835 36.7618C143.835 36.7618 141.076 34.7605 139.208 37.1085L143.835 36.7618Z" fill="#313B6B"/>
</svg>
