<svg width="22" height="22" viewBox="0 0 22 22" fill="none" xmlns="http://www.w3.org/2000/svg">
<path fill-rule="evenodd" clip-rule="evenodd" d="M11 15.75C8.45829 15.75 5.7999 14.2471 3.64215 11C5.7999 7.75291 8.45829 6.25 11 6.25C13.5417 6.25 16.2001 7.7529 18.3579 11C16.2001 14.2471 13.5417 15.75 11 15.75ZM19.886 10.6025C17.504 6.79129 14.3151 4.75 11 4.75C7.68492 4.75 4.49601 6.79129 2.114 10.6025C1.962 10.8457 1.962 11.1543 2.114 11.3975C4.49601 15.2087 7.68492 17.25 11 17.25C14.3151 17.25 17.504 15.2087 19.886 11.3975C20.038 11.1543 20.038 10.8457 19.886 10.6025ZM11 14.6667C13.025 14.6667 14.6666 13.025 14.6666 11C14.6666 8.97496 13.025 7.33333 11 7.33333C8.97493 7.33333 7.3333 8.97496 7.3333 11C7.3333 13.025 8.97493 14.6667 11 14.6667Z" fill="#838284"/>
</svg>
