<svg width="13" height="24" viewBox="0 0 13 24" fill="none" xmlns="http://www.w3.org/2000/svg">
<path d="M12.1559 0.0049936L9.12617 0C5.72236 0 3.52267 2.31828 3.52267 5.90643V8.62969H0.476398C0.213164 8.62969 0 8.84891 0 9.11932V13.065C0 13.3354 0.213407 13.5544 0.476398 13.5544H3.52267V23.5106C3.52267 23.781 3.73583 24 3.99906 24H7.97358C8.23681 24 8.44998 23.7808 8.44998 23.5106V13.5544H12.0118C12.275 13.5544 12.4882 13.3354 12.4882 13.065L12.4896 9.11932C12.4896 8.98948 12.4393 8.86514 12.3501 8.77326C12.2609 8.68138 12.1394 8.62969 12.013 8.62969H8.44998V6.32115C8.44998 5.21157 8.70738 4.64829 10.1145 4.64829L12.1554 4.64755C12.4184 4.64755 12.6316 4.42833 12.6316 4.15817V0.494367C12.6316 0.224462 12.4187 0.00549296 12.1559 0.0049936Z" fill="#B2B7D0"/>
</svg>
