<svg width="44" height="45" viewBox="0 0 44 45" fill="none" xmlns="http://www.w3.org/2000/svg">
<path d="M43.5938 10.1407C43.5938 9.58842 43.146 9.14071 42.5938 9.14071H40.0781V4.34195C40.0781 4.07673 39.9728 3.82238 39.7852 3.63484L37.2696 1.11922C36.8791 0.728692 36.2459 0.728692 35.8554 1.11922L33.3398 3.63484C33.1522 3.82238 33.0469 4.07673 33.0469 4.34195V9.14071H30.2344V4.34195C30.2344 4.07673 30.129 3.82238 29.9415 3.63484L27.4259 1.11922C27.0353 0.728692 26.4022 0.728692 26.0116 1.11922L23.496 3.63484C23.3085 3.82238 23.2031 4.07673 23.2031 4.34195V9.14071H20.3906V4.34195C20.3906 4.07673 20.2853 3.82238 20.0977 3.63484L17.5821 1.11922C17.1916 0.728692 16.5584 0.728692 16.1679 1.11922L13.6523 3.63484C13.4647 3.82238 13.3594 4.07673 13.3594 4.34195V9.14071H10.5469V4.34195C10.5469 4.07673 10.4415 3.82238 10.254 3.63484L7.73836 1.11922C7.34783 0.728692 6.71467 0.728692 6.32414 1.11922L3.80852 3.63484C3.62098 3.82238 3.51562 4.07673 3.51562 4.34195V9.14071H1C0.447715 9.14071 0 9.58842 0 10.1407V15.172C0 15.7242 0.447715 16.172 1 16.172H3.51562V28.8282H4.92188V17.172C4.92188 16.6197 5.36959 16.172 5.92188 16.172H8.14062C8.69291 16.172 9.14062 16.6197 9.14062 17.172V24.6095H10.5469V17.172C10.5469 16.6197 10.9946 16.172 11.5469 16.172H12.3594C12.9117 16.172 13.3594 16.6197 13.3594 17.172V26.3096H14.7656V17.172C14.7656 16.6197 15.2133 16.172 15.7656 16.172H17.9844C18.5367 16.172 18.9844 16.6197 18.9844 17.172V21.5684H20.3906V17.172C20.3906 16.6197 20.8383 16.172 21.3906 16.172H22.2031C22.7554 16.172 23.2031 16.6197 23.2031 17.172V21.5699H24.6094V17.172C24.6094 16.6197 25.0571 16.172 25.6094 16.172H27.8281C28.3804 16.172 28.8281 16.6197 28.8281 17.172V26.0157H30.2344V17.172C30.2344 16.6197 30.6821 16.172 31.2344 16.172H32.0469C32.5992 16.172 33.0469 16.6197 33.0469 17.172V23.9063H34.4531V17.172C34.4531 16.6197 34.9008 16.172 35.4531 16.172H37.6719C38.2242 16.172 38.6719 16.6197 38.6719 17.172V28.831H40.0781V16.172H42.5938C43.146 16.172 43.5938 15.7242 43.5938 15.172V10.1407ZM34.4531 4.92414C34.4531 4.65892 34.5585 4.40457 34.746 4.21703L35.8554 3.10765C36.2459 2.71713 36.8791 2.71713 37.2696 3.10765L38.379 4.21703C38.5665 4.40457 38.6719 4.65892 38.6719 4.92414V9.14071H34.4531V4.92414ZM24.6094 4.92414C24.6094 4.65892 24.7147 4.40457 24.9023 4.21703L26.0116 3.10765C26.4022 2.71713 27.0353 2.71713 27.4259 3.10765L28.5352 4.21703C28.7228 4.40457 28.8281 4.65892 28.8281 4.92414V9.14071H24.6094V4.92414ZM14.7656 4.92414C14.7656 4.65892 14.871 4.40457 15.0585 4.21703L16.1679 3.10765C16.5584 2.71713 17.1916 2.71713 17.5821 3.10765L18.6915 4.21703C18.879 4.40457 18.9844 4.65892 18.9844 4.92414V9.14071H14.7656V4.92414ZM4.92188 4.92414C4.92188 4.65892 5.02723 4.40457 5.21477 4.21703L6.32414 3.10765C6.71467 2.71713 7.34783 2.71713 7.73836 3.10765L8.84773 4.21703C9.03527 4.40457 9.14062 4.65892 9.14062 4.92414V9.14071H4.92188V4.92414ZM42.1875 13.7657C42.1875 14.318 41.7398 14.7657 41.1875 14.7657H2.40625C1.85396 14.7657 1.40625 14.318 1.40625 13.7657V11.547C1.40625 10.9947 1.85397 10.547 2.40625 10.547H41.1875C41.7398 10.547 42.1875 10.9947 42.1875 11.547V13.7657Z" fill="#313B6C"/>
<path d="M36.5625 13.3594C36.9508 13.3594 37.2656 13.0446 37.2656 12.6562C37.2656 12.2679 36.9508 11.9531 36.5625 11.9531C36.1742 11.9531 35.8594 12.2679 35.8594 12.6562C35.8594 13.0446 36.1742 13.3594 36.5625 13.3594Z" fill="#313B6C"/>
<path d="M26.7188 13.3594C27.1071 13.3594 27.4219 13.0446 27.4219 12.6562C27.4219 12.2679 27.1071 11.9531 26.7188 11.9531C26.3304 11.9531 26.0156 12.2679 26.0156 12.6562C26.0156 13.0446 26.3304 13.3594 26.7188 13.3594Z" fill="#313B6C"/>
<path d="M16.875 13.3594C17.2633 13.3594 17.5781 13.0446 17.5781 12.6562C17.5781 12.2679 17.2633 11.9531 16.875 11.9531C16.4867 11.9531 16.1719 12.2679 16.1719 12.6562C16.1719 13.0446 16.4867 13.3594 16.875 13.3594Z" fill="#313B6C"/>
<path d="M7.03125 13.3594C7.41958 13.3594 7.73438 13.0446 7.73438 12.6562C7.73438 12.2679 7.41958 11.9531 7.03125 11.9531C6.64292 11.9531 6.32812 12.2679 6.32812 12.6562C6.32812 13.0446 6.64292 13.3594 7.03125 13.3594Z" fill="#313B6C"/>
<path d="M38.6501 27.6553C38.4124 25.1606 36.3059 23.2031 33.75 23.2031C32.1398 23.2031 30.6478 24.0054 29.7352 25.2942C29.025 24.8273 28.1665 24.57 27.2412 24.6129C26.6126 22.1632 24.3844 20.3906 21.7969 20.3906C18.9098 20.3906 16.5263 22.578 16.2098 25.3821C15.9687 25.3385 15.7219 25.3125 15.4688 25.3125C14.7136 25.3125 14.0055 25.515 13.3917 25.8638C12.626 24.6705 11.2964 23.9062 9.84375 23.9062C7.7393 23.9062 5.99063 25.4545 5.67492 27.4718C3.65766 27.7875 2.10938 29.5362 2.10938 31.6406C2.10938 33.9673 4.00148 35.8594 6.32812 35.8594V35.1562H37.2656V35.8594C39.5923 35.8594 41.4844 33.9673 41.4844 31.6406C41.4844 29.8315 40.3214 28.2361 38.6501 27.6553V27.6553Z" fill="#00AC8A"/>
<path d="M0 34.4531V44.2969H43.5938V34.4531H0ZM42.1875 38.6719H39.375V35.8594H42.1875V38.6719ZM35.1562 38.6719V35.8594H37.9688V38.6719H35.1562ZM33.75 38.6719H30.9375V35.8594H33.75V38.6719ZM29.5312 38.6719H26.7188V35.8594H29.5312V38.6719ZM25.3125 38.6719H22.5V35.8594H25.3125V38.6719ZM21.0938 38.6719H18.2812V35.8594H21.0938V38.6719ZM16.875 38.6719H14.0625V35.8594H16.875V38.6719ZM12.6562 38.6719H9.84375V35.8594H12.6562V38.6719ZM8.4375 38.6719H5.625V35.8594H8.4375V38.6719ZM9.84375 40.0781V42.8906H7.03125V40.0781H9.84375ZM11.25 40.0781H14.0625V42.8906H11.25V40.0781ZM15.4688 40.0781H18.2812V42.8906H15.4688V40.0781ZM19.6875 40.0781H22.5V42.8906H19.6875V40.0781ZM23.9062 40.0781H26.7188V42.8906H23.9062V40.0781ZM28.125 40.0781H30.9375V42.8906H28.125V40.0781ZM32.3438 40.0781H35.1562V42.8906H32.3438V40.0781ZM36.5625 40.0781H39.375V42.8906H36.5625V40.0781ZM4.21875 35.8594V38.6719H1.40625V35.8594H4.21875ZM1.40625 40.0781H5.625V42.8906H1.40625V40.0781ZM40.7812 42.8906V40.0781H42.1875V42.8906H40.7812Z" fill="#313B6C"/>
<path d="M23.9062 25.3125H22.5C22.5 24.9244 22.185 24.6094 21.7969 24.6094V23.2031C22.9598 23.2031 23.9062 24.1495 23.9062 25.3125Z" fill="#313B6C"/>
<path d="M15.4688 31.6406C14.3058 31.6406 13.3594 30.6942 13.3594 29.5312H14.7656C14.7656 29.9194 15.0806 30.2344 15.4688 30.2344V31.6406Z" fill="#313B6C"/>
<path d="M7.03125 33.0469C5.86828 33.0469 4.92188 32.1005 4.92188 30.9375H6.32812C6.32812 31.3256 6.64313 31.6406 7.03125 31.6406V33.0469Z" fill="#313B6C"/>
<path d="M33.75 28.8281V27.4219C34.1381 27.4219 34.4531 27.1069 34.4531 26.7188H35.8594C35.8594 27.8817 34.913 28.8281 33.75 28.8281Z" fill="#313B6C"/>
<path d="M30.2344 33.0469H28.8281C28.8281 32.6588 28.5131 32.3438 28.125 32.3438V30.9375C29.288 30.9375 30.2344 31.8839 30.2344 33.0469Z" fill="#313B6C"/>
<path d="M26.0156 30.2344H24.6094C24.6094 29.8463 24.2944 29.5312 23.9062 29.5312V28.125C25.0692 28.125 26.0156 29.0714 26.0156 30.2344Z" fill="#313B6C"/>
<path d="M35.1562 33.0469H33.75C33.75 31.8839 34.6964 30.9375 35.8594 30.9375V32.3438C35.4713 32.3438 35.1562 32.6588 35.1562 33.0469Z" fill="#313B6C"/>
</svg>
