<svg width="34" height="34" viewBox="0 0 34 34" fill="none" xmlns="http://www.w3.org/2000/svg">
<g clip-path="url(#clip0)">
<path d="M17.9894 12.5833L11.9201 18.6527C11.4833 19.1035 11.2412 19.708 11.2462 20.3357C11.2511 20.9634 11.5027 21.564 11.9466 22.0078C12.3904 22.4517 12.991 22.7033 13.6187 22.7082C14.2464 22.7132 14.8509 22.4711 15.3018 22.0343L23.2625 14.0845C23.6465 13.7098 23.9522 13.2626 24.162 12.7688C24.3718 12.275 24.4815 11.7445 24.4848 11.208C24.488 10.6715 24.3848 10.1397 24.181 9.64346C23.9772 9.14718 23.6769 8.69629 23.2975 8.31693C22.9182 7.93756 22.4673 7.63728 21.971 7.43347C21.4747 7.22966 20.9429 7.1264 20.4064 7.12965C19.8699 7.1329 19.3394 7.24262 18.8456 7.45243C18.3519 7.66224 17.9046 7.96798 17.5299 8.35191L9.52104 16.3608C8.97926 16.8871 8.54752 17.5159 8.25091 18.2105C7.9543 18.9052 7.79874 19.6519 7.79327 20.4072C7.78781 21.1625 7.93255 21.9114 8.21907 22.6103C8.5056 23.3091 8.9282 23.9441 9.4623 24.4782C9.9964 25.0123 10.6314 25.4349 11.3302 25.7214C12.0291 26.0079 12.778 26.1527 13.5333 26.1472C14.2886 26.1417 15.0353 25.9862 15.73 25.6896C16.4246 25.393 17.0534 24.9612 17.5797 24.4194L25.0637 16.9354" stroke="#313B6C" stroke-width="1.5" stroke-miterlimit="10" stroke-linecap="round"/>
</g>
<defs>
<clipPath id="clip0">
<rect width="24" height="24" fill="white" transform="translate(16.9706) rotate(45)"/>
</clipPath>
</defs>
</svg>
