<svg width="120" height="160" viewBox="0 0 120 160" fill="none" xmlns="http://www.w3.org/2000/svg">
<path d="M78.6266 42.1172H40.6077V70.5909H78.6266V42.1172Z" fill="#313B6B"/>
<path d="M35.6996 149.595L35.7535 100.521L18.335 100.467L22.757 85.5831C25.9927 74.8515 34.5672 66.5466 45.4066 63.6345L52.5789 61.7471L60.2367 68.488L68.2179 61.7471L76.5767 64.6053C86.7151 68.0566 94.4806 76.3614 97.2309 86.7695L100.898 100.521H83.803L83.1019 149.595H35.6996Z" fill="white"/>
<path d="M68.3266 62.4483L76.3618 65.1986C86.3384 68.596 93.9421 76.7391 96.6385 86.9314L100.09 99.9279H83.1566L82.4556 149.002H36.2936L36.3475 99.9279L19.1447 99.874L23.351 85.745C26.4788 75.1752 34.9454 67.0322 45.5691 64.2279L52.4179 62.4483L60.1835 69.2971L68.3266 62.4483ZM68.0569 61.1001L67.5177 61.5315L60.1835 67.7332L53.1729 61.5855L52.6876 61.154L52.0405 61.3158L45.1916 63.0954C34.1365 66.0075 25.3463 74.4741 22.1107 85.4214L17.9582 99.5505L17.4729 101.114H19.0907L35.1072 101.168L35.0533 149.056V150.296H83.5881V149.11L84.2891 101.222H101.654L101.222 99.7122L97.771 86.7157C94.9668 76.1459 87.0933 67.6792 76.7393 64.1739L68.7041 61.4236L68.0569 61.1001Z" fill="#313B6B"/>
<path d="M59.8594 78.6261C55.2755 78.6261 51.5545 75.013 51.3928 70.4292L50.7996 53.2263L67.6789 52.687L68.2721 69.8899C68.4339 74.5816 64.7668 78.4644 60.0751 78.6261H59.8594Z" fill="#F6CCBD"/>
<path d="M67.1937 53.2804L67.733 69.8901C67.8947 74.2043 64.4973 77.8174 60.1292 77.9792H59.8595C55.6532 77.9792 52.2018 74.6357 52.0401 70.4294L51.5008 53.8197L67.1937 53.2804ZM68.3262 52.04L67.0858 52.094L51.3929 52.6333L50.1526 52.6872L50.2065 53.9275L50.7458 70.5372C50.9076 75.4446 54.8982 79.3274 59.8056 79.3274H60.1292C65.1444 79.1656 69.0272 74.9593 68.8654 69.9979L68.3262 53.3882V52.04Z" fill="#313B6B"/>
<path d="M68.2719 55.8147L51.3387 65.5216L50.9072 55.3833L68.2719 55.8147Z" fill="#313B6B"/>
<path d="M59.5893 57.1632C52.2012 57.1632 45.5681 52.2558 42.1168 44.3285C38.2879 45.5149 34.1894 43.3578 33.003 39.5289C31.8166 35.7001 33.9737 31.6015 37.8025 30.4151C38.5036 30.1994 39.2586 30.0916 39.9597 30.0916H40.0136C41.2539 18.0658 49.6127 9.11377 59.5893 9.11377C69.5659 9.11377 77.9246 18.1197 79.165 30.0916H79.2189C83.2635 30.0916 86.4991 33.3273 86.553 37.3179C86.553 41.3625 83.3174 44.5981 79.3267 44.652C78.5717 44.652 77.8168 44.5442 77.0618 44.3285C73.6104 52.2558 66.9773 57.1632 59.5893 57.1632Z" fill="#F6CCBD"/>
<path d="M59.5898 9.70713C69.5125 9.70713 77.6555 18.9287 78.6262 30.7389C78.8419 30.7389 79.0037 30.685 79.2194 30.685C82.8865 30.685 85.9064 33.651 85.9064 37.372C85.9064 41.0391 82.9404 44.059 79.2194 44.059C78.3566 44.059 77.4937 43.8972 76.6848 43.5736C73.557 51.2853 67.0857 56.5702 59.5359 56.5702C51.986 56.5702 45.5686 51.2853 42.3869 43.5736C38.9895 44.9758 35.0528 43.3579 33.7046 39.9065C32.3025 36.5091 33.9203 32.5724 37.3716 31.2242C38.1806 30.9007 39.0434 30.7389 39.9062 30.7389C40.1219 30.7389 40.3377 30.7389 40.4994 30.7928C41.578 18.9288 49.721 9.70713 59.5898 9.70713ZM59.5898 8.52075C49.3975 8.52075 40.9309 17.4727 39.4748 29.4986C35.1067 29.7682 31.8171 33.4892 32.0867 37.8573C32.3564 42.2255 36.0774 45.515 40.4455 45.2454C40.8769 45.1915 41.3623 45.1375 41.7937 45.0297C45.4068 52.9031 52.0939 57.7566 59.5898 57.7566C67.0857 57.7566 73.8267 52.9031 77.3859 45.0297C81.6461 46.0543 85.9064 43.4119 86.8771 39.2055C87.9017 34.9453 85.2593 30.685 81.0529 29.7143C80.6215 29.6064 80.1362 29.5525 79.7047 29.4986C78.2487 17.4727 69.7821 8.52075 59.5898 8.52075Z" fill="#313B6B"/>
<path d="M50.0939 37.1762C51.0748 37.1147 51.82 36.2697 51.7585 35.2888C51.697 34.3079 50.8519 33.5626 49.871 33.6242C48.8901 33.6857 48.1449 34.5308 48.2064 35.5117C48.2679 36.4926 49.113 37.2378 50.0939 37.1762Z" fill="#313B6B"/>
<path d="M69.3991 37.1784C70.3799 37.1169 71.1252 36.2719 71.0637 35.291C71.0021 34.3101 70.1571 33.5648 69.1762 33.6264C68.1953 33.6879 67.45 34.533 67.5116 35.5139C67.5731 36.4948 68.4182 37.24 69.3991 37.1784Z" fill="#313B6B"/>
<path d="M60.8297 43.6272C58.9422 43.4114 57.594 41.7936 57.7558 39.9061L58.2412 34.4595L59.4276 34.5674L58.9422 40.014C58.8344 41.2004 59.7511 42.279 60.9376 42.4408L60.8297 43.6272Z" fill="#313B6B"/>
<path d="M37.4259 84.7202H36.1855V104.943H37.4259V84.7202Z" fill="#313B6B"/>
<path d="M83.0482 84.7202H81.8079V104.943H83.0482V84.7202Z" fill="#313B6B"/>
<path d="M41.2546 25.5615C34.6755 27.1254 30.6309 33.7585 32.1948 40.3377C33.2734 44.8137 36.7786 48.319 41.2546 49.3975V25.5615Z" fill="#313B6B"/>
<path d="M77.9792 25.5615C84.5584 27.1254 88.603 33.7585 87.0391 40.3377C85.9605 44.8137 82.4552 48.319 77.9792 49.3975V25.5615Z" fill="#313B6B"/>
<path d="M83.5339 35.4304H82.2935V23.9438C82.2935 11.3787 72.1012 1.24036 59.5901 1.24036C47.0789 1.24036 36.8866 11.4326 36.8866 23.9438V35.4304H35.6462V23.9438C35.6462 10.7316 46.3778 0 59.5901 0C72.8023 0 83.5339 10.7316 83.5339 23.9438V35.4304Z" fill="#313B6B"/>
<path d="M39.2053 34.2977V24.2132C39.2053 12.9423 48.3191 3.82861 59.5899 3.82861C70.8608 3.82861 79.9745 12.9423 79.9745 24.2132V34.2977C79.9745 34.2977 71.0226 28.6892 69.944 21.3011C69.944 21.3011 59.4281 32.572 39.2053 34.2977Z" fill="#313B6B"/>
<path d="M51.5549 58.7271H40.5537V79.4891H51.5549V58.7271Z" fill="#313B6B"/>
<path d="M66.8159 93.6179H52.4172V149.001H66.8159V93.6179Z" fill="#F6CCBD"/>
<path d="M67.4097 149.595H51.7708V93.0249H67.4097V149.595ZM53.0111 148.409H66.1694V94.2653H53.0111V148.409Z" fill="#313B6B"/>
<path d="M66.8159 93.6179H52.4172V149.001H66.8159V93.6179Z" fill="#F6CCBD"/>
<path d="M67.4097 149.595H51.7708V93.0249H67.4097V149.595ZM53.0111 148.409H66.1694V94.2653H53.0111V148.409Z" fill="#313B6B"/>
<path d="M3.23549 92.9172H115.944C117.346 92.9172 118.533 94.0497 118.533 95.5058V156.12C118.533 157.522 117.4 158.709 115.944 158.709H3.23549C1.83337 158.709 0.646973 157.576 0.646973 156.12V95.5058C0.7009 94.0497 1.83337 92.9172 3.23549 92.9172Z" fill="#E6E6E6"/>
<path d="M59.5901 133.848C64.0576 133.848 67.6792 130.226 67.6792 125.759C67.6792 121.291 64.0576 117.67 59.5901 117.67C55.1226 117.67 51.501 121.291 51.501 125.759C51.501 130.226 55.1226 133.848 59.5901 133.848Z" fill="white"/>
<path d="M59.5905 159.248H3.29012C1.51051 159.248 0.108398 157.846 0.108398 156.066V141.236H1.34872V156.066C1.34872 157.145 2.21157 158.062 3.29012 158.062H59.5905V159.248Z" fill="#313B6B"/>
<path d="M115.944 159.248H72.0472V158.008H115.944C117.023 158.008 117.94 157.145 117.94 156.013V95.398C117.94 94.3195 117.077 93.4028 115.944 93.4028H3.23565C2.1571 93.4028 1.24033 94.2656 1.24033 95.398V117.616H0V95.398C0 93.6184 1.40211 92.2163 3.18172 92.2163H115.89C117.67 92.2163 119.072 93.6184 119.072 95.398V156.013C119.126 157.846 117.724 159.248 115.944 159.248Z" fill="#313B6B"/>
<path d="M59.5901 52.957C56.2466 52.957 53.4963 50.2606 53.4963 46.8632V46.27H65.63V46.8632C65.684 50.2606 62.9336 52.957 59.5901 52.957Z" fill="white"/>
<path d="M65.0368 46.9173C65.0368 49.9372 62.61 52.364 59.5901 52.364C56.5701 52.364 54.1434 49.9372 54.1434 46.9173H65.0368ZM66.2771 45.677H52.9031V46.9173C52.9031 50.5844 55.8691 53.6043 59.5901 53.6043C63.3111 53.6043 66.2771 50.6383 66.2771 46.9173V45.677Z" fill="#313B6B"/>
<path d="M72.2089 29.5522H66.3848V30.7926H72.2089V29.5522Z" fill="#313B6B"/>
<path d="M52.7951 29.5522H46.9709V30.7926H52.7951V29.5522Z" fill="#313B6B"/>
</svg>
