<svg width="295" height="330" viewBox="0 0 295 330" fill="none" xmlns="http://www.w3.org/2000/svg">
<path opacity="0.5" d="M151.981 330C222.826 330 280.257 326.48 280.257 322.139C280.257 317.798 222.826 314.278 151.981 314.278C81.1362 314.278 23.7051 317.798 23.7051 322.139C23.7051 326.48 81.1362 330 151.981 330Z" fill="#DAEDEC"/>
<path d="M102.91 281.789C103.021 281.444 102.589 281.046 101.946 280.883C97.1301 279.679 92.3492 278.329 87.621 276.868C82.8928 275.406 78.2113 273.834 73.6 272.128C68.9828 270.427 64.4416 268.58 60.0056 266.57C55.5696 264.559 51.2563 262.35 47.13 259.913L45.6046 258.972L44.8448 258.498C44.5935 258.34 44.348 258.171 44.1026 258.007L42.6181 257.025L41.1745 255.997L40.4556 255.482L39.7601 254.939L38.3749 253.852C37.9132 253.489 37.4457 253.133 36.9956 252.759L35.6748 251.608C32.1505 248.545 28.9009 245.243 25.9494 241.736C22.9863 238.235 20.2686 234.582 17.6853 230.848C15.102 227.113 12.659 223.297 10.1692 219.492C9.83606 218.983 9.28083 218.714 8.92432 218.896C8.5678 219.077 8.55027 219.632 8.8834 220.141C11.3673 223.934 13.8162 227.768 16.417 231.526C19.012 235.284 21.7589 238.978 24.7572 242.519C27.7437 246.067 31.04 249.422 34.6227 252.537L35.9611 253.706C36.417 254.086 36.8963 254.448 37.3638 254.816L38.7782 255.921L39.4854 256.476L40.2218 257.002L41.6946 258.048L43.2084 259.048C43.4597 259.211 43.711 259.381 43.9682 259.544L44.7396 260.024L46.2884 260.976C50.4731 263.454 54.8331 265.687 59.3101 267.715C63.787 269.743 68.3632 271.608 73.0097 273.314C77.6502 275.032 82.3609 276.616 87.1125 278.083C91.87 279.55 96.6683 280.912 101.525 282.122C102.18 282.285 102.799 282.134 102.91 281.789Z" fill="#7FD0C0"/>
<path d="M4.77422 217.218C5.51063 218.077 7.01267 219.159 8.30432 220.065C9.6018 220.959 10.7181 221.648 10.7181 221.648C10.7181 221.648 10.5954 220.52 10.3499 219.106C10.1161 217.692 9.71869 215.997 9.24529 214.869C9.09333 214.518 8.79526 214.039 8.41536 213.536C8.02378 213.039 7.57375 212.508 7.02436 212.075C5.93728 211.204 4.68655 210.69 3.61116 211.339C2.53576 211.987 2.58252 213.174 3.0267 214.319C3.25464 214.886 3.54687 215.488 3.86831 215.991C4.17808 216.499 4.51706 216.932 4.77422 217.218Z" fill="#7FD0C0"/>
<path d="M5.24788 225.705C6.51614 225.985 8.60264 226.079 10.3794 226.102C12.1503 226.126 13.6056 226.073 13.6056 226.073C13.6056 226.073 12.6763 225.302 11.4431 224.372C10.2157 223.443 8.69031 222.356 7.48634 221.766C6.73239 221.392 5.18359 220.895 3.68154 220.754C2.1795 220.62 0.735898 220.836 0.180667 221.806C-0.947328 223.718 3.50621 225.302 5.24788 225.705Z" fill="#7FD0C0"/>
<path d="M9.65461 232.993C11.0105 233.291 13.2256 233.361 15.0842 233.343C16.9427 233.332 18.4682 233.226 18.4682 233.226C18.4682 233.226 18.211 233.034 17.7961 232.718C17.3811 232.402 16.8025 231.97 16.142 231.491C14.8095 230.544 13.1964 229.416 11.9164 228.785C11.1099 228.387 9.47928 227.861 7.88956 227.686C6.30569 227.51 4.76858 227.692 4.18997 228.738C3.61136 229.784 4.50558 230.742 5.79138 231.496C7.08302 232.256 8.73702 232.794 9.65461 232.993Z" fill="#7FD0C0"/>
<path d="M14.8684 240.877C16.3237 241.14 18.6264 241.134 20.6077 241.006C22.5773 240.889 24.1612 240.69 24.1612 240.69C24.1612 240.69 23.8807 240.503 23.4189 240.193C22.9514 239.889 22.3026 239.474 21.5779 239.007C20.1518 238.066 18.3283 236.973 16.9724 236.336C16.1191 235.944 14.3482 235.436 12.665 235.284C10.9934 235.132 9.37451 235.342 8.81344 236.47C8.5329 237.037 8.63226 237.575 8.99462 238.072C9.36282 238.568 9.97066 239.019 10.672 239.41C11.3792 239.796 12.1565 240.129 12.9163 240.374C13.6761 240.614 14.3716 240.789 14.8684 240.877Z" fill="#7FD0C0"/>
<path d="M21.2679 249.194C22.8459 249.369 25.3123 249.17 27.3462 248.896C28.369 248.755 29.2691 248.609 29.9471 248.475C30.6192 248.346 31.0283 248.259 31.0283 248.259C31.0283 248.259 30.7068 248.089 30.1867 247.814C29.6782 247.528 28.9652 247.136 28.1469 246.71C26.4929 245.874 24.5526 244.81 23.0271 244.249C22.0628 243.91 20.2042 243.454 18.4041 243.384C16.6157 243.314 14.9149 243.606 14.4298 244.834C14.1902 245.447 14.3597 246.02 14.7922 246.534C15.0084 246.792 15.2831 247.031 15.5987 247.259C15.7565 247.37 15.926 247.481 16.1072 247.586C16.2884 247.692 16.4871 247.785 16.6858 247.879C18.2755 248.627 20.2159 249.065 21.2679 249.194Z" fill="#7FD0C0"/>
<path d="M29.3976 257.633C30.2334 257.651 31.2795 257.557 32.3842 257.382C33.5063 257.195 34.6752 256.938 35.7214 256.669C37.8254 256.137 39.456 255.576 39.456 255.576C39.456 255.576 38.0534 254.997 36.1948 254.313C35.7214 254.15 35.2597 253.945 34.7687 253.758C34.2836 253.565 33.781 253.372 33.2842 253.191C32.7874 253.01 32.2906 252.835 31.8172 252.683C31.5776 252.607 31.3438 252.537 31.1217 252.467C30.8996 252.396 30.6892 252.326 30.4847 252.274C29.4619 251.987 27.4163 251.701 25.4993 251.783C23.6115 251.853 21.8757 252.28 21.5075 253.63C21.4198 253.969 21.4315 254.29 21.5425 254.588C21.6594 254.88 21.8582 255.155 22.127 255.412C22.6647 255.921 23.4596 256.341 24.3362 256.68C24.7804 256.85 25.2304 256.996 25.698 257.119C26.1714 257.236 26.6507 257.329 27.1007 257.405C28.0124 257.551 28.8307 257.621 29.3976 257.633Z" fill="#7FD0C0"/>
<path d="M18.8658 221.707C18.4976 222.8 17.5274 224.424 16.6565 225.774C15.7915 227.119 15.0201 228.2 15.0201 228.2C15.0201 228.2 14.9499 227.925 14.8272 227.481C14.7103 227.037 14.5583 226.412 14.4181 225.716C14.1258 224.319 13.8453 222.624 13.8628 221.403C13.8745 220.637 14.1726 219.211 14.7687 217.984C15.3649 216.756 16.2708 215.734 17.5332 215.815C18.7956 215.903 19.269 217.019 19.3392 218.276C19.4152 219.533 19.1171 220.964 18.8658 221.707Z" fill="#7FD0C0"/>
<path d="M23.8395 228.51C23.4654 229.661 22.5128 231.362 21.6595 232.8C20.8062 234.238 20.0464 235.407 20.0464 235.407C20.0464 235.407 19.6782 234.267 19.3041 232.823C18.9359 231.374 18.6086 229.597 18.5969 228.335C18.5969 226.733 19.8009 222.373 22.4251 222.508C23.7343 222.572 24.2018 223.677 24.2895 224.974C24.3772 226.266 24.0908 227.727 23.8395 228.51Z" fill="#7FD0C0"/>
<path d="M29.4443 235.465C29.1404 236.657 28.2462 238.492 27.4572 240.052C27.0597 240.824 26.7032 241.531 26.4402 242.04C26.1714 242.548 26.0019 242.87 26.0019 242.87C26.0019 242.87 25.8791 242.577 25.6804 242.11C25.4759 241.642 25.2479 240.964 25.0025 240.216C24.757 239.468 24.5115 238.638 24.3128 237.837C24.1316 237.025 24.003 236.23 23.968 235.576C23.9446 235.161 23.9914 234.564 24.1141 233.904C24.2368 233.244 24.4648 232.507 24.7687 231.835C25.3824 230.485 26.3525 229.363 27.7143 229.369C29.0819 229.369 29.5846 230.497 29.7365 231.794C29.8885 233.103 29.6372 234.658 29.4443 235.465Z" fill="#7FD0C0"/>
<path d="M35.9667 242.35C35.7329 243.635 35.0316 245.576 34.4062 247.271C33.775 248.96 33.2198 250.363 33.2198 250.363C33.2198 250.363 32.5652 249.182 31.858 247.686C31.4898 246.949 31.1742 246.078 30.8878 245.26C30.6073 244.43 30.3794 243.635 30.2742 242.957C30.1573 242.092 30.2683 240.438 30.7943 239.012C31.3086 237.592 32.273 236.347 33.6757 236.26C35.0959 236.149 35.7154 237.218 35.955 238.568C36.0135 238.907 36.0544 239.252 36.0836 239.597C36.1128 239.942 36.1187 240.292 36.1187 240.626C36.0953 241.298 36.0369 241.917 35.9667 242.35Z" fill="#7FD0C0"/>
<path d="M43.6993 248.855C43.6817 249.515 43.5531 250.374 43.3778 251.309C43.2901 251.777 43.1908 252.262 43.0914 252.741C42.9921 253.215 42.8986 253.694 42.805 254.144C42.4135 255.985 42.092 257.493 42.092 257.493C42.092 257.493 41.8758 257.206 41.5251 256.745C41.3556 256.511 41.151 256.236 40.9231 255.926C40.8121 255.769 40.6952 255.611 40.5783 255.441C40.4672 255.266 40.3503 255.085 40.2334 254.892C39.2983 253.378 38.2521 251.584 37.8956 250.158C37.7729 249.72 37.6794 249.077 37.6677 248.352C37.6619 247.99 37.6735 247.61 37.7086 247.224C37.7437 246.838 37.8197 246.435 37.919 246.049C38.3047 244.5 39.1522 243.15 40.5958 242.893C41.3205 242.765 41.8582 242.963 42.2673 243.361C42.694 243.741 42.9921 244.319 43.1966 244.986C43.407 245.646 43.5239 246.406 43.5941 247.095C43.6817 247.773 43.7109 248.405 43.6993 248.855Z" fill="#7FD0C0"/>
<path d="M39.912 265.856C40.7886 265.751 41.864 265.5 42.9803 265.161C44.1025 264.81 45.2597 264.383 46.2942 263.962C47.3287 263.548 48.2521 263.133 48.9184 262.823C49.5847 262.513 49.9879 262.308 49.9879 262.308C49.9879 262.308 49.5905 262.215 48.9359 262.063C48.2872 261.905 47.393 261.683 46.3702 261.455C45.3532 261.227 44.2369 260.947 43.1265 260.719C42.0277 260.479 40.9581 260.257 40.0405 260.146C39.4678 260.076 38.6437 260.017 37.7027 260.029C37.2293 260.035 36.7325 260.052 36.2241 260.093C35.7156 260.134 35.2246 260.175 34.7279 260.245C32.7699 260.538 30.9932 261.192 30.8646 262.653C30.8062 263.384 31.1802 263.992 31.829 264.477C32.5011 264.95 33.4362 265.301 34.4356 265.552C36.4461 266.008 38.7197 266.014 39.912 265.856Z" fill="#7FD0C0"/>
<path d="M53.1555 254.758C53.3542 256.155 53.3074 258.411 53.2197 260.38C53.1496 262.326 53.0503 263.945 53.0503 263.945C53.0503 263.945 52.7756 263.682 52.3314 263.244C51.8872 262.817 51.291 262.192 50.6598 261.485C50.3442 261.128 50.0111 260.766 49.6955 260.374C49.3799 259.983 49.0643 259.585 48.7721 259.188C48.1701 258.405 47.6791 257.598 47.3401 256.908C46.9018 256.055 46.4985 254.278 46.6154 252.659C46.7557 251.017 47.4278 249.527 48.8597 249.042C49.2162 248.919 49.5377 248.89 49.8299 248.931C50.128 248.972 50.4027 249.077 50.6482 249.246C50.8936 249.416 51.1157 249.638 51.3203 249.907C51.4196 250.041 51.5131 250.181 51.6067 250.333C51.7002 250.485 51.7937 250.637 51.8813 250.801C52.2262 251.456 52.495 252.209 52.7054 252.917C52.9275 253.624 53.0795 254.284 53.1555 254.758Z" fill="#7FD0C0"/>
<path d="M52.2908 273.039C54.0558 272.619 56.5748 271.473 58.6321 270.374C59.6607 269.831 60.5666 269.316 61.2212 268.937C61.8758 268.551 62.2732 268.3 62.2732 268.3C62.2732 268.3 61.8466 268.235 61.1511 268.136C60.4556 268.031 59.4854 267.896 58.3925 267.756C57.3112 267.604 56.0956 267.464 54.9208 267.341C53.7519 267.212 52.6005 267.131 51.6479 267.119C50.4556 267.101 48.1879 267.382 46.2124 267.966C44.237 268.563 42.5304 269.515 42.6473 271.023C42.7057 271.777 43.1967 272.332 43.9331 272.724C44.6695 273.127 45.6572 273.326 46.6975 273.431C47.7379 273.542 48.8425 273.501 49.8302 273.419C50.8179 273.326 51.6888 273.191 52.2908 273.039Z" fill="#7FD0C0"/>
<path d="M64.6343 260.117C64.8564 260.83 65.0084 261.801 65.1428 262.829C65.2772 263.864 65.3766 264.974 65.4526 266.003C65.5285 267.031 65.587 267.961 65.6279 268.644C65.663 269.322 65.6863 269.749 65.6863 269.749C65.6863 269.749 65.3707 269.498 64.8506 269.083C64.3362 268.668 63.6466 268.066 62.8926 267.394C62.1387 266.722 61.3438 265.938 60.6133 265.173C59.8886 264.401 59.2457 263.618 58.7781 262.934C58.4859 262.508 58.1644 261.836 57.8897 261.064C57.615 260.293 57.3812 259.422 57.3111 258.551C57.1533 256.815 57.5507 255.161 59.0119 254.501C59.7424 254.168 60.397 254.238 60.999 254.547C61.6068 254.851 62.1504 255.412 62.6296 256.079C63.5998 257.388 64.3246 259.141 64.6343 260.117Z" fill="#7FD0C0"/>
<path d="M66.1479 279.428C67.0363 279.135 68.1117 278.644 69.2221 278.066C70.3326 277.481 71.4723 276.803 72.4892 276.166C73.512 275.529 74.4179 274.922 75.0667 274.471C75.7154 274.021 76.1129 273.741 76.1129 273.741C76.1129 273.741 75.657 273.706 74.9206 273.647C74.1783 273.595 73.1555 273.513 71.9983 273.449C70.8469 273.379 69.567 273.308 68.3279 273.279C67.0947 273.238 65.8908 273.244 64.8913 273.314C63.6465 273.402 61.3262 273.893 59.3507 274.699C57.3753 275.518 55.7446 276.675 56.0252 278.23C56.3057 279.778 58.2578 280.322 60.4144 280.328C61.4898 280.339 62.6237 280.205 63.6348 280.035C64.6517 279.854 65.5401 279.632 66.1479 279.428Z" fill="#7FD0C0"/>
<path d="M77.8197 265.009C78.1236 265.751 78.3866 266.745 78.6262 267.82C78.8659 268.895 79.0646 270.058 79.2399 271.122C79.5906 273.255 79.8068 275.026 79.8068 275.026C79.8068 275.026 79.4503 274.781 78.8776 274.378C78.3048 273.968 77.5216 273.402 76.6742 272.741C74.9734 271.426 73.0272 269.737 71.9167 268.364C71.566 267.937 71.1511 267.265 70.777 266.476C70.403 265.687 70.0581 264.793 69.877 263.887C69.4971 262.081 69.7016 260.31 71.1803 259.503C72.6473 258.703 74.0675 259.568 75.2539 260.9C75.8501 261.561 76.3878 262.338 76.8261 263.08C77.2645 263.805 77.6151 264.506 77.8197 265.009Z" fill="#7FD0C0"/>
<path d="M81.461 285.255C83.2728 284.541 85.7976 282.917 87.8374 281.456C88.8602 280.725 89.7602 280.035 90.409 279.533C91.0577 279.024 91.4493 278.703 91.4493 278.703C91.4493 278.703 89.5381 278.644 87.1127 278.633C84.6872 278.627 81.7357 278.662 79.6667 278.937C78.3692 279.118 75.9905 279.772 74.0092 280.766C72.0279 281.754 70.444 283.086 70.859 284.688C71.2798 286.295 73.3371 286.704 75.5755 286.564C76.6919 286.499 77.8608 286.295 78.8952 286.044C79.9356 285.792 80.8415 285.5 81.461 285.255Z" fill="#7FD0C0"/>
<path d="M92.5654 269.463C93.3194 270.976 94.0032 273.565 94.535 275.781C95.061 277.996 95.4234 279.837 95.4234 279.837C95.4234 279.837 93.8454 278.913 91.9634 277.622C90.0815 276.336 87.9015 274.693 86.6274 273.314C86.2241 272.887 85.7332 272.21 85.2656 271.409C84.798 270.608 84.3714 269.685 84.0908 268.75C83.5298 266.885 83.5765 265.015 85.0669 264.074C85.815 263.606 86.5806 263.577 87.3287 263.84C88.0827 264.091 88.8249 264.635 89.5087 265.295C90.8763 266.616 92.0453 268.428 92.5654 269.463Z" fill="#7FD0C0"/>
<path d="M137.737 278.252C138.187 278.205 138.421 277.639 138.252 276.984C135.791 267.177 132.723 257.434 129.035 247.814C125.353 238.194 121.051 228.708 116.206 219.392C113.746 214.745 111.197 210.128 108.474 205.57C105.744 201.017 102.898 196.511 99.9057 192.063C93.8975 183.179 87.3984 174.518 80.3499 166.154C79.8823 165.593 79.1985 165.318 78.8362 165.529C78.468 165.739 78.5673 166.359 79.029 166.914C86.0366 175.231 92.5065 183.851 98.4797 192.682C101.455 197.107 104.283 201.589 107.001 206.119C109.707 210.648 112.244 215.242 114.692 219.865C119.514 229.129 123.787 238.568 127.451 248.135C131.116 257.703 134.172 267.393 136.621 277.148C136.791 277.808 137.287 278.299 137.737 278.252Z" fill="#7FD0C0"/>
<path d="M73.8627 163.776C74.8738 164.699 76.7382 165.891 78.3747 166.844C79.9878 167.814 81.3671 168.551 81.3671 168.551C81.3671 168.551 81.0222 167.294 80.4962 165.722C79.9468 164.161 79.2104 162.268 78.4448 161.035C77.9655 160.263 76.82 158.931 75.4758 157.995C74.1374 157.054 72.647 156.487 71.5249 157.201C70.4027 157.914 70.6482 159.24 71.3437 160.544C72.0509 161.841 73.1672 163.144 73.8627 163.776Z" fill="#7FD0C0"/>
<path d="M75.9317 173.162C77.387 173.436 79.7306 173.501 81.7236 173.501C83.7224 173.501 85.3472 173.454 85.3472 173.454C85.3472 173.454 85.0608 173.232 84.5757 172.893C84.0906 172.548 83.4127 172.08 82.647 171.572C81.1275 170.549 79.2105 169.386 77.7552 168.755C77.2993 168.556 76.6155 168.328 75.8323 168.141C75.0433 167.954 74.1549 167.802 73.3016 167.75C71.5892 167.639 70.0112 167.913 69.567 169.018C69.1169 170.122 70.2274 171.046 71.6652 171.765C73.1146 172.484 74.9381 172.975 75.9317 173.162Z" fill="#7FD0C0"/>
<path d="M81.6947 181.023C83.2143 181.356 85.6866 181.484 87.7906 181.549C89.8771 181.619 91.5954 181.613 91.5954 181.613C91.5954 181.613 91.2973 181.379 90.8122 180.999C90.3271 180.619 89.6316 180.111 88.8426 179.556C88.0536 179 87.1769 178.404 86.3061 177.855C85.4411 177.306 84.5586 176.82 83.8105 176.464C82.8636 176.026 80.97 175.435 79.1699 175.277C77.3698 175.114 75.6924 175.359 75.1839 176.499C74.9268 177.072 75.0846 177.604 75.482 178.095C75.8794 178.591 76.5223 179.036 77.2704 179.433C78.0185 179.825 78.866 180.164 79.655 180.438C80.4499 180.707 81.1746 180.912 81.6947 181.023Z" fill="#7FD0C0"/>
<path d="M87.5795 189.632C89.1692 190.023 91.7759 190.24 93.9676 190.386C96.1651 190.526 97.9769 190.579 97.9769 190.579C97.9769 190.579 96.773 189.55 95.1774 188.329C93.5585 187.119 91.5772 185.716 90.0167 184.933C89.0406 184.442 87.0535 183.776 85.1832 183.548C83.3072 183.314 81.5187 183.524 80.9401 184.693C80.3557 185.868 81.4603 186.955 83.0032 187.826C83.389 188.042 83.8039 188.247 84.2189 188.434C84.6339 188.621 85.0547 188.796 85.4579 188.954C86.2762 189.264 87.036 189.497 87.5795 189.632Z" fill="#7FD0C0"/>
<path d="M93.5298 199.059C95.1955 199.52 97.8898 199.854 100.21 200.076C102.525 200.298 104.43 200.421 104.43 200.421C104.43 200.421 103.202 199.304 101.584 197.977C101.18 197.644 100.754 197.3 100.309 196.955C99.8594 196.61 99.4035 196.271 98.9418 195.944C98.0242 195.289 97.1183 194.687 96.3235 194.249C95.3357 193.693 93.2551 192.94 91.2972 192.636C89.3276 192.332 87.4573 192.484 86.7793 193.693C86.1014 194.903 87.2294 196.066 88.8074 197.025C90.362 197.983 92.3959 198.743 93.5298 199.059Z" fill="#7FD0C0"/>
<path d="M99.4615 209.375C101.168 209.924 104.014 210.368 106.446 210.69C107.667 210.847 108.76 210.982 109.561 211.075C110.362 211.163 110.858 211.216 110.858 211.216C110.858 211.216 109.654 209.994 107.995 208.55C107.17 207.826 106.247 207.043 105.329 206.318C104.4 205.599 103.465 204.939 102.647 204.453C101.612 203.846 99.52 202.957 97.4452 202.577C95.3821 202.192 93.4008 202.279 92.6293 203.518C92.2435 204.138 92.3312 204.757 92.7228 205.359C93.1027 205.961 93.7807 206.546 94.5814 207.078C96.1886 208.13 98.3043 208.989 99.4615 209.375Z" fill="#7FD0C0"/>
<path d="M90.5898 168.55C90.3794 169.801 89.5378 171.636 88.7546 173.15C87.9656 174.664 87.235 175.85 87.235 175.85C87.235 175.85 86.7499 174.629 86.2181 173.057C85.6862 171.49 85.0667 169.585 84.8739 168.211C84.7511 167.358 84.8096 165.745 85.2479 164.348C85.6921 162.951 86.5103 161.777 87.9481 161.847C89.38 161.917 90.1339 163.173 90.4846 164.611C90.8119 166.066 90.7359 167.697 90.5898 168.55Z" fill="#7FD0C0"/>
<path d="M97.3285 176.645C97.0421 177.955 96.0836 179.848 95.1952 181.403C94.751 182.18 94.3244 182.876 94.0029 183.372C93.6873 183.869 93.4769 184.179 93.4769 184.179C93.4769 184.179 93.3659 183.852 93.1847 183.326C93.0094 182.794 92.7639 182.057 92.5184 181.227C92.0333 179.568 91.4547 177.557 91.3086 176.113C91.2209 175.208 91.3495 173.524 91.8638 172.081C92.384 170.637 93.2957 169.433 94.8036 169.55C96.3057 169.673 97.0713 171 97.3635 172.525C97.6616 174.05 97.5213 175.757 97.3285 176.645Z" fill="#7FD0C0"/>
<path d="M104.237 185.575C103.874 186.931 102.787 188.883 101.782 190.479C101.285 191.274 100.789 191.993 100.426 192.501C100.058 193.01 99.83 193.325 99.83 193.325C99.83 193.325 99.4267 191.946 98.965 190.204C98.7371 189.333 98.5033 188.363 98.3163 187.416C98.1234 186.475 97.9656 185.57 97.9188 184.816C97.8545 183.875 98.0942 182.098 98.6903 180.608C99.2981 179.117 100.303 177.884 101.893 178.053C102.688 178.141 103.267 178.539 103.682 179.111C104.085 179.69 104.324 180.45 104.453 181.256C104.71 182.869 104.494 184.646 104.237 185.575Z" fill="#7FD0C0"/>
<path d="M111.262 195.418C110.812 196.826 109.596 198.819 108.433 200.456C107.282 202.092 106.241 203.361 106.241 203.361C106.241 203.361 106.154 202.998 106.008 202.408C105.867 201.818 105.692 200.988 105.493 200.064C105.084 198.229 104.693 195.979 104.657 194.395C104.634 193.407 104.95 191.572 105.669 190.023C106.393 188.474 107.492 187.23 109.169 187.463C110.829 187.703 111.519 189.223 111.712 190.912C111.759 191.332 111.776 191.765 111.77 192.192C111.759 192.618 111.724 193.039 111.671 193.442C111.572 194.237 111.414 194.939 111.262 195.418Z" fill="#7FD0C0"/>
<path d="M118.334 206.254C117.802 207.703 116.364 209.754 115.073 211.414C113.781 213.074 112.618 214.36 112.618 214.36C112.618 214.36 112.297 212.835 111.998 210.894C111.923 210.409 111.847 209.895 111.782 209.375C111.706 208.854 111.636 208.328 111.578 207.808C111.461 206.768 111.396 205.763 111.426 204.933C111.478 203.892 111.882 201.993 112.712 200.403C113.541 198.819 114.792 197.545 116.528 197.861C118.258 198.176 118.936 199.784 119.041 201.56C119.141 203.337 118.702 205.266 118.334 206.254Z" fill="#7FD0C0"/>
<path d="M105.4 220.853C106.288 221.175 107.481 221.479 108.767 221.759C110.041 222.04 111.414 222.297 112.682 222.519C115.213 222.963 117.311 223.255 117.311 223.255C117.311 223.255 116.084 221.934 114.453 220.345C112.799 218.761 110.719 216.926 109.059 215.839C108.007 215.161 105.809 214.161 103.67 213.67C101.531 213.179 99.4445 213.191 98.5561 214.453C97.6619 215.716 98.7665 217.072 100.409 218.241C102.045 219.415 104.179 220.415 105.4 220.853Z" fill="#7FD0C0"/>
<path d="M125.464 218.399C124.798 219.895 123.22 221.964 121.741 223.647C120.274 225.33 118.971 226.616 118.971 226.616C118.971 226.616 118.918 226.213 118.825 225.558C118.737 224.904 118.644 223.986 118.527 222.963C118.305 220.929 118.129 218.44 118.258 216.715C118.346 215.634 118.918 213.659 119.883 212.028C120.835 210.409 122.215 209.135 124.038 209.533C125.873 209.924 126.452 211.654 126.47 213.513C126.475 214.442 126.347 215.406 126.154 216.265C125.949 217.13 125.686 217.884 125.464 218.399Z" fill="#7FD0C0"/>
<path d="M111.128 233.401C112.969 234.149 116.043 234.892 118.69 235.47C120.011 235.757 121.221 236.002 122.104 236.177C122.98 236.347 123.524 236.452 123.524 236.452C123.524 236.452 123.232 236.09 122.723 235.517C122.215 234.944 121.507 234.149 120.695 233.284C119.889 232.419 118.948 231.484 118.012 230.613C117.071 229.743 116.148 228.936 115.289 228.34C114.219 227.586 111.987 226.44 109.76 225.838C107.522 225.236 105.312 225.16 104.313 226.435C103.319 227.703 104.383 229.17 106.031 230.461C106.446 230.783 106.89 231.099 107.352 231.391C107.808 231.689 108.275 231.964 108.725 232.221C109.637 232.735 110.502 233.144 111.128 233.401Z" fill="#7FD0C0"/>
<path d="M132.419 231.759C132.028 232.525 131.385 233.431 130.619 234.354C129.854 235.278 128.983 236.224 128.159 237.066C127.335 237.908 126.563 238.65 125.99 239.182C125.423 239.714 125.055 240.035 125.055 240.035C125.055 240.035 125.02 239.614 124.967 238.925C124.921 238.235 124.856 237.276 124.816 236.207C124.78 235.131 124.722 233.957 124.74 232.811C124.745 232.238 124.763 231.677 124.798 231.151C124.827 230.619 124.868 230.123 124.932 229.673C125.09 228.55 125.827 226.505 126.925 224.857C128.036 223.209 129.567 221.934 131.461 222.431C132.408 222.683 133.015 223.261 133.378 224.021C133.728 224.787 133.834 225.728 133.787 226.704C133.699 228.644 132.951 230.713 132.419 231.759Z" fill="#7FD0C0"/>
<path d="M116.493 247.095C118.363 247.966 121.589 248.884 124.319 249.62C127.06 250.351 129.339 250.888 129.339 250.888C129.339 250.888 129.041 250.503 128.556 249.877C128.059 249.252 127.381 248.393 126.575 247.452C125.768 246.511 124.851 245.488 123.933 244.535C123.004 243.583 122.057 242.7 121.209 242.034C120.157 241.192 117.849 239.901 115.546 239.164C113.243 238.422 110.917 238.247 109.778 239.527C108.62 240.807 109.678 242.373 111.32 243.799C112.951 245.213 115.225 246.493 116.493 247.095Z" fill="#7FD0C0"/>
<path d="M139.041 246.423C138.106 247.989 136.06 250.076 134.196 251.753C132.343 253.431 130.718 254.693 130.718 254.693C130.718 254.693 130.677 252.928 130.736 250.684C130.753 249.567 130.794 248.328 130.888 247.136C130.97 245.944 131.092 244.804 131.297 243.869C131.566 242.7 132.425 240.614 133.717 238.936C135.014 237.265 136.691 236.008 138.661 236.622C140.607 237.241 141.057 239.176 140.823 241.204C140.572 243.244 139.69 245.359 139.041 246.423Z" fill="#7FD0C0"/>
<path d="M121.315 261.987C122.267 262.49 123.582 263.022 125.003 263.542C126.423 264.062 127.954 264.576 129.374 265.032C130.794 265.488 132.098 265.88 133.039 266.166C133.986 266.447 134.57 266.622 134.57 266.622C134.57 266.622 134.289 266.201 133.828 265.523C133.354 264.845 132.682 263.91 131.911 262.887C130.356 260.842 128.351 258.44 126.651 256.961C125.599 256.026 123.261 254.565 120.888 253.682C118.515 252.794 116.066 252.496 114.78 253.764C113.477 255.032 114.471 256.721 116.101 258.288C116.914 259.071 117.89 259.825 118.831 260.468C119.772 261.105 120.66 261.642 121.315 261.987Z" fill="#7FD0C0"/>
<path d="M145.125 262.483C144.044 264.062 141.695 266.136 139.631 267.779C137.557 269.427 135.745 270.66 135.745 270.66C135.745 270.66 135.85 268.813 136.06 266.487C136.177 265.318 136.3 264.032 136.481 262.799C136.668 261.56 136.873 260.374 137.148 259.415C137.317 258.813 137.691 257.977 138.182 257.083C138.673 256.189 139.31 255.236 140.046 254.395C141.531 252.717 143.39 251.496 145.423 252.238C147.428 252.986 147.779 255.026 147.381 257.136C147.183 258.194 146.82 259.257 146.399 260.198C145.967 261.139 145.499 261.946 145.125 262.483Z" fill="#7FD0C0"/>
<path d="M163.775 264.997C163.641 265.336 164.079 265.78 164.751 265.996C174.85 269.188 185.371 271.28 195.978 272.268L197.971 272.437C198.638 272.49 199.298 272.566 199.964 272.589L203.956 272.8C205.289 272.852 206.615 272.858 207.948 272.887C208.614 272.893 209.281 272.922 209.941 272.911L211.934 272.875L213.927 272.84L214.926 272.823C215.259 272.811 215.587 272.788 215.92 272.77L219.894 272.554C220.56 272.531 221.215 272.455 221.876 272.396L223.851 272.209L225.826 272.022L226.323 271.975L226.814 271.911L227.796 271.777L231.724 271.245C232.384 271.169 233.021 271.029 233.676 270.923L235.622 270.579C238.229 270.164 240.777 269.544 243.337 268.983C243.98 268.849 244.611 268.679 245.242 268.51L247.136 268.007C248.398 267.668 249.666 267.352 250.899 266.949L254.628 265.798L258.293 264.512C263.15 262.741 267.901 260.748 272.472 258.475C277.036 256.195 281.437 253.682 285.645 250.947C286.218 250.59 286.446 250.041 286.195 249.754C285.932 249.462 285.289 249.538 284.728 249.889C280.566 252.595 276.212 255.079 271.706 257.335C267.194 259.585 262.495 261.555 257.691 263.302L254.067 264.57L250.379 265.71C249.158 266.108 247.907 266.423 246.656 266.756L244.786 267.253C244.161 267.417 243.541 267.592 242.904 267.721C240.368 268.276 237.854 268.89 235.277 269.299L233.354 269.643C232.711 269.749 232.08 269.889 231.425 269.965L227.545 270.491L226.575 270.619L226.089 270.684L225.598 270.731L223.646 270.912L221.694 271.093C221.04 271.151 220.391 271.227 219.736 271.251L215.809 271.467C215.482 271.484 215.154 271.508 214.827 271.52L213.839 271.537L211.87 271.572L209.9 271.607C209.245 271.619 208.585 271.59 207.925 271.584C206.61 271.555 205.295 271.549 203.98 271.496L200.034 271.286C199.374 271.262 198.719 271.186 198.065 271.134L196.095 270.964C185.604 269.988 175.207 267.919 165.224 264.769C164.564 264.559 163.909 264.658 163.775 264.997Z" fill="#17B092"/>
<path d="M287.586 245.827C286.715 246.633 285.628 248.088 284.751 249.374C283.851 250.631 283.162 251.712 283.162 251.712C283.162 251.712 284.477 251.461 286.131 251.057C286.955 250.853 287.843 250.59 288.702 250.315C289.561 250.046 290.362 249.731 290.987 249.415C291.379 249.222 291.905 248.889 292.443 248.474C292.969 248.048 293.512 247.539 293.945 246.995C294.804 245.908 295.219 244.699 294.313 243.845C293.407 242.986 292.034 243.232 290.736 243.804C290.082 244.085 289.45 244.459 288.907 244.827C288.352 245.195 287.89 245.552 287.586 245.827Z" fill="#17B092"/>
<path d="M277.86 247.282C277.685 248.41 277.79 250.257 277.901 251.835C278.006 253.395 278.135 254.687 278.135 254.687C278.135 254.687 278.351 254.465 278.702 254.103C278.877 253.921 279.082 253.705 279.304 253.46C279.52 253.208 279.76 252.928 280.011 252.636C280.508 252.045 281.034 251.385 281.513 250.736C281.981 250.076 282.384 249.415 282.665 248.854C282.84 248.498 283.021 247.966 283.155 247.358C283.284 246.738 283.354 246.043 283.331 245.371C283.278 244.032 282.816 242.799 281.612 242.431C281.01 242.25 280.502 242.361 280.064 242.665C279.847 242.817 279.649 243.015 279.468 243.243C279.281 243.465 279.111 243.723 278.959 244.003C278.345 245.102 277.995 246.522 277.86 247.282Z" fill="#17B092"/>
<path d="M269.964 251.344C269.824 251.928 269.742 252.711 269.696 253.553C269.643 254.389 269.614 255.271 269.596 256.095C269.567 257.738 269.59 259.105 269.59 259.105C269.59 259.105 270.584 258.24 271.753 257.101C272.326 256.516 272.928 255.85 273.483 255.201C273.758 254.874 274.021 254.552 274.254 254.237C274.371 254.079 274.482 253.927 274.587 253.775C274.687 253.623 274.78 253.471 274.862 253.325C275.283 252.6 275.797 251.122 275.862 249.731C275.926 248.334 275.534 246.995 274.319 246.545C273.103 246.095 272.127 246.867 271.402 247.995C271.221 248.275 271.057 248.579 270.905 248.883C270.748 249.181 270.607 249.491 270.485 249.783C270.239 250.379 270.058 250.94 269.964 251.344Z" fill="#17B092"/>
<path d="M261.104 255.125C261.005 255.429 260.917 255.786 260.835 256.171C260.747 256.551 260.672 256.966 260.601 257.393C260.461 258.252 260.344 259.187 260.251 260.046C260.064 261.765 259.953 263.197 259.953 263.197C259.953 263.197 261.081 262.361 262.407 261.25C262.74 260.97 263.085 260.683 263.424 260.374C263.757 260.058 264.091 259.731 264.412 259.409C265.049 258.761 265.628 258.118 266.043 257.551C266.171 257.375 266.311 257.147 266.458 256.884C266.598 256.621 266.732 256.312 266.861 255.984C267.118 255.33 267.328 254.588 267.428 253.863C267.627 252.402 267.352 251.005 266.107 250.426C264.862 249.848 263.798 250.625 262.933 251.735C262.051 252.828 261.385 254.295 261.104 255.125Z" fill="#17B092"/>
<path d="M251.221 258.468C250.666 259.667 250.192 261.735 249.807 263.524C249.62 264.418 249.456 265.236 249.339 265.832C249.228 266.429 249.152 266.797 249.152 266.797C249.152 266.797 249.234 266.756 249.374 266.662C249.514 266.569 249.719 266.44 249.976 266.277C250.479 265.949 251.174 265.488 251.928 264.956C252.302 264.693 252.694 264.412 253.085 264.12C253.278 263.974 253.477 263.828 253.67 263.682C253.863 263.53 254.05 263.372 254.231 263.214C254.962 262.583 255.634 261.952 256.125 261.391C256.434 261.04 256.808 260.491 257.147 259.842C257.486 259.199 257.779 258.416 257.954 257.668C258.305 256.154 258.153 254.669 256.914 253.974C255.675 253.278 254.5 254.027 253.465 255.079C252.437 256.142 251.595 257.633 251.221 258.468Z" fill="#17B092"/>
<path d="M240.245 261.157C239.532 262.361 238.796 264.488 238.188 266.318C237.597 268.147 237.118 269.643 237.118 269.643C237.118 269.643 237.475 269.474 238.053 269.199C238.62 268.895 239.398 268.468 240.251 267.983C241.098 267.492 242.016 266.937 242.869 266.376C243.717 265.803 244.476 265.178 245.055 264.634C245.417 264.29 245.867 263.746 246.294 263.097C246.51 262.776 246.715 262.425 246.902 262.063C246.995 261.882 247.083 261.695 247.165 261.508C247.247 261.315 247.317 261.122 247.387 260.923C247.913 259.363 247.913 257.796 246.697 256.978C246.393 256.773 246.084 256.662 245.774 256.621C245.464 256.586 245.149 256.627 244.833 256.709C244.196 256.885 243.571 257.294 242.974 257.814C242.384 258.334 241.829 258.965 241.361 259.573C241.244 259.725 241.133 259.877 241.028 260.023C240.923 260.169 240.824 260.304 240.724 260.432C240.526 260.707 240.368 260.952 240.245 261.157Z" fill="#17B092"/>
<path d="M283.687 259.047C282.302 258.831 280.268 258.1 278.614 257.405C277.784 257.06 277.048 256.727 276.516 256.481C275.978 256.224 275.657 256.06 275.657 256.06C275.657 256.06 275.739 256.043 275.885 256.008C276.037 255.978 276.247 255.926 276.51 255.862C277.036 255.733 277.773 255.563 278.603 255.388C280.274 255.049 282.273 254.605 283.746 254.488C284.675 254.424 286.405 254.482 287.954 254.839C289.497 255.201 290.847 255.85 290.864 256.995C290.876 258.135 289.549 258.76 287.983 259.018C286.405 259.269 284.623 259.187 283.687 259.047Z" fill="#17B092"/>
<path d="M275.008 264.033C273.576 263.711 271.513 262.817 269.848 261.987C268.164 261.14 266.855 260.351 266.855 260.351C266.855 260.351 267.206 260.298 267.773 260.21C268.351 260.134 269.129 260 270.011 259.865C270.894 259.731 271.876 259.597 272.84 259.497C273.319 259.451 273.787 259.398 274.237 259.351C274.681 259.31 275.108 259.281 275.493 259.275C275.979 259.263 276.68 259.31 277.457 259.421C278.24 259.532 279.1 259.708 279.889 259.936C281.472 260.403 282.828 261.169 282.747 262.373C282.706 262.975 282.326 263.419 281.741 263.735C281.151 264.038 280.362 264.208 279.526 264.29C278.69 264.372 277.808 264.366 277.013 264.313C276.218 264.261 275.499 264.138 275.008 264.033Z" fill="#17B092"/>
<path d="M265.143 268.737C264.406 268.521 263.518 268.141 262.612 267.691C262.156 267.469 261.695 267.223 261.244 266.978C260.789 266.727 260.344 266.458 259.924 266.207C258.24 265.184 256.955 264.272 256.955 264.272C256.955 264.272 257.323 264.243 257.931 264.196C258.235 264.173 258.597 264.149 259 264.12C259.205 264.108 259.415 264.097 259.637 264.079C259.859 264.062 260.087 264.044 260.321 264.021C261.256 263.945 262.302 263.869 263.319 263.834C264.336 263.793 265.33 263.793 266.136 263.816C267.147 263.857 269.053 264.202 270.683 264.821C271.093 264.979 271.484 265.154 271.835 265.342C272.185 265.529 272.495 265.733 272.752 265.961C273.267 266.417 273.553 266.955 273.454 267.586C273.249 268.837 271.642 269.287 269.877 269.351C269.433 269.368 268.983 269.357 268.538 269.333C268.094 269.304 267.644 269.246 267.223 269.181C266.382 269.059 265.645 268.889 265.143 268.737Z" fill="#17B092"/>
<path d="M253.992 272.992C253.244 272.706 252.355 272.244 251.449 271.706C250.538 271.157 249.608 270.514 248.784 269.912C247.13 268.714 245.885 267.656 245.885 267.656C245.885 267.656 247.446 267.633 249.45 267.685C251.432 267.679 253.851 267.709 255.57 267.948C256.633 268.077 258.58 268.568 260.234 269.339C261.876 270.111 263.208 271.163 262.858 272.443C262.501 273.729 260.771 274.091 258.913 274.027C257.025 273.933 255.009 273.372 253.992 272.992Z" fill="#17B092"/>
<path d="M241.472 276.563C239.976 275.874 237.948 274.266 236.364 272.875C234.774 271.484 233.6 270.275 233.6 270.275C233.6 270.275 235.23 270.386 237.323 270.608C238.375 270.736 239.52 270.818 240.636 270.947C241.753 271.075 242.828 271.227 243.711 271.426C244.821 271.695 246.808 272.355 248.451 273.29C250.087 274.231 251.367 275.43 250.853 276.745C250.596 277.405 249.999 277.791 249.228 277.989C248.842 278.089 248.41 278.141 247.954 278.153C247.726 278.159 247.492 278.159 247.252 278.141C247.013 278.124 246.767 278.095 246.522 278.06C244.541 277.785 242.489 277.054 241.472 276.563Z" fill="#17B092"/>
<path d="M227.948 263.05C227.498 263.652 227.019 264.488 226.545 265.406C226.066 266.318 225.593 267.346 225.154 268.24C224.283 270.052 223.605 271.578 223.605 271.578C223.605 271.578 223.997 271.432 224.64 271.198C225.277 270.958 226.154 270.631 227.101 270.181C228.047 269.742 229.076 269.246 230.034 268.731C230.514 268.474 230.975 268.217 231.402 267.96C231.823 267.691 232.209 267.411 232.548 267.153C233.389 266.493 234.693 265.032 235.441 263.495C235.815 262.729 236.054 261.94 236.043 261.204C236.037 260.473 235.785 259.824 235.207 259.345C234.032 258.351 232.571 258.866 231.215 259.854C229.859 260.865 228.562 262.221 227.948 263.05Z" fill="#17B092"/>
<path d="M227.282 279.222C225.786 278.293 223.875 276.475 222.396 274.886C221.654 274.091 221.017 273.354 220.561 272.811C220.105 272.256 219.836 271.905 219.836 271.905C219.836 271.905 219.941 271.928 220.134 271.963C220.327 272.004 220.608 272.057 220.952 272.11C221.648 272.226 222.606 272.39 223.688 272.601C224.225 272.706 224.798 272.817 225.377 272.94C225.955 273.056 226.546 273.203 227.118 273.302C228.27 273.53 229.374 273.787 230.28 274.067C231.403 274.418 233.425 275.388 235.02 276.475C236.616 277.598 237.814 278.959 237.107 280.292C236.75 280.958 236.078 281.315 235.242 281.455C234.827 281.531 234.36 281.531 233.881 281.484C233.396 281.443 232.893 281.356 232.384 281.239C231.367 281.011 230.345 280.66 229.45 280.286C228.55 279.918 227.791 279.55 227.282 279.222Z" fill="#17B092"/>
<path d="M214.529 263.846C213.436 264.997 212.063 267.083 210.9 268.913C209.754 270.748 208.819 272.25 208.819 272.25C208.819 272.25 208.924 272.227 209.123 272.18C209.321 272.133 209.602 272.069 209.953 271.964C210.648 271.765 211.613 271.479 212.665 271.14C214.78 270.502 217.229 269.468 218.772 268.562C219.251 268.27 219.894 267.808 220.525 267.171C221.157 266.546 221.788 265.809 222.279 265.038C223.261 263.495 223.67 261.829 222.577 260.69C222.033 260.117 221.361 259.936 220.642 260.012C219.918 260.082 219.14 260.438 218.363 260.847C216.802 261.695 215.277 263.045 214.529 263.846Z" fill="#17B092"/>
<path d="M211.607 280.555C211.25 280.28 210.87 279.947 210.479 279.579C210.093 279.205 209.696 278.796 209.304 278.34C208.521 277.44 207.755 276.458 207.089 275.546C205.756 273.723 204.827 272.18 204.827 272.18C204.827 272.18 206.563 272.641 208.766 273.325C209.041 273.413 209.327 273.501 209.614 273.588C209.9 273.67 210.192 273.758 210.491 273.84C211.081 274.015 211.677 274.196 212.267 274.383C213.442 274.757 214.57 275.166 215.476 275.552C216.604 276.014 218.585 277.171 220.122 278.527C221.648 279.894 222.723 281.408 221.8 282.735C220.87 284.027 218.766 283.88 216.697 283.226C215.663 282.916 214.628 282.402 213.74 281.917C212.846 281.42 212.098 280.929 211.607 280.555Z" fill="#17B092"/>
<path d="M200.046 263.203C198.737 264.267 197.001 266.301 195.517 268.071C194.781 268.954 194.114 269.755 193.629 270.333C193.15 270.918 192.852 271.286 192.852 271.286C192.852 271.286 193.319 271.222 194.079 271.116C194.266 271.087 194.477 271.058 194.699 271.023C194.921 270.982 195.16 270.941 195.412 270.894C195.914 270.801 196.464 270.69 197.036 270.573C199.339 270.135 202.051 269.351 203.793 268.574C204.336 268.34 205.073 267.879 205.821 267.306C206.569 266.733 207.335 266.037 207.954 265.295C209.199 263.817 209.859 262.128 208.883 260.818C207.907 259.503 206.207 259.755 204.471 260.514C202.735 261.222 200.952 262.455 200.046 263.203Z" fill="#17B092"/>
<path d="M194.546 280.239C193.874 279.608 193.155 278.667 192.466 277.656C191.776 276.645 191.122 275.54 190.555 274.523C190.274 274.015 190.017 273.53 189.789 273.08C189.561 272.624 189.362 272.215 189.205 271.87C188.883 271.18 188.696 270.748 188.696 270.748C188.696 270.748 189.129 270.929 189.842 271.227C190.549 271.525 191.542 271.911 192.647 272.384C193.752 272.858 194.967 273.384 196.148 273.886C197.323 274.401 198.445 274.944 199.333 275.453C200.449 276.06 202.355 277.481 203.763 279.065C204.465 279.865 205.043 280.654 205.3 281.437C205.558 282.215 205.499 282.963 204.915 283.594C204.336 284.237 203.5 284.442 202.548 284.389C201.595 284.331 200.531 284.009 199.491 283.553C199.234 283.436 198.971 283.319 198.719 283.191C198.468 283.056 198.217 282.916 197.971 282.77C197.48 282.478 197.013 282.174 196.586 281.87C195.715 281.268 195.002 280.678 194.546 280.239Z" fill="#17B092"/>
<path d="M184.67 260.824C184.284 261.063 183.863 261.379 183.419 261.718C182.975 262.057 182.513 262.431 182.034 262.834C181.081 263.635 180.087 264.523 179.182 265.353C178.276 266.177 177.452 266.925 176.855 267.469C176.259 268.018 175.891 268.363 175.891 268.363C175.891 268.363 176.388 268.351 177.2 268.328C178.007 268.31 179.135 268.235 180.374 268.123C180.993 268.071 181.642 268.007 182.297 267.931C182.951 267.843 183.618 267.744 184.26 267.638C184.903 267.533 185.529 267.41 186.119 267.288C186.704 267.159 187.253 266.995 187.744 266.844C188.965 266.44 191.064 265.371 192.589 263.933C194.12 262.519 195.061 260.841 194.237 259.38C193.828 258.649 193.173 258.305 192.379 258.217C191.584 258.135 190.654 258.258 189.69 258.55C187.767 259.135 185.727 260.146 184.67 260.824Z" fill="#17B092"/>
<path d="M176.259 277.849C175.657 277.101 175.043 276.043 174.482 274.921C173.921 273.787 173.401 272.583 172.98 271.443C172.133 269.176 171.63 267.311 171.63 267.311C171.63 267.311 172.057 267.545 172.752 267.931C173.448 268.322 174.412 268.883 175.493 269.48C176.574 270.087 177.767 270.795 178.918 271.461C180.064 272.133 181.151 272.846 182.01 273.448C183.079 274.214 184.85 275.961 186.095 277.72C187.328 279.503 188.012 281.397 186.609 282.56C185.908 283.144 184.99 283.279 183.997 283.121C183.003 282.963 181.94 282.472 180.923 281.876C180.414 281.572 179.917 281.239 179.444 280.888C178.976 280.532 178.532 280.152 178.129 279.789C177.322 279.059 176.674 278.357 176.259 277.849Z" fill="#17B092"/>
<path d="M167.404 249.1C167.562 249.346 168.082 249.311 168.573 249.03C183.255 240.637 196.142 229.562 206.218 216.827C208.696 213.618 211.11 210.369 213.243 206.985C214.359 205.313 215.341 203.583 216.376 201.876C216.867 201.011 217.34 200.141 217.819 199.27C218.059 198.837 218.304 198.405 218.532 197.966L219.204 196.646L219.877 195.325L220.216 194.664L220.531 193.998L221.782 191.327C222.565 189.533 223.36 187.739 224.055 185.921C225.482 182.291 226.726 178.621 227.778 174.916C227.919 174.419 227.773 173.981 227.457 173.934C227.141 173.887 226.773 174.249 226.639 174.74C225.598 178.411 224.365 182.052 222.951 185.646C222.261 187.446 221.472 189.223 220.695 191.006L219.45 193.653L219.14 194.314L218.807 194.968L218.141 196.277L217.475 197.587C217.247 198.019 217.001 198.446 216.767 198.878C216.288 199.737 215.821 200.602 215.335 201.456C214.313 203.145 213.342 204.863 212.232 206.517C210.116 209.872 207.726 213.092 205.271 216.272C195.289 228.89 182.524 239.854 167.995 248.159C167.515 248.434 167.252 248.855 167.404 249.1Z" fill="#7FD0C0"/>
<path d="M226.177 170.888C226.119 171.344 226.13 171.929 226.177 172.542C226.23 173.162 226.288 173.817 226.37 174.413C226.539 175.617 226.697 176.593 226.697 176.593C226.697 176.593 227.375 175.798 228.135 174.74C228.515 174.214 228.941 173.624 229.304 173.039C229.666 172.455 229.988 171.882 230.21 171.391C230.49 170.777 230.759 169.573 230.718 168.504C230.654 167.434 230.274 166.499 229.257 166.412C228.24 166.324 227.51 167.136 227.024 168.118C226.522 169.106 226.259 170.263 226.177 170.888Z" fill="#7FD0C0"/>
<path d="M221.028 176.605C221.291 176.99 221.7 177.44 222.15 177.908C222.6 178.375 223.103 178.855 223.57 179.293C224.511 180.17 225.324 180.859 225.324 180.859C225.324 180.859 225.347 179.901 225.306 178.714C225.289 178.118 225.224 177.464 225.148 176.838C225.067 176.213 224.973 175.623 224.821 175.143C224.634 174.547 224.073 173.501 223.319 172.718C222.559 171.935 221.595 171.409 220.666 171.789C219.742 172.169 219.649 173.092 219.894 174.074C220.023 174.565 220.21 175.062 220.414 175.506C220.625 175.95 220.853 176.342 221.028 176.605Z" fill="#7FD0C0"/>
<path d="M218.538 183.028C219.029 183.863 220.075 185.021 220.999 185.997C221.922 186.973 222.723 187.75 222.723 187.75C222.723 187.75 222.811 186.739 222.846 185.482C222.898 184.232 222.811 182.712 222.589 181.695C222.454 181.058 221.922 179.924 221.18 179.065C220.438 178.2 219.479 177.598 218.474 177.949C217.971 178.124 217.691 178.451 217.556 178.866C217.422 179.281 217.445 179.79 217.527 180.304C217.691 181.344 218.199 182.455 218.538 183.028Z" fill="#7FD0C0"/>
<path d="M215.4 189.813C215.844 190.713 216.855 192.005 217.749 193.092C218.199 193.63 218.614 194.12 218.912 194.471C219.21 194.822 219.397 195.038 219.397 195.038C219.397 195.038 219.444 194.775 219.514 194.348C219.573 193.916 219.643 193.32 219.701 192.659C219.766 191.999 219.818 191.268 219.836 190.573C219.836 189.872 219.801 189.199 219.713 188.656C219.602 187.972 219.175 186.762 218.439 185.804C217.72 184.845 216.756 184.161 215.692 184.471C215.16 184.623 214.845 184.956 214.681 185.383C214.511 185.81 214.476 186.336 214.535 186.885C214.646 187.99 215.113 189.199 215.4 189.813Z" fill="#7FD0C0"/>
<path d="M211.519 196.926C211.911 197.908 212.869 199.328 213.711 200.532C214.535 201.725 215.248 202.689 215.248 202.689C215.248 202.689 215.318 202.414 215.423 201.97C215.54 201.526 215.657 200.9 215.768 200.211C215.996 198.82 216.224 197.166 216.101 196.003C216.043 195.278 215.669 193.969 215.008 192.929C214.33 191.877 213.372 191.093 212.25 191.351C211.139 191.614 210.806 192.642 210.847 193.811C210.865 194.39 210.976 195.009 211.104 195.559C211.233 196.102 211.385 196.587 211.519 196.926Z" fill="#7FD0C0"/>
<path d="M206.768 204.308C206.931 204.84 207.229 205.494 207.586 206.19C207.761 206.535 207.954 206.891 208.153 207.242C208.346 207.587 208.538 207.931 208.72 208.265C209.468 209.58 210.122 210.655 210.122 210.655C210.122 210.655 210.216 210.374 210.368 209.907C210.438 209.673 210.526 209.398 210.625 209.094C210.672 208.942 210.718 208.779 210.771 208.609C210.818 208.44 210.859 208.265 210.905 208.083C211.087 207.359 211.262 206.558 211.402 205.792C211.537 205.021 211.648 204.296 211.636 203.677C211.63 202.905 211.35 201.497 210.753 200.357C210.163 199.211 209.234 198.329 208.036 198.51C206.826 198.691 206.423 199.761 206.364 200.988C206.353 201.292 206.358 201.613 206.382 201.923C206.393 202.233 206.429 202.543 206.464 202.835C206.54 203.419 206.656 203.945 206.768 204.308Z" fill="#7FD0C0"/>
<path d="M231.086 180.661C230.134 181.216 228.532 181.8 227.135 182.215C225.744 182.636 224.593 182.905 224.593 182.905C224.593 182.905 224.745 182.7 224.996 182.362C225.248 182.023 225.604 181.561 225.996 181.041C226.779 180 227.79 178.755 228.585 177.955C229.087 177.458 230.204 176.646 231.332 176.096C232.46 175.553 233.629 175.284 234.277 175.956C234.599 176.289 234.651 176.71 234.511 177.16C234.371 177.61 234.049 178.089 233.652 178.545C233.249 179.001 232.781 179.439 232.314 179.807C231.852 180.17 231.408 180.474 231.086 180.661Z" fill="#7FD0C0"/>
<path d="M228.737 187.861C228.228 188.13 227.539 188.393 226.796 188.639C226.054 188.884 225.242 189.1 224.499 189.281C223.021 189.644 221.805 189.866 221.805 189.866C221.805 189.866 222.483 189.024 223.407 187.978C224.295 186.926 225.417 185.664 226.329 184.869C226.89 184.372 228.088 183.571 229.315 183.057C230.543 182.549 231.776 182.326 232.407 183.069C233.027 183.811 232.46 184.845 231.571 185.769C231.133 186.231 230.584 186.663 230.075 187.025C229.567 187.388 229.087 187.68 228.737 187.861Z" fill="#7FD0C0"/>
<path d="M225.669 195.529C224.576 196.038 222.7 196.47 221.139 196.762C219.573 197.055 218.293 197.212 218.293 197.212C218.293 197.212 219.064 196.365 220.099 195.325C220.625 194.805 221.18 194.226 221.747 193.677C222.314 193.133 222.881 192.619 223.389 192.227C223.547 192.104 223.752 191.964 223.985 191.818C224.213 191.666 224.476 191.508 224.763 191.356C225.33 191.041 225.984 190.731 226.639 190.497C227.948 190.03 229.263 189.866 229.859 190.69C230.455 191.508 229.801 192.572 228.801 193.495C227.767 194.407 226.422 195.184 225.669 195.529Z" fill="#7FD0C0"/>
<path d="M221.747 203.636C220.543 204.092 218.568 204.425 216.914 204.629C215.26 204.834 213.921 204.91 213.921 204.91C213.921 204.91 214.792 204.068 215.949 203.04C217.13 202.017 218.503 200.754 219.631 199.995C219.982 199.755 220.52 199.457 221.145 199.171C221.759 198.878 222.46 198.586 223.161 198.381C224.558 197.972 225.938 197.879 226.499 198.785C226.779 199.235 226.727 199.737 226.464 200.234C226.335 200.486 226.154 200.737 225.932 200.976C225.704 201.216 225.441 201.456 225.154 201.684C224.021 202.584 222.554 203.326 221.747 203.636Z" fill="#7FD0C0"/>
<path d="M216.791 212.128C215.487 212.519 213.413 212.73 211.677 212.823C210.812 212.87 210.029 212.887 209.462 212.893C208.889 212.899 208.532 212.887 208.532 212.887C208.532 212.887 208.597 212.835 208.714 212.747C208.831 212.659 208.994 212.525 209.199 212.355C209.602 212.022 210.175 211.566 210.824 211.064C211.472 210.561 212.203 210.012 212.922 209.497C213.623 208.971 214.319 208.486 214.932 208.124C215.318 207.896 215.897 207.621 216.575 207.358C216.914 207.23 217.276 207.101 217.65 206.984C218.018 206.867 218.392 206.762 218.76 206.675C220.245 206.336 221.689 206.336 222.191 207.335C222.442 207.832 222.349 208.358 222.033 208.866C221.7 209.369 221.151 209.86 220.525 210.298C219.894 210.737 219.181 211.128 218.521 211.444C218.188 211.601 217.872 211.736 217.58 211.853C217.282 211.97 217.013 212.063 216.791 212.128Z" fill="#7FD0C0"/>
<path d="M200.911 212.034C201.028 212.607 201.291 213.332 201.577 214.08C201.864 214.828 202.209 215.623 202.53 216.348C203.179 217.803 203.757 218.989 203.757 218.989C203.757 218.989 204.272 217.82 204.827 216.342C204.897 216.155 204.961 215.968 205.037 215.775C205.102 215.576 205.16 215.377 205.224 215.179C205.347 214.775 205.464 214.366 205.575 213.969C205.791 213.168 205.955 212.397 206.025 211.76C206.049 211.561 206.06 211.315 206.048 211.047C206.031 210.772 206.002 210.468 205.955 210.147C205.856 209.509 205.686 208.82 205.423 208.194C204.903 206.938 204.038 205.938 202.77 206.038C201.501 206.131 200.999 207.23 200.823 208.516C200.613 209.778 200.753 211.245 200.911 212.034Z" fill="#7FD0C0"/>
<path d="M210.514 221.082C209.824 221.234 208.93 221.333 207.989 221.38C207.521 221.403 207.036 221.421 206.557 221.421C206.078 221.427 205.593 221.415 205.137 221.403C203.307 221.351 201.852 221.199 201.852 221.199C201.852 221.199 202.133 221.006 202.594 220.696C202.828 220.544 203.109 220.357 203.418 220.153C203.576 220.053 203.74 219.942 203.909 219.831C204.079 219.72 204.248 219.597 204.429 219.48C205.148 219.001 205.955 218.475 206.75 217.99C207.147 217.745 207.55 217.517 207.925 217.295C208.299 217.072 208.655 216.874 208.988 216.704C209.824 216.283 211.513 215.711 213.114 215.477C213.921 215.366 214.681 215.331 215.306 215.465C215.932 215.6 216.411 215.898 216.627 216.447C217.054 217.54 215.961 218.61 214.576 219.445C213.874 219.86 213.114 220.228 212.378 220.497C211.659 220.784 210.987 220.982 210.514 221.082Z" fill="#7FD0C0"/>
<path d="M193.868 219.854C193.927 220.462 194.102 221.24 194.33 222.064C194.447 222.473 194.57 222.894 194.693 223.314C194.815 223.729 194.944 224.144 195.072 224.542C195.581 226.131 196.043 227.435 196.043 227.435C196.043 227.435 196.715 226.254 197.457 224.746C197.808 223.981 198.176 223.133 198.491 222.315C198.649 221.906 198.795 221.503 198.918 221.117C199.029 220.725 199.123 220.357 199.193 220.018C199.275 219.597 199.321 218.989 199.292 218.317C199.263 217.639 199.181 216.915 198.959 216.225C198.544 214.851 197.738 213.723 196.423 213.723C195.762 213.718 195.289 214.004 194.915 214.442C194.541 214.881 194.295 215.483 194.131 216.143C194.05 216.476 193.991 216.821 193.95 217.166C193.909 217.511 193.886 217.861 193.857 218.183C193.816 218.843 193.828 219.439 193.868 219.854Z" fill="#7FD0C0"/>
<path d="M202.817 230.252C202.08 230.351 201.145 230.374 200.157 230.339C199.175 230.304 198.147 230.222 197.2 230.105C195.312 229.883 193.822 229.591 193.822 229.591C193.822 229.591 194.137 229.416 194.652 229.129C195.166 228.843 195.902 228.463 196.691 228.019C197.492 227.581 198.386 227.101 199.275 226.663C200.157 226.219 200.999 225.798 201.741 225.506C202.203 225.325 202.887 225.12 203.67 224.951C204.459 224.781 205.312 224.623 206.154 224.565C207.825 224.448 209.374 224.693 209.69 225.886C209.999 227.072 208.807 228.147 207.235 228.89C206.458 229.27 205.604 229.579 204.827 229.807C204.441 229.924 204.061 230.018 203.717 230.088C203.378 230.164 203.068 230.216 202.817 230.252Z" fill="#7FD0C0"/>
<path d="M185.487 227.621C185.482 227.949 185.505 228.317 185.546 228.72C185.581 229.117 185.634 229.544 185.698 229.982C185.826 230.865 186.002 231.806 186.171 232.671C186.347 233.536 186.504 234.319 186.621 234.892C186.744 235.459 186.82 235.815 186.82 235.815C186.82 235.815 187.03 235.523 187.369 235.044C187.697 234.559 188.135 233.875 188.603 233.115C188.836 232.735 189.082 232.338 189.316 231.923C189.544 231.508 189.766 231.081 189.976 230.66C190.186 230.24 190.379 229.831 190.555 229.439C190.642 229.24 190.718 229.053 190.794 228.866C190.864 228.679 190.923 228.492 190.975 228.323C191.238 227.446 191.443 225.774 191.174 224.307C190.9 222.823 190.192 221.566 188.831 221.438C188.147 221.368 187.632 221.625 187.188 222.046C186.756 222.466 186.434 223.08 186.195 223.764C186.072 224.103 185.978 224.465 185.891 224.822C185.803 225.178 185.727 225.535 185.669 225.874C185.552 226.546 185.493 227.177 185.487 227.621Z" fill="#7FD0C0"/>
<path d="M193.489 239.439C193.103 239.457 192.664 239.451 192.203 239.428C191.735 239.398 191.233 239.346 190.724 239.276C189.701 239.141 188.643 238.942 187.685 238.738C186.726 238.533 185.873 238.317 185.254 238.148C184.634 237.978 184.254 237.867 184.254 237.867C184.254 237.867 184.605 237.715 185.178 237.47C185.744 237.218 186.528 236.868 187.422 236.494C187.866 236.301 188.345 236.114 188.819 235.909C189.292 235.705 189.777 235.506 190.262 235.313C191.227 234.927 192.179 234.588 192.968 234.343C193.465 234.191 194.196 234.039 195.026 233.934C195.856 233.829 196.785 233.758 197.656 233.77C199.397 233.805 200.975 234.203 201.162 235.488C201.25 236.131 200.958 236.71 200.42 237.207C199.877 237.698 199.099 238.107 198.252 238.434C197.825 238.598 197.387 238.744 196.948 238.867C196.51 238.989 196.06 239.089 195.639 239.17C194.774 239.328 194.015 239.416 193.489 239.439Z" fill="#7FD0C0"/>
<path d="M175.639 235.114C175.552 235.804 175.528 236.669 175.546 237.616C175.563 238.557 175.628 239.573 175.686 240.497C175.797 242.338 175.938 243.869 175.938 243.869C175.938 243.869 176.189 243.583 176.598 243.109C176.797 242.87 177.036 242.589 177.305 242.274C177.568 241.952 177.843 241.596 178.135 241.216C178.427 240.836 178.725 240.438 179.023 240.029C179.322 239.62 179.602 239.194 179.877 238.773C180.42 237.937 180.9 237.125 181.209 236.406C181.601 235.517 182.022 233.782 181.922 232.198C181.835 230.62 181.262 229.229 179.871 228.948C179.175 228.808 178.591 229.007 178.1 229.41C177.855 229.614 177.632 229.872 177.422 230.152C177.218 230.438 177.03 230.766 176.861 231.105C176.691 231.45 176.545 231.812 176.411 232.186C176.282 232.554 176.154 232.917 176.054 233.273C175.838 233.992 175.704 234.652 175.639 235.114Z" fill="#7FD0C0"/>
<path d="M182.349 248.416C181.537 248.37 180.537 248.194 179.503 247.943C178.988 247.82 178.462 247.68 177.942 247.528C177.422 247.376 176.914 247.212 176.429 247.049C175.464 246.727 174.611 246.406 173.997 246.16C173.384 245.921 173.01 245.757 173.01 245.757C173.01 245.757 173.103 245.728 173.278 245.67C173.448 245.611 173.699 245.529 174.009 245.43C174.628 245.225 175.499 244.962 176.464 244.647C178.404 244.039 180.765 243.302 182.478 242.963C183.541 242.747 185.604 242.636 187.405 242.841C189.211 243.057 190.794 243.641 190.812 245.015C190.818 245.699 190.432 246.277 189.813 246.745C189.187 247.212 188.322 247.563 187.405 247.826C186.487 248.095 185.488 248.247 184.593 248.329C183.699 248.428 182.904 248.446 182.349 248.416Z" fill="#7FD0C0"/>
<path d="M136.078 290.269C136.464 289.766 142.53 281.648 139.795 274.162C138.018 269.305 133.231 266.599 127.007 263.08C119.491 258.831 117.44 259.837 115.277 256.803C111.186 251.064 117.001 245.342 113.658 239.492C109.561 232.326 98.6552 237.09 92.5594 229.673C87.2233 223.18 92.7639 216.108 88.2929 207.686C83.8802 199.375 75.055 204.004 65.7739 195.114C59.1286 188.749 61.8872 185.366 54.2426 177.335C51.9808 174.962 41.7002 164.156 32.4834 167.16C28.7429 168.375 26.0953 170.181 26.1596 173.676C26.218 177.06 28.7838 182.864 38.2753 188.983C45.3589 193.548 45.6803 193.893 46.6096 195.225C52.3022 203.396 40.2449 213.226 44.6517 222.291C48.7078 230.637 61.8346 225.295 68.8539 234.465C76.5921 244.582 65.3355 257.247 73.1964 266.651C79.9176 274.693 91.9515 269.994 96.8376 278.65C100.409 284.98 95.2595 289.761 98.7253 294.658C104.383 302.648 126.867 302.25 136.078 290.269Z" fill="#00AC8A"/>
<path d="M36.4401 178.468C36.1712 178.241 36.0894 177.837 36.2531 177.568C36.4167 177.3 36.7674 177.27 37.0362 177.498C54.1432 192.11 69.9644 208.603 84.1666 226.616C83.1087 224.301 82.1268 221.952 81.2385 219.585C79.6429 215.353 78.3104 210.993 77.2642 206.639C77.1824 206.288 77.3577 205.973 77.6616 205.932C77.9655 205.891 78.2811 206.142 78.363 206.493C79.3916 210.789 80.7066 215.079 82.2788 219.252C83.6873 222.998 87.2174 230.461 87.2233 230.549C88.3045 231.958 89.3682 233.372 90.4319 234.798C92.0918 237.031 93.7282 239.287 95.3355 241.566C96.218 242.811 97.0947 244.068 97.9655 245.33C98.5558 246.189 99.1461 247.048 99.7306 247.913C99.4793 247.235 99.2455 246.546 99.0351 245.85C98.1935 243.074 97.6967 240.239 97.5623 237.416C97.5447 237.066 97.7902 236.809 98.1 236.85C98.4156 236.885 98.6844 237.2 98.7019 237.551C98.8305 240.251 99.3039 242.963 100.11 245.616C101.116 248.93 104.716 255.312 104.704 255.476C111.098 265.464 117.019 275.792 122.425 286.364C122.594 286.686 122.507 287.06 122.244 287.2C121.975 287.335 121.624 287.183 121.455 286.861C117.574 279.258 113.418 271.788 109.012 264.483C108.924 264.442 100.777 255.92 92.6996 254.892C89.3507 254.465 85.9784 254.95 82.9509 256.294C82.6762 256.417 82.3256 256.248 82.1736 255.92C82.0216 255.587 82.121 255.225 82.3898 255.102C85.5693 253.688 89.1169 253.179 92.647 253.629C98.6318 254.395 103.448 257.685 106.557 260.473C106.557 260.473 106.557 260.467 106.551 260.467C102.717 254.284 98.7019 248.217 94.5173 242.302C92.9275 240.356 91.1274 238.626 89.1929 237.2C84.2484 233.553 79.5143 232.56 76.405 232.373C76.0894 232.355 75.8147 232.057 75.7797 231.701C75.7505 231.35 75.9784 231.081 76.2881 231.099C79.5436 231.297 84.5173 232.338 89.7072 236.172C89.9994 236.388 90.2917 236.61 90.5722 236.844C90.2507 236.4 89.9235 235.955 89.5962 235.517C85.055 229.404 80.3267 223.448 75.429 217.674C75.3004 217.633 75.1777 217.551 75.0842 217.422C73.0444 214.734 70.5137 212.495 67.7785 210.958C63.4594 208.527 59.5728 208.281 57.0772 208.504C56.7732 208.533 56.4635 208.27 56.3875 207.919C56.3115 207.568 56.5044 207.259 56.8083 207.235C59.4559 207.002 63.5763 207.265 68.1584 209.842C68.4682 210.017 68.7779 210.204 69.0877 210.397C58.8656 198.977 47.9421 188.299 36.4401 178.468Z" fill="#313B6C"/>
<path d="M193.869 282.7C193.571 282.303 188.813 275.874 191.005 269.626C192.425 265.57 196.218 263.162 201.139 260.03C207.083 256.248 208.696 256.99 210.415 254.419C213.664 249.55 209.1 245.079 211.765 240.146C215.026 234.103 223.606 237.592 228.445 231.263C232.676 225.728 228.34 220.135 231.905 213.045C235.423 206.049 242.361 209.503 249.719 201.841C254.985 196.359 252.828 193.682 258.889 186.797C260.683 184.758 268.837 175.488 276.09 177.592C279.035 178.446 281.11 179.825 281.046 182.695C280.981 185.477 278.936 190.339 271.426 195.734C265.821 199.761 265.564 200.053 264.821 201.187C260.298 208.112 269.76 215.716 266.253 223.326C263.021 230.333 252.688 226.464 247.118 234.267C240.976 242.87 249.795 252.829 243.559 260.859C238.223 267.721 228.755 264.331 224.868 271.631C222.028 276.967 226.06 280.69 223.308 284.845C218.813 291.619 201.081 292.174 193.869 282.7Z" fill="#00AC8A"/>
<path d="M272.927 187.031C273.144 186.832 273.208 186.499 273.079 186.283C272.951 186.067 272.67 186.055 272.46 186.259C258.906 198.925 246.358 213.08 235.078 228.422C235.92 226.482 236.703 224.512 237.416 222.536C238.69 219.001 239.765 215.371 240.607 211.753C240.677 211.461 240.537 211.21 240.297 211.192C240.058 211.169 239.806 211.391 239.742 211.683C238.912 215.248 237.854 218.825 236.598 222.309C235.47 225.435 232.658 231.707 232.647 231.777C231.788 232.975 230.94 234.179 230.099 235.389C228.784 237.288 227.48 239.205 226.2 241.134C225.499 242.192 224.803 243.261 224.114 244.325C223.646 245.055 223.179 245.78 222.711 246.517C222.916 245.95 223.097 245.377 223.266 244.798C223.944 242.49 224.348 240.14 224.464 237.82C224.482 237.534 224.289 237.335 224.044 237.376C223.792 237.417 223.582 237.686 223.564 237.972C223.453 240.193 223.068 242.437 222.419 244.652C221.612 247.411 218.748 252.794 218.754 252.922C213.67 261.368 208.953 270.076 204.646 278.971C204.511 279.246 204.575 279.544 204.786 279.649C204.996 279.749 205.277 279.614 205.405 279.34C208.497 272.946 211.805 266.651 215.312 260.485C215.376 260.45 221.846 253.133 228.217 251.975C230.864 251.496 233.518 251.759 235.896 252.747C236.113 252.835 236.387 252.683 236.51 252.408C236.633 252.133 236.557 251.835 236.341 251.742C233.839 250.707 231.045 250.427 228.257 250.935C223.535 251.794 219.724 254.687 217.258 257.101V257.095C220.309 251.864 223.5 246.733 226.826 241.718C228.088 240.058 229.514 238.568 231.045 237.323C234.955 234.138 238.702 233.138 241.151 232.858C241.396 232.835 241.618 232.572 241.647 232.285C241.677 231.993 241.495 231.783 241.25 231.812C238.678 232.104 234.757 233.15 230.642 236.499C230.408 236.686 230.18 236.885 229.952 237.083C230.21 236.709 230.467 236.33 230.73 235.956C234.336 230.76 238.088 225.687 241.98 220.754C242.08 220.719 242.179 220.643 242.255 220.538C243.874 218.252 245.879 216.318 248.047 214.944C251.466 212.782 254.529 212.425 256.498 212.507C256.738 212.519 256.983 212.291 257.042 211.999C257.1 211.707 256.954 211.461 256.709 211.455C254.622 211.368 251.373 211.742 247.749 214.038C247.504 214.196 247.258 214.36 247.013 214.529C255.154 204.74 263.81 195.552 272.927 187.031Z" fill="#313B6C"/>
<path d="M168.667 250.807C168.732 250.818 168.913 250.842 169.199 250.865C169.345 250.877 169.509 250.888 169.702 250.9C169.895 250.912 170.099 250.924 170.327 250.929C170.783 250.941 171.327 250.941 171.929 250.894C172.525 250.859 173.162 250.795 173.851 250.678C174.547 250.555 175.242 250.403 175.967 250.175C176.329 250.064 176.704 249.93 177.06 249.79C177.417 249.644 177.779 249.486 178.135 249.305C178.492 249.123 178.854 248.925 179.199 248.703C179.538 248.486 179.877 248.247 180.204 247.984C180.532 247.721 180.853 247.44 181.157 247.136C181.455 246.832 181.741 246.505 182.01 246.154C182.355 245.699 182.677 245.225 182.934 244.74C183.191 244.255 183.407 243.746 183.594 243.226C183.688 242.963 183.77 242.7 183.851 242.431C183.927 242.163 183.986 241.894 184.044 241.613C184.155 241.064 184.243 240.491 184.301 239.912C184.331 239.62 184.36 239.322 184.372 239.024C184.383 238.726 184.389 238.422 184.395 238.112C184.401 237.499 184.383 236.867 184.354 236.219C184.336 235.897 184.325 235.57 184.296 235.237C184.266 234.91 184.237 234.571 184.202 234.232C184.138 233.554 184.062 232.858 183.98 232.151C183.892 231.292 183.746 230.538 183.618 229.86C183.483 229.182 183.343 228.592 183.203 228.06C182.928 227.002 182.63 226.201 182.402 225.517C182.174 224.839 181.999 224.278 181.929 223.717C181.858 223.156 181.899 222.595 182.051 221.9C182.355 220.585 182.986 219.632 183.758 218.849C184.523 218.066 185.464 217.452 186.423 216.838C187.387 216.225 188.34 215.611 189.147 214.828C189.55 214.436 189.924 214.004 190.234 213.513C190.549 213.022 190.806 212.466 190.964 211.829C191.367 210.275 191.128 208.901 190.538 207.627C189.93 206.347 188.983 205.167 188.001 203.963C187.013 202.759 186.008 201.537 185.213 200.181C184.822 199.503 184.494 198.79 184.266 198.03C184.155 197.651 184.068 197.259 184.009 196.856C183.951 196.452 183.927 196.032 183.922 195.593C183.91 194.062 184.319 192.841 184.974 191.748C185.307 191.204 185.663 190.684 186.072 190.181C186.476 189.679 186.92 189.188 187.376 188.685C188.282 187.686 189.252 186.651 190.012 185.418C190.783 184.191 191.414 182.77 191.666 181.029C191.888 179.305 191.572 177.949 190.947 176.745C190.631 176.143 190.251 175.587 189.789 175.038C189.334 174.489 188.831 173.951 188.305 173.402C187.247 172.297 186.102 171.14 185.079 169.702C184.822 169.346 184.582 168.971 184.331 168.574C184.085 168.177 183.846 167.762 183.623 167.323C183.179 166.441 182.788 165.471 182.484 164.372C182.262 163.589 182.127 162.887 182.028 162.244C181.929 161.602 181.888 161.023 181.888 160.479C181.888 159.392 182.04 158.44 182.197 157.452C182.367 156.458 182.49 155.424 182.455 154.161C182.419 152.899 182.227 151.42 181.683 149.544C181.514 148.989 181.192 147.949 180.689 146.68C180.438 146.049 180.14 145.36 179.801 144.647C179.45 143.939 179.076 143.203 178.603 142.484C176.75 139.597 174.056 136.932 170.345 136.493C167.329 136.131 164.862 136.452 163.682 138.521C163.109 139.521 162.758 141.052 163.103 143.133C163.249 144.173 163.565 145.348 164.114 146.675C164.389 147.341 164.722 148.042 165.12 148.784C165.219 148.971 165.324 149.158 165.429 149.351C165.535 149.544 165.64 149.731 165.751 149.93C165.973 150.322 166.213 150.719 166.47 151.134C168.001 153.594 168.796 154.933 169.211 155.769C169.608 156.604 169.655 156.955 169.702 157.493C169.848 159.147 169.222 160.479 168.17 161.619C167.095 162.759 165.616 163.711 164.103 164.646C162.589 165.582 161.052 166.493 159.789 167.545C158.539 168.603 157.627 169.813 157.393 171.374C157.148 172.8 157.633 174.009 158.509 175.155C158.942 175.728 159.491 176.289 160.064 176.844C160.643 177.399 161.274 177.955 161.917 178.527C163.203 179.673 164.529 180.894 165.558 182.315C166.557 183.723 167.241 185.336 167.27 187.259C167.27 188.311 167.054 189.258 166.698 190.117C166.335 190.97 165.844 191.748 165.213 192.443C164.588 193.139 163.875 193.77 163.109 194.366C162.729 194.664 162.338 194.95 161.94 195.231C161.537 195.506 161.122 195.774 160.713 196.043C159.071 197.113 157.475 198.142 156.224 199.34C155.605 199.942 155.096 200.602 154.722 201.338C154.336 202.069 154.103 202.887 154.062 203.84C154.033 204.658 154.114 205.412 154.319 206.16C154.523 206.902 154.833 207.627 155.207 208.334C155.938 209.737 156.937 211.081 157.884 212.437C158.363 213.121 158.802 213.787 159.205 214.465C159.602 215.143 159.947 215.833 160.193 216.534C160.45 217.241 160.584 217.943 160.59 218.668C160.596 219.03 160.561 219.398 160.497 219.766C160.426 220.14 160.321 220.514 160.158 220.883C159.684 221.97 159.018 222.729 158.229 223.261C157.837 223.53 157.422 223.752 157.002 223.945C156.791 224.045 156.581 224.132 156.37 224.214C156.154 224.296 155.938 224.372 155.727 224.448C154.874 224.752 154.062 225.032 153.372 225.441C153.027 225.64 152.712 225.88 152.449 226.178C152.314 226.324 152.197 226.488 152.092 226.669C151.987 226.85 151.888 227.037 151.806 227.247C151.671 227.592 151.584 227.972 151.543 228.375C151.502 228.779 151.496 229.199 151.531 229.649C151.613 230.561 151.829 231.531 152.186 232.601C152.887 234.711 154.085 237.101 155.57 239.538C156.312 240.754 157.136 241.987 158.013 243.191C158.901 244.389 159.789 245.628 160.888 246.622C161.426 247.136 161.981 247.633 162.542 248.112C162.823 248.352 163.109 248.586 163.395 248.814C163.699 249.024 164.027 249.205 164.354 249.381C164.687 249.55 165.026 249.708 165.383 249.842C165.733 249.983 166.072 250.123 166.435 250.24C166.791 250.357 167.159 250.456 167.539 250.538C167.913 250.672 168.282 250.748 168.667 250.807Z" fill="#00AC8A"/>
<path d="M169.083 144.465C168.983 144.249 169.071 143.986 169.281 143.875C169.492 143.769 169.743 143.857 169.842 144.079C170.637 145.827 171.415 147.598 172.163 149.392C172.876 151.186 173.548 153.004 174.208 154.845C174.366 155.307 174.541 155.768 174.688 156.23L175.132 157.621C175.424 158.55 175.71 159.491 175.985 160.432L176.4 161.852C176.54 162.326 176.651 162.799 176.774 163.278C177.014 164.231 177.253 165.19 177.481 166.148C179.281 173.845 180.281 181.847 180.345 190.006C180.561 189.129 180.795 188.258 181.046 187.393C181.169 186.961 181.298 186.528 181.432 186.096C181.567 185.663 181.707 185.236 181.83 184.81C182.291 183.273 182.811 181.747 183.378 180.228C183.91 178.708 184.489 177.2 185.12 175.716C185.219 175.476 185.477 175.365 185.687 175.47C185.897 175.575 185.985 175.85 185.886 176.09C185.26 177.557 184.699 179.047 184.161 180.555C183.6 182.057 183.086 183.565 182.63 185.084C182.204 186.446 181.631 188.55 181.187 190.327C180.941 191.21 180.725 192.01 180.561 192.595C180.479 192.887 180.415 193.121 180.368 193.29C180.322 193.454 180.298 193.547 180.292 193.559C180.275 194.19 180.263 194.827 180.234 195.458C180.193 196.09 180.158 196.727 180.117 197.358C180.047 198.352 179.988 199.351 179.889 200.345C179.784 201.338 179.673 202.332 179.55 203.331C179.433 204.43 179.252 205.517 179.083 206.61C178.96 207.352 178.843 208.1 178.709 208.842C178.931 208.363 179.159 207.896 179.404 207.428C179.895 206.499 180.456 205.605 181.052 204.745C181.637 203.88 182.274 203.056 182.963 202.267C183.133 202.075 183.408 202.057 183.565 202.232C183.729 202.408 183.723 202.717 183.548 202.91C182.887 203.664 182.28 204.459 181.718 205.289C181.14 206.113 180.608 206.978 180.135 207.866C179.562 208.989 178.86 210.812 178.329 212.378C178.2 212.77 178.066 213.144 177.943 213.483C177.82 213.822 177.709 214.132 177.621 214.395C177.434 214.915 177.318 215.248 177.294 215.266C176.219 219.456 174.845 223.612 173.133 227.674L172.478 229.193C172.256 229.702 172.017 230.198 171.783 230.701C171.543 231.204 171.309 231.706 171.064 232.203L170.304 233.688L169.918 234.43L169.515 235.166L168.691 236.627C168.112 237.592 167.54 238.562 166.914 239.509C166.762 239.743 166.482 239.83 166.289 239.702C166.096 239.573 166.061 239.281 166.207 239.047C167.966 236.341 169.498 233.541 170.859 230.689L171.362 229.614L171.613 229.076L171.847 228.533L172.77 226.359C173.063 225.628 173.337 224.897 173.618 224.167C173.758 223.799 173.898 223.436 174.027 223.068L174.407 221.958C174.407 221.952 174.413 221.806 174.43 221.554C174.442 221.303 174.46 220.941 174.471 220.491C174.5 219.602 174.442 218.352 174.284 216.978C174.138 215.605 173.811 214.073 173.302 212.606C173.045 211.87 172.753 211.157 172.379 210.473C172.005 209.789 171.578 209.146 171.087 208.562C169.457 206.622 167.312 205.16 164.904 204.266C164.687 204.184 164.571 203.933 164.652 203.711C164.734 203.483 164.974 203.366 165.196 203.448C167.732 204.377 170.024 205.909 171.736 207.942C173.191 209.667 174.156 211.589 174.699 213.46C174.98 214.395 175.178 215.324 175.301 216.207C175.412 217.089 175.459 217.925 175.471 218.696V218.691C177.002 213.612 178.066 208.451 178.72 203.296C178.79 201.49 178.662 199.707 178.206 198.018C177.931 196.943 177.575 195.973 177.171 195.09C177.072 194.868 176.967 194.658 176.862 194.447C176.751 194.237 176.64 194.038 176.523 193.84C176.289 193.448 176.055 193.074 175.81 192.723C174.834 191.326 173.787 190.286 172.887 189.544C172.706 189.398 172.677 189.117 172.829 188.918C172.975 188.72 173.244 188.685 173.425 188.831C174.366 189.608 175.465 190.695 176.488 192.156C176.996 192.887 177.493 193.711 177.937 194.64C178.364 195.564 178.732 196.586 179.024 197.72C179.088 197.977 179.153 198.235 179.205 198.492C179.235 198.1 179.258 197.709 179.287 197.317C179.632 191.899 179.579 186.516 179.077 181.215C179.012 181.139 178.977 181.04 178.972 180.929C178.954 180.339 178.913 179.754 178.82 179.176C178.726 178.597 178.603 178.024 178.446 177.463C178.136 176.347 177.709 175.277 177.171 174.295C176.756 173.524 176.254 172.834 175.757 172.232C175.254 171.63 174.734 171.11 174.208 170.66C173.168 169.766 172.133 169.152 171.274 168.737C171.064 168.638 170.976 168.375 171.076 168.153C171.175 167.931 171.426 167.831 171.642 167.931C173.466 168.802 176.032 170.508 177.908 173.81C178.031 174.032 178.147 174.266 178.259 174.494C177.411 169.199 176.26 164.032 174.688 159.006L174.103 157.13C173.904 156.505 173.711 155.891 173.484 155.271C173.045 154.032 172.595 152.805 172.133 151.595L171.432 149.783C171.192 149.181 170.929 148.579 170.678 147.983C170.146 146.82 169.62 145.634 169.083 144.465Z" fill="#313B6C"/>
<path d="M63.9345 320.071L113.338 320.071L113.338 277.604L63.9345 277.604L63.9345 320.071Z" fill="#253066"/>
<path d="M180.797 321.228L240.025 321.228L240.025 272.402L180.797 272.402L180.797 321.228Z" fill="#283460"/>
<path d="M63.9329 277.604H113.337V259.977H80.5489L63.9329 277.604Z" fill="#313B6C"/>
<path d="M180.795 272.402H240.023L227.311 253.91H180.795V272.402Z" fill="#313B6C"/>
<path d="M108.857 324.984L194.375 324.984L194.375 263.161L108.857 263.161L108.857 324.984Z" fill="#1C2455"/>
<path d="M108.86 263.156H194.377L185.71 242.069H117.528L108.86 263.156Z" fill="#313B6C"/>
<path d="M113.746 105.4C113.804 107.948 112.273 110.046 110.327 110.093C108.381 110.14 106.756 108.106 106.697 105.558C106.639 103.01 108.17 100.911 110.116 100.865C112.063 100.818 113.687 102.852 113.746 105.4Z" fill="#FADBBF"/>
<path d="M112.028 107.674L109.24 109.193L110.859 117.007L114.973 115.628C113.442 111.373 112.028 107.674 112.028 107.674Z" fill="#FADBBF"/>
<path d="M108.848 111.607L113.869 110.298C113.869 110.298 116.095 119.526 118.819 127.101C125.873 124.354 133.366 120.146 135.219 118.527C140.046 114.296 147.714 120.999 144.693 124.108C140.923 127.989 118.655 139.111 113.752 136.832C111.221 135.657 109.076 114.407 108.848 111.607Z" fill="#00AC8A"/>
<path d="M172.489 252.426C172.577 252.496 173.407 253.723 173.407 254.588C173.413 255.307 173.021 256.108 172.291 256.312C170.292 256.873 166.002 256.184 163.466 254.588C161.174 253.15 160.035 250.707 159.404 248.013C160.152 247.943 160.093 247.949 160.835 247.873C162.384 249.55 163.933 251.228 165.482 252.911C167.884 252.987 170.093 252.356 172.489 252.426Z" fill="#020221"/>
<path d="M166.839 247.761C167.78 248.112 169.796 249.515 171.462 251.204C172.28 252.034 173.566 253.565 172.987 254.676C172.338 255.926 168.756 255.313 166.295 254.529C163.455 253.629 161.818 251.695 161.304 251.029C160.269 249.696 159.773 248.638 159.527 247.791L166.839 247.761Z" fill="#0B0B47"/>
<path d="M125.055 252.607L139.52 252.916C139.52 252.916 139.509 253.717 139.14 253.822C134.114 255.231 127.586 256.271 125.359 254.43C124.681 253.863 125.055 252.607 125.055 252.607Z" fill="#020221"/>
<path d="M139.141 248.363C139.369 248.919 139.971 250.701 139.521 252.916C139.497 253.033 139.41 253.127 139.299 253.156C137.691 253.553 125.926 256.359 125.091 253.109C124.559 251.034 128.171 251.385 132.104 248.246C132.157 248.205 132.221 248.182 132.291 248.182H138.866C138.983 248.182 139.094 248.246 139.141 248.363Z" fill="#0B0B47"/>
<path d="M131.437 248.527L139.222 248.474C139.222 248.474 140.397 180.987 144.412 160.952L123.278 160.146C123.272 181.122 131.437 248.527 131.437 248.527Z" fill="#313B6C"/>
<path d="M149.211 164.149C157.633 192.805 168.375 248.509 168.375 248.509H158.79C158.79 248.509 142.706 199.035 136.335 177.194C136.335 177.194 124.74 169.93 123.273 160.146L149.211 164.149Z" fill="#313B6C"/>
<path d="M169.409 75.1604C169.029 77.6794 170.28 79.9588 172.203 80.251C174.126 80.5432 175.996 78.7373 176.376 76.2124C176.756 73.6934 175.505 71.4141 173.582 71.1218C171.659 70.8296 169.789 72.6356 169.409 75.1604Z" fill="#FADBBF"/>
<path d="M170.824 77.6384L173.395 79.497L170.795 87.0423L166.89 85.1487C168.954 81.1276 170.824 77.6384 170.824 77.6384Z" fill="#FADBBF"/>
<path d="M123.039 161.105C123.039 161.105 127.709 128.86 134.962 120.853C136.949 118.662 142.618 115.985 145.54 115.529C147.761 115.184 153.629 115.845 154.173 118.025C156.581 127.627 150.076 167.066 150.076 167.066L123.039 161.105Z" fill="#00AC8A"/>
<path d="M140.596 117.662L140.216 112.455C140.035 109.988 141.42 107.896 143.302 107.773C145.19 107.65 146.867 109.544 147.048 112.011L147.428 117.212C147.609 119.679 145.973 120.327 144.231 120.438C142.612 120.549 140.812 120.508 140.596 117.662Z" fill="#F6C9A3"/>
<path d="M148.176 104.5C149.065 109.901 148.574 114.927 142.887 115.961C137.107 117.013 135.079 112.244 134.19 106.844C133.302 101.444 135.961 98.4804 139.824 97.8317C143.688 97.1829 147.288 99.0999 148.176 104.5Z" fill="#FAD1A5"/>
<path d="M147.688 104.905C148.484 109.602 148.044 113.973 142.948 114.872C137.768 115.787 135.95 111.64 135.154 106.943C134.358 102.247 136.741 99.6696 140.203 99.1054C143.665 98.5412 146.892 100.208 147.688 104.905Z" fill="#FADBBF"/>
<path d="M140.672 100.315C140.438 100.531 136.838 103.722 132.776 102.402C131.174 101.881 128.626 100.151 128.55 97.1883C128.486 94.6517 130.847 92.4893 137.317 91.9399C140.379 91.6827 143.202 92.9627 143.611 95.1544C144.213 94.7745 152.7 93.9387 151.823 104.289C151.537 107.656 148.638 111.461 148.053 111.7C147.802 111.052 145.458 107.288 145.078 105.324C144.763 103.693 142.875 101.326 140.672 100.315Z" fill="#0B0B47"/>
<path d="M146.352 105.248C146.37 104.348 145.733 103.694 145.259 103.764C144.786 103.834 144.015 103.968 144.611 105.143C145.02 105.944 145.458 107.393 145.458 107.393C145.458 107.393 146.329 106.248 146.352 105.248Z" fill="#FADBBF"/>
<path d="M145.838 105.517C145.85 104.945 145.441 104.524 145.142 104.571C144.844 104.617 144.348 104.705 144.728 105.453C144.985 105.968 145.259 106.721 145.259 106.721C145.259 106.721 145.826 106.16 145.838 105.517Z" fill="#F2C8AA"/>
<path d="M155.236 126.528C162.46 120.45 171.472 89.0587 172.846 82.5771L168.03 80.6426C168.03 80.6426 154.646 112.419 150.338 116.68C145.779 121.192 151.916 129.322 155.236 126.528Z" fill="#00AC8A"/>
<path d="M149.433 157.346L153.419 157.673L154.371 154.248C150.198 147.743 145.067 127.784 145.371 120.917L142.565 120.631C142.074 134.658 144.833 150.181 149.433 157.346Z" fill="#313B6C"/>
<path d="M149.433 157.346L153.419 157.673L154.371 154.248C150.198 147.743 145.067 127.784 145.371 120.917L142.565 120.631C142.074 134.658 144.833 150.181 149.433 157.346Z" fill="#333387"/>
<path d="M149.433 157.346L153.29 157.656C148.936 150.199 144.225 134.12 144.441 120.818L142.565 120.625C142.074 134.658 144.833 150.175 149.433 157.346Z" fill="#313B6C"/>
<path d="M145.067 120.193C147.504 120.239 147.837 117.849 147.837 117.849C148.936 117.563 150.128 115.757 150.128 115.757C150.794 118.673 146.113 123.775 146.113 123.775L145.067 120.193Z" fill="#16164C"/>
<path d="M145.084 122.203L146.329 121.017L145.084 119.83H142.606L141.367 121.017L142.606 122.203H145.084Z" fill="#16164C"/>
<path d="M145.061 122.022L146.3 120.836L145.061 119.649H142.583L141.344 120.836L142.583 122.022H145.061Z" fill="#313B6C"/>
<path d="M145.131 121.928L146.277 120.83L145.038 119.643H143.845V120.941V122.016H145.038L145.131 121.928Z" fill="#343489"/>
<path d="M142.583 119.603C140.146 119.65 139.661 117.867 139.661 117.867C138.568 117.581 137.697 117.51 137.697 117.51C137.031 120.427 141.671 123.823 141.671 123.823L142.583 119.603Z" fill="#16164C"/>
<path d="M145.067 119.614C147.504 119.661 147.299 115.441 147.299 115.441C148.988 115.494 150.134 115.757 150.134 115.757C150.8 118.673 146.119 123.202 146.119 123.202L145.067 119.614Z" fill="url(#paint0_linear)"/>
<path d="M142.577 119.614C140.139 119.661 140.566 117.218 140.566 117.218C139.467 116.931 137.585 117.294 137.585 117.294C136.919 120.21 141.525 123.203 141.525 123.203L142.577 119.614Z" fill="url(#paint1_linear)"/>
<path d="M173.933 100.315L197.989 89.1639C200.56 87.9716 201.694 84.8915 200.502 82.3141C199.31 79.7425 196.23 78.6086 193.652 79.8009L169.596 90.9523C167.024 92.1446 165.891 95.2247 167.083 97.8021C168.281 100.38 171.361 101.508 173.933 100.315Z" fill="#FFDB17"/>
<path opacity="0.4" d="M167.171 97.9892L167.001 97.621C165.856 95.1488 166.943 92.1856 169.415 91.0401L170.947 90.3329L173.466 89.2224C171.122 91.4316 172.729 94.3188 173.191 95.2014C174.453 97.6444 177.3 98.7607 179.772 97.6152L173.758 100.403C171.28 101.549 168.316 100.461 167.171 97.9892Z" fill="#F7B336"/>
<path opacity="0.67" d="M196.09 84.588C195.441 83.1853 192.945 80.4734 190.257 81.4436C190.257 81.4436 191.174 80.9936 192.367 80.4091C192.939 80.1286 193.489 79.8831 193.834 79.7253C196.236 78.6149 199.269 79.6669 200.415 82.1391L200.584 82.5073C201.73 84.9796 200.643 87.9427 198.17 89.0883L193.676 91.1748C196.148 90.0176 197.288 87.1713 196.09 84.588Z" fill="#F7B336"/>
<path opacity="0.6" d="M191.905 86.5224C191.046 84.506 188.878 82.0747 186.405 83.2202L190.257 81.4376C191.835 80.5902 194.892 81.9987 196.09 84.582C197.235 87.0542 196.148 90.0174 193.676 91.1629L189.491 93.1033C191.963 91.9578 192.975 89.0297 191.905 86.5224Z" fill="#FFEE8A"/>
<path d="M171.04 90.2865C173.951 89.0942 189.842 81.7301 192.63 80.2806C189.906 79.8189 185.587 78.3987 182.32 74.5705C182.261 74.5062 182.203 74.4361 182.145 74.3659C182.039 74.2374 181.934 74.1088 181.829 73.9744C179.696 71.2274 178.34 68.5097 177.475 66.2537C177.405 66.0667 177.334 65.8914 177.276 65.7102C177.206 65.5232 177.142 65.342 177.083 65.1666C177.06 65.1024 177.042 65.0381 177.019 64.9796C176.937 64.7341 176.861 64.4945 176.791 64.2607C176.715 64.0094 176.645 63.7756 176.581 63.5477C176.528 63.3665 176.481 63.1912 176.44 63.0217C176.44 63.0159 176.44 63.0159 176.44 63.01C175.108 63.6471 169.754 66.131 168.404 66.733C168.404 66.7388 168.41 66.7388 168.41 66.7447C169.889 68.8545 172.162 72.6593 173.278 77.9428C173.576 79.363 173.635 80.7482 173.541 82.0632C173.378 85.5582 172.121 88.463 171.04 90.2865Z" fill="#FFDB17"/>
<path opacity="0.67" d="M180.269 74.6989C183.582 78.9771 190.251 81.4376 190.251 81.4376C191.607 80.8064 192.63 80.2745 192.63 80.2745C189.906 79.8128 185.587 78.3926 182.32 74.5644C182.262 74.5001 182.203 74.43 182.145 74.3599C182.039 74.2313 181.934 74.1027 181.829 73.9683C179.696 71.2214 178.34 68.5036 177.475 66.2477C177.405 66.0606 177.34 65.8853 177.276 65.7041C177.206 65.5171 177.142 65.3359 177.083 65.1606C177.06 65.0963 177.042 65.032 177.019 64.9735C176.937 64.7281 176.861 64.4884 176.791 64.2547C176.715 64.0034 176.645 63.7696 176.581 63.5416C176.528 63.3605 176.481 63.1851 176.44 63.0156C175.955 63.2436 175.423 63.489 174.88 63.7403C175.529 66.2418 176.966 70.4323 180.269 74.6989Z" fill="#F7B336"/>
<path opacity="0.4" d="M171.046 90.2981L172.332 89.7312L173.465 89.2344C173.465 89.2344 175.897 82.5541 174.775 77.2589C173.658 71.9755 171.385 68.1707 169.906 66.0608C169.386 66.3004 168.877 66.5342 168.41 66.7504C169.889 68.8603 172.162 72.6651 173.278 77.9486C173.576 79.3688 173.635 80.754 173.541 82.069C173.384 85.5699 172.127 88.4746 171.046 90.2981Z" fill="#F7B336"/>
<path opacity="0.6" d="M186.861 83.0569C184.611 81.8062 181.525 79.9301 178.205 75.6578C174.897 71.3912 173.46 67.2007 172.811 64.7051C173.004 64.6174 173.197 64.5298 173.384 64.4421C173.875 64.2142 174.383 63.9804 174.88 63.7524C175.534 66.2481 176.966 70.4386 180.274 74.7051C183.588 78.9775 190.257 81.4439 190.257 81.4439" fill="#FFEE8A"/>
<path d="M156.645 65.0965C157.492 64.7049 158.34 64.2841 159.187 63.8224L156.814 59.3981C148.696 63.7464 141.057 64.74 134.114 62.3496C126.423 59.702 119.368 52.636 114.511 42.7996L130.584 35.3537L128.474 30.8008L107.884 40.3449L108.877 42.6009C111.303 48.1006 114.482 53.1211 118.065 57.1187C122.378 61.9346 127.223 65.2894 132.478 67.1012C140.046 69.6962 148.164 69.024 156.645 65.0965Z" fill="#F7B336"/>
<path d="M182.29 53.2087C181.443 53.6002 180.572 53.9743 179.678 54.3308L177.831 49.661C186.399 46.277 192.092 41.0871 194.757 34.2431C197.708 26.6628 196.872 16.7154 192.507 6.65108L176.434 14.097L174.324 9.54413L194.915 0L195.99 2.21508C198.614 7.62127 200.391 13.2905 201.133 18.609C202.021 25.0088 201.449 30.8825 199.432 36.0608C196.533 43.5184 190.771 49.2753 182.29 53.2087Z" fill="#FFDB17"/>
<path d="M121.186 25.4587C121.186 25.4587 175.318 0.36813 175.324 0.36813C175.873 0.140193 180.508 10.7246 180.934 11.7825C183.868 19.0005 186.265 26.5984 187.13 34.3658C188.567 47.2939 185.417 62.928 171.788 67.966C160.023 72.3144 147.843 65.1723 139.842 56.8263C134.786 51.5546 130.707 45.412 127.317 38.9596C126.697 37.7849 120.385 25.8269 121.186 25.4587Z" fill="#FFDB17"/>
<path opacity="0.6" d="M167.06 4.19072L175.318 0.362549C179 6.8909 182.109 13.7699 184.318 20.9412C186.253 27.2182 187.521 33.7641 187.545 40.3509C187.568 45.6694 186.767 51.099 184.523 55.9558C183.337 58.5215 181.683 60.8944 179.666 62.8991C180.52 57.6916 180.958 51.8704 180.642 45.5583C179.678 26.4233 172.238 12.1042 167.06 4.19072Z" fill="#FFEE8A"/>
<path opacity="0.67" d="M171.361 68.1182C171.367 68.1182 171.373 68.1182 171.373 68.1124C171.513 68.0656 171.653 68.013 171.794 67.9604C171.823 67.9487 171.852 67.9371 171.881 67.9254C171.905 67.9137 171.928 67.9078 171.946 67.8961C172.098 67.8377 172.25 67.7793 172.402 67.7208C172.431 67.7091 172.454 67.6974 172.483 67.6857C172.618 67.6331 172.746 67.5747 172.875 67.5221C172.904 67.5104 172.933 67.4987 172.963 67.487C173.12 67.4169 173.284 67.3468 173.442 67.2708C173.565 67.2123 173.693 67.1539 173.816 67.0954C173.898 67.0545 173.98 67.0136 174.061 66.9727C174.149 66.9318 174.237 66.885 174.324 66.8383C174.412 66.7915 174.506 66.7448 174.593 66.698C174.704 66.6396 174.815 66.5811 174.921 66.5168C174.973 66.4876 175.032 66.4584 175.084 66.4233C175.341 66.2772 175.593 66.1253 175.844 65.9733C175.938 65.9148 176.025 65.8564 176.119 65.798C176.3 65.6811 176.481 65.5642 176.656 65.4414C176.744 65.3772 176.838 65.3187 176.925 65.2544C176.978 65.2193 177.025 65.1843 177.077 65.1492C177.159 65.0908 177.241 65.0323 177.323 64.9739C177.428 64.8979 177.533 64.8161 177.638 64.7343C177.708 64.6816 177.773 64.6291 177.843 64.5764C177.907 64.5238 177.971 64.4771 178.036 64.4245C191.35 53.6939 190.894 28.0072 175.318 0.356689L171.239 2.24447C186.101 28.6209 187.2 53.2147 175.704 64.7343C174.418 66.0434 172.969 67.1714 171.361 68.1182Z" fill="#F7B336"/>
<path opacity="0.4" d="M121.186 25.4587C131.998 54.6405 150.777 71.5078 167.34 69.1057C167.626 69.0648 167.919 69.0181 168.205 68.9596C168.304 68.9421 168.404 68.9245 168.503 68.9012C168.603 68.8836 168.708 68.8603 168.807 68.8369C168.936 68.8077 169.064 68.7784 169.187 68.7492C169.45 68.6908 169.713 68.6206 169.97 68.5505C170.099 68.5154 170.233 68.4745 170.362 68.4395C170.461 68.4102 170.56 68.381 170.66 68.3459C170.894 68.2758 171.127 68.1998 171.355 68.118C171.361 68.118 171.367 68.118 171.367 68.1122C171.507 68.0654 171.648 68.0128 171.788 67.9602C171.817 67.9485 171.846 67.9368 171.875 67.9251C171.899 67.9134 171.922 67.9076 171.94 67.8959C171.986 67.8784 172.033 67.8608 172.08 67.8433C172.092 67.8375 172.103 67.8316 172.115 67.8316C172.174 67.8082 172.232 67.7849 172.29 67.7615C172.325 67.7498 172.361 67.7323 172.396 67.7206C172.425 67.7089 172.448 67.6972 172.477 67.6855C172.612 67.6329 172.74 67.5803 172.869 67.5219C172.898 67.5102 172.927 67.4985 172.957 67.4868C173.114 67.4167 173.278 67.3465 173.436 67.2705C173.559 67.2121 173.687 67.1537 173.81 67.0952C173.892 67.0543 173.974 67.0134 174.055 66.9725C174.143 66.9316 174.231 66.8848 174.318 66.8381C174.406 66.7913 174.5 66.7445 174.587 66.6978C174.698 66.6393 174.809 66.5809 174.915 66.5166C174.967 66.4874 175.026 66.4582 175.078 66.4231C175.335 66.277 175.587 66.125 175.838 65.9731C175.932 65.9146 176.019 65.8562 176.113 65.7977C176.294 65.6808 176.475 65.5639 176.65 65.4412C176.738 65.3769 176.832 65.3185 176.919 65.2542C176.972 65.2191 177.019 65.184 177.071 65.149C177.153 65.0905 177.235 65.0321 177.317 64.9736C177.422 64.8977 177.527 64.8158 177.632 64.734C177.702 64.6814 177.767 64.6288 177.837 64.5762C177.901 64.5236 177.965 64.4769 178.03 64.4243C177.258 64.5704 176.481 64.6756 175.698 64.7399C174.207 64.8626 172.694 64.8334 171.18 64.6522C156.218 62.8813 140.455 46.7153 130.905 20.9409" fill="#F7B336"/>
<defs>
<linearGradient id="paint0_linear" x1="145.067" y1="115.441" x2="148.767" y2="120.143" gradientUnits="userSpaceOnUse">
<stop stop-color="#00AC8A"/>
<stop offset="1" stop-color="#00AC8A"/>
</linearGradient>
<linearGradient id="paint1_linear" x1="137.52" y1="117.108" x2="140.211" y2="121.399" gradientUnits="userSpaceOnUse">
<stop stop-color="#00AC8A"/>
<stop offset="1" stop-color="#00AC8A"/>
</linearGradient>
</defs>
</svg>
