<svg width="220" height="57" viewBox="0 0 220 57" fill="none" xmlns="http://www.w3.org/2000/svg">
<g clip-path="url(#clip0)">
<path d="M125.071 22.7133L129.877 15.5417L125.823 9.12561H129L131.383 13.3435L133.887 9.12561H137.064L132.888 15.5417L137.531 22.7133H134.36L131.386 17.7429L128.247 22.7133H125.071Z" fill="white"/>
<path d="M148.742 22.7136L147.541 19.861H142.062L140.86 22.7136H137.986L143.873 8.84033H145.869L151.595 22.7136H148.742ZM142.894 17.7045H146.764L144.849 12.8143L142.894 17.7045Z" fill="white"/>
<path d="M153.183 9.12561H155.83V20.4318H160.027V22.7133H153.183V9.12561Z" fill="white"/>
<path d="M173.41 23.2428L172.289 22.041C171.188 22.6925 169.897 23.0197 168.419 23.0197C166.286 23.0197 164.546 22.3563 163.193 21.0327C161.842 19.709 161.167 18.0076 161.167 15.9284C161.167 13.8492 161.842 12.1477 163.193 10.8151C164.543 9.48551 166.286 8.81921 168.419 8.81921C170.552 8.81921 172.292 9.48551 173.645 10.8151C174.996 12.1477 175.671 13.8492 175.671 15.9284C175.671 17.8172 175.073 19.4264 173.877 20.756L176.078 22.975L173.41 23.2428ZM170.477 17.255L172.045 18.8642C172.643 18.0641 172.94 17.0855 172.94 15.9313C172.94 14.5601 172.515 13.4327 171.667 12.5493C170.819 11.6658 169.734 11.2256 168.419 11.2256C167.101 11.2256 166.018 11.6658 165.171 12.5493C164.323 13.4327 163.898 14.5601 163.898 15.9313C163.898 17.3026 164.323 18.427 165.171 19.3015C166.018 20.176 167.122 20.6162 168.481 20.6162C169.228 20.6162 169.9 20.4675 170.498 20.1671L167.729 17.4781L170.477 17.255Z" fill="white"/>
<path d="M129.104 47.1612H126.457V33.2671H128.289L136.561 42.7202V33.5735H139.209V47.4259H137.376L129.107 37.9728V47.1612H129.104Z" fill="white"/>
<path d="M151.553 47.1612L150.351 44.3086H144.872L143.67 47.1612H140.797L146.684 33.288H148.679L154.405 47.1612H151.553ZM145.705 42.1491H149.575L147.659 37.259L145.705 42.1491Z" fill="white"/>
<path d="M165.894 33.5732L159.293 44.8795H165.566V47.1609H154.891L161.491 35.8547H155.929V33.5732H165.894Z" fill="white"/>
<path d="M168.737 35.263C170.087 33.9334 171.83 33.2671 173.963 33.2671C176.096 33.2671 177.836 33.9334 179.189 35.263C180.54 36.5926 181.215 38.297 181.215 40.3762C181.215 42.4554 180.54 44.1539 179.189 45.4806C177.839 46.8042 176.096 47.4675 173.963 47.4675C171.83 47.4675 170.09 46.8042 168.737 45.4806C167.386 44.1569 166.711 42.4554 166.711 40.3762C166.711 38.297 167.386 36.5956 168.737 35.263ZM170.703 43.7494C171.545 44.6239 172.63 45.0641 173.963 45.0641C175.293 45.0641 176.381 44.6269 177.223 43.7494C178.065 42.8719 178.487 41.7505 178.487 40.3792C178.487 39.008 178.062 37.8806 177.214 36.9972C176.366 36.1137 175.281 35.6735 173.966 35.6735C172.648 35.6735 171.566 36.1137 170.718 36.9972C169.87 37.8806 169.445 39.008 169.445 40.3792C169.439 41.7475 169.861 42.8719 170.703 43.7494Z" fill="white"/>
<path d="M183.657 33.5732H187.59C189.083 33.5732 190.237 33.9123 191.052 34.5905C191.947 35.352 192.396 36.3693 192.396 37.6454C192.396 39.0583 191.867 40.1232 190.808 40.843C190.4 41.1286 189.904 41.3249 189.321 41.435L193.559 47.158H190.261L186.635 41.6997H186.307V47.158H183.66V33.5732H183.657ZM186.307 35.7328V39.8287H187.06C187.277 39.8287 187.491 39.8109 187.703 39.7781C187.914 39.7454 188.187 39.671 188.526 39.555C188.866 39.439 189.142 39.2278 189.35 38.9244C189.562 38.6181 189.666 38.2343 189.666 37.7733C189.666 37.3122 189.565 36.9285 189.359 36.6221C189.154 36.3158 188.883 36.1075 188.544 35.9915C188.205 35.8755 187.935 35.8041 187.729 35.7774C187.524 35.7506 187.316 35.7357 187.099 35.7357H186.307V35.7328Z" fill="white"/>
<path d="M204.601 47.1612L203.399 44.3086H197.92L196.718 47.1612H193.845L199.732 33.288H201.727L207.453 47.1612H204.601ZM198.753 42.1491H202.623L200.707 37.259L198.753 42.1491Z" fill="white"/>
<path d="M215.681 35.8547H212.626V47.1609H209.979V35.8547H206.924V33.5732H215.684V35.8547H215.681Z" fill="white"/>
<path d="M217.353 33.5732H220V47.1609H217.353V33.5732Z" fill="white"/>
<path d="M107.238 -0.00012207V56.2871" stroke="white" stroke-width="0.506043" stroke-miterlimit="10"/>
<path d="M11.5977 4.94653C5.19355 4.94653 0 10.1371 0 16.5443C0 22.9514 5.19355 28.142 11.5977 28.142C18.0049 28.142 23.1955 22.9485 23.1955 16.5443C23.1955 10.1401 18.0049 4.94653 11.5977 4.94653ZM11.5977 23.6951C7.64754 23.6951 4.44694 20.4945 4.44694 16.5443C4.44694 12.5941 7.64754 9.39347 11.5977 9.39347C15.5479 9.39347 18.7485 12.5941 18.7485 16.5443C18.7485 20.4945 15.5479 23.6951 11.5977 23.6951Z" fill="white"/>
<path d="M13.8223 33.3859H9.37534V51.3402H13.8223V33.3859Z" fill="white"/>
<path d="M12.7134 24.052H10.4884V38.6183H12.7134V24.052Z" fill="white"/>
<path d="M41.099 4.94629C34.6919 4.94629 29.5013 10.1398 29.5013 16.544C29.5013 22.9482 34.6949 28.1418 41.099 28.1418C47.5062 28.1418 52.6968 22.9482 52.6968 16.544C52.6968 10.1398 47.5062 4.94629 41.099 4.94629ZM41.099 23.6948C37.1489 23.6948 33.9482 20.4942 33.9482 16.544C33.9482 12.5938 37.1489 9.39323 41.099 9.39323C45.0492 9.39323 48.2498 12.5938 48.2498 16.544C48.2498 20.4942 45.0492 23.6948 41.099 23.6948Z" fill="white"/>
<path d="M43.3214 33.3855H38.8745V51.3398H43.3214V33.3855Z" fill="white"/>
<path d="M42.212 24.0516H39.987V38.618H42.212V24.0516Z" fill="white"/>
<path d="M70.6009 4.94629C64.1938 4.94629 59.0032 10.1398 59.0032 16.544C59.0032 22.9482 64.1968 28.1418 70.6009 28.1418C77.0081 28.1418 82.1987 22.9482 82.1987 16.544C82.1987 10.1398 77.0051 4.94629 70.6009 4.94629ZM70.6009 23.6948C66.6507 23.6948 63.4501 20.4942 63.4501 16.544C63.4501 12.5938 66.6507 9.39323 70.6009 9.39323C74.5511 9.39323 77.7517 12.5938 77.7517 16.544C77.7517 20.4942 74.5482 23.6948 70.6009 23.6948Z" fill="white"/>
<path d="M72.8227 33.3855H68.3758V51.3398H72.8227V33.3855Z" fill="white"/>
<path d="M71.7133 24.0516H69.4883V38.618H71.7133V24.0516Z" fill="white"/>
</g>
<defs>
<clipPath id="clip0">
<rect width="220" height="56.2872" fill="white"/>
</clipPath>
</defs>
</svg>
