<svg width="195" height="50" viewBox="0 0 195 50" fill="none" xmlns="http://www.w3.org/2000/svg">
<g clip-path="url(#clip0)">
<path d="M110.858 20.1764L115.119 13.8059L111.525 8.10645H114.341L116.453 11.8532L118.673 8.10645H121.488L117.787 13.8059L121.902 20.1764H119.092L116.455 15.7612L113.674 20.1764H110.858Z" fill="#100F0F"/>
<path d="M131.84 20.1767L130.775 17.6427H125.918L124.853 20.1767H122.306L127.524 7.85303H129.293L134.368 20.1767H131.84ZM126.656 15.727H130.087L128.389 11.3831L126.656 15.727Z" fill="#100F0F"/>
<path d="M135.776 8.10645H138.122V18.1498H141.842V20.1764H135.776V8.10645Z" fill="#100F0F"/>
<path d="M153.705 20.6467L152.711 19.5792C151.735 20.1579 150.591 20.4485 149.28 20.4485C147.39 20.4485 145.848 19.8593 144.648 18.6835C143.451 17.5076 142.853 15.9963 142.853 14.1493C142.853 12.3023 143.451 10.7909 144.648 9.6072C145.845 8.4261 147.39 7.83423 149.28 7.83423C151.171 7.83423 152.713 8.4261 153.913 9.6072C155.11 10.7909 155.708 12.3023 155.708 14.1493C155.708 15.8271 155.178 17.2566 154.118 18.4377L156.069 20.4089L153.705 20.6467ZM151.105 15.3278L152.494 16.7572C153.024 16.0465 153.288 15.1771 153.288 14.1519C153.288 12.9338 152.911 11.9324 152.16 11.1477C151.408 10.3629 150.446 9.97184 149.28 9.97184C148.112 9.97184 147.153 10.3629 146.401 11.1477C145.65 11.9324 145.273 12.9338 145.273 14.1519C145.273 15.37 145.65 16.3688 146.401 17.1456C147.153 17.9225 148.131 18.3135 149.336 18.3135C149.998 18.3135 150.593 18.1814 151.123 17.9146L148.669 15.5259L151.105 15.3278Z" fill="#100F0F"/>
<path d="M114.433 41.8934H112.087V29.5513H113.711L121.043 37.9485V29.8234H123.39V42.1286H121.765L114.436 33.7314V41.8934H114.433Z" fill="#100F0F"/>
<path d="M134.331 41.8934L133.266 39.3595H128.409L127.344 41.8934H124.797L130.015 29.5698H131.784L136.859 41.8934H134.331ZM129.148 37.4412H132.578L130.88 33.0973L129.148 37.4412Z" fill="#100F0F"/>
<path d="M147.042 29.8232L141.192 39.8666H146.752V41.8932H137.29L143.14 31.8499H138.21V29.8232H147.042Z" fill="#100F0F"/>
<path d="M149.562 31.3242C150.759 30.1431 152.304 29.5513 154.194 29.5513C156.085 29.5513 157.627 30.1431 158.827 31.3242C160.024 32.5053 160.622 34.0194 160.622 35.8663C160.622 37.7133 160.024 39.222 158.827 40.4005C157.63 41.5763 156.085 42.1655 154.194 42.1655C152.304 42.1655 150.762 41.5763 149.562 40.4005C148.365 39.2247 147.767 37.7133 147.767 35.8663C147.767 34.0194 148.365 32.508 149.562 31.3242ZM151.305 38.8627C152.051 39.6395 153.013 40.0306 154.194 40.0306C155.373 40.0306 156.338 39.6422 157.084 38.8627C157.83 38.0832 158.205 37.0871 158.205 35.869C158.205 34.6509 157.828 33.6495 157.076 32.8647C156.325 32.0799 155.362 31.6889 154.197 31.6889C153.029 31.6889 152.069 32.0799 151.318 32.8647C150.567 33.6495 150.19 34.6509 150.19 35.869C150.184 37.0844 150.559 38.0832 151.305 38.8627Z" fill="#100F0F"/>
<path d="M162.787 29.8232H166.273C167.596 29.8232 168.619 30.1245 169.341 30.7269C170.135 31.4033 170.533 32.307 170.533 33.4405C170.533 34.6956 170.064 35.6416 169.125 36.281C168.764 36.5347 168.324 36.709 167.807 36.8068L171.564 41.8906H168.64L165.426 37.042H165.136V41.8906H162.79V29.8232H162.787ZM165.136 31.7415V35.38H165.803C165.996 35.38 166.186 35.3641 166.373 35.3351C166.56 35.306 166.802 35.2399 167.103 35.1369C167.404 35.0338 167.649 34.8462 167.833 34.5767C168.021 34.3046 168.113 33.9637 168.113 33.5542C168.113 33.1446 168.023 32.8037 167.841 32.5316C167.659 32.2594 167.419 32.0745 167.119 31.9714C166.818 31.8684 166.578 31.805 166.396 31.7812C166.215 31.7574 166.03 31.7442 165.837 31.7442H165.136V31.7415Z" fill="#100F0F"/>
<path d="M181.351 41.8934L180.286 39.3595H175.429L174.364 41.8934H171.817L177.035 29.5698H178.804L183.879 41.8934H181.351ZM176.167 37.4412H179.597L177.9 33.0973L176.167 37.4412Z" fill="#100F0F"/>
<path d="M191.172 31.8499H188.464V41.8932H186.118V31.8499H183.41V29.8232H191.174V31.8499H191.172Z" fill="#100F0F"/>
<path d="M192.653 29.8232H195V41.8932H192.653V29.8232Z" fill="#100F0F"/>
<path d="M95.052 0V50" stroke="#B2B7D0" stroke-width="0.506043" stroke-miterlimit="10"/>
<path d="M10.2798 4.39404C4.60337 4.39404 0 9.00483 0 14.6963C0 20.3878 4.60337 24.9986 10.2798 24.9986C15.9589 24.9986 20.5596 20.3852 20.5596 14.6963C20.5596 9.00748 15.9589 4.39404 10.2798 4.39404ZM10.2798 21.0484C6.77851 21.0484 3.9416 18.2053 3.9416 14.6963C3.9416 11.1874 6.77851 8.34426 10.2798 8.34426C13.7811 8.34426 16.618 11.1874 16.618 14.6963C16.618 18.2053 13.7811 21.0484 10.2798 21.0484Z" fill="#00D8C6"/>
<path d="M12.2516 29.6567H8.30997V45.6056H12.2516V29.6567Z" fill="#00D8C6"/>
<path d="M11.2687 21.3655H9.29657V34.3048H11.2687V21.3655Z" fill="#00D8C6"/>
<path d="M36.4287 4.39404C30.7496 4.39404 26.1489 9.00748 26.1489 14.6963C26.1489 20.3852 30.7523 24.9986 36.4287 24.9986C42.1078 24.9986 46.7085 20.3852 46.7085 14.6963C46.7085 9.00748 42.1078 4.39404 36.4287 4.39404ZM36.4287 21.0484C32.9274 21.0484 30.0905 18.2053 30.0905 14.6963C30.0905 11.1874 32.9274 8.34426 36.4287 8.34426C39.93 8.34426 42.7669 11.1874 42.7669 14.6963C42.7669 18.2053 39.93 21.0484 36.4287 21.0484Z" fill="#41D4FF"/>
<path d="M38.3985 29.6567H34.4569V45.6056H38.3985V29.6567Z" fill="#41D4FF"/>
<path d="M37.4152 21.3655H35.4431V34.3048H37.4152V21.3655Z" fill="#41D4FF"/>
<path d="M62.5781 4.39404C56.899 4.39404 52.2983 9.00748 52.2983 14.6963C52.2983 20.3852 56.9017 24.9986 62.5781 24.9986C68.2572 24.9986 72.8579 20.3852 72.8579 14.6963C72.8579 9.00748 68.2545 4.39404 62.5781 4.39404ZM62.5781 21.0484C59.0768 21.0484 56.2399 18.2053 56.2399 14.6963C56.2399 11.1874 59.0768 8.34426 62.5781 8.34426C66.0794 8.34426 68.9163 11.1874 68.9163 14.6963C68.9163 18.2053 66.0768 21.0484 62.5781 21.0484Z" fill="#B2B7D0"/>
<path d="M64.5474 29.6567H60.6058V45.6056H64.5474V29.6567Z" fill="#B2B7D0"/>
<path d="M63.5641 21.3655H61.5919V34.3048H63.5641V21.3655Z" fill="#B2B7D0"/>
</g>
<defs>
<clipPath id="clip0">
<rect width="195" height="50" fill="white"/>
</clipPath>
</defs>
</svg>
