<svg width="20" height="20" viewBox="0 0 20 20" fill="none" xmlns="http://www.w3.org/2000/svg">
<path d="M20 16.9444V10.4632C20 9.26048 20 8.6591 19.8393 8.10937C19.697 7.62256 19.4633 7.16726 19.1509 6.76773C18.7981 6.31657 18.3096 5.96584 17.3325 5.26438L13.7325 2.67976C12.39 1.71588 11.7187 1.23393 10.986 1.04758C10.339 0.883002 9.66103 0.883002 9.014 1.04758C8.28131 1.23393 7.61003 1.71588 6.26748 2.67976L2.66748 5.26438C1.69044 5.96584 1.20192 6.31657 0.849097 6.76773C0.536656 7.16726 0.303047 7.62256 0.160722 8.10937C0 8.6591 0 9.26048 0 10.4632V16.9444C0 17.9285 0 18.4206 0.169377 18.8055C0.370854 19.2634 0.736615 19.6291 1.19451 19.8306C1.57944 20 2.07148 20 3.05556 20H3.93162C4.09829 20 4.18162 20 4.25196 19.995C5.2455 19.9249 6.036 19.1344 6.10615 18.1409C6.11111 18.0705 6.11111 17.9872 6.11111 17.8205V15.1709C6.11111 13.0232 7.85223 11.2821 10 11.2821C12.1478 11.2821 13.8889 13.0232 13.8889 15.1709V17.8205C13.8889 17.9872 13.8889 18.0705 13.8939 18.1409C13.964 19.1344 14.7545 19.9249 15.748 19.995C15.8184 20 15.9017 20 16.0684 20H16.9444C17.9285 20 18.4206 20 18.8055 19.8306C19.2634 19.6291 19.6291 19.2634 19.8306 18.8055C20 18.4206 20 17.9285 20 16.9444Z" fill="#66676C"/>
</svg>
