<svg width="45" height="45" viewBox="0 0 45 45" fill="none" xmlns="http://www.w3.org/2000/svg">
<path d="M30.6355 40.6602H14.7233C14.3238 40.6602 14 40.984 14 41.3834C14 41.7829 14.3238 42.1067 14.7233 42.1067H30.6355C31.035 42.1067 31.3588 41.7829 31.3588 41.3834C31.3588 40.984 31.035 40.6602 30.6355 40.6602Z" fill="#313B6C"/>
<path d="M23.098 0.394036C22.7555 0.156977 22.302 0.156984 21.9596 0.394055L13.1261 6.50958V5.49595C13.1261 4.94367 12.6783 4.49595 12.1261 4.49595H8.33976C7.78747 4.49595 7.33976 4.94367 7.33976 5.49595V10.5151L3.21543 13.3706C3.08053 13.4639 3.00004 13.6176 3.00004 13.7816V18.6648C3.00004 19.0682 3.45304 19.3055 3.78465 19.0759L5.1699 18.1169V38.7137C5.1699 38.9898 5.39376 39.2137 5.6699 39.2137H9.50962V44.5C9.50962 44.7761 9.73348 45 10.0096 45H35.0479C35.3241 45 35.5479 44.7761 35.5479 44.5V39.2137H39.3877C39.6638 39.2137 39.8877 38.9898 39.8877 38.7137V18.1162L41.2729 19.0752C41.6045 19.3048 42.0575 19.0675 42.0575 18.6641V13.7809C42.0575 13.6169 41.977 13.4632 41.8421 13.3698L23.098 0.394036ZM8.78633 6.94252C8.78633 6.39024 9.23405 5.94252 9.78633 5.94252H11.6795V7.51061L8.78633 9.51339V6.94252ZM38.4411 37.2671C38.4411 37.5433 38.2172 37.7671 37.9411 37.7671H35.5479V22.3548C35.5479 22.0787 35.3241 21.8548 35.0479 21.8548H26.8685V23.3014H33.6014C33.8775 23.3014 34.1014 23.5253 34.1014 23.8014V43.0534C34.1014 43.3296 33.8775 43.5534 33.6014 43.5534H11.4562C11.18 43.5534 10.9562 43.3296 10.9562 43.0534V23.8014C10.9562 23.5253 11.18 23.3014 11.4562 23.3014H18.1891V21.8548H10.0096C9.73348 21.8548 9.50962 22.0787 9.50962 22.3548V37.7671H7.11647C6.84033 37.7671 6.61647 37.5433 6.61647 37.2671V17.1151L22.5288 6.09875L38.4411 17.1151V37.2671ZM40.6109 15.9041C40.6109 16.3074 40.158 16.5447 39.8263 16.3152L22.5288 4.33972L5.23122 16.3152C4.89961 16.5447 4.44661 16.3074 4.44661 15.9041V14.5404C4.44661 14.3763 4.5271 14.2227 4.66199 14.1293L22.5288 1.75903L40.3956 14.1293C40.5305 14.2227 40.6109 14.3763 40.6109 14.5404V15.9041Z" fill="#313B6C"/>
<path d="M30.8054 37.7672H13.4465V26.1946H19.9561V24.748H12V39.2138H32.252V24.748H24.2958V26.1946H30.8054V37.7672Z" fill="#313B6C"/>
<path d="M22 41.3834C22 41.7829 22.3238 42.1067 22.7233 42.1067C23.1227 42.1067 23.4466 41.7829 23.4466 41.3834C23.4466 40.984 23.1227 40.6602 22.7233 40.6602C22.3238 40.6602 22 40.984 22 41.3834Z" fill="#313B6C"/>
<path d="M22.2329 36.62L19.3398 33.7268V31.6814L20.4869 30.5343L19.0403 29.0877L20.4869 27.6411L19.3398 26.494V24.1375C16.7236 22.9954 15 20.3959 15 17.5151C15 13.5269 18.2447 10.2822 22.2329 10.2822C26.2211 10.2822 29.4658 13.5269 29.4658 17.5151C29.4658 20.3959 27.7422 22.9954 25.1261 24.1375V33.7268L22.2329 36.62Z" fill="#00AC8A"/>
<path d="M22.8931 19.9616C21.2976 19.9616 20 18.664 20 17.0684C20 15.4729 21.2976 14.1753 22.8931 14.1753C24.4887 14.1753 25.7863 15.4729 25.7863 17.0684C25.7863 18.664 24.4887 19.9616 22.8931 19.9616ZM22.8931 15.6219C22.0954 15.6219 21.4466 16.2707 21.4466 17.0684C21.4466 17.8662 22.0954 18.515 22.8931 18.515C23.6909 18.515 24.3397 17.8662 24.3397 17.0684C24.3397 16.2707 23.6909 15.6219 22.8931 15.6219Z" fill="#313B6C"/>
</svg>
