<svg width="24" height="24" viewBox="0 0 24 24" fill="none" xmlns="http://www.w3.org/2000/svg">
<path d="M12 3.457C11.586 3.457 11.25 3.121 11.25 2.707V0.75C11.25 0.336 11.586 0 12 0C12.414 0 12.75 0.336 12.75 0.75V2.707C12.75 3.121 12.414 3.457 12 3.457Z" fill="#66676C"/>
<path d="M18.5708 6.17918C18.3788 6.17918 18.1868 6.10618 18.0408 5.95918C17.7478 5.66618 17.7478 5.19118 18.0408 4.89818L19.4248 3.51418C19.7178 3.22118 20.1928 3.22118 20.4858 3.51418C20.7788 3.80718 20.7788 4.28218 20.4858 4.57518L19.1018 5.95918C18.9548 6.10518 18.7628 6.17918 18.5708 6.17918Z" fill="#66676C"/>
<path d="M23.25 12.75H21.293C20.879 12.75 20.543 12.414 20.543 12C20.543 11.586 20.879 11.25 21.293 11.25H23.25C23.664 11.25 24 11.586 24 12C24 12.414 23.664 12.75 23.25 12.75Z" fill="#66676C"/>
<path d="M19.9548 20.7051C19.7628 20.7051 19.5708 20.6321 19.4248 20.4851L18.0408 19.1011C17.7478 18.8081 17.7478 18.3331 18.0408 18.0401C18.3338 17.7471 18.8088 17.7471 19.1018 18.0401L20.4858 19.4241C20.7788 19.7171 20.7788 20.1921 20.4858 20.4851C20.3388 20.6321 20.1468 20.7051 19.9548 20.7051Z" fill="#66676C"/>
<path d="M4.04516 20.7051C3.85316 20.7051 3.66116 20.6321 3.51516 20.4851C3.22216 20.1921 3.22216 19.7171 3.51516 19.4241L4.89916 18.0401C5.19216 17.7471 5.66715 17.7471 5.96015 18.0401C6.25315 18.3331 6.25315 18.8081 5.96015 19.1011L4.57616 20.4851C4.42916 20.6321 4.23716 20.7051 4.04516 20.7051Z" fill="#66676C"/>
<path d="M2.707 12.75H0.75C0.336 12.75 0 12.414 0 12C0 11.586 0.336 11.25 0.75 11.25H2.707C3.121 11.25 3.457 11.586 3.457 12C3.457 12.414 3.121 12.75 2.707 12.75Z" fill="#66676C"/>
<path d="M5.42915 6.17918C5.23715 6.17918 5.04516 6.10618 4.89916 5.95918L3.51516 4.57518C3.22216 4.28218 3.22216 3.80718 3.51516 3.51418C3.80816 3.22118 4.28316 3.22118 4.57616 3.51418L5.96015 4.89818C6.25315 5.19118 6.25315 5.66618 5.96015 5.95918C5.81215 6.10518 5.62115 6.17918 5.42915 6.17918Z" fill="#66676C"/>
<path d="M15 21V22.25C15 23.21 14.21 24 13.25 24H10.75C9.91 24 9 23.36 9 21.96V21H15Z" fill="#66676C"/>
<path d="M16.4102 6.55912C14.7702 5.22912 12.6102 4.70912 10.5002 5.15912C7.85019 5.70912 5.70019 7.86912 5.15019 10.5191C4.59019 13.2391 5.61019 15.9391 7.79019 17.5891C8.38019 18.0291 8.79019 18.7091 8.93019 19.4991V19.5091C8.95019 19.4991 8.98019 19.4991 9.00019 19.4991H15.0002C15.0202 19.4991 15.0302 19.4991 15.0502 19.5091V19.4991C15.1902 18.7391 15.6402 18.0391 16.3302 17.4991C18.0202 16.1591 19.0002 14.1591 19.0002 11.9991C19.0002 9.87912 18.0602 7.89912 16.4102 6.55912Z" fill="#66676C"/>
<path d="M8.93005 19.5H9.00005C8.98005 19.5 8.95005 19.5 8.93005 19.51V19.5Z" fill="#66676C"/>
<path d="M15.05 19.5V19.51C15.03 19.5 15.02 19.5 15 19.5H15.05Z" fill="#66676C"/>
</svg>
