<svg width="36" height="36" viewBox="0 0 36 36" fill="none" xmlns="http://www.w3.org/2000/svg">
<path fill-rule="evenodd" clip-rule="evenodd" d="M10.1499 2.84985H10.1109H10.1109C9.02382 2.84985 8.15314 2.84984 7.44937 2.90734C6.72671 2.96638 6.10115 3.09051 5.5253 3.38392C4.60331 3.8537 3.8537 4.60331 3.38392 5.5253C3.09051 6.10115 2.96638 6.72671 2.90734 7.44937C2.84984 8.15314 2.84985 9.02382 2.84985 10.1109V10.1109V10.1499V25.8499V25.8888C2.84985 26.9759 2.84984 27.8466 2.90734 28.5503C2.945 29.0112 3.00912 29.4326 3.12675 29.8268C3.19133 30.2085 3.28879 30.5272 3.43586 30.8158C3.81935 31.5685 4.43128 32.1804 5.18392 32.5639C5.47264 32.711 5.79147 32.8085 6.17328 32.8731C6.56736 32.9906 6.98863 33.0547 7.44937 33.0924C8.15313 33.1499 9.02378 33.1499 10.1108 33.1499H10.1109H10.1499H25.8499H25.8888H25.8889C26.9759 33.1499 27.8466 33.1499 28.5503 33.0924C29.011 33.0547 29.4323 32.9906 29.8263 32.8731C30.2082 32.8085 30.5271 32.711 30.8158 32.5639C31.5685 32.1804 32.1804 31.5685 32.5639 30.8158C32.711 30.5271 32.8085 30.2082 32.8731 29.8263C32.9906 29.4322 33.0547 29.011 33.0924 28.5503C33.1499 27.8466 33.1499 26.9759 33.1499 25.8889V25.8888V25.8499V10.1499V10.1109V10.1108C33.1499 9.02378 33.1499 8.15313 33.0924 7.44937C33.0333 6.72671 32.9092 6.10115 32.6158 5.5253C32.146 4.60331 31.3964 3.8537 30.4744 3.38392C29.8986 3.09051 29.273 2.96638 28.5503 2.90734C27.8466 2.84984 26.9759 2.84985 25.8888 2.84985H25.8888H25.8499H10.1499ZM31.3499 22.2551V10.1499C31.3499 9.0149 31.3492 8.21781 31.2983 7.59595C31.2484 6.9846 31.1545 6.62229 31.012 6.34248C30.7148 5.75918 30.2405 5.28494 29.6572 4.98773C29.3774 4.84517 29.0151 4.75131 28.4038 4.70136C27.7819 4.65055 26.9848 4.64985 25.8499 4.64985H10.1499C9.0149 4.64985 8.21781 4.65055 7.59595 4.70136C6.9846 4.75131 6.62229 4.84517 6.34248 4.98773C5.75918 5.28494 5.28494 5.75918 4.98773 6.34248C4.84517 6.62229 4.75131 6.9846 4.70136 7.59595C4.65055 8.21781 4.64985 9.0149 4.64985 10.1499V25.8499C4.64985 26.3898 4.65001 26.8533 4.65565 27.2578L9.726 21.2927C10.5247 20.353 11.9751 20.353 12.7738 21.2926L15.207 24.1552C16.0444 25.1405 17.5827 25.084 18.3456 24.04L23.8851 16.4596C24.6841 15.3663 26.3157 15.3663 27.1147 16.4596L31.3499 22.2551ZM15.7499 11.9999C15.7499 14.0709 14.0709 15.7499 11.9999 15.7499C9.9288 15.7499 8.24986 14.0709 8.24986 11.9999C8.24986 9.92878 9.9288 8.24985 11.9999 8.24985C14.0709 8.24985 15.7499 9.92878 15.7499 11.9999Z" fill="#66676C"/>
</svg>
