<svg width="34" height="34" viewBox="0 0 34 34" fill="none" xmlns="http://www.w3.org/2000/svg">
<rect width="34" height="34" rx="12" fill="#14A9D7"/>
<path fill-rule="evenodd" clip-rule="evenodd" d="M17 28C23.0751 28 28 23.0751 28 17C28 10.9249 23.0751 6 17 6C10.9249 6 6 10.9249 6 17C6 23.0751 10.9249 28 17 28ZM18.2091 10.42C17.9825 10.1593 17.6878 10.029 17.3251 10.029C16.9738 10.029 16.6565 10.1763 16.3731 10.471C16.1011 10.7657 15.9651 11.1113 15.9651 11.508C15.9651 11.882 16.0785 12.1937 16.3051 12.443C16.5431 12.6923 16.8491 12.817 17.2231 12.817C17.5971 12.817 17.9088 12.681 18.1581 12.409C18.4188 12.1257 18.5491 11.78 18.5491 11.372C18.5491 10.9867 18.4358 10.6693 18.2091 10.42ZM17.9371 14.823C17.6991 14.483 17.2968 14.313 16.7301 14.313C16.2541 14.313 15.8291 14.4603 15.4551 14.755C15.0925 15.0383 14.7921 15.3897 14.5541 15.809C14.3275 16.217 14.1801 16.6023 14.1121 16.965L15.0301 17.237C15.2795 16.3417 15.5515 15.894 15.8461 15.894C16.0275 15.894 16.1181 16.0413 16.1181 16.336C16.1181 16.71 16.0331 17.4523 15.8631 18.563C15.6591 19.855 15.5571 20.756 15.5571 21.266C15.5571 21.912 15.6761 22.3937 15.9141 22.711C16.1635 23.0283 16.5885 23.187 17.1891 23.187C17.6651 23.187 18.0845 23.0453 18.4471 22.762C18.8098 22.4673 19.1045 22.116 19.3311 21.708C19.5578 21.3 19.7051 20.909 19.7731 20.535L18.8551 20.263C18.6058 21.1583 18.3281 21.606 18.0221 21.606C17.8521 21.606 17.7671 21.4587 17.7671 21.164C17.7671 20.9713 17.8011 20.6257 17.8691 20.127C17.9371 19.617 17.9825 19.2883 18.0051 19.141C18.0278 18.9483 18.0845 18.512 18.1751 17.832C18.2658 17.1407 18.3111 16.625 18.3111 16.285C18.3111 15.6503 18.1865 15.163 17.9371 14.823Z" fill="white"/>
</svg>
