<svg width="78" height="78" viewBox="0 0 78 78" fill="none" xmlns="http://www.w3.org/2000/svg">
<path fill-rule="evenodd" clip-rule="evenodd" d="M39 7.27523C21.4789 7.27523 7.27523 21.4789 7.27523 39C7.27523 56.5211 21.4789 70.7248 39 70.7248C56.5211 70.7248 70.7248 56.5211 70.7248 39C70.7248 21.4789 56.5211 7.27523 39 7.27523ZM1 39C1 18.0132 18.0132 1 39 1C59.9868 1 77 18.0132 77 39C77 59.9868 59.9868 77 39 77C18.0132 77 1 59.9868 1 39Z" fill="#1ABC9C" stroke="white" stroke-width="1.5"/>
<path d="M43.8335 23.9011L43.8391 23.8954L43.8445 23.8895C44.8515 22.8024 45.3777 21.4816 45.425 19.9655C45.5126 18.4092 45.0809 17.0465 44.1024 15.9363C43.1498 14.8091 41.8749 14.25 40.3514 14.25C38.9271 14.25 37.6628 14.8224 36.5806 15.8932C35.484 16.9784 34.8882 18.3234 34.7978 19.8896L34.7972 19.9001L34.7969 19.9105C34.7519 21.4252 35.184 22.7586 36.114 23.863L36.125 23.876L36.1365 23.8884C37.1341 24.9696 38.4431 25.4968 39.991 25.4968C41.5059 25.4968 42.8048 24.9654 43.8335 23.9011ZM45.9678 50.0581L45.2472 49.8468L45.0368 50.5676C44.5179 52.345 44.0455 53.4652 43.6447 54.027C43.2343 54.6022 42.9586 54.7098 42.8375 54.7217C42.8225 54.7129 42.7949 54.694 42.7557 54.6571C42.7493 54.6441 42.7339 54.609 42.7172 54.5397C42.6858 54.4095 42.6629 54.2109 42.6629 53.9276C42.6629 53.3088 42.7566 52.2822 42.9563 50.8198C43.1566 49.3533 43.3769 47.7284 43.6172 45.9451C43.8577 44.1596 44.0783 42.4531 44.2789 40.8256C44.4806 39.189 44.5848 37.8665 44.5848 36.8708C44.5848 34.6854 44.1496 32.8594 43.2002 31.4662C42.2106 29.9099 40.4728 29.2267 38.2492 29.2267C36.7664 29.2267 35.4122 29.5735 34.2062 30.2807L34.2062 30.2806L34.1955 30.2871C33.0776 30.9678 32.0921 31.8383 31.2396 32.8928L31.2372 32.8958C30.4384 33.8942 29.7842 34.9584 29.2768 36.0881C28.7809 37.1922 28.4379 38.2002 28.2635 39.1063L28.1346 39.7759L28.789 39.9678L32.0322 40.9187L32.7528 41.1299L32.9632 40.4091C33.4821 38.6317 33.9545 37.5116 34.3553 36.9498C34.8119 36.3098 35.0762 36.2539 35.1261 36.2539C35.1265 36.2539 35.1269 36.2539 35.1274 36.2539C35.1384 36.2536 35.1771 36.2529 35.2593 36.3341L35.2625 36.3374C35.2678 36.3521 35.275 36.3748 35.2828 36.4074C35.3135 36.5349 35.3371 36.7418 35.3371 37.0491C35.3371 37.9526 35.2416 39.1236 35.0439 40.5716C34.8448 41.9897 34.6057 43.5276 34.3265 45.1855L34.325 45.1942L34.3238 45.2029C34.0829 46.8712 33.8621 48.5 33.6613 50.0895C33.4586 51.6944 33.3551 53.0943 33.3551 54.2842C33.3551 56.4676 33.7696 58.2785 34.6843 59.6361L34.6891 59.6432L34.694 59.6502C35.7368 61.1242 37.5555 61.75 39.8709 61.75C41.3511 61.75 42.6886 61.4044 43.8592 60.6929C45.0147 60.0145 46.0044 59.1634 46.8229 58.1404L46.8275 58.1346L46.8321 58.1287C47.6274 57.0932 48.2609 56.0096 48.728 54.8779C49.2213 53.778 49.5626 52.7736 49.7365 51.8704L49.8654 51.2008L49.211 51.009L45.9678 50.0581ZM35.2533 36.3151C35.2533 36.3151 35.2537 36.3158 35.2544 36.3172C35.2536 36.3159 35.2533 36.3152 35.2533 36.3151Z" fill="#1ABC9C" stroke="white" stroke-width="1.5"/>
</svg>
