<svg width="34" height="34" viewBox="0 0 34 34" fill="none" xmlns="http://www.w3.org/2000/svg">
<rect width="34" height="34" rx="12" fill="#5150A9"/>
<path d="M22 9.46094C23.4 9.46094 24.5391 10.6 24.5391 12C24.5391 12.3236 24.8014 12.5859 25.125 12.5859C25.4486 12.5859 25.7109 12.3236 25.7109 12C25.7109 9.95379 24.0462 8.28906 22 8.28906C21.6764 8.28906 21.4141 8.55141 21.4141 8.875C21.4141 9.19859 21.6764 9.46094 22 9.46094Z" fill="white"/>
<path d="M12 24.5391C10.6 24.5391 9.46094 23.4 9.46094 22C9.46094 21.6764 9.19859 21.4141 8.875 21.4141C8.55141 21.4141 8.28906 21.6764 8.28906 22C8.28906 24.0462 9.95379 25.7109 12 25.7109C12.3236 25.7109 12.5859 25.4486 12.5859 25.125C12.5859 24.8014 12.3236 24.5391 12 24.5391Z" fill="white"/>
<path d="M12.8391 16.0234L12.5559 16.8727C12.4742 17.1184 12.2453 17.2734 12 17.2734C11.6018 17.2734 11.3174 16.8825 11.4441 16.5023L13.3191 10.8773C13.3988 10.6379 13.6227 10.4766 13.875 10.4766C14.1273 10.4766 14.3512 10.6379 14.4309 10.8773L15.3914 13.7594C16.8688 12.6561 18.6554 12.1097 20.4687 12.1797C19.7266 9.20781 17.0344 7 13.8359 7C10.0664 7 7 10.0664 7 13.8359C7 17.0344 9.20781 19.7266 12.1797 20.4687C12.1201 18.9249 12.507 17.3807 13.3328 16.0234H12.8391Z" fill="white"/>
<path d="M20.1803 13.3604C16.4139 13.3604 13.3606 16.4136 13.3606 20.18C13.3606 23.9464 16.4138 26.9998 20.1803 26.9998C23.9467 26.9998 27 23.9465 27 20.1801C27 16.4137 23.9467 13.3604 20.1803 13.3604ZM18.0086 22.7873C17.7562 22.9904 17.3867 22.9478 17.1851 22.6959C16.9828 22.4431 17.0238 22.0744 17.2765 21.8724C18.1695 21.158 18.4972 19.5466 18.589 18.5408H17.6426C17.3191 18.5408 17.0566 18.2783 17.0566 17.9548C17.0566 17.6314 17.3191 17.3689 17.6426 17.3689H19.2051C19.5285 17.3689 19.791 17.6314 19.791 17.9548C19.791 18.0939 19.7707 21.3775 18.0086 22.7873ZM22.6426 20.1033H21.9785V22.9548C21.9785 23.2783 21.716 23.5408 21.3926 23.5408C21.0691 23.5408 20.8066 23.2783 20.8066 22.9548V17.3298C20.8066 17.0064 21.0691 16.7439 21.3926 16.7439C21.716 16.7439 21.9785 17.0064 21.9785 17.3298V18.9314H22.6426C22.966 18.9314 23.2285 19.1939 23.2285 19.5173C23.2285 19.8408 22.966 20.1033 22.6426 20.1033Z" fill="white"/>
<path d="M13.2297 14.8514H14.5203C14.4113 14.5248 14.5305 14.8825 13.875 12.915L13.2297 14.8514Z" fill="white"/>
</svg>
