<svg width="17" height="17" viewBox="0 0 17 17" fill="none" xmlns="http://www.w3.org/2000/svg">
<g clip-path="url(#clip0)">
<path d="M15.7736 10.162C15.7736 9.79737 15.6286 9.45762 15.3787 9.20706C15.662 8.89706 15.8064 8.48148 15.7669 8.04895C15.696 7.27786 15.0013 6.67362 14.1848 6.67362H10.4374C10.623 6.11002 10.9203 5.07689 10.9203 4.24697C10.9203 2.93111 9.8022 1.82031 9.10028 1.82031C8.47056 1.82031 8.01979 2.17521 8.001 2.18977C7.92879 2.24742 7.88693 2.33477 7.88693 2.42697C7.88693 2.42697 8.00056 3.68886 7.88693 4.48417C7.65667 6.09592 6.13914 8.26917 6.13914 8.26917L6.06693 8.30616V8.19028C6.06693 8.02284 5.93103 7.88694 5.76359 7.88694H2.73028C1.89371 7.88697 1.21362 8.56705 1.21362 9.40362V14.257C1.21362 15.0936 1.89371 15.7736 2.73028 15.7736H4.55028C5.20608 15.7736 5.76663 15.355 5.97775 14.7708C6.48252 15.0305 7.16198 15.167 7.58362 15.167H13.1522C13.8129 15.167 14.391 14.7217 14.5269 14.1077C14.5967 13.791 14.556 13.4725 14.4177 13.1959C14.8654 12.9708 15.167 12.5079 15.167 11.982C15.167 11.7672 15.1178 11.5615 15.025 11.3759C15.4727 11.1502 15.7736 10.6879 15.7736 10.162ZM14.4942 10.9106C14.3771 10.9245 14.2782 11.004 14.2406 11.1162C14.2036 11.2285 14.2345 11.3516 14.3207 11.4329C14.4748 11.5779 14.5603 11.7733 14.5603 11.982C14.5603 12.3648 14.2709 12.6863 13.8881 12.7306C13.771 12.7445 13.6721 12.824 13.6345 12.9362C13.5975 13.0485 13.6285 13.1716 13.7146 13.2529C13.9142 13.441 13.9943 13.7049 13.9342 13.9767C13.8596 14.3152 13.5308 14.5603 13.1522 14.5603H7.58362C7.091 14.5603 6.26472 14.3292 5.97838 14.0422C5.89162 13.9561 5.76058 13.9306 5.64774 13.9767C5.5343 14.0234 5.46028 14.1344 5.46028 14.257C5.46028 14.7587 5.052 15.167 4.55028 15.167H2.73028C2.22856 15.167 1.82028 14.7587 1.82028 14.257V9.40362C1.82028 8.9019 2.22856 8.49362 2.73028 8.49362H5.46028V8.79697C5.46028 8.90193 5.51488 8.99958 5.60466 9.05541C5.69324 9.10878 5.80485 9.11424 5.89949 9.06815L6.50615 8.7648C6.56743 8.73446 6.61657 8.6835 6.64569 8.62102L8.46569 4.67768C8.46569 4.67768 8.49359 4.59396 8.49359 4.55028V2.59137C8.6198 2.52161 8.83882 2.42697 9.10028 2.42697C9.43274 2.42697 10.3136 3.25325 10.3136 4.24697C10.3136 5.31471 9.72698 6.86899 9.72698 6.86899C9.6918 6.96181 9.70392 7.06677 9.76034 7.14927C9.81736 7.23117 9.9108 7.28031 10.0103 7.28031H14.1848C14.6907 7.28031 15.1202 7.64249 15.1627 8.10477C15.1949 8.45057 15.0286 8.77939 14.7308 8.96321C14.6379 9.02023 14.5827 9.12337 14.587 9.23317C14.5912 9.34296 14.6543 9.44125 14.7514 9.49161C15.008 9.62205 15.1669 9.87927 15.1669 10.162C15.167 10.5448 14.8776 10.8663 14.4942 10.9106Z" fill="#100F0F" stroke="#100F0F" stroke-width="0.606666"/>
<path d="M5.76391 8.79688C5.59647 8.79688 5.46057 8.93278 5.46057 9.10022V14.5602C5.46057 14.7277 5.59647 14.8636 5.76391 14.8636C5.93135 14.8636 6.06726 14.7277 6.06726 14.5602V9.10022C6.06726 8.93278 5.93135 8.79688 5.76391 8.79688Z" fill="#100F0F" stroke="#100F0F" stroke-width="0.606666"/>
</g>
<defs>
<clipPath id="clip0">
<rect width="16.9867" height="16.9867" fill="white"/>
</clipPath>
</defs>
</svg>
