<svg width="18" height="20" viewBox="0 0 18 20" fill="none" xmlns="http://www.w3.org/2000/svg">
<path fill-rule="evenodd" clip-rule="evenodd" d="M9.99445 19.7241C12.2287 18.2269 17.8601 13.9398 17.8601 8.76345C17.8601 3.92353 13.9366 0 9.0967 0C4.25678 0 0.333252 3.92353 0.333252 8.76345C0.333252 13.9398 5.9647 18.2269 8.19895 19.7241C8.74782 20.092 9.44558 20.092 9.99445 19.7241ZM9.0967 11.5309C10.6251 11.5309 11.8641 10.2918 11.8641 8.76345C11.8641 7.23505 10.6251 5.99604 9.0967 5.99604C7.5683 5.99604 6.3293 7.23505 6.3293 8.76345C6.3293 10.2918 7.5683 11.5309 9.0967 11.5309Z" fill="white"/>
</svg>
