<svg width="14" height="14" viewBox="0 0 14 14" fill="none" xmlns="http://www.w3.org/2000/svg">
<path d="M11.8611 5.93064C11.8611 8.98277 9.19955 11.6547 7.85525 12.8095C7.4141 13.1885 6.78037 13.1885 6.33922 12.8095C4.99492 11.6547 2.33334 8.98277 2.33334 5.93064C2.33334 3.29961 4.46621 1.16675 7.09723 1.16675C9.72826 1.16675 11.8611 3.29961 11.8611 5.93064Z" fill="#66676C"/>
<path fill-rule="evenodd" clip-rule="evenodd" d="M7.09722 4.56961C6.3455 4.56961 5.73611 5.179 5.73611 5.93072C5.73611 6.68244 6.3455 7.29183 7.09722 7.29183C7.84894 7.29183 8.45833 6.68244 8.45833 5.93072C8.45833 5.179 7.84894 4.56961 7.09722 4.56961ZM4.375 5.93072C4.375 4.42728 5.59378 3.2085 7.09722 3.2085C8.60066 3.2085 9.81944 4.42728 9.81944 5.93072C9.81944 7.43416 8.60066 8.65294 7.09722 8.65294C5.59378 8.65294 4.375 7.43416 4.375 5.93072Z" fill="white"/>
</svg>
