<svg width="148" height="84" viewBox="0 0 148 84" fill="none" xmlns="http://www.w3.org/2000/svg">
<path d="M93.3945 19.6803C93.3945 8.82782 84.5628 0 73.7056 0C62.8484 0 54.0168 8.82782 54.0168 19.6803C54.0168 29.9552 61.9338 38.4072 71.9943 39.2821V50.6002H70.2829V83.6849H77.1283V50.6002H75.417V39.2821C85.4774 38.4128 93.3945 29.9552 93.3945 19.6803ZM60.8677 19.6803C60.8677 12.5911 66.619 6.84801 73.7056 6.84801C80.7979 6.84801 86.5435 12.5968 86.5435 19.6803C86.5435 26.7695 80.7922 32.5126 73.7056 32.5126C66.619 32.5126 60.8677 26.7695 60.8677 19.6803Z" fill="#41D4FF"/>
<path d="M39.3721 19.6803C39.3721 8.82782 30.5405 0 19.6833 0C8.82604 0 0 8.82782 0 19.6803C0 30.0505 8.06856 38.5699 18.2581 39.3046V50.6002H16.5467V83.6849H23.3921V50.6002H21.6808V39.2597C31.6065 38.2558 39.3721 29.8598 39.3721 19.6803ZM6.84537 19.6803C6.84537 12.5911 12.5966 6.84801 19.6833 6.84801C26.7699 6.84801 32.5267 12.5911 32.5267 19.6803C32.5267 26.7695 26.7755 32.5126 19.6889 32.5126C12.6022 32.5126 6.84537 26.7695 6.84537 19.6803Z" fill="#00D8C6"/>
<path d="M147.417 19.6803C147.417 8.82782 138.585 0 127.728 0C116.871 0 108.039 8.82782 108.039 19.6803C108.039 29.972 115.984 38.4353 126.062 39.2821V50.5945H124.35V83.6793H131.196V50.5945H129.484V39.2765C139.522 38.3848 147.417 29.9383 147.417 19.6803ZM114.89 19.6803C114.89 12.5911 120.641 6.84801 127.728 6.84801C134.82 6.84801 140.566 12.5968 140.566 19.6803C140.566 26.7695 134.815 32.5126 127.728 32.5126C120.641 32.5126 114.89 26.7695 114.89 19.6803Z" fill="#B2B7D0"/>
</svg>
