<svg width="103" height="136" viewBox="0 0 103 136" fill="none" xmlns="http://www.w3.org/2000/svg">
<mask id="mask0" mask-type="alpha" maskUnits="userSpaceOnUse" x="0" y="0" width="103" height="136">
<rect width="102.162" height="135.091" rx="22" transform="matrix(-1 0 0 1 102.362 0)" fill="url(#paint0_linear)"/>
</mask>
<g mask="url(#mask0)">
<path d="M42.0067 47.1648C44.3871 47.1648 46.3191 45.2328 46.3191 42.8524C46.3191 40.472 44.3871 38.54 42.0067 38.54C39.6263 38.54 37.6943 40.472 37.6943 42.8524C37.6943 45.2328 39.6263 47.1648 42.0067 47.1648Z" fill="#FEC2AC"/>
<path d="M42.0057 38.8851C39.8323 38.8851 38.0383 40.6446 38.0383 42.8525C38.0383 45.0604 39.7978 46.8199 42.0057 46.8199C44.2136 46.8199 45.9731 45.0604 45.9731 42.8525C45.9731 40.6446 44.1791 38.8851 42.0057 38.8851ZM42.0057 38.1606C44.5931 38.1606 46.6975 40.2651 46.6975 42.8525C46.6975 45.4399 44.5931 47.5443 42.0057 47.5443C39.4183 47.5443 37.3138 45.4399 37.3138 42.8525C37.3138 40.2651 39.4183 38.1606 42.0057 38.1606Z" fill="#1C2034"/>
<path d="M38.5549 28.8807C38.5549 28.8807 36.002 35.0215 40.7974 40.6103L45.4892 28.1907L38.5549 28.8807Z" fill="#1C2034"/>
<path d="M69.6035 121.821L72.0874 90.4272L82.299 100.225L93.5112 85.5973L73.5018 69.5899L57.1494 62.9661L51.7675 67.4854L46.6272 62.9661L30.3092 69.5899L9.12691 85.2178L20.0631 99.8799L32.1722 91.6001L32.1377 121.821H69.6035Z" fill="white"/>
<path d="M46.5578 63.4136L30.4814 69.9339L9.64402 85.2859L20.1317 99.3269L32.5513 90.8747V121.406H69.2581L71.7765 89.5637L82.2642 99.6374L92.9933 85.6654L73.3289 69.9339L57.2525 63.3791L51.8017 67.9674L46.5578 63.4136ZM46.6958 62.5166L47.0408 62.8271L51.7671 67.0015L56.7005 62.8271L57.0455 62.5166L57.494 62.6891L73.5704 69.2439L73.6739 69.2784L73.7775 69.3474L93.4418 85.0789L94.0283 85.5619L93.5798 86.1483L82.8507 100.12L82.3332 100.81L81.7122 100.224L72.3975 91.2887L70.0171 121.51L69.9481 122.234H69.2236H32.5168H31.7233V121.441V92.3581L20.5112 99.9824L19.8902 100.396L19.4417 99.8099L8.95404 85.7688L8.47105 85.1479L9.09205 84.6994L29.9294 69.3474L29.9984 69.2784L30.1019 69.2439L46.1783 62.7236L46.6958 62.5166Z" fill="#1C2034"/>
<path d="M51.9411 68.3468C55.046 68.3468 57.5644 65.8284 57.5644 62.7235V51.2354H46.3523V62.7235C46.3178 65.8284 48.8362 68.3468 51.9411 68.3468Z" fill="#FEC2AC"/>
<path d="M46.6627 51.5811V62.7242C46.6627 65.6221 49.0086 68.0026 51.941 68.0026C54.8389 68.0026 57.2194 65.6566 57.2194 62.7242V51.5811H46.6627ZM45.9727 50.8911H46.6627H57.1849H57.8748V51.5811V62.7242C57.8748 66.0016 55.1839 68.6925 51.9065 68.6925C48.6292 68.6925 45.9382 66.0016 45.9382 62.7242V51.5811V50.8911H45.9727Z" fill="#1C2034"/>
<path d="M58.2881 52.9954L46.6619 61.5166V52.9954H58.2881Z" fill="#1C2034"/>
<path d="M50.8706 55.5816C55.8384 55.5816 60.2198 52.0972 61.7032 47.0948C62.3932 47.5088 63.1522 47.7503 63.9457 47.7503C66.3261 47.7503 68.258 45.8184 68.258 43.438C68.258 41.0576 66.3261 39.1256 63.9457 39.1256C63.2902 39.1256 62.6692 39.2636 62.1172 39.5396C62.1862 38.9531 62.2207 38.4011 62.2207 37.8147C62.2207 31.0874 57.1149 25.6021 50.8361 25.6021C44.5573 25.6021 39.4515 31.0874 39.4515 37.8147C39.4515 38.7461 39.5549 39.6776 39.7619 40.6091C39.5549 41.5405 39.4515 42.472 39.4515 43.4035C39.486 50.1308 44.5918 55.5816 50.8706 55.5816Z" fill="#FEC2AC"/>
<path d="M50.8699 25.9479C44.7636 25.9479 39.8303 31.2607 39.8303 37.8155C39.8303 38.7814 39.9338 39.7129 40.1408 40.6099C39.9338 41.5069 39.8303 42.4383 39.8303 43.4043C39.8303 49.9591 44.7636 55.2719 50.8699 55.2719C55.9412 55.2719 60.2191 51.5805 61.4955 46.5437C62.1855 47.0957 63.0135 47.4062 63.945 47.4062C66.1184 47.4062 67.9123 45.6467 67.9123 43.4388C67.9123 41.2309 66.1529 39.4714 63.945 39.4714C63.0825 39.4714 62.289 39.7474 61.6335 40.2304C61.7715 39.4369 61.875 38.6435 61.875 37.8155C61.9095 31.2607 56.9417 25.9479 50.8699 25.9479ZM50.8699 25.2234C57.3557 25.2234 62.5995 30.8812 62.5995 37.781C62.5995 38.1605 62.565 38.5745 62.5305 38.9539C62.979 38.816 63.462 38.747 63.945 38.747C66.5324 38.747 68.6023 40.8514 68.6023 43.4043C68.6023 45.9917 66.4979 48.0617 63.945 48.0617C63.2205 48.0617 62.5305 47.8892 61.9095 47.5787C60.2536 52.5465 55.8377 55.9274 50.8699 55.9274C44.3841 55.9274 39.1403 50.2696 39.1403 43.3698C39.1403 42.4383 39.2438 41.5069 39.4163 40.5754C39.2093 39.6439 39.1403 38.7125 39.1403 37.781C39.1058 30.8812 44.3841 25.2234 50.8699 25.2234Z" fill="#1C2034"/>
<path d="M61.9108 43.3358C62.7043 41.2313 64.8087 41.7488 64.8777 41.7833L65.0847 41.0244C64.0842 40.7484 62.0143 40.8519 61.1863 43.0598L61.9108 43.3358Z" fill="#1C2034"/>
<path d="M51.3191 35.6293L55.666 35.6592L55.6596 36.5906L51.3127 36.5608L51.3191 35.6293Z" fill="#1C2034"/>
<path d="M39.8293 35.6293L44.1761 35.6592L44.1697 36.5906L39.8229 36.5608L39.8293 35.6293Z" fill="#1C2034"/>
<path d="M53.4255 41.749C52.7777 41.749 52.2525 41.2238 52.2525 40.576C52.2525 39.9282 52.7777 39.4031 53.4255 39.4031C54.0733 39.4031 54.5984 39.9282 54.5984 40.576C54.5984 41.2238 54.0733 41.749 53.4255 41.749Z" fill="#1C2034"/>
<path d="M42.4196 41.749C41.7718 41.749 41.2466 41.2238 41.2466 40.576C41.2466 39.9282 41.7718 39.4031 42.4196 39.4031C43.0674 39.4031 43.5926 39.9282 43.5926 40.576C43.5926 41.2238 43.0674 41.749 42.4196 41.749Z" fill="#1C2034"/>
<path d="M47.4571 45.785L47.5951 45.026L46.1116 44.7845L46.8706 39.7132L46.1116 39.5752L45.2146 45.44L47.4571 45.785Z" fill="#1C2034"/>
<path d="M39.9696 34.7801C39.9696 34.7801 42.143 28.7428 47.9733 28.7428C54.5281 28.7428 54.8731 32.1582 58.875 32.8827C58.875 32.8827 58.185 37.954 60.8759 41.7834C60.8759 41.7834 62.2213 38.023 66.7752 40.1964C66.7752 40.1964 72.6745 24.4649 63.5668 23.568C53.4241 22.5675 52.7687 16.2197 45.2479 16.9442C37.7616 17.6342 33.3458 28.1218 39.9696 34.7801Z" fill="#1C2034"/>
<path d="M52.2175 166.36L66.5001 260.093H80.4031L70.0534 115.854H32.1737L30.7592 260.369L45.2832 260.749L52.2175 166.36Z" fill="#E6E6E6"/>
<path d="M32.5523 116.232L31.1723 259.955L44.9374 260.334L52.0787 162.909L66.8097 259.713H79.9538L69.6731 116.232H52.7341H51.3887H32.5523ZM31.7588 115.473H32.5178H51.3887H52.7341H69.6731H70.3976L70.4321 116.198L80.7127 259.679L80.7817 260.507H79.9538H66.8097H66.1542L66.0507 259.851L52.3546 169.809L45.6964 260.403L45.6274 261.128L44.9029 261.093L31.1378 260.714L30.3788 260.679V259.92L31.7588 116.198V115.473Z" fill="#1C2034"/>
<path d="M66.2579 131.41C66.4304 131.41 66.5684 131.376 66.7409 131.341L71.7777 129.34C71.8122 129.34 71.8468 129.375 71.8813 129.375C72.3987 129.513 72.9162 129.582 73.4682 129.582C75.0551 129.582 76.6421 128.926 77.815 127.788L99.3079 106.813C101.171 104.881 102.171 102.259 101.999 99.6024C101.826 96.946 100.55 94.4276 98.4454 92.7716L92.0631 87.6658L83.0934 99.4644L85.9223 101.396L73.6752 120.957C72.3987 120.095 68.0864 117.3 66.7409 117.3C66.5684 117.3 66.4304 117.335 66.3269 117.404C65.8094 117.714 65.6714 118.128 65.6369 118.404C65.568 119.025 65.9819 119.646 66.2924 120.026L63.222 121.785C63.153 121.82 63.1185 121.82 63.084 121.854L60.9451 123.096C60.2206 123.51 59.9446 124.407 60.2896 125.097C60.5311 125.615 61.0831 125.96 61.6696 125.96C61.7041 125.96 61.7386 125.96 61.7731 125.96C61.7041 126.408 61.8076 126.856 62.0836 127.201C62.3596 127.546 62.7735 127.753 63.222 127.753C63.222 127.788 63.222 127.822 63.1875 127.857C63.1185 128.305 63.222 128.754 63.498 129.099C63.774 129.444 64.2225 129.651 64.671 129.651C64.7055 129.651 64.74 129.651 64.7745 129.651C64.7055 129.996 64.7745 130.375 64.947 130.686C65.223 131.1 65.7059 131.41 66.2579 131.41Z" fill="#FEC2AC"/>
<path d="M92.1322 88.0808L83.6109 99.2929L86.4053 101.225L73.8133 121.407C73.8133 121.407 68.2244 117.612 66.7755 117.612C66.672 117.612 66.603 117.612 66.534 117.646C65.1885 118.474 66.879 120.061 66.879 120.061L63.3946 122.028C63.3601 122.062 63.3256 122.062 63.2566 122.097L61.7731 122.959L61.1177 123.339C60.5657 123.649 60.3242 124.339 60.6002 124.891C60.8072 125.305 61.2212 125.547 61.6696 125.547C61.8766 125.547 62.0836 125.512 62.2561 125.374L62.6701 125.133L62.9806 124.96L62.6356 125.167C62.0146 125.512 61.8421 126.34 62.3251 126.927C62.5666 127.203 62.8771 127.341 63.2221 127.341C63.4291 127.341 63.6361 127.272 63.8431 127.168L64.1881 126.961L64.0501 127.03C63.4291 127.375 63.2566 128.203 63.7396 128.789C63.9811 129.065 64.2916 129.203 64.6366 129.203C64.8436 129.203 65.0505 129.134 65.2575 129.031L65.3955 128.927L65.43 128.962C65.0505 129.341 64.947 129.928 65.223 130.376C65.43 130.756 65.844 130.963 66.258 130.963C66.396 130.963 66.4995 130.928 66.6375 130.894L71.7778 128.824C71.8468 128.858 71.9158 128.858 71.9848 128.893C72.4678 129.031 72.9853 129.1 73.4683 129.1C74.9862 129.1 76.4697 128.479 77.5736 127.41L99.0664 106.434C102.861 102.57 102.447 96.2915 98.2385 92.9106L92.1322 88.0808ZM91.9942 87.0803L92.5461 87.5288L98.6524 92.4276C100.826 94.1526 102.171 96.74 102.344 99.4999C102.516 102.26 101.481 104.985 99.5494 106.986L78.0221 127.962C76.7802 129.169 75.1242 129.859 73.4338 129.859C72.8818 129.859 72.3298 129.79 71.7778 129.652L66.879 131.618H66.8445H66.81C66.6375 131.687 66.4305 131.722 66.2235 131.722C65.568 131.722 64.9125 131.377 64.6021 130.79C64.4296 130.514 64.3606 130.204 64.3606 129.928C63.8776 129.859 63.4636 129.617 63.1531 129.272C62.8771 128.927 62.7046 128.444 62.7391 127.996C62.3596 127.892 62.0146 127.686 61.7386 127.375C61.4627 127.065 61.3247 126.651 61.3247 126.237C60.7037 126.133 60.1862 125.754 59.9102 125.202C59.4962 124.305 59.8412 123.235 60.7037 122.718L61.3592 122.338L62.8081 121.51C62.8771 121.476 62.9461 121.441 62.9806 121.441L65.706 119.889C65.43 119.475 65.1885 118.923 65.223 118.336C65.2575 117.991 65.43 117.474 66.051 117.094C66.2235 116.991 66.4305 116.922 66.6375 116.922C67.9829 116.922 71.6743 119.233 73.4683 120.441L85.3359 101.466L83.0935 99.9139L82.4725 99.4999L82.921 98.9134L91.4422 87.7013L91.9942 87.0803Z" fill="#1C2034"/>
<path d="M89.3247 96.3937L89.8692 96.8174L86.2677 101.446L85.7231 101.022L89.3247 96.3937Z" fill="#1C2034"/>
<path d="M36.6227 131.411C37.1747 131.411 37.6922 131.135 37.9337 130.652C38.1062 130.341 38.1752 129.962 38.1062 129.617C38.1407 129.617 38.1752 129.617 38.2097 129.617C38.6927 129.617 39.1067 129.41 39.3826 129.065C39.6586 128.72 39.7621 128.271 39.6931 127.823C39.6931 127.788 39.6931 127.754 39.6586 127.719C40.1071 127.719 40.5211 127.512 40.7971 127.167C41.0731 126.822 41.1766 126.374 41.1076 125.925C41.1421 125.925 41.1766 125.925 41.2111 125.925C41.7976 125.925 42.315 125.58 42.591 125.063C42.936 124.338 42.66 123.476 41.9355 123.062L39.7966 121.82C39.7621 121.785 39.7276 121.785 39.6586 121.751L36.5537 119.992C36.8642 119.612 37.2782 118.991 37.2092 118.37C37.1747 118.094 37.0367 117.68 36.5192 117.37C36.4157 117.301 36.2777 117.266 36.1052 117.266C34.7253 117.266 30.4474 120.061 29.171 120.923L16.9239 101.362L19.7528 99.4302L10.7831 87.6316L4.40077 92.7374C2.29634 94.3934 1.01988 96.9118 0.847385 99.5682C0.674892 102.225 1.67535 104.881 3.5383 106.778L25.0656 127.754C26.2386 128.892 27.8255 129.548 29.4125 129.548C29.9299 129.548 30.4819 129.479 30.9994 129.341C31.0339 129.341 31.0684 129.306 31.1029 129.306L36.1052 131.307C36.3122 131.376 36.4502 131.411 36.6227 131.411Z" fill="#FEC2AC"/>
<path d="M10.7495 88.0808L4.64322 92.9796C0.434353 96.3605 0.020359 102.639 3.81524 106.503L25.3081 127.479C26.412 128.548 27.8955 129.169 29.4134 129.169C29.8964 129.169 30.4139 129.1 30.8969 128.962C30.9659 128.927 31.0349 128.927 31.1039 128.893L36.2442 130.963C36.3477 130.997 36.4857 131.032 36.6237 131.032C37.0377 131.032 37.4172 130.825 37.6586 130.445C37.9346 129.962 37.8311 129.376 37.4516 129.031L37.4862 128.996L37.6241 129.1C37.8311 129.203 38.0381 129.272 38.2451 129.272C38.5901 129.272 38.9351 129.134 39.1421 128.858C39.5906 128.272 39.4181 127.444 38.8316 127.099L38.6936 127.03L39.0386 127.237C39.2456 127.341 39.4526 127.41 39.6596 127.41C40.0046 127.41 40.3496 127.272 40.5565 126.996C41.005 126.409 40.8325 125.581 40.2461 125.236L39.9011 125.029L40.2116 125.202L40.6255 125.443C40.798 125.547 41.005 125.616 41.212 125.616C41.6605 125.616 42.0745 125.374 42.2815 124.96C42.5575 124.408 42.316 123.718 41.764 123.408L41.1085 123.028L39.6251 122.166C39.5906 122.131 39.5561 122.131 39.4871 122.097L36.0027 120.13C36.0027 120.13 37.6587 118.543 36.3477 117.715C36.2787 117.681 36.2097 117.681 36.1062 117.681C34.6572 117.681 29.0684 121.476 29.0684 121.476L16.4763 101.294L19.2708 99.3619L10.7495 88.0808ZM10.8875 87.0803L11.336 87.6668L19.8572 98.8789L20.3057 99.4654L19.6847 99.8794L17.4423 101.432L29.3099 120.406C31.1039 119.233 34.7952 116.887 36.1407 116.887C36.3822 116.887 36.5547 116.956 36.7272 117.06C37.3482 117.439 37.5207 117.957 37.5552 118.302C37.6242 118.888 37.3482 119.44 37.0722 119.854L39.7976 121.407C39.8321 121.407 39.9011 121.441 39.9701 121.476L41.419 122.304H41.4535L42.109 122.683C42.9715 123.201 43.3165 124.27 42.9025 125.167C42.6265 125.719 42.109 126.099 41.488 126.202C41.488 126.616 41.3155 126.996 41.074 127.341C40.8325 127.651 40.4531 127.892 40.0736 127.961C40.1081 128.41 39.9356 128.858 39.6596 129.238C39.3491 129.617 38.9351 129.859 38.4521 129.893C38.4521 130.204 38.3486 130.48 38.2106 130.756C37.8656 131.342 37.2447 131.687 36.5892 131.687C36.3822 131.687 36.1752 131.653 36.0027 131.584H35.9682H35.9337L31.0349 129.617C30.4829 129.755 29.9309 129.824 29.3789 129.824C27.6885 129.824 25.998 129.134 24.7906 127.927L3.29775 106.952C1.33131 104.951 0.330856 102.225 0.503349 99.4654C0.675846 96.7055 2.02131 94.1181 4.19473 92.3931L10.3355 87.5288L10.8875 87.0803Z" fill="#1C2034"/>
<path d="M13.622 96.3987L17.2242 101.027L16.6798 101.45L13.0776 96.8225L13.622 96.3987Z" fill="#1C2034"/>
<path d="M67.5543 85.597L72.7139 90.4844L72.1919 91.0354L67.0324 86.1481L67.5543 85.597Z" fill="#1C2034"/>
<path d="M31.7933 80.595H32.5867V87.8052H31.7933V80.595Z" fill="#1C2034"/>
<path d="M66.2931 119.993C66.2931 119.993 67.949 118.924 69.743 119.648L66.2931 119.993Z" fill="#FEC2AC"/>
<path d="M66.4642 120.303C66.4642 120.303 68.0167 119.337 69.6036 119.993L69.8796 119.337C67.9477 118.544 66.1882 119.648 66.0847 119.717L66.4642 120.303Z" fill="#1C2034"/>
<path d="M36.5901 119.957C36.5901 119.957 34.9341 118.887 33.1402 119.612L36.5901 119.957Z" fill="#FEC2AC"/>
<path d="M36.4168 120.268L36.7963 119.681C36.7273 119.647 34.9679 118.508 33.0014 119.302L33.2774 119.957C34.8644 119.302 36.3823 120.268 36.4168 120.268Z" fill="#1C2034"/>
<path d="M48.4222 51.2357C50.5267 51.2357 52.2171 49.7522 52.2516 47.8548C52.2516 47.7858 52.2516 47.7513 52.2516 47.6823V47.3718L44.5584 47.1648L44.5239 47.4408C44.5239 47.5098 44.5239 47.5443 44.5239 47.6133C44.4894 49.5107 46.1798 51.1322 48.2842 51.1667L48.4222 51.2357Z" fill="white"/>
<path d="M44.8349 47.5109C44.8349 47.5454 44.8349 47.6144 44.8349 47.6489C44.8004 49.4083 46.3528 50.8573 48.3192 50.8918C48.3537 50.8918 48.3883 50.8918 48.4228 50.8918C50.3547 50.8918 51.9071 49.5463 51.9416 47.8214C51.9416 47.7869 51.9416 47.7179 51.9416 47.6834L44.8349 47.5109ZM44.2484 46.8899H44.8349L51.9416 47.0624H52.5281V47.6489C52.5281 47.7179 52.5281 47.7869 52.5281 47.8214C52.4591 49.8913 50.6652 51.5127 48.3882 51.5127C48.3537 51.5127 48.3192 51.5127 48.2847 51.5127C45.9733 51.4437 44.1449 49.7188 44.2139 47.6144C44.2139 47.5454 44.2139 47.4764 44.2139 47.4419L44.2484 46.8899Z" fill="#1C2034"/>
<path d="M65.3516 20.5475L65.9144 21.0566L62.9749 24.3054L62.4121 23.7962L65.3516 20.5475Z" fill="#1C2034"/>
<path d="M61.565 20.8076H62.3585V24.0505H61.565V20.8076Z" fill="#1C2034"/>
</g>
<defs>
<linearGradient id="paint0_linear" x1="-12.3957" y1="21.6145" x2="132.15" y2="57.757" gradientUnits="userSpaceOnUse">
<stop stop-color="#4299FF"/>
<stop offset="1" stop-color="#1577EA"/>
</linearGradient>
</defs>
</svg>
