<svg width="90" height="90" viewBox="0 0 90 90" fill="none" xmlns="http://www.w3.org/2000/svg">
<path d="M22.3395 10.1006H16.5063V10.9819H22.3395V10.1006Z" fill="white"/>
<path d="M10.3412 10.1006H5.82812V10.9819H10.3412V10.1006Z" fill="white"/>
<path d="M38.2977 10.1006H33.6758V10.9819H38.2977V10.1006Z" fill="#D8DEE8"/>
<path d="M53.7064 10.1006H49.0845V10.9819H53.7064V10.1006Z" fill="white"/>
<path d="M23.7701 12.4125H17.937V35.1956H23.7701V12.4125Z" fill="#D8DEE8"/>
<path d="M17.937 12.4125H14.8545V35.1956H17.937V12.4125Z" fill="#97A6B7"/>
<path d="M17.1643 9H16.1743V13.7325H17.1643V9Z" fill="#97A6B7"/>
<path d="M22.3377 9H21.3477V13.7325H22.3377V9Z" fill="#D8DEE8"/>
<path d="M55.5775 12.4125H49.855V35.1956H55.5775V12.4125Z" fill="#D8DEE8"/>
<path d="M49.855 12.4125H46.7725V35.1956H49.855V12.4125Z" fill="#97A6B7"/>
<path d="M49.0845 9H47.9839V13.7325H49.0845V9Z" fill="#97A6B7"/>
<path d="M54.2574 9H53.1567V13.7325H54.2574V9Z" fill="#D8DEE8"/>
<path d="M40.2793 12.4125H34.6655V35.1956H40.2793V12.4125Z" fill="#D8DEE8"/>
<path d="M34.6656 12.4125H31.3638V35.1956H34.6656V12.4125Z" fill="#97A6B7"/>
<path d="M33.676 9H32.686V13.7325H33.676V9Z" fill="#97A6B7"/>
<path d="M38.8489 9H37.8589V13.7325H38.8489V9Z" fill="#D8DEE8"/>
<path d="M11.7718 12.4125H6.92871V35.1956H11.7718V12.4125Z" fill="#D8DEE8"/>
<path d="M6.93045 12.4125H4.28857V35.1956H6.93045V12.4125Z" fill="#97A6B7"/>
<path d="M6.27041 9H5.38916V13.7325H6.27041V9Z" fill="#97A6B7"/>
<path d="M10.7818 9H9.68115V13.7325H10.7818V9Z" fill="#D8DEE8"/>
<path d="M18.4635 77.7956L4.38037 76.5168V34.2862L18.4635 33.5437V77.7956Z" fill="#D8DEE8"/>
<path d="M17.0762 35.1356L3.84619 35.5894V33.1537L17.0762 32.6306V35.1356Z" fill="#97A6B7"/>
<path d="M17.0762 53.2931L3.84619 53.2481V50.8125L17.0762 50.7881V53.2931Z" fill="#97A6B7"/>
<path d="M56.5543 76.3125L18.0381 77.82V33.2756L56.5543 34.0181V76.3125Z" fill="white"/>
<path d="M57.5143 35.1244L17.0762 35.0794V32.4581L57.5143 32.6419V35.1244Z" fill="#D8DEE8"/>
<path d="M57.5143 52.41L17.0762 53.3307V50.8125L57.5143 50.025V52.41Z" fill="#D8DEE8"/>
<path d="M57.5143 75.6544L17.0762 77.8744V77.4544L57.5143 75.2569V75.6544Z" fill="#D8DEE8"/>
<path d="M29.667 48.7107L20.5977 48.8644V37.695L29.667 37.6725V48.7107Z" fill="#D8DEE8"/>
<path d="M42.1506 48.4988L33.4019 48.6469V37.665L42.1506 37.6444V48.4988Z" fill="#D8DEE8"/>
<path d="M54.3138 48.2906L45.7788 48.435V37.635L54.3138 37.6163V48.2906Z" fill="#D8DEE8"/>
<path d="M29.667 71.715L20.5977 72.1443V61.0781L29.667 60.78V71.715Z" fill="#D8DEE8"/>
<path d="M54.3138 70.5412L45.7788 70.9443V60.2456L54.3138 59.9644V70.5412Z" fill="#D8DEE8"/>
<path opacity="0.1" d="M18.038 35.1862C18.038 35.1862 25.7949 36.2306 29.1343 41.3906C32.4455 46.5056 39.9155 44.3643 46.4236 45.7031C52.8193 47.0175 56.6274 50.1431 56.6274 50.1431L18.0361 51.0056V35.1862H18.038Z" fill="#97A6B7"/>
<path opacity="0.1" d="M18.038 61.5919C18.038 61.5919 25.7949 62.3719 29.1343 67.4194C32.4455 72.4219 39.9155 70.0275 46.4236 71.1431C52.8193 72.24 56.6274 75.2362 56.6274 75.2362L18.0361 77.4112V61.5919H18.038Z" fill="#97A6B7"/>
<path d="M42.1506 74.0606L33.4019 74.5125V58.6031L42.1506 58.3387V74.0606Z" fill="#E4E9F2"/>
<path d="M43.5385 59.1075L32.1216 59.4656V57.2025L43.5385 56.88V59.1075Z" fill="#D8DEE8"/>
<path d="M44.6048 73.9369L31.0542 74.6344V73.2956L44.6048 72.6225V73.9369Z" fill="url(#paint0_linear)"/>
<path d="M45.8857 75.1781L29.5601 76.0519V74.7112L45.8857 73.8675V75.1781Z" fill="#D8DEE8"/>
<path d="M46.7385 76.4456L28.8135 77.4356V76.0931L46.7385 75.135V76.4456Z" fill="url(#paint1_linear)"/>
<path d="M49.8683 10.1006H44.0352V10.9819H49.8683V10.1006Z" fill="white"/>
<path d="M37.8701 10.1006H33.3569V10.9819H37.8701V10.1006Z" fill="white"/>
<path d="M65.8265 10.1006H61.2046V10.9819H65.8265V10.1006Z" fill="#D8DEE8"/>
<path d="M81.2352 10.1006H76.6133V10.9819H81.2352V10.1006Z" fill="white"/>
<path d="M51.2989 12.4125H45.4658V35.1956H51.2989V12.4125Z" fill="#D8DEE8"/>
<path d="M45.4658 12.4125H42.3833V35.1956H45.4658V12.4125Z" fill="#97A6B7"/>
<path d="M44.6931 9H43.7031V13.7325H44.6931V9Z" fill="#97A6B7"/>
<path d="M49.8665 9H48.8765V13.7325H49.8665V9Z" fill="#D8DEE8"/>
<path d="M83.1063 12.4125H77.3838V35.1956H83.1063V12.4125Z" fill="#D8DEE8"/>
<path d="M77.3838 12.4125H74.3013V35.1956H77.3838V12.4125Z" fill="#97A6B7"/>
<path d="M76.6133 9H75.5127V13.7325H76.6133V9Z" fill="#97A6B7"/>
<path d="M81.7862 9H80.6855V13.7325H81.7862V9Z" fill="#D8DEE8"/>
<path d="M67.8081 12.4125H62.1943V35.1956H67.8081V12.4125Z" fill="#D8DEE8"/>
<path d="M62.1945 12.4125H58.8926V35.1956H62.1945V12.4125Z" fill="#97A6B7"/>
<path d="M61.2048 9H60.2148V13.7325H61.2048V9Z" fill="#97A6B7"/>
<path d="M66.3777 9H65.3877V13.7325H66.3777V9Z" fill="#D8DEE8"/>
<path d="M39.3006 12.4125H34.4575V35.1956H39.3006V12.4125Z" fill="#D8DEE8"/>
<path d="M34.4593 12.4125H31.8174V35.1956H34.4593V12.4125Z" fill="#97A6B7"/>
<path d="M33.7992 9H32.918V13.7325H33.7992V9Z" fill="#97A6B7"/>
<path d="M38.3106 9H37.21V13.7325H38.3106V9Z" fill="#D8DEE8"/>
<path d="M45.9923 77.7956L31.9092 76.5168V34.2862L45.9923 33.5437V77.7956Z" fill="#D8DEE8"/>
<path d="M44.605 35.1356L31.375 35.5894V33.1537L44.605 32.6306V35.1356Z" fill="#97A6B7"/>
<path d="M44.605 53.2931L31.375 53.2481V50.8125L44.605 50.7881V53.2931Z" fill="#97A6B7"/>
<path d="M84.0831 76.3125L45.5669 77.82V33.2756L84.0831 34.0181V76.3125Z" fill="white"/>
<path d="M85.0431 35.1244L44.605 35.0794V32.4581L85.0431 32.6419V35.1244Z" fill="#D8DEE8"/>
<path d="M85.0431 52.41L44.605 53.3307V50.8125L85.0431 50.025V52.41Z" fill="#D8DEE8"/>
<path d="M85.0431 75.6544L44.605 77.8744V77.4544L85.0431 75.2569V75.6544Z" fill="#D8DEE8"/>
<path d="M57.1958 48.7107L48.1265 48.8644V37.695L57.1958 37.6725V48.7107Z" fill="#D8DEE8"/>
<path d="M69.6794 48.4988L60.9307 48.6469V37.665L69.6794 37.6444V48.4988Z" fill="#D8DEE8"/>
<path d="M81.8426 48.2906L73.3076 48.435V37.635L81.8426 37.6163V48.2906Z" fill="#D8DEE8"/>
<path d="M57.1958 71.715L48.1265 72.1443V61.0781L57.1958 60.78V71.715Z" fill="#D8DEE8"/>
<path d="M81.8426 70.5412L73.3076 70.9443V60.2456L81.8426 59.9644V70.5412Z" fill="#D8DEE8"/>
<path opacity="0.1" d="M45.5668 35.1862C45.5668 35.1862 53.3237 36.2306 56.6631 41.3906C59.9743 46.5056 67.4443 44.3643 73.9524 45.7031C80.3481 47.0175 84.1562 50.1431 84.1562 50.1431L45.5649 51.0056V35.1862H45.5668Z" fill="#97A6B7"/>
<path opacity="0.1" d="M45.5668 61.5919C45.5668 61.5919 53.3237 62.3719 56.6631 67.4194C59.9743 72.4219 67.4443 70.0275 73.9524 71.1431C80.3481 72.24 84.1562 75.2362 84.1562 75.2362L45.5649 77.4112V61.5919H45.5668Z" fill="#97A6B7"/>
<path d="M69.6794 74.0606L60.9307 74.5125V58.6031L69.6794 58.3387V74.0606Z" fill="#E4E9F2"/>
<path d="M71.0673 59.1075L59.6504 59.4656V57.2025L71.0673 56.88V59.1075Z" fill="#D8DEE8"/>
<path d="M72.1336 73.9369L58.583 74.6344V73.2956L72.1336 72.6225V73.9369Z" fill="url(#paint2_linear)"/>
<path d="M73.4145 75.1781L57.0889 76.0519V74.7112L73.4145 73.8675V75.1781Z" fill="#D8DEE8"/>
<path d="M74.2673 76.4456L56.3423 77.4356V76.0931L74.2673 75.135V76.4456Z" fill="url(#paint3_linear)"/>
<path d="M35.7213 77.6157V78.8813C35.7213 79.2057 35.5545 79.4738 35.3351 79.5019L15.5763 81.2944C15.4301 81.3151 15.282 81.3113 15.1357 81.2851C15.0982 81.2776 15.0588 81.2701 15.0213 81.2607L1.25508 78.6657C1.10883 78.6282 1.00195 78.4369 1.00195 78.2138V76.875L15.6101 75.0638L17.4907 74.1732L19.3601 74.4432L20.4645 74.2313L22.9882 74.9663L35.7213 77.6157Z" fill="#FF5555"/>
<path opacity="0.3" d="M35.7214 77.6156V78.8812C35.7214 79.2056 35.5546 79.4737 35.3352 79.5019L15.5764 81.2944C15.4302 81.315 15.2464 81.3094 15.1377 81.285V74.4619L17.4889 74.175L19.3583 74.445L20.4627 74.2331L22.9864 74.9681L35.7214 77.6156Z" fill="url(#paint4_linear)"/>
<path d="M20.4625 74.2331L1 76.815L15.0381 79.4587C15.2106 79.5037 15.3869 79.5131 15.5613 79.4887L35.7231 77.6137L20.4625 74.2331Z" fill="#FD6054"/>
<path d="M27.5952 76.5656C27.5952 77.4919 24.6777 78.2137 20.6521 78.3994C19.6359 78.4462 18.5484 78.4594 17.4215 78.4331C11.879 78.3056 7.42773 77.2744 7.42773 76.1325C7.42773 76.1062 7.43148 76.05 7.43523 76.05H7.42773L7.45023 75.9956C7.45586 75.9769 7.46336 75.96 7.47086 75.9431L8.74961 72.6019L10.2927 68.5706L12.4546 62.9194L14.1084 58.5937L16.1671 53.2163C16.424 52.5431 16.9021 52.125 17.4177 52.125C17.4871 52.125 17.5565 52.1325 17.624 52.1475C18.059 52.2431 18.4471 52.635 18.6721 53.2181L20.7477 58.635L22.4052 63.0169L24.5915 68.7806V68.7825L26.1609 72.9244V72.9262L26.1852 72.9281L27.4921 76.2937C27.5484 76.3819 27.5952 76.4737 27.5952 76.5656Z" fill="#FF5555"/>
<path d="M26.1855 72.9263C24.9236 73.3481 22.9061 73.6519 20.4911 73.7644C19.518 73.8094 18.4886 73.8244 17.4161 73.8038C13.6923 73.7325 10.4636 73.2544 8.74609 72.6019L10.2911 68.5706C12.0986 68.9775 14.6186 69.2512 17.4198 69.2944C18.3255 69.3075 19.2086 69.2962 20.0486 69.2625C21.8167 69.1931 23.3767 69.0225 24.6048 68.7825L26.1611 72.9244V72.9263H26.1855Z" fill="white"/>
<path d="M22.4221 63.0169C21.4583 63.12 20.4008 63.1912 19.2777 63.2231C18.6758 63.2419 18.0552 63.2475 17.4233 63.24C15.6102 63.2231 13.9152 63.1069 12.4546 62.9194L14.1083 58.5938C15.1433 58.6762 16.259 58.7213 17.4215 58.7288C17.8321 58.7306 18.2371 58.7287 18.6346 58.7212C19.364 58.7081 20.0708 58.6781 20.7458 58.6331L22.4221 63.0169Z" fill="white"/>
<path opacity="0.2" d="M20.6521 78.4009C19.6359 78.4478 18.5484 78.4609 17.4215 78.4347C11.879 78.3071 7.42773 77.2759 7.42773 76.134C7.42773 76.1078 7.43148 76.0515 7.43523 76.0515H7.42773L7.45023 75.9972C7.45586 75.9784 7.46336 75.9615 7.47086 75.9447L8.74961 72.6034L10.2927 68.5721L12.4546 62.9209L14.1084 58.5953L16.1671 53.2178C16.424 52.5446 16.9021 52.1265 17.4177 52.1265C17.4871 52.1265 17.5565 52.134 17.624 52.149C17.8434 53.5178 18.2202 55.9065 18.6365 58.7228C18.8446 60.1403 19.064 61.6665 19.2777 63.2246C19.5534 65.2384 19.8215 67.3065 20.0484 69.264C20.234 70.869 20.3915 72.399 20.504 73.7659C20.6671 75.744 20.7346 77.3809 20.6521 78.4009Z" fill="#FF5555" fill-opacity="0.5"/>
<path d="M22.7953 60.2281L22.5681 60.1237L22.7953 60.2281C25.3213 54.7328 28.8944 51.9063 32.7809 50.4078C36.6823 48.9035 40.9099 48.7319 44.7631 48.5779C48.5505 48.4266 52.2232 48.2818 55.6146 49.2241C58.9893 50.1617 62.0966 52.1802 64.7331 56.3902C66.4615 59.15 68.1257 63.0705 69.0905 66.9768C70.0579 70.8936 70.3089 74.7433 69.2686 77.3891C68.7279 78.7642 67.9642 79.4983 66.9115 79.8583C65.8345 80.2265 64.4277 80.2136 62.5796 80.0122C61.6196 79.9076 60.5475 79.753 59.3544 79.5808C55.984 79.0946 51.6482 78.4691 46.1494 78.44C39.9054 78.407 34.9606 79.1575 31.1192 79.7405C29.9217 79.9222 28.8315 80.0877 27.8425 80.208C25.75 80.4628 24.1393 80.5119 22.9061 80.1227C21.6995 79.7419 20.8308 78.9332 20.2384 77.3909C19.2795 74.894 19.4696 71.5671 20.1349 68.3586C20.7985 65.159 21.9252 62.1208 22.7953 60.2281Z" fill="white" stroke="#313B6B" stroke-width="0.5"/>
<path d="M51.8877 49.4981C51.8877 50.8969 48.4714 52.5769 44.2583 52.5769C40.0452 52.5769 36.6289 50.8987 36.6289 49.4981C36.6289 48.0975 40.0452 48.7237 44.2583 48.7237C48.4714 48.7237 51.8877 48.0994 51.8877 49.4981Z" fill="#313B6B"/>
<path d="M41.4513 39.7387C40.2907 39.7387 42.97 47.8893 38.7513 49.0087C38.3425 49.1175 38.2769 49.665 38.6482 49.8656C39.7807 50.4787 41.9013 51.2568 45.3794 51.2568C47.6388 51.2568 49.2907 50.4037 50.1494 49.8281C50.4438 49.6312 50.4138 49.1925 50.0988 49.0312C48.7994 48.3618 46.9938 46.23 47.5319 39.9487L41.4513 39.7387Z" fill="#F6CCBD"/>
<path d="M37.9282 29.9662C37.9451 30.0693 38.2957 37.5093 39.9963 41.2237C40.4838 42.2906 42.9064 42.1631 44.472 42.0337C45.8332 41.9231 47.967 42.4181 48.567 41.4787C50.982 37.7006 50.5732 28.3443 50.5732 28.3443C50.5732 28.3443 49.3357 25.2318 44.2601 25.3162C39.1863 25.4024 37.9282 29.9662 37.9282 29.9662Z" fill="#F6CCBD"/>
<path d="M39.1149 33.9619C39.1149 33.9619 38.0537 32.7281 37.0524 32.5631C36.0512 32.3981 35.4005 34.9894 36.7655 36.6769C38.1305 38.3644 39.7074 36.9656 39.7074 36.9656L39.1149 33.9619Z" fill="#F6CCBD"/>
<path d="M49.4612 33.9619C49.4612 33.9619 50.5224 32.7281 51.5237 32.5631C52.5249 32.3981 53.1755 34.9894 51.8105 36.6769C50.4455 38.3625 48.8687 36.9656 48.8687 36.9656L49.4612 33.9619Z" fill="#F6CCBD"/>
<path d="M38.2843 33.8681C38.4174 34.1137 38.5712 34.3425 38.6743 34.3143C39.1037 34.2018 37.448 30.0206 38.9724 28.5581C39.7599 27.8006 40.6487 28.4906 43.8774 28.3443C47.1287 28.1981 47.9612 27.42 48.9437 28.0143C49.838 28.5581 50.6405 30.1068 49.9768 34.6968C50.1624 34.6537 50.3462 34.6125 50.5318 34.5693C50.2824 33.0656 50.5543 32.1168 50.8655 31.5187C51.0924 31.0818 51.503 30.5193 51.4712 29.7075C51.4505 29.2031 51.2837 29.1806 51.2574 28.7681C51.1768 27.5587 52.5568 27.2343 52.6224 26.04C52.673 25.1212 51.8799 24.9112 52.0262 23.9512C52.1499 23.1337 52.7687 22.9818 52.6712 22.3912C52.5662 21.7537 51.7355 21.2793 51.1524 21.1143C50.558 20.9456 50.3443 21.1331 49.9955 20.8931C49.433 20.505 49.703 19.815 49.2962 19.56C48.5724 19.1043 47.1324 20.9231 46.2005 20.4712C45.6362 20.1975 45.8537 19.3781 45.3549 19.1793C44.3912 18.795 42.6887 21.4968 42.0024 21.1368C41.6743 20.9643 41.9912 20.3081 41.5299 19.8225C40.9899 19.2543 39.6924 19.2543 39.1018 19.8562C38.5505 20.4168 39.0193 21.0881 38.4362 21.7987C37.913 22.4362 37.3074 22.1737 36.7168 22.6856C35.7118 23.5537 36.0624 25.5206 36.1862 26.2218C36.6155 28.6368 37.9524 29.1262 37.6524 30.7725C37.5755 31.1943 37.3974 31.6631 37.5249 32.3512C37.6468 33.0281 37.9974 33.5381 38.2843 33.8681Z" fill="url(#paint5_linear)"/>
<g opacity="0.3">
<path opacity="0.3" d="M50.6366 28.6518C50.5185 27.4649 51.4372 26.9118 51.2835 26.0643C51.1597 25.3837 50.3891 24.7724 49.6653 24.6412C48.1222 24.3618 47.1247 26.6343 45.5891 26.3887C44.4022 26.1974 44.5353 24.7649 43.1947 24.1893C41.0722 23.2762 38.8485 26.0606 37.4366 25.2899C37.0128 25.0574 36.5835 24.4631 36.5535 22.8468C35.7435 23.7768 36.0622 25.5656 36.1803 26.2274C36.6097 28.6424 37.9466 29.1318 37.6466 30.7781C37.5697 31.1999 37.3916 31.6687 37.5191 32.3568C37.6447 33.0318 37.9935 33.5399 38.2803 33.8718C38.4135 34.1174 38.5672 34.3462 38.6703 34.3181C39.0997 34.2056 37.4441 30.0243 38.9685 28.5618C39.756 27.8043 40.6447 28.4943 43.8735 28.3481C47.1247 28.2018 47.9572 27.4237 48.9397 28.0181C49.8341 28.5618 50.6366 30.1106 49.9728 34.7006C50.1585 34.6574 50.3422 34.6162 50.5278 34.5731C50.2785 33.0693 50.5503 32.1206 50.8616 31.5224C50.9553 31.3424 51.0791 31.1418 51.1916 30.9093C51.1672 30.5137 51.1016 30.0787 50.9591 29.6231C50.796 29.0868 50.676 29.0343 50.6366 28.6518Z" fill="url(#paint6_linear)"/>
</g>
<path d="M29.5241 51.0121L29.5247 51.0117L30.3718 50.5744L36.0331 48.4778L36.0333 48.4777C36.3424 48.363 36.6881 48.5006 36.8339 48.7964L36.8341 48.7967L44.5516 64.393L44.5516 64.393L44.5536 64.397C44.6192 64.5237 44.6532 64.666 44.6532 64.8109V80.4027H29.8338C29.3164 80.4027 28.895 79.986 28.8875 79.4699C28.8875 79.4699 28.8875 79.4698 28.8875 79.4698L28.7619 70.0125L28.52 51.757C28.52 51.7568 28.52 51.7566 28.52 51.7564C28.5191 51.6165 28.5959 51.4889 28.7165 51.4262C28.7167 51.4261 28.7168 51.426 28.7169 51.426L29.5241 51.0121Z" fill="#FF8F27" stroke="#313B6B" stroke-width="0.5"/>
<path d="M45 70H29V74H45V70Z" fill="white"/>
<path d="M44.7793 64.2806L37.0618 48.6825C36.8593 48.2718 36.3793 48.0825 35.9499 48.24L35.4512 48.4237C35.528 48.495 35.5937 48.5812 35.6424 48.6806L43.3543 64.2787C43.4349 64.4437 43.4724 64.6256 43.4724 64.8093V80.6512H44.9031V64.8093C44.9031 64.6275 44.8599 64.4456 44.7793 64.2806Z" fill="#313B6B"/>
<path d="M59.9783 80.4027H45.1533V64.8109C45.1533 64.6678 45.1884 64.5252 45.2547 64.397L45.2548 64.397L45.2567 64.393L52.978 48.7968L52.9782 48.7964C53.124 48.5006 53.4697 48.363 53.7788 48.4777L53.779 48.4778L59.4403 50.5744L60.2874 51.0117L60.288 51.0121L61.0952 51.426C61.0953 51.426 61.0954 51.4261 61.0956 51.4262C61.2163 51.4889 61.2931 51.6167 61.2921 51.7566C61.2921 51.7567 61.2921 51.7569 61.2921 51.757L61.0502 70.0125L60.9246 79.4698C60.9246 79.4698 60.9246 79.4699 60.9246 79.47C60.9171 79.986 60.4957 80.4027 59.9783 80.4027Z" fill="#FF8F27" stroke="#313B6B" stroke-width="0.5"/>
<path d="M61.3039 70H44.9033V74.1831H61.3039V70Z" fill="white"/>
<path d="M45.0289 64.2806L52.7483 48.6825C52.9508 48.2718 53.4327 48.0825 53.8621 48.24L54.3608 48.4237C54.284 48.495 54.2183 48.5812 54.1696 48.6806L46.4539 64.2787C46.3733 64.4437 46.3339 64.6256 46.3339 64.8093V80.6512H44.9033V64.8093C44.9033 64.6275 44.9483 64.4456 45.0289 64.2806Z" fill="#313B6B"/>
<path d="M38.9463 37.5525C38.9257 37.5131 38.875 37.4962 38.8338 37.5187L38.785 37.545C38.7457 37.5656 38.7288 37.6162 38.7513 37.6575L40.18 40.3256C40.2007 40.365 40.2513 40.3819 40.2925 40.3594L40.3413 40.3331C40.3807 40.3125 40.3975 40.2619 40.375 40.2206L38.9463 37.5525Z" fill="white"/>
<path d="M50.0275 37.545L49.9787 37.5188C49.9393 37.4981 49.8887 37.5131 49.8662 37.5525L48.4375 40.2206C48.4168 40.26 48.4318 40.3106 48.4712 40.3331L48.52 40.3594C48.5593 40.38 48.61 40.365 48.6325 40.3256L50.0612 37.6575C50.0818 37.6163 50.0668 37.5656 50.0275 37.545Z" fill="white"/>
<path d="M49.3935 37.4362C49.3917 37.4943 49.3917 37.5524 49.3898 37.6106C49.4179 38.4543 49.2023 39.1837 48.8892 39.7893C48.4748 40.7399 47.8579 41.4805 47.2354 41.7787C47.226 41.7824 47.2185 41.788 47.2092 41.7899C47.1567 41.8143 47.106 41.833 47.0554 41.8518C47.016 41.878 46.9935 41.893 46.9935 41.893C46.9935 41.893 46.9485 41.8968 46.8698 41.9024C46.296 42.0243 45.3192 42.043 44.3704 42.0243C43.4217 42.043 42.4448 42.0243 41.871 41.9024C41.7923 41.8968 41.7473 41.893 41.7473 41.893C41.7473 41.893 41.7248 41.878 41.6854 41.8518C41.6498 41.8405 41.6142 41.8255 41.5804 41.8105C41.556 41.8012 41.5317 41.7899 41.5073 41.7787C40.8848 41.4805 40.2904 40.7399 39.8779 39.7893C39.5648 39.1837 39.291 38.4543 39.4017 37.6106V37.5881C39.4017 37.5599 39.3923 37.5281 39.3848 37.4981C39.3792 37.4774 39.3735 37.4568 39.3735 37.4362C39.3735 37.2056 39.3735 36.9749 39.4035 36.7443C39.4204 36.6131 39.5029 36.5006 39.6285 36.4518C41.2185 35.8312 42.8835 35.6624 44.376 35.6981C45.8685 35.6606 47.5354 35.8293 49.1235 36.4518C49.2492 36.5006 49.3373 36.6131 49.3542 36.7443C49.3804 36.9581 49.3935 37.1699 49.3935 37.3818C49.3935 37.3987 49.3935 37.4174 49.3935 37.4362Z" fill="white"/>
<path opacity="0.3" d="M49.3939 37.4362C49.3921 37.4943 49.3921 37.5524 49.3902 37.6105C49.4183 38.4543 49.2027 39.1837 48.8896 39.7893C48.4752 40.7399 47.8583 41.4805 47.2358 41.7787C47.2264 41.7824 47.2189 41.788 47.2096 41.7899C45.9852 41.8893 43.1258 41.848 41.5827 41.8105C41.5583 41.8012 41.5339 41.7899 41.5096 41.7787C40.8871 41.4805 40.2927 40.7399 39.8802 39.7893C39.5671 39.1837 39.2933 38.4543 39.4039 37.6105V37.588C39.4039 37.5637 39.3814 37.5393 39.3814 37.5149C39.3814 37.513 39.3721 37.513 39.3721 37.5112C39.3758 37.5074 39.3814 37.5018 39.3852 37.498C39.5464 37.3293 39.7452 37.2074 39.9721 37.1455C41.0371 36.8512 45.1377 35.8855 49.0039 37.2224L49.3939 37.3818C49.3939 37.3987 49.3939 37.4174 49.3939 37.4362Z" fill="#9E9E9E"/>
<path d="M43.8776 38.8274C41.1232 38.8274 39.7507 38.5256 39.7301 38.5199C39.6963 38.5124 39.6757 38.4787 39.6832 38.4449C39.6907 38.4112 39.7244 38.3906 39.7582 38.3981C39.7882 38.4056 42.8576 39.0787 49.0676 38.3962C49.1013 38.3924 49.1332 38.4168 49.1369 38.4524C49.1407 38.4862 49.1163 38.5181 49.0807 38.5218C46.9957 38.7506 45.2613 38.8274 43.8776 38.8274Z" fill="white"/>
<path d="M44.1462 40.4625C41.93 40.4625 40.8237 40.1587 40.8087 40.155C40.775 40.1456 40.7562 40.11 40.7656 40.0781C40.775 40.0443 40.8087 40.0256 40.8425 40.035C40.8668 40.0425 43.3306 40.7137 48.3125 40.0331C48.3462 40.0275 48.3781 40.0518 48.3837 40.0875C48.3893 40.1212 48.365 40.1531 48.3293 40.1587C46.6531 40.3856 45.26 40.4625 44.1462 40.4625Z" fill="white"/>
<path d="M39.7749 36.6581C39.7317 36.6581 39.6886 36.6356 39.6661 36.5943L37.9674 33.5849C37.9336 33.5249 37.9542 33.4481 38.0142 33.4143C38.0742 33.3806 38.1511 33.4012 38.1849 33.4612L39.8836 36.4706C39.9174 36.5306 39.8967 36.6074 39.8367 36.6412C39.818 36.6524 39.7955 36.6581 39.7749 36.6581Z" fill="white"/>
<path d="M49.1573 36.975C49.1498 36.975 49.1404 36.975 49.1329 36.9731C49.0654 36.96 49.0204 36.8943 49.0335 36.825L49.701 33.435C49.7141 33.3675 49.7816 33.3225 49.8491 33.3356C49.9166 33.3487 49.9616 33.4143 49.9485 33.4837L49.281 36.8737C49.2679 36.9337 49.2154 36.975 49.1573 36.975Z" fill="white"/>
<path d="M37.433 32.445C37.2474 32.445 37.1968 32.5913 37.1968 32.7769V33.2869C37.1968 33.4725 37.2455 33.5456 37.433 33.5456H37.9674V32.445H37.433Z" fill="url(#paint7_linear)"/>
<path d="M50.8373 32.445C51.0229 32.445 51.1767 32.5913 51.1767 32.7769V33.2869C51.1767 33.4725 51.0229 33.5456 50.8373 33.5456H50.2954V32.445H50.8373Z" fill="url(#paint8_linear)"/>
<path d="M50.4056 32.1225V33.6825C50.4056 34.2788 50.1131 34.8131 49.6668 35.1525C49.4081 35.3494 49.0912 35.4806 48.7481 35.5181L47.2818 35.6831C46.5318 35.7675 45.7874 35.5238 45.2812 34.9631L44.4637 34.095H43.9368L43.1193 34.9631C42.6131 35.5219 41.8687 35.7863 41.1187 35.7019L39.6318 35.5275C38.698 35.4225 37.9668 34.6238 37.9668 33.6825V32.1225C37.9668 31.965 38.0549 31.8131 38.1693 31.7044C38.2818 31.5956 38.4487 31.5375 38.6062 31.545L44.1918 31.7813L49.7756 31.545C49.9331 31.5375 50.0999 31.5956 50.2124 31.7044C50.3287 31.8131 50.4056 31.965 50.4056 32.1225Z" fill="#313B6B"/>
<path opacity="0.5" d="M49.6559 35.1525C49.3972 35.3494 49.0859 35.4807 48.7428 35.5182L47.2803 35.6832C46.5303 35.7675 45.7878 35.5238 45.2797 34.9632L44.4622 34.095H43.9353L43.1178 34.9632C42.6116 35.5219 41.8672 35.7863 41.1172 35.7019L39.6303 35.5275C38.6966 35.4225 37.9653 34.6238 37.9653 33.6825V32.1863C38.5166 32.5782 39.3678 32.9138 40.6653 32.9644C43.8472 33.0919 48.1278 31.6425 49.6559 35.1525Z" fill="white"/>
<path d="M47.1283 35.8631C46.4158 35.8631 45.7727 35.6006 45.3152 35.0962L44.5389 34.3162H44.1227L43.3277 35.1C42.8946 35.5819 42.2533 35.8406 41.5296 35.8406C41.4208 35.8406 41.3121 35.8294 41.2033 35.8181L39.6939 35.6512C38.6721 35.5369 37.8564 34.6706 37.8564 33.6844V32.1225C37.8564 31.9575 37.9614 31.7906 38.1508 31.6088C38.3008 31.4644 38.5633 31.4044 38.7414 31.4119L44.3177 31.65L49.9014 31.4119C50.0739 31.4119 50.2202 31.4738 50.3608 31.6088C50.5146 31.755 50.5146 31.9463 50.5146 32.115V33.6825C50.5146 34.7212 49.8039 35.5537 48.8233 35.6644L47.4283 35.8444C47.3271 35.8575 47.2277 35.8631 47.1283 35.8631ZM44.0139 34.095H44.6496L45.5064 34.9369C45.9152 35.3906 46.4908 35.6194 47.1264 35.6194C47.2164 35.6194 47.3064 35.6044 47.3964 35.595L48.8139 35.4094C49.6614 35.3137 50.2952 34.5862 50.2952 33.6844V32.1225C50.2952 31.9631 50.2708 31.8656 50.2014 31.8C50.1096 31.7138 50.0177 31.6763 49.9146 31.6763H49.8902L44.3233 31.9144L38.7189 31.6763C38.5821 31.6763 38.4414 31.7288 38.3683 31.8C38.2033 31.9575 38.1883 32.0625 38.1883 32.1225V33.6844C38.1883 34.5394 38.8671 35.2875 39.7577 35.3887L41.2446 35.5537C41.3439 35.565 41.4396 35.5706 41.5371 35.5706C42.1858 35.5706 42.7539 35.3719 43.1402 34.9425L44.0139 34.095Z" fill="url(#paint9_linear)"/>
<path d="M44.378 16.6331C39.5442 16.6331 35.6255 20.5519 35.6255 25.3856V27.6037H53.1324V25.3856C53.1324 20.5519 49.2136 16.6331 44.378 16.6331Z" fill="#FF5555"/>
<path d="M46.8137 27.6037H41.9443V17.9606C41.9443 16.6162 43.0337 15.5269 44.3781 15.5269C45.7225 15.5269 46.8118 16.6162 46.8118 17.9606V27.6037H46.8137Z" fill="#FF8282"/>
<path d="M53.0668 29.595H35.6912C35.1062 29.595 34.6318 29.1206 34.6318 28.5356C34.6318 27.9506 35.1062 27.4763 35.6912 27.4763H53.0668C53.6518 27.4763 54.1262 27.9506 54.1262 28.5356C54.1262 29.1206 53.6518 29.595 53.0668 29.595Z" fill="#FF5555"/>
<path d="M35.8901 29.4713C36.2576 31.1438 39.9176 32.4581 44.3783 32.4581C48.8389 32.4581 52.4989 31.1438 52.8664 29.4713H35.8901Z" fill="#FF8282"/>
<path d="M54.706 80.6528C53.9616 80.6528 53.2674 80.2657 52.8959 79.62C52.523 78.9759 52.523 78.1814 52.8959 77.5357L66.9579 53.1839C67.3293 52.5398 68.0236 52.1402 68.768 52.1402C69.5123 52.1402 70.2066 52.5414 70.578 53.1855L84.64 77.5404C85.0129 78.1845 85.0129 78.9728 84.64 79.6185C84.2686 80.2625 83.5743 80.6512 82.8299 80.6512H54.706V80.6528Z" fill="#313B6B"/>
<path d="M83.8554 79.2078C83.6438 79.5745 83.2536 79.8253 82.8304 79.8253H54.7065C54.2834 79.8253 53.8932 79.573 53.6816 79.2078C53.4701 78.8411 53.4701 78.3772 53.6816 78.0105L67.742 53.6493C67.916 53.35 68.209 53.14 68.5413 53.0758C68.6149 53.0616 68.6901 53.0522 68.7685 53.0522C69.1916 53.0522 69.5818 53.2764 69.7934 53.6431L83.8554 78.0105C84.0669 78.3772 84.0669 78.8411 83.8554 79.2078Z" fill="#FF5555"/>
<path d="M69.3738 70.747L68.1483 70.7172C67.8066 70.7093 67.5246 70.4163 67.5057 70.0731L67.0575 61.4397C67.0481 61.2611 67.1124 61.1153 67.2346 60.9946C67.3569 60.874 67.5261 60.8364 67.7032 60.8473L69.8141 60.9946C69.9865 61.0072 70.1526 61.0636 70.2702 61.1999C70.3893 61.3347 70.4504 61.4961 70.4426 61.6701L70.0069 70.1452C69.9881 70.4868 69.7107 70.7548 69.3738 70.747Z" fill="white"/>
<path d="M67.4828 72.8563C67.7884 72.5648 68.2194 72.4222 68.7726 72.4316C69.343 72.441 69.7755 72.5914 70.0717 72.8829C70.3664 73.1728 70.5137 73.5975 70.5137 74.157C70.5137 74.6961 70.3632 75.113 70.0608 75.4092C69.7583 75.7054 69.3289 75.8542 68.771 75.8542C68.2241 75.8542 67.7947 75.7007 67.4859 75.3935C67.1757 75.0848 67.0205 74.6632 67.0205 74.1304C67.0221 73.574 67.1757 73.1493 67.4828 72.8563Z" fill="white"/>
<defs>
<linearGradient id="paint0_linear" x1="31.0542" y1="73.6282" x2="44.6046" y2="73.6282" gradientUnits="userSpaceOnUse">
<stop offset="0.494" stop-color="#EBEFF2"/>
<stop offset="1" stop-color="white"/>
</linearGradient>
<linearGradient id="paint1_linear" x1="28.8135" y1="76.2845" x2="46.7385" y2="76.2845" gradientUnits="userSpaceOnUse">
<stop offset="0.494" stop-color="#EBEFF2"/>
<stop offset="1" stop-color="white"/>
</linearGradient>
<linearGradient id="paint2_linear" x1="58.583" y1="73.6282" x2="72.1334" y2="73.6282" gradientUnits="userSpaceOnUse">
<stop offset="0.494" stop-color="#EBEFF2"/>
<stop offset="1" stop-color="white"/>
</linearGradient>
<linearGradient id="paint3_linear" x1="56.3423" y1="76.2845" x2="74.2673" y2="76.2845" gradientUnits="userSpaceOnUse">
<stop offset="0.494" stop-color="#EBEFF2"/>
<stop offset="1" stop-color="white"/>
</linearGradient>
<linearGradient id="paint4_linear" x1="26.9328" y1="72.6082" x2="21.0643" y2="88.7836" gradientUnits="userSpaceOnUse">
<stop stop-color="#FFC444"/>
<stop offset="0.5917" stop-color="#F8924F"/>
<stop offset="0.9964" stop-color="#F36F56"/>
</linearGradient>
<linearGradient id="paint5_linear" x1="43.1063" y1="29.8242" x2="47.5699" y2="15.9809" gradientUnits="userSpaceOnUse">
<stop stop-color="#311944"/>
<stop offset="1" stop-color="#6B3976"/>
</linearGradient>
<linearGradient id="paint6_linear" x1="43.1064" y1="29.8243" x2="47.5699" y2="15.981" gradientUnits="userSpaceOnUse">
<stop stop-color="#311944"/>
<stop offset="1" stop-color="#6B3976"/>
</linearGradient>
<linearGradient id="paint7_linear" x1="37.1976" y1="32.9947" x2="37.968" y2="32.9947" gradientUnits="userSpaceOnUse">
<stop offset="0.003597" stop-color="#26264F"/>
<stop offset="1" stop-color="#444B8C"/>
</linearGradient>
<linearGradient id="paint8_linear" x1="51.1758" y1="32.9947" x2="50.2953" y2="32.9947" gradientUnits="userSpaceOnUse">
<stop offset="0.003597" stop-color="#26264F"/>
<stop offset="1" stop-color="#444B8C"/>
</linearGradient>
<linearGradient id="paint9_linear" x1="37.8576" y1="33.6378" x2="50.5152" y2="33.6378" gradientUnits="userSpaceOnUse">
<stop offset="0.003597" stop-color="#26264F"/>
<stop offset="1" stop-color="#444B8C"/>
</linearGradient>
</defs>
</svg>
