<svg width="36" height="36" viewBox="0 0 36 36" fill="none" xmlns="http://www.w3.org/2000/svg">
<path d="M15.6721 13.1274C15.3326 12.7995 14.8779 12.6181 14.4059 12.6222C13.934 12.6263 13.4825 12.8156 13.1488 13.1493C12.8151 13.4831 12.6258 13.9345 12.6217 14.4065C12.6175 14.8785 12.799 15.3331 13.1269 15.6726L16.7269 19.2726C17.0644 19.6101 17.5222 19.7996 17.9995 19.7996C18.4768 19.7996 18.9345 19.6101 19.2721 19.2726L22.8721 15.6726C23.1999 15.3331 23.3814 14.8785 23.3773 14.4065C23.3732 13.9345 23.1839 13.4831 22.8501 13.1493C22.5164 12.8156 22.0649 12.6263 21.593 12.6222C21.121 12.6181 20.6663 12.7995 20.3269 13.1274L19.7995 13.6548V5.40002C19.7995 4.92263 19.6098 4.46479 19.2723 4.12723C18.9347 3.78966 18.4769 3.60002 17.9995 3.60002C17.5221 3.60002 17.0642 3.78966 16.7267 4.12723C16.3891 4.46479 16.1995 4.92263 16.1995 5.40002V13.6548L15.6721 13.1274Z" fill="white"/>
<path d="M5.40039 8.99998C5.40039 8.0452 5.77968 7.12953 6.45481 6.45439C7.12994 5.77926 8.04561 5.39998 9.00039 5.39998H10.8004C11.2778 5.39998 11.7356 5.58962 12.0732 5.92719C12.4107 6.26475 12.6004 6.72259 12.6004 7.19998C12.6004 7.67737 12.4107 8.13521 12.0732 8.47277C11.7356 8.81034 11.2778 8.99998 10.8004 8.99998H9.00039V21.6H12.6004L14.4004 25.2H21.6004L23.4004 21.6H27.0004V8.99998H25.2004C24.723 8.99998 24.2652 8.81034 23.9276 8.47277C23.59 8.13521 23.4004 7.67737 23.4004 7.19998C23.4004 6.72259 23.59 6.26475 23.9276 5.92719C24.2652 5.58962 24.723 5.39998 25.2004 5.39998H27.0004C27.9552 5.39998 28.8708 5.77926 29.546 6.45439C30.2211 7.12953 30.6004 8.0452 30.6004 8.99998V27C30.6004 27.9548 30.2211 28.8704 29.546 29.5456C28.8708 30.2207 27.9552 30.6 27.0004 30.6H9.00039C8.04561 30.6 7.12994 30.2207 6.45481 29.5456C5.77968 28.8704 5.40039 27.9548 5.40039 27V8.99998Z" fill="white"/>
</svg>
