<svg width="16" height="16" viewBox="0 0 16 16" fill="none" xmlns="http://www.w3.org/2000/svg">
<g clip-path="url(#clip0)">
<path d="M15.8414 8.29493C15.6474 8.12355 15.3512 8.14198 15.1798 8.33595L15.1722 8.34449V8.016C15.1722 6.10023 14.4261 4.29908 13.0714 2.94434C11.7168 1.58972 9.91561 0.84375 7.99983 0.84375C6.84261 0.84375 5.6927 1.12598 4.67427 1.65979C3.68891 2.17627 2.82404 2.92762 2.17316 3.83277C2.02204 4.04285 2.06989 4.33582 2.2801 4.48694C2.4903 4.63819 2.78327 4.59034 2.9344 4.38013C3.50056 3.59278 4.25276 2.93921 5.10957 2.49011C5.99422 2.02637 6.99361 1.78125 7.99983 1.78125C11.4377 1.78125 14.2347 4.57825 14.2347 8.01612V8.34462L14.227 8.33607C14.0556 8.14198 13.7594 8.12367 13.5654 8.29506C13.3713 8.46644 13.353 8.76271 13.5244 8.95668L14.352 9.89369C14.441 9.9944 14.5689 10.052 14.7033 10.052C14.8377 10.052 14.9657 9.9944 15.0547 9.89369L15.8823 8.95668C16.0538 8.76259 16.0355 8.46632 15.8414 8.29493Z" fill="#FF5555"/>
<path d="M13.7198 11.5435C13.5096 11.3923 13.2167 11.4401 13.0655 11.6503C12.4993 12.4375 11.7471 13.0911 10.8903 13.5403C10.0056 14.004 9.00613 14.2492 8.00003 14.2492C4.56216 14.2492 1.76516 11.4522 1.76516 8.01429V7.68579L1.77285 7.69446C1.94423 7.88843 2.2405 7.90686 2.43447 7.73535C2.62856 7.56397 2.64687 7.2677 2.47548 7.07373L1.64785 6.13672C1.55874 6.03601 1.43093 5.97827 1.29653 5.97827C1.16213 5.97827 1.03408 6.03601 0.945209 6.13672L0.117449 7.07373C-0.0539383 7.26782 -0.0356277 7.56397 0.158464 7.73535C0.247576 7.81421 0.358294 7.85291 0.468646 7.85291C0.598284 7.85291 0.727435 7.79932 0.820086 7.69446L0.827655 7.68579V8.01429C0.827655 9.93018 1.57375 11.7312 2.92849 13.0859C4.2831 14.4407 6.08426 15.1867 8.00003 15.1867C9.15714 15.1867 10.3072 14.9044 11.3256 14.3706C12.3108 13.8541 13.1757 13.1027 13.8266 12.1976C13.9777 11.9874 13.93 11.6946 13.7198 11.5435Z" fill="#FF5555"/>
<path d="M8 9.88929C9.03382 9.88929 9.87501 9.04822 9.87501 8.01429C9.87501 6.98047 9.03382 6.13928 8 6.13928C6.96607 6.13928 6.125 6.98047 6.125 8.01429C6.125 9.04822 6.96607 9.88929 8 9.88929ZM8 7.07678C8.51697 7.07678 8.9375 7.49732 8.9375 8.01429C8.9375 8.53125 8.51697 8.95179 8 8.95179C7.48303 8.95179 7.0625 8.53125 7.0625 8.01429C7.0625 7.49732 7.48303 7.07678 8 7.07678Z" fill="#FF5555"/>
<path d="M3.37684 9.21534C3.34462 9.33534 3.36146 9.46327 3.42372 9.57093L4.36122 11.1948C4.42336 11.3025 4.52577 11.381 4.64577 11.4132C4.76589 11.4453 4.89382 11.4286 5.00148 11.3663L5.69081 10.9684C5.96608 11.1835 6.27114 11.36 6.59414 11.4911V12.2859C6.59414 12.5447 6.80397 12.7547 7.06289 12.7547H8.93789C9.19668 12.7547 9.40664 12.5447 9.40664 12.2859V11.4911C9.72964 11.36 10.0347 11.1835 10.31 10.9684L10.9993 11.3663C11.1068 11.4285 11.2349 11.4453 11.3549 11.4132C11.475 11.381 11.5774 11.3025 11.6396 11.1948L12.5771 9.57093C12.6392 9.46327 12.656 9.33534 12.6239 9.21534C12.5917 9.09522 12.5131 8.99281 12.4055 8.93067L11.7147 8.53187C11.7384 8.36073 11.7504 8.18751 11.7504 8.01429C11.7504 7.839 11.7382 7.66407 11.7139 7.49097L12.4055 7.09168C12.5132 7.02955 12.5917 6.92713 12.6239 6.80701C12.656 6.68689 12.6392 6.55896 12.5771 6.4513L11.6396 4.82752C11.5102 4.6034 11.2234 4.52661 10.9993 4.65601L10.3054 5.05664C10.0313 4.84314 9.72781 4.66785 9.40664 4.53748V3.73645C9.40664 3.47766 9.1968 3.2677 8.93789 3.2677H7.06289C6.80397 3.2677 6.59414 3.47766 6.59414 3.73645V4.53748C6.27309 4.66785 5.9695 4.84314 5.69545 5.05664L5.00148 4.65601C4.77736 4.52649 4.49062 4.6034 4.36122 4.82752L3.42372 6.4513C3.36159 6.55896 3.34474 6.68702 3.37684 6.80701C3.40907 6.92713 3.48756 7.02955 3.59523 7.09168L4.28688 7.49097C4.26259 7.66407 4.25038 7.839 4.25038 8.01429C4.25038 8.18751 4.26234 8.3606 4.28603 8.53187L3.59535 8.93067C3.48756 8.99281 3.40907 9.09522 3.37684 9.21534ZM5.26344 8.66432C5.21327 8.45228 5.18788 8.23353 5.18788 8.01429C5.18788 7.79346 5.21364 7.57325 5.26454 7.35963C5.31264 7.15796 5.22255 6.94861 5.04299 6.84498L4.46999 6.51417L4.93874 5.70227L5.51369 6.03431C5.69313 6.13782 5.91933 6.11133 6.06996 5.96912C6.38893 5.66785 6.77846 5.44287 7.19655 5.31848C7.39528 5.25928 7.53164 5.07654 7.53164 4.86914V4.2052H8.46914V4.86914C8.46914 5.07654 8.60537 5.25928 8.8041 5.31848C9.22231 5.44287 9.61184 5.66797 9.93081 5.96912C10.0814 6.11133 10.3076 6.13782 10.487 6.03431L11.062 5.70227L11.5308 6.51417L10.9578 6.84498C10.7782 6.94861 10.6881 7.15796 10.7361 7.35963C10.787 7.57325 10.8129 7.79346 10.8129 8.01429C10.8129 8.23353 10.7874 8.45228 10.7373 8.66432C10.6897 8.86585 10.7798 9.07459 10.9591 9.17811L11.5308 9.50819L11.062 10.3201L10.4912 9.99049C10.3115 9.88673 10.085 9.91346 9.93435 10.0562C9.61477 10.359 9.2239 10.5852 8.80422 10.7102C8.60537 10.7693 8.46914 10.952 8.46914 11.1594V11.8172H7.53164V11.1594C7.53164 10.952 7.39541 10.7693 7.19668 10.7102C6.77687 10.5852 6.386 10.3591 6.06642 10.0562C5.91579 9.91346 5.68935 9.88685 5.50966 9.99049L4.93874 10.3201L4.46999 9.50819L5.04164 9.17811C5.22084 9.07459 5.31105 8.86585 5.26344 8.66432Z" fill="#FF5555"/>
</g>
<defs>
<clipPath id="clip0">
<rect width="16" height="16" fill="white"/>
</clipPath>
</defs>
</svg>
