<svg width="36" height="36" viewBox="0 0 36 36" fill="none" xmlns="http://www.w3.org/2000/svg">
<path d="M16.2004 3.60002C15.723 3.60002 15.2652 3.78966 14.9276 4.12723C14.59 4.46479 14.4004 4.92263 14.4004 5.40002C14.4004 5.87741 14.59 6.33525 14.9276 6.67281C15.2652 7.01038 15.723 7.20002 16.2004 7.20002H19.8004C20.2778 7.20002 20.7356 7.01038 21.0732 6.67281C21.4107 6.33525 21.6004 5.87741 21.6004 5.40002C21.6004 4.92263 21.4107 4.46479 21.0732 4.12723C20.7356 3.78966 20.2778 3.60002 19.8004 3.60002H16.2004Z" fill="#A8ACBE"/>
<path fill-rule="evenodd" clip-rule="evenodd" d="M7.19971 8.99998C7.19971 8.0452 7.57899 7.12953 8.25412 6.45439C8.92925 5.77926 9.84493 5.39998 10.7997 5.39998C10.7997 6.83215 11.3686 8.20566 12.3813 9.21836C13.394 10.2311 14.7675 10.8 16.1997 10.8H19.7997C21.2319 10.8 22.6054 10.2311 23.6181 9.21836C24.6308 8.20566 25.1997 6.83215 25.1997 5.39998C26.1545 5.39998 27.0702 5.77926 27.7453 6.45439C28.4204 7.12953 28.7997 8.0452 28.7997 8.99998V28.8C28.7997 29.7548 28.4204 30.6704 27.7453 31.3456C27.0702 32.0207 26.1545 32.4 25.1997 32.4H10.7997C9.84493 32.4 8.92925 32.0207 8.25412 31.3456C7.57899 30.6704 7.19971 29.7548 7.19971 28.8V8.99998ZM24.6723 19.2726C25.0002 18.9331 25.1816 18.4784 25.1775 18.0065C25.1734 17.5345 24.9841 17.083 24.6504 16.7493C24.3166 16.4156 23.8652 16.2263 23.3932 16.2222C22.9213 16.2181 22.4666 16.3995 22.1271 16.7274L16.1997 22.6548L13.8723 20.3274C13.5328 19.9995 13.0781 19.8181 12.6062 19.8222C12.1342 19.8263 11.6828 20.0156 11.349 20.3493C11.0153 20.683 10.826 21.1345 10.8219 21.6065C10.8178 22.0784 10.9992 22.5331 11.3271 22.8726L14.9271 26.4726C15.2647 26.81 15.7224 26.9996 16.1997 26.9996C16.677 26.9996 17.1348 26.81 17.4723 26.4726L24.6723 19.2726Z" fill="#A8ACBE"/>
</svg>
