<svg width="14" height="14" viewBox="0 0 14 14" fill="none" xmlns="http://www.w3.org/2000/svg">
<path fill-rule="evenodd" clip-rule="evenodd" d="M7.66634 6.93348V11.6668H6.33301V6.93348C4.81151 6.62464 3.66634 5.27947 3.66634 3.66683C3.66634 1.82588 5.15873 0.333496 6.99967 0.333496C8.84062 0.333496 10.333 1.82588 10.333 3.66683C10.333 5.27947 9.18783 6.62464 7.66634 6.93348ZM4.99967 8.43836V9.78974C3.04446 10.0338 1.66634 10.5913 1.66634 11.0002C1.66634 11.5381 4.05243 12.3335 6.99967 12.3335C9.94691 12.3335 12.333 11.5381 12.333 11.0002C12.333 10.5913 10.9549 10.0338 8.99967 9.78974V8.43836C11.7036 8.73464 13.6663 9.64537 13.6663 11.0002C13.6663 12.6713 10.6799 13.6668 6.99967 13.6668C3.3195 13.6668 0.333008 12.6713 0.333008 11.0002C0.333008 9.64537 2.29576 8.73464 4.99967 8.43836ZM6.99967 5.66683C8.10424 5.66683 8.99967 4.7714 8.99967 3.66683C8.99967 2.56226 8.10424 1.66683 6.99967 1.66683C5.89511 1.66683 4.99967 2.56226 4.99967 3.66683C4.99967 4.7714 5.89511 5.66683 6.99967 5.66683Z" fill="#FF5555"/>
</svg>
