<svg width="36" height="36" viewBox="0 0 36 36" fill="none" xmlns="http://www.w3.org/2000/svg">
<path fill-rule="evenodd" clip-rule="evenodd" d="M14.8633 5.57828C16.2403 3.13028 19.7629 3.13028 21.1381 5.57828L31.1821 23.4343C32.5321 25.8355 30.7987 28.7983 28.0465 28.7983H7.9567C5.2027 28.7983 3.4693 25.8355 4.8193 23.4343L14.8633 5.57828ZM19.8007 23.4001C19.8007 23.8775 19.6111 24.3353 19.2735 24.6729C18.9359 25.0104 18.4781 25.2001 18.0007 25.2001C17.5233 25.2001 17.0655 25.0104 16.7279 24.6729C16.3903 24.3353 16.2007 23.8775 16.2007 23.4001C16.2007 22.9227 16.3903 22.4649 16.7279 22.1273C17.0655 21.7897 17.5233 21.6001 18.0007 21.6001C18.4781 21.6001 18.9359 21.7897 19.2735 22.1273C19.6111 22.4649 19.8007 22.9227 19.8007 23.4001ZM18.0007 9.00008C17.5233 9.00008 17.0655 9.18972 16.7279 9.52729C16.3903 9.86485 16.2007 10.3227 16.2007 10.8001V16.2001C16.2007 16.6775 16.3903 17.1353 16.7279 17.4729C17.0655 17.8104 17.5233 18.0001 18.0007 18.0001C18.4781 18.0001 18.9359 17.8104 19.2735 17.4729C19.6111 17.1353 19.8007 16.6775 19.8007 16.2001V10.8001C19.8007 10.3227 19.6111 9.86485 19.2735 9.52729C18.9359 9.18972 18.4781 9.00008 18.0007 9.00008Z" fill="#A8ACBE"/>
</svg>
