<svg width="35" height="26" viewBox="0 0 35 26" fill="none" xmlns="http://www.w3.org/2000/svg">
<rect x="0.1" y="15.5667" width="5.6" height="5.6" fill="#EC2121" stroke="black" stroke-width="0.2"/>
<rect x="7.8334" y="11.7" width="5.6" height="9.46667" fill="#EC2121" stroke="black" stroke-width="0.2"/>
<rect x="15.5668" y="5.90005" width="5.6" height="15.2667" fill="white" stroke="black" stroke-width="0.2"/>
<rect x="23.3002" y="0.1" width="5.6" height="21.0667" fill="white" stroke="black" stroke-width="0.2"/>
<path d="M30.5 26C32.9853 26 35 23.9853 35 21.5C35 19.0147 32.9853 17 30.5 17C28.0147 17 26 19.0147 26 21.5C26 23.9853 28.0147 26 30.5 26Z" fill="#F44336"/>
<path d="M32.8894 22.9314L31.9354 23.8863L28.1172 20.0685L29.0716 19.1136L32.8894 22.9314Z" fill="white"/>
<path d="M29.0682 23.8903L28.1133 22.9363L31.9311 19.118L32.886 20.0725L29.0682 23.8903Z" fill="white"/>
</svg>
