<svg width="375" height="243" viewBox="0 0 375 243" fill="none" xmlns="http://www.w3.org/2000/svg">
<g clip-path="url(#clip0)">
<path d="M335.731 123.706L335.731 123.705C336.466 122.861 336.974 121.718 337.319 120.457C337.666 119.194 337.854 117.796 337.941 116.426C338.115 113.69 337.884 111.04 337.674 109.751C337.466 108.389 338.385 107.112 339.762 106.906C341.151 106.699 342.441 107.612 342.649 108.965C342.741 109.599 343.186 112.686 342.998 116.318C342.809 119.963 341.985 124.101 339.582 126.872C337.972 128.727 335.781 129.831 333.227 130.008L332.999 130.024L332.995 130.253L332.539 156.239H327.007L326.692 143.957L326.686 143.729L326.459 143.714C323.811 143.537 321.576 142.432 319.92 140.532C317.518 137.761 316.694 133.623 316.505 129.978C316.317 126.346 316.762 123.258 316.853 122.625C317.061 121.272 318.352 120.359 319.74 120.566C321.118 120.772 322.037 122.049 321.829 123.412C321.619 124.722 321.388 127.372 321.562 130.104C321.649 131.47 321.837 132.864 322.184 134.124C322.529 135.381 323.037 136.521 323.771 137.365L323.771 137.366L323.778 137.373C324.452 138.086 325.237 138.574 326.269 138.72L326.562 138.761L326.554 138.466L325.819 109.649C325.819 109.649 325.819 109.649 325.819 109.648C325.776 107.567 327.453 105.865 329.568 105.865C331.686 105.865 333.359 107.526 333.316 109.604L333.316 109.604L333.041 124.807L333.035 125.117L333.339 125.057C334.309 124.866 335.094 124.431 335.731 123.706Z" fill="#E6E6E6" stroke="#313B6B" stroke-width="0.5"/>
<path d="M50.2194 132.805L50.2138 133.101L50.5069 133.057C51.1656 132.957 51.6797 132.653 52.0853 132.154C52.5661 131.604 52.8945 130.865 53.1169 130.059C53.3405 129.248 53.4616 128.352 53.5169 127.476C53.6272 125.727 53.4771 124.031 53.3363 123.195C53.2189 122.373 53.7744 121.6 54.595 121.484C55.4349 121.366 56.2162 121.919 56.3345 122.721C56.339 122.761 56.3456 122.814 56.3537 122.88C56.4321 123.515 56.655 125.321 56.5625 127.421C56.4597 129.754 55.9688 132.396 54.5064 134.192C53.4972 135.36 52.0909 136.014 50.4948 136.145L50.2691 136.164L50.2653 136.391L49.9936 152.845H46.623L46.4448 145.102L46.4396 144.877L46.2148 144.859C44.5727 144.727 43.1652 144.073 42.1095 142.857C40.5793 141.083 40.0432 138.464 39.9177 136.149C39.7926 133.842 40.0773 131.887 40.1444 131.49L40.1445 131.49L40.1453 131.484C40.2617 130.679 41.0441 130.125 41.8853 130.243C42.7059 130.359 43.2614 131.132 43.144 131.954C43.0033 132.79 42.8531 134.486 42.9635 136.235C43.0187 137.11 43.1398 138.006 43.3634 138.817C43.5858 139.624 43.9142 140.363 44.395 140.913C44.8053 141.417 45.3679 141.716 46.0194 141.815L46.3143 141.86L46.3068 141.562L45.8472 123.182L45.8472 123.182L45.8472 123.18C45.8059 121.917 46.8396 120.852 48.1253 120.852C49.4168 120.852 50.4444 121.877 50.4033 123.135L50.4033 123.138L50.2194 132.805Z" fill="#E6E6E6" stroke="#313B6B" stroke-width="0.5"/>
<path d="M384.738 199.113C384.738 208.62 379.225 217.714 369.174 226.018C359.125 234.321 344.569 241.809 326.56 248.103C290.544 260.69 240.773 268.479 185.784 268.479C130.796 268.479 81.0247 260.69 45.0089 248.103C26.9998 241.809 12.4437 234.321 2.39469 226.018C-7.65591 217.714 -13.1689 208.62 -13.1689 199.113C-13.1689 189.605 -7.65591 180.512 2.39469 172.208C12.4437 163.905 26.9998 156.416 45.0089 150.122C81.0247 137.536 130.796 129.746 185.784 129.746C240.773 129.746 290.544 137.536 326.56 150.122C344.569 156.416 359.125 163.905 369.174 172.208C379.225 180.512 384.738 189.605 384.738 199.113Z" fill="url(#paint0_linear)" stroke="url(#paint1_linear)" stroke-width="0.5"/>
</g>
<defs>
<linearGradient id="paint0_linear" x1="185.78" y1="97.918" x2="186.433" y2="221.924" gradientUnits="userSpaceOnUse">
<stop stop-color="white"/>
<stop offset="1" stop-color="#F5F6F9"/>
</linearGradient>
<linearGradient id="paint1_linear" x1="185.784" y1="129.496" x2="185.784" y2="195.032" gradientUnits="userSpaceOnUse">
<stop stop-color="#313B6B" stop-opacity="0.6"/>
<stop offset="1" stop-color="#313B6B" stop-opacity="0"/>
</linearGradient>
<clipPath id="clip0">
<rect width="385" height="243" fill="white" transform="translate(-4)"/>
</clipPath>
</defs>
</svg>
