<svg width="375" height="341" viewBox="0 0 375 341" fill="none" xmlns="http://www.w3.org/2000/svg">
<path d="M76.1688 143.181L76.1687 143.181L76.1682 143.184L75.906 144.635L75.9058 144.637L75.8154 145.181L75.814 145.189V145.197C75.814 145.354 75.8133 145.539 75.764 145.704L75.7603 145.716L75.7598 145.729C75.7253 146.616 75.7435 147.504 75.8143 148.389L75.8144 148.39C75.9865 150.307 76.2944 152.36 76.7199 154.413C77.4746 158.496 78.4343 162.703 79.4127 166.847L74.9381 168.598C72.7971 164.672 70.9724 160.582 69.4814 156.364L69.4813 156.364C68.6912 154.156 68.0522 151.897 67.5685 149.603L67.5685 149.602C67.2982 148.336 67.1297 147.05 67.0644 145.757V144.662C67.0644 144.467 67.0644 144.263 67.0722 144.076C67.0801 143.888 67.0957 143.724 67.1247 143.607L67.1265 143.6L67.1272 143.593L67.3078 141.781C67.3079 141.781 67.3079 141.78 67.3079 141.78C67.5776 139.448 67.9904 137.136 68.5442 134.855L68.5442 134.855L68.5446 134.853C69.0499 132.59 69.6998 130.389 70.3508 128.212C71.0003 126.04 71.8126 123.903 72.6708 121.801L72.671 121.8C72.874 121.297 73.0895 120.797 73.305 120.296C73.3145 120.274 73.324 120.252 73.3334 120.23C73.5582 119.707 73.7825 119.185 73.991 118.662C74.3942 117.651 74.866 116.681 75.4242 115.602L84.2637 119.996C84.1449 120.267 84.0244 120.54 83.9028 120.817C83.2204 122.367 82.5023 123.998 81.8599 125.598C81.8199 125.698 81.7797 125.798 81.7395 125.898C81.0091 127.716 80.2593 129.583 79.5988 131.442C78.169 135.265 77.0225 139.189 76.1688 143.181Z" fill="#F6CCBD" stroke="black" stroke-width="0.2"/>
<path d="M79.2859 165.686L82.8115 169.141L75.1185 172.769C75.1185 172.769 73.2562 169.495 74.5489 166.538L79.2859 165.686Z" fill="#F6CCBD"/>
<path d="M85.6585 174.283L79.1587 176.949L75.1269 172.732L82.8109 169.141L85.6585 174.283Z" fill="#F6CCBD"/>
<path opacity="0.4" d="M217.326 170.565C204.536 169.124 192.458 163.911 182.62 155.585C172.782 147.259 165.625 136.194 162.055 123.788C158.485 111.382 158.661 98.1924 162.561 85.887C166.462 73.5815 173.911 62.7125 183.968 54.6539C194.025 46.5953 206.238 41.7091 219.063 40.6128C231.887 39.5165 244.748 42.2594 256.019 48.4948C267.29 54.7301 276.465 64.178 282.385 75.644C288.304 87.11 290.702 100.079 289.276 112.912C288.328 121.439 285.715 129.694 281.585 137.207C277.456 144.719 271.891 151.342 265.209 156.696C258.527 162.05 250.859 166.031 242.643 168.41C234.427 170.79 225.825 171.522 217.326 170.565Z" fill="#FAFAFA"/>
<path d="M264.678 54.2261L165.69 133.572C165.274 132.665 164.868 131.758 164.488 130.851C162.006 124.929 160.419 118.669 159.778 112.278L245.278 43.7422C252.298 46.0913 258.861 49.6379 264.678 54.2261Z" fill="#FAFAFA"/>
<path d="M248.855 92.493C247.807 91.6981 237.366 83.141 221.729 83.141C218.653 83.141 215.786 83.4684 213.129 84.0295L236.714 107.69L248.855 92.493ZM203.365 80.8264C202.456 79.9146 200.988 79.9146 200.079 80.8264C199.17 81.7383 199.17 83.2112 200.079 84.123L203.225 87.2793C198.214 89.5939 195.138 92.0721 194.602 92.493L218.093 121.858C219.958 124.196 223.5 124.196 225.364 121.858L230.841 115.008L236.924 121.11C237.832 122.022 239.301 122.022 240.209 121.11C241.118 120.198 241.118 118.725 240.209 117.813L203.365 80.8264Z" fill="#6E7597"/>
<path opacity="0.4" d="M287.522 88.9867L194.455 163.58C185.614 158.957 177.952 152.353 172.063 144.281L273.682 62.8223C280.232 70.365 284.967 79.3168 287.522 88.9867Z" fill="#FAFAFA"/>
<path d="M291.871 72.3181C283.5 54.901 268.769 41.3835 250.733 34.5678C232.696 27.7521 212.737 28.1609 194.993 35.7095C177.248 43.258 163.08 57.3674 155.425 75.1127C147.77 92.858 147.215 112.878 153.875 131.023C147.836 133.145 141.87 135.421 135.94 137.77C127.388 141.174 118.914 144.729 110.519 148.435C102.13 152.163 93.7772 155.963 85.5056 159.935C81.3562 161.885 77.2611 163.944 73.1298 165.939C70.9807 166.865 69.0335 168.206 67.3985 169.884C66.5137 170.813 65.7345 171.838 65.0752 172.94C64.2707 174.244 63.6616 175.658 63.2672 177.139C62.587 179.808 62.8811 182.633 64.0965 185.103C65.3118 187.573 67.3681 189.526 69.8935 190.607C71.2959 191.197 72.7755 191.582 74.287 191.75C75.5635 191.895 76.8524 191.895 78.129 191.75C80.4488 191.467 82.6909 190.731 84.7282 189.582C88.8233 187.505 92.9455 185.501 97.0135 183.37C105.15 179.207 113.286 174.863 121.322 170.455C129.359 166.048 137.404 161.432 145.251 156.697C150.675 153.405 156.153 150.041 161.523 146.522C171.834 162.852 188.013 174.577 206.706 179.267C225.4 183.956 245.175 181.251 261.934 171.711C278.694 162.172 291.153 146.53 296.729 128.026C302.306 109.522 300.573 89.5749 291.889 72.3181H291.871ZM250.775 158.956C240.269 164.158 228.462 166.118 216.846 164.589C205.229 163.059 194.326 158.108 185.515 150.363C176.703 142.617 170.378 132.423 167.341 121.072C164.304 109.72 164.69 97.7196 168.45 86.588C172.211 75.4563 179.177 65.6933 188.468 58.5334C197.759 51.3735 208.958 47.1383 220.648 46.3632C232.339 45.5881 243.995 48.308 254.145 54.179C264.294 60.0499 272.481 68.8083 277.669 79.3466C281.114 86.3452 283.152 93.9562 283.665 101.745C284.178 109.534 283.157 117.347 280.659 124.74C278.162 132.133 274.237 138.959 269.11 144.83C263.982 150.701 257.752 155.501 250.775 158.956Z" fill="#313B6B"/>
<path opacity="0.3" d="M291.871 72.3181C283.5 54.901 268.769 41.3835 250.733 34.5678C232.696 27.7521 212.737 28.1609 194.993 35.7095C177.248 43.258 163.08 57.3674 155.425 75.1127C147.77 92.858 147.215 112.878 153.875 131.023C147.836 133.145 141.87 135.421 135.94 137.77C127.388 141.174 118.914 144.729 110.519 148.435C102.13 152.163 93.7772 155.963 85.5056 159.935C81.3562 161.885 77.2611 163.944 73.1298 165.939C70.9807 166.865 69.0335 168.206 67.3985 169.884C66.5137 170.813 65.7345 171.838 65.0752 172.94C64.2707 174.244 63.6616 175.658 63.2672 177.139C62.587 179.808 62.8811 182.633 64.0965 185.103C65.3118 187.573 67.3681 189.526 69.8935 190.607C71.2959 191.197 72.7755 191.582 74.287 191.75C75.5635 191.895 76.8524 191.895 78.129 191.75C80.4488 191.467 82.6909 190.731 84.7282 189.582C88.8233 187.505 92.9455 185.501 97.0135 183.37C105.15 179.207 113.286 174.863 121.322 170.455C129.359 166.048 137.404 161.432 145.251 156.697C150.675 153.405 156.153 150.041 161.523 146.522C171.834 162.852 188.013 174.577 206.706 179.267C225.4 183.956 245.175 181.251 261.934 171.711C278.694 162.172 291.153 146.53 296.729 128.026C302.306 109.522 300.573 89.5749 291.889 72.3181H291.871ZM250.775 158.956C240.269 164.158 228.462 166.118 216.846 164.589C205.229 163.059 194.326 158.108 185.515 150.363C176.703 142.617 170.378 132.423 167.341 121.072C164.304 109.72 164.69 97.7196 168.45 86.588C172.211 75.4563 179.177 65.6933 188.468 58.5334C197.759 51.3735 208.958 47.1383 220.648 46.3632C232.339 45.5881 243.995 48.308 254.145 54.179C264.294 60.0499 272.481 68.8083 277.669 79.3466C281.114 86.3452 283.152 93.9562 283.665 101.745C284.178 109.534 283.157 117.347 280.659 124.74C278.162 132.133 274.237 138.959 269.11 144.83C263.982 150.701 257.752 155.501 250.775 158.956Z" fill="white"/>
<path d="M109.38 87.5642C109.38 88.0992 109.66 88.5345 110.013 88.5345C110.365 88.5345 110.646 88.0992 110.646 87.5642C110.646 87.0291 110.365 86.5938 110.013 86.5938C109.66 86.5938 109.38 87.0654 109.38 87.5642Z" fill="#263238"/>
<path d="M109.633 88.5332C110.273 90.1757 111.134 91.7227 112.192 93.1313C111.826 93.3937 111.408 93.5727 110.966 93.6558C110.524 93.7388 110.069 93.7238 109.633 93.6119V88.5332Z" fill="#F6CCBD"/>
<path d="M107.509 84.5805C107.458 84.5805 107.408 84.5691 107.363 84.5471C107.318 84.5251 107.278 84.4931 107.246 84.4535C107.199 84.3843 107.181 84.2995 107.194 84.2168C107.207 84.1341 107.252 84.0597 107.319 84.0091C107.717 83.7062 108.182 83.5043 108.675 83.4206C109.167 83.3369 109.673 83.3739 110.148 83.5285C110.191 83.5401 110.231 83.5606 110.265 83.5887C110.299 83.6167 110.327 83.6517 110.347 83.6913C110.367 83.7309 110.379 83.7742 110.381 83.8186C110.383 83.8629 110.376 83.9072 110.36 83.9487C110.345 83.9901 110.32 84.0277 110.289 84.0591C110.258 84.0905 110.22 84.115 110.179 84.1309C110.138 84.1469 110.093 84.154 110.049 84.1517C110.005 84.1495 109.962 84.138 109.922 84.1179C109.545 84.0018 109.145 83.9782 108.756 84.0492C108.368 84.1202 108.002 84.2838 107.689 84.5261C107.636 84.5617 107.573 84.5806 107.509 84.5805Z" fill="#263238"/>
<path d="M92.0822 100.736C92.1433 97.5996 91.7046 94.2778 91.268 91.859L100.273 99.571C99.8114 101.45 99.5426 103.405 100.068 105.059C100.601 106.737 101.944 108.088 104.665 108.749C104.674 108.758 104.686 108.77 104.7 108.784C104.735 108.82 104.785 108.872 104.845 108.938C104.966 109.071 105.128 109.261 105.292 109.489C105.622 109.948 105.948 110.547 105.976 111.135C105.99 111.426 105.93 111.714 105.762 111.985C105.593 112.255 105.311 112.514 104.868 112.74C103.979 113.192 102.459 113.501 99.9781 113.501C95.4818 113.501 92.916 112.271 91.4761 111.054C90.7555 110.444 90.3143 109.836 90.0538 109.381C89.9234 109.154 89.8383 108.965 89.7859 108.834C89.7609 108.771 89.7433 108.722 89.732 108.688C90.5751 107.859 91.1435 106.688 91.5104 105.331C91.8839 103.949 92.0505 102.366 92.0822 100.736Z" fill="#F6CCBD" stroke="black" stroke-width="0.2"/>
<path d="M85.5594 111.225C86.6352 109.548 84.8272 105.476 84.8272 105.476C84.8272 105.476 100.81 101.44 107.346 107.634C108.702 108.913 107.201 110.799 107.201 110.799L85.5594 111.225Z" fill="#313B6B"/>
<path opacity="0.1" d="M85.5594 111.225C86.6352 109.548 84.8272 105.476 84.8272 105.476C84.8272 105.476 100.81 101.44 107.346 107.634C108.702 108.913 107.201 110.799 107.201 110.799L85.5594 111.225Z" fill="black"/>
<path d="M59.1174 296.262C58.2767 296.262 56.9297 294.856 56.532 294.33C56.5149 294.305 56.5057 294.275 56.5057 294.244C56.5057 294.213 56.5149 294.183 56.532 294.158C56.5466 294.132 56.5677 294.111 56.5931 294.097C56.6186 294.083 56.6474 294.076 56.6766 294.076C56.776 294.076 58.9909 294.276 59.5965 295.065C59.6624 295.148 59.7094 295.245 59.7344 295.348C59.7594 295.451 59.7617 295.559 59.7412 295.663C59.7333 295.798 59.6839 295.928 59.5997 296.033C59.5155 296.139 59.4006 296.215 59.2711 296.253L59.1174 296.262ZM57.0201 294.448C57.6801 295.21 58.7377 296.071 59.1897 295.963C59.1897 295.963 59.3705 295.917 59.4248 295.627C59.4367 295.566 59.4347 295.504 59.419 295.444C59.4034 295.385 59.3744 295.329 59.3344 295.282C58.6647 294.774 57.8589 294.477 57.0201 294.43V294.448Z" fill="#313B6B"/>
<path d="M57.1195 294.43C56.9572 294.446 56.7936 294.446 56.6313 294.43C56.6027 294.428 56.5755 294.417 56.5529 294.399C56.5304 294.382 56.5136 294.357 56.5048 294.33C56.492 294.305 56.4854 294.277 56.4854 294.248C56.4854 294.22 56.492 294.192 56.5048 294.167C56.568 294.112 57.8969 292.725 58.9004 292.725C59.0204 292.722 59.1397 292.745 59.2503 292.792C59.361 292.839 59.4605 292.909 59.5422 292.997C59.6322 293.072 59.6938 293.177 59.7168 293.292C59.7398 293.407 59.7229 293.527 59.6688 293.632C59.4066 294.14 58.0235 294.43 57.1195 294.43ZM57.0019 294.112C57.9059 294.112 59.2168 293.831 59.4337 293.432C59.4337 293.432 59.497 293.314 59.3524 293.169C59.2997 293.112 59.2353 293.067 59.1634 293.037C59.0916 293.007 59.0142 292.994 58.9365 292.997C58.1955 293.168 57.5219 293.556 57.0019 294.112Z" fill="#313B6B"/>
<path d="M118.772 316.849C118.087 316.844 117.403 316.78 116.729 316.658C116.695 316.652 116.665 316.634 116.644 316.607C116.622 316.581 116.611 316.547 116.611 316.513C116.606 316.482 116.611 316.45 116.623 316.421C116.636 316.392 116.657 316.367 116.684 316.35C116.783 316.296 119.097 314.962 120.209 315.271C120.312 315.294 120.41 315.338 120.495 315.401C120.581 315.463 120.653 315.542 120.707 315.634C120.777 315.734 120.815 315.855 120.815 315.978C120.815 316.102 120.777 316.222 120.707 316.323C120.444 316.731 119.622 316.849 118.772 316.849ZM117.244 316.423C118.474 316.604 120.155 316.595 120.462 316.16C120.508 316.105 120.544 316.005 120.462 315.815C120.393 315.702 120.283 315.621 120.155 315.588C119.45 315.407 118.049 316.005 117.244 316.423Z" fill="#313B6B"/>
<path d="M116.766 316.668C116.736 316.676 116.705 316.676 116.675 316.668C116.65 316.652 116.631 316.628 116.619 316.601C116.608 316.573 116.605 316.543 116.612 316.514C116.673 315.57 117.034 314.67 117.643 313.947C117.766 313.841 117.91 313.762 118.066 313.717C118.222 313.671 118.386 313.66 118.547 313.684C118.98 313.684 119.107 313.947 119.134 314.119C119.252 314.872 117.67 316.314 116.865 316.677L116.766 316.668ZM118.384 313.947C118.185 313.946 117.992 314.017 117.841 314.147C117.33 314.719 117.014 315.44 116.937 316.205C117.751 315.707 118.836 314.582 118.745 314.129C118.745 314.129 118.745 313.974 118.438 313.947H118.384Z" fill="#313B6B"/>
<path d="M116.661 301.178L116.01 316.405H109.566L110.217 301.178H116.661Z" fill="#F6CCBD" stroke="black" stroke-width="0.2"/>
<path d="M67.9364 283.294L55.8372 293.543L50.4609 290.012L62.5511 279.754L67.9364 283.294Z" fill="#F6CCBD" stroke="black" stroke-width="0.2"/>
<path d="M56.758 293.324L50.9905 288.581C50.8886 288.497 50.7608 288.451 50.6289 288.451C50.497 288.451 50.3692 288.497 50.2673 288.581L45.5122 292.327C45.3973 292.418 45.3046 292.535 45.2408 292.668C45.177 292.8 45.1439 292.946 45.1439 293.093C45.1439 293.24 45.177 293.386 45.2408 293.518C45.3046 293.651 45.3973 293.768 45.5122 293.859C47.5553 295.483 48.631 296.172 51.1713 298.258C52.7352 299.537 56.5953 303.454 58.7739 305.223C60.9525 306.991 62.9504 305.087 62.2272 304.171C58.9818 300.044 57.7072 296.517 57.3365 294.331C57.2725 293.936 57.0667 293.578 56.758 293.324Z" fill="#263238"/>
<path d="M116.06 315.734H108.828C108.696 315.735 108.568 315.78 108.465 315.862C108.362 315.944 108.289 316.059 108.259 316.188L106.948 322.11C106.915 322.253 106.915 322.403 106.948 322.546C106.981 322.69 107.046 322.824 107.138 322.938C107.231 323.053 107.348 323.145 107.481 323.207C107.614 323.269 107.759 323.3 107.906 323.298C110.519 323.253 114.297 323.098 117.588 323.098C121.43 323.098 124.757 323.307 129.259 323.307C131.971 323.307 132.748 320.541 131.6 320.296C126.411 319.153 122.162 319.036 117.678 316.251C117.197 315.932 116.637 315.753 116.06 315.734Z" fill="#263238"/>
<path d="M83.9957 120.919C80.5153 124.456 78.9243 131.385 78.2282 135.892L81.6001 137.243C83.6018 132.34 85.2336 127.292 86.4817 122.143C86.1834 120.221 85.4421 119.45 83.9957 120.919Z" fill="#203048"/>
<path d="M76.5715 110.734L76.5719 110.734C79.48 109.346 82.4217 109.995 84.4011 112.024C86.3822 114.054 87.4088 117.477 86.4477 121.649C85.2012 126.918 83.55 132.082 81.509 137.095L67.602 131.531C67.6079 131.499 67.6157 131.457 67.6253 131.406C67.6507 131.273 67.6887 131.076 67.7391 130.824C67.8399 130.321 67.9904 129.599 68.189 128.724C68.5863 126.975 69.1757 124.614 69.9448 122.169C70.714 119.723 71.6619 117.196 72.7751 115.112C73.8908 113.023 75.1628 111.399 76.5715 110.734Z" fill="white" stroke="black" stroke-width="0.2"/>
<path d="M114.874 110.605C114.886 110.621 114.904 110.644 114.927 110.677C114.975 110.745 115.046 110.852 115.135 111.008C115.312 111.318 115.56 111.82 115.837 112.578C116.392 114.095 117.066 116.639 117.532 120.733C118.463 128.913 118.564 143.277 115.241 168.006H79.9064C79.8628 166.778 79.9879 164.556 80.1567 161.558C80.1779 161.181 80.1999 160.791 80.2222 160.39C80.4269 156.717 80.668 152.062 80.7522 146.77C80.9202 136.214 80.4642 123.126 77.8493 110.26C81.7379 109.508 85.6715 109.012 89.6247 108.776C94.6479 108.476 99.6844 108.476 104.708 108.776C108.138 109.122 111.537 109.734 114.874 110.605Z" fill="white" stroke="black" stroke-width="0.2"/>
<path d="M80.452 136.492L80.904 136.945L89.281 132.574L88.8566 122.4C85.4454 118.36 78.5592 110.276 78.305 110.262C78.0507 110.248 77.1538 110.592 76.7371 110.765L80.452 136.492Z" fill="white"/>
<path d="M118.176 129.762L112.191 119.414C111.036 124.242 110.564 129.209 110.79 134.17C110.953 137.725 114.19 150.695 117.11 152.617C117.885 144.958 118.246 137.46 118.176 129.762Z" fill="#D2D2D2"/>
<path d="M125.972 148.084L126.025 148.26C126.024 148.261 126.023 148.262 126.021 148.263C125.992 148.29 125.985 148.324 125.984 148.347C125.984 148.387 126.003 148.424 126.018 148.45L126.023 148.458L126.03 148.466C126.413 148.885 126.902 149.193 127.446 149.355C128.305 149.675 129.189 149.922 130.09 150.093L130.09 150.093L130.093 150.093C134.344 150.769 138.649 151.053 142.952 150.94L143.781 155.703C142.605 156.078 141.502 156.352 140.337 156.627C139.146 156.907 137.973 157.142 136.774 157.323L136.772 157.324C134.291 157.738 131.776 157.908 129.262 157.83L129.261 157.83C127.867 157.792 126.48 157.611 125.123 157.289L125.122 157.288C123.402 156.911 121.786 156.159 120.389 155.085C119.479 154.349 118.729 153.434 118.183 152.397L118.182 152.396C118.075 152.194 117.977 151.971 117.885 151.759C117.855 151.692 117.827 151.626 117.798 151.562L117.636 151.139L117.636 151.138L117.302 150.232L117.302 150.232L117.301 150.23C116.991 149.455 116.718 148.689 116.445 147.924C116.314 147.555 116.182 147.185 116.046 146.814C114.52 142.284 113.246 137.707 112.125 133.138C111.013 128.602 110.052 124.074 109.251 119.422L118.929 117.715C119.115 118.624 119.302 119.538 119.489 120.455C120.202 123.951 120.924 127.489 121.685 130.971C122.652 135.397 123.656 139.843 124.823 144.135L124.823 144.136C124.907 144.433 124.989 144.734 125.072 145.034C125.282 145.802 125.494 146.572 125.728 147.304C125.728 147.304 125.728 147.304 125.728 147.304L125.972 148.083L125.972 148.084Z" fill="#F6CCBD" stroke="black" stroke-width="0.2"/>
<path d="M106.157 115.407L106.157 115.407C107.266 111.797 110.127 109.89 113.343 110.263C116.567 110.638 120.181 113.307 122.767 118.929L122.767 118.929C124.484 122.659 125.488 126.878 126.063 130.167C126.35 131.812 126.529 133.222 126.637 134.222C126.691 134.721 126.727 135.118 126.75 135.39C126.761 135.526 126.769 135.63 126.774 135.701L126.776 135.725L111.834 139.492C111.821 139.46 111.804 139.418 111.783 139.367C111.728 139.233 111.647 139.035 111.546 138.782C111.342 138.274 111.053 137.542 110.713 136.644C110.031 134.849 109.143 132.393 108.312 129.746C107.482 127.099 106.71 124.265 106.264 121.714C105.816 119.158 105.697 116.904 106.157 115.407Z" fill="white" stroke="black" stroke-width="0.2"/>
<path d="M114.457 110.559C114.315 110.478 112.804 110.18 112.066 110.041L110.701 110.124C109.722 110.159 107.748 110.231 107.677 110.245C107.607 110.26 103.337 112.703 101.211 113.923C100.952 117.476 100.457 124.624 100.552 124.783C100.647 124.942 107.402 134.646 110.768 139.479L111.887 139.401L112.043 139.245L113.957 137.204L119.918 129.237L118.645 119.932C117.308 116.842 114.599 110.641 114.457 110.559Z" fill="white"/>
<path d="M142.909 150.839L150.43 150.648L146.814 158.502C146.814 158.502 143.75 158.91 141.237 154.766L138.588 151.592L141.634 150.984C142.054 150.895 142.48 150.847 142.909 150.839Z" fill="#F6CCBD"/>
<path d="M155.177 152.109L150.874 158.62L146.815 158.502L150.431 150.648L155.177 152.109Z" fill="#F6CCBD"/>
<path d="M110.217 301.178H116.661L116.326 308.932H109.882L110.217 301.178Z" fill="#F6CCBD" stroke="black" stroke-width="0.2"/>
<path d="M56.3916 284.979L62.5516 279.754L67.9368 283.294L61.768 288.51L56.3916 284.979Z" fill="#F6CCBD" stroke="black" stroke-width="0.2"/>
<path d="M91.6351 86.4055L91.6351 86.4055L91.635 86.4048C91.5325 84.8887 91.8156 83.3713 92.4578 81.9951C93.0999 80.6188 94.08 79.4289 95.3061 78.5368C96.5322 77.6448 97.9641 77.0799 99.4674 76.8951C100.971 76.7103 102.496 76.9117 103.9 77.4804C107.076 78.7782 108.893 81.8479 109.738 85.3512C110.583 88.8534 110.45 92.7689 109.744 95.7204L109.744 95.7206C108.966 98.9956 106.567 101.38 103.746 102.313C100.927 103.247 97.689 102.732 95.2228 100.208L95.2227 100.208C92.2363 97.1633 92.0443 93.711 91.7346 88.1435C91.7036 87.5859 91.6714 87.0072 91.6351 86.4055Z" fill="#F6CCBD" stroke="black" stroke-width="0.2"/>
<path d="M83.7968 85.2513C85.433 91.2641 89.284 98.1929 94.2651 98.6373C100.448 99.1815 103.242 92.7696 104.055 86.1491C107.762 83.6007 105.818 80.7983 109.534 80.4446C114.307 79.9912 112.779 71.2304 106.496 69.8247C106.496 69.8247 108.603 73.7697 104.182 71.7745C99.9779 69.7701 95.3074 68.9578 90.6762 69.4256C90.6762 69.4256 96.3172 72.2552 90.8028 73.5158C85.2884 74.7764 83.6431 78.1864 86.1833 80.2451C86.1833 80.2542 82.721 81.2971 83.7968 85.2513Z" fill="#263238"/>
<path d="M100.286 87.509C100.407 89.1479 101.065 90.7006 102.157 91.9257C103.604 93.5309 105.113 92.5333 105.366 90.5834C105.601 88.8331 105.122 85.8856 103.35 84.9968C101.579 84.1081 100.168 85.5319 100.286 87.509Z" fill="#F6CCBD"/>
<path d="M102.727 168.107C102.727 168.107 109.199 215.13 104.101 233.976C96.0191 263.813 65.1203 288.998 65.1203 288.998L54.643 282.106C54.643 282.106 80.9584 260.839 84.1767 235.853C87.0695 213.425 79.8103 186.299 79.8103 168.098L102.727 168.107Z" fill="#313B6B"/>
<path opacity="0.1" d="M102.727 168.107C102.727 168.107 109.199 215.13 104.101 233.976C96.0191 263.813 65.1203 288.998 65.1203 288.998L54.643 282.106C54.643 282.106 80.9584 260.839 84.1767 235.853C87.0695 213.425 79.8103 186.299 79.8103 168.098L102.727 168.107Z" fill="black"/>
<path d="M105.402 194.986C103.679 193.006 101.782 191.185 99.7344 189.545C100.837 204.808 101.741 227.418 100.738 243.479C102.087 240.4 103.211 237.227 104.101 233.984C106.587 224.779 106.325 208.88 105.402 194.986Z" fill="#313B6B"/>
<path opacity="0.3" d="M105.402 194.986C103.679 193.006 101.782 191.185 99.7344 189.545C100.837 204.808 101.741 227.418 100.738 243.479C102.087 240.4 103.211 237.227 104.101 233.984C106.587 224.779 106.325 208.88 105.402 194.986Z" fill="black"/>
<path d="M69.3415 286.648C69.3867 286.648 65.2825 289.369 65.2825 289.369L53.8379 281.842L57.4539 278.84L69.3415 286.648Z" fill="#313B6B"/>
<path opacity="0.3" d="M69.3415 286.648C69.3867 286.648 65.2825 289.369 65.2825 289.369L53.8379 281.842L57.4539 278.84L69.3415 286.648Z" fill="black"/>
<path d="M115.328 168.105C115.328 168.105 125.327 210.64 126.032 230.964C126.827 253.745 118.899 307.489 118.899 307.489H107.644C107.644 307.489 106.261 253.328 105.764 232.578C105.213 209.951 91.978 168.105 91.978 168.105H115.328Z" fill="#313B6B"/>
<path opacity="0.1" d="M115.328 168.105C115.328 168.105 125.327 210.64 126.032 230.964C126.827 253.745 118.899 307.489 118.899 307.489H107.644C107.644 307.489 106.261 253.328 105.764 232.578C105.213 209.951 91.978 168.105 91.978 168.105H115.328Z" fill="black"/>
<path d="M121.06 303C121.114 303 120.427 307.68 120.427 307.68H106.74L106.37 303.499L121.06 303Z" fill="#313B6B"/>
<path opacity="0.3" d="M121.06 303C121.114 303 120.427 307.68 120.427 307.68H106.74L106.37 303.499L121.06 303Z" fill="black"/>
<path d="M288.372 127.232C288.396 127.255 288.42 127.278 288.444 127.301L288.376 127.374C288.352 127.351 288.328 127.328 288.303 127.305L288.372 127.232ZM301.11 144.99C301.11 144.99 301.11 144.99 301.11 144.99L301.199 144.944L301.11 144.99ZM283.774 132.282C283.751 132.259 283.728 132.236 283.705 132.213L283.635 132.284L283.708 132.352L283.774 132.282ZM286.975 135.802C286.974 135.802 286.974 135.802 286.974 135.801C286.974 135.801 286.974 135.801 286.974 135.801L286.898 135.866L286.975 135.802ZM290.142 139.679C290.142 139.679 290.142 139.678 290.142 139.678C290.142 139.678 290.141 139.678 290.141 139.678L290.062 139.739L290.142 139.679ZM296.105 148.44L296.104 148.436C296.103 148.435 296.102 148.434 296.101 148.433L296.019 148.491L296.105 148.44ZM294.677 154.791C294.677 154.79 294.677 154.79 294.677 154.79C294.678 154.789 294.678 154.789 294.678 154.788L294.591 154.739L294.677 154.791ZM291.958 158.882C291.958 158.881 291.959 158.881 291.959 158.881C291.959 158.88 291.959 158.88 291.96 158.88L291.879 158.82L291.958 158.882ZM288.809 162.794C288.828 162.772 288.846 162.75 288.865 162.728L288.809 162.664L288.733 162.729L288.809 162.794ZM291.06 165.257L291 165.188C290.975 165.206 290.95 165.224 290.926 165.242L290.984 165.323L291.06 165.257ZM301.746 152.249C301.746 152.249 301.746 152.249 301.746 152.249C301.746 152.25 301.746 152.25 301.746 152.25L301.841 152.281L301.746 152.249ZM302.238 148.659C302.239 148.659 302.239 148.659 302.239 148.659C302.239 148.66 302.239 148.66 302.239 148.66L302.338 148.654L302.238 148.659ZM295.531 135.64L295.45 135.698C295.45 135.698 295.45 135.698 295.45 135.698L295.531 135.64Z" fill="#F6CCBD" stroke="black" stroke-width="0.2"/>
<path d="M289.601 161.968L282.848 160.861L286.383 166.793C286.383 166.793 290.731 166.638 291.969 164.072L289.601 161.968Z" fill="#F6CCBD"/>
<path d="M277.858 163.6L281.076 168.416L286.383 166.793L282.848 160.861L277.858 163.6Z" fill="#F6CCBD"/>
<path d="M289.276 316.768C288.816 316.808 288.358 316.682 287.983 316.415C287.87 316.307 287.786 316.172 287.74 316.023C287.694 315.874 287.687 315.715 287.721 315.562C287.727 315.465 287.76 315.371 287.816 315.291C287.872 315.211 287.948 315.148 288.037 315.109C288.824 314.755 290.885 316.079 291.12 316.233C291.147 316.25 291.167 316.275 291.179 316.304C291.19 316.334 291.192 316.366 291.183 316.396C291.18 316.427 291.166 316.457 291.145 316.479C291.124 316.502 291.096 316.518 291.065 316.523C290.48 316.673 289.88 316.755 289.276 316.768ZM288.372 315.363C288.306 315.352 288.239 315.352 288.173 315.363C288.133 315.381 288.099 315.411 288.075 315.447C288.051 315.484 288.038 315.527 288.037 315.571C288.013 315.672 288.016 315.778 288.044 315.878C288.073 315.978 288.126 316.069 288.2 316.142C288.543 316.451 289.429 316.496 290.613 316.26C289.935 315.811 289.172 315.505 288.372 315.363Z" fill="#313B6B"/>
<path d="M291.084 316.514H291.002C290.36 316.142 289.122 314.7 289.276 313.911C289.305 313.787 289.373 313.675 289.471 313.593C289.569 313.512 289.691 313.464 289.818 313.458C289.94 313.44 290.065 313.45 290.182 313.488C290.299 313.526 290.407 313.59 290.496 313.675C291.237 314.328 291.246 316.287 291.246 316.396C291.245 316.423 291.236 316.45 291.222 316.474C291.208 316.498 291.188 316.517 291.165 316.532L291.084 316.514ZM289.926 313.793H289.854C289.655 313.793 289.61 313.902 289.592 313.984C289.502 314.446 290.27 315.553 290.912 316.069C290.928 315.309 290.71 314.562 290.288 313.929C290.234 313.878 290.17 313.84 290.099 313.817C290.029 313.793 289.955 313.785 289.881 313.793H289.926Z" fill="#313B6B"/>
<path d="M258.467 316.768C257.89 316.823 257.312 316.676 256.831 316.351C256.723 316.254 256.639 316.133 256.587 315.997C256.535 315.862 256.516 315.715 256.533 315.571C256.539 315.483 256.566 315.397 256.614 315.323C256.661 315.248 256.727 315.187 256.804 315.145C257.645 314.673 260.339 316.052 260.646 316.224C260.674 316.242 260.697 316.268 260.711 316.298C260.725 316.329 260.731 316.363 260.727 316.396C260.722 316.428 260.707 316.457 260.684 316.48C260.662 316.503 260.632 316.518 260.601 316.523C259.899 316.673 259.185 316.755 258.467 316.768ZM257.265 315.362C257.162 315.355 257.058 315.377 256.967 315.426C256.934 315.441 256.907 315.466 256.887 315.496C256.868 315.527 256.858 315.562 256.858 315.598C256.844 315.693 256.854 315.789 256.885 315.879C256.917 315.969 256.969 316.05 257.039 316.115C257.455 316.487 258.567 316.55 260.067 316.296C259.192 315.829 258.245 315.513 257.265 315.362Z" fill="#313B6B"/>
<path d="M260.574 316.514H260.501C259.697 316.152 258.097 314.701 258.223 313.912C258.223 313.73 258.386 313.503 258.829 313.458C258.991 313.441 259.154 313.456 259.31 313.505C259.465 313.553 259.609 313.633 259.733 313.739C260.583 314.447 260.745 316.279 260.745 316.36C260.749 316.388 260.745 316.416 260.734 316.442C260.723 316.467 260.705 316.489 260.682 316.505C260.648 316.52 260.61 316.523 260.574 316.514ZM258.955 313.794H258.856C258.567 313.794 258.549 313.939 258.54 313.975C258.467 314.438 259.552 315.589 260.348 316.088C260.269 315.313 259.953 314.581 259.444 313.993C259.306 313.876 259.135 313.806 258.955 313.794Z" fill="#313B6B"/>
<path d="M261.075 122.855C261.083 122.844 261.09 122.834 261.096 122.827C263.26 121.992 264.223 120.736 264.483 119.295C264.74 117.878 264.313 116.302 263.736 114.811L271.141 106.662C271.134 106.76 271.128 106.861 271.121 106.964C270.987 108.991 270.802 111.801 270.969 114.427C271.061 115.872 271.26 117.265 271.634 118.445C272 119.598 272.538 120.557 273.319 121.154C273.313 121.183 273.305 121.221 273.293 121.269C273.264 121.381 273.214 121.544 273.131 121.744C272.966 122.144 272.67 122.689 272.144 123.266C271.095 124.417 269.125 125.703 265.442 126.19C263.413 126.455 262.139 126.364 261.366 126.089C260.981 125.952 260.724 125.771 260.558 125.57C260.393 125.37 260.314 125.143 260.294 124.906C260.252 124.426 260.451 123.904 260.669 123.494C260.778 123.29 260.889 123.118 260.973 122.996C261.015 122.936 261.05 122.888 261.075 122.855Z" fill="#F6CCBD" stroke="black" stroke-width="0.2"/>
<path d="M254.417 99.1365C254.373 99.1366 254.328 99.1269 254.288 99.1081C254.247 99.0893 254.211 99.0619 254.182 99.0277C253.924 98.72 253.597 98.4777 253.228 98.3201C252.859 98.1626 252.458 98.0943 252.058 98.1208C252.016 98.1285 251.972 98.1275 251.93 98.1179C251.888 98.1082 251.849 98.0901 251.814 98.0647C251.78 98.0392 251.75 98.0069 251.729 97.9698C251.707 97.9326 251.693 97.8914 251.687 97.8487C251.677 97.7634 251.701 97.6775 251.753 97.6096C251.806 97.5417 251.883 97.4972 251.967 97.4859C252.478 97.4426 252.991 97.524 253.463 97.723C253.936 97.922 254.353 98.2327 254.679 98.6286C254.719 98.6759 254.744 98.7333 254.752 98.7943C254.76 98.8552 254.751 98.9172 254.725 98.9731C254.7 99.029 254.659 99.0766 254.608 99.1103C254.556 99.144 254.497 99.1625 254.435 99.1637L254.417 99.1365Z" fill="#263238"/>
<path d="M253.007 103.154C252.686 104.455 252.191 105.706 251.534 106.873C251.835 107.036 252.169 107.13 252.511 107.149C252.854 107.167 253.196 107.11 253.513 106.981L253.007 103.154Z" fill="#DE5753"/>
<path d="M253.369 102.156C253.441 102.7 253.215 103.171 252.862 103.226C252.51 103.28 252.157 102.863 252.094 102.319C252.031 101.775 252.248 101.303 252.6 101.258C252.953 101.212 253.305 101.575 253.369 102.156Z" fill="#263238"/>
<path d="M252.763 101.267L251.416 101.059C251.416 101.059 252.212 101.993 252.763 101.267Z" fill="#263238"/>
<path d="M267.473 300.735L267.92 316.27H261.34L260.893 300.735H267.473Z" fill="#F6CCBD" stroke="black" stroke-width="0.2"/>
<path d="M296.538 300.735L298.689 316.27H292.111L289.96 300.735H296.538Z" fill="#F6CCBD" stroke="black" stroke-width="0.2"/>
<path d="M291.608 315.607H299.22C299.349 315.606 299.475 315.653 299.573 315.738C299.671 315.823 299.735 315.941 299.753 316.07L300.657 322.119C300.673 322.272 300.658 322.426 300.611 322.572C300.564 322.718 300.486 322.852 300.384 322.966C300.281 323.08 300.156 323.171 300.016 323.233C299.876 323.295 299.725 323.326 299.572 323.325C296.923 323.28 295.64 323.126 292.295 323.126C290.234 323.126 287.223 323.334 284.385 323.334C281.546 323.334 281.393 320.514 282.577 320.26C287.883 319.117 288.724 317.539 290.505 316.025C290.816 315.766 291.204 315.619 291.608 315.607Z" fill="#263238"/>
<path d="M261.016 315.607H268.619C268.75 315.606 268.877 315.652 268.977 315.737C269.076 315.822 269.142 315.94 269.162 316.07L270.066 322.119C270.082 322.272 270.066 322.426 270.019 322.572C269.972 322.718 269.895 322.852 269.793 322.966C269.69 323.08 269.565 323.171 269.425 323.233C269.285 323.295 269.134 323.326 268.981 323.325C266.332 323.28 265.048 323.126 261.704 323.126C259.642 323.126 255.376 323.334 252.537 323.334C249.698 323.334 249.545 320.514 250.729 320.26C256.035 319.117 258.124 317.539 259.914 316.025C260.224 315.766 260.613 315.619 261.016 315.607Z" fill="#263238"/>
<path d="M260.79 300.635L261.026 308.752H267.806L267.571 300.635H260.79Z" fill="#CE6F64"/>
<path d="M296.625 300.635H289.845L290.975 308.752H297.746L296.625 300.635Z" fill="#CE6F64"/>
<path d="M271.249 97.8999L271.249 97.901C271.269 98.1789 271.287 98.45 271.306 98.7148C271.51 101.661 271.66 103.818 271.457 105.675C271.236 107.691 270.599 109.352 269.154 111.274C264.811 117.033 256.576 116.131 254.149 109.757L254.149 109.757C253.047 106.864 252.401 102.921 252.798 99.2665C253.195 95.6104 254.633 92.2631 257.676 90.5262L257.676 90.526C259.018 89.7547 260.534 89.3401 262.08 89.3214C263.626 89.3027 265.151 89.6805 266.51 90.4192C267.87 91.1578 269.019 92.2327 269.848 93.5419C270.678 94.8511 271.16 96.3512 271.249 97.8999Z" fill="#F6CCBD" stroke="black" stroke-width="0.2"/>
<path d="M275.255 104.142C279.015 106.246 281.809 101.058 281.809 101.058C281.809 101.058 275.065 101.793 275.67 97.7663C276.466 92.4246 272.651 85.9311 263.087 86.7655C262.553 86.8108 262.047 86.8743 261.55 86.9559C260.549 86.4798 259.416 86.3569 258.337 86.6071C257.257 86.8573 256.293 87.4659 255.602 88.3344C252.89 88.5611 249.228 91.8079 251.714 96.0976C251.889 95.6047 252.159 95.1515 252.51 94.7645C252.718 97.2766 254.905 101.267 257.636 101.53C258.223 104.967 255.945 108.949 256.732 112.54C257.898 117.718 266.603 118.888 266.603 118.888C266.303 118.242 266.191 117.523 266.281 116.815C266.37 116.108 266.658 115.44 267.11 114.889C273.022 117.61 276.918 114.952 276.918 114.952C272.886 113.447 274.106 110.762 274.106 110.762C275.499 111.383 277.076 111.437 278.507 110.914C279.939 110.392 281.112 109.333 281.781 107.96C280.442 108.024 279.113 107.697 277.955 107.02C276.797 106.342 275.859 105.343 275.255 104.142Z" fill="#263238"/>
<path d="M259.995 102.564C260.011 103.21 259.899 103.852 259.667 104.455C259.434 105.057 259.085 105.607 258.639 106.073C257.446 107.316 255.981 106.445 255.583 104.858C255.231 103.425 255.43 101.058 256.985 100.405C257.327 100.27 257.697 100.223 258.062 100.269C258.427 100.314 258.775 100.45 259.074 100.665C259.373 100.879 259.614 101.165 259.775 101.497C259.936 101.828 260.011 102.195 259.995 102.564Z" fill="#F6CCBD"/>
<path d="M298.457 307.051L298.461 307.074H289.414L289.393 307.003L289.27 306.583C289.162 306.215 289.003 305.671 288.8 304.972C288.394 303.574 287.81 301.552 287.1 299.06C285.678 294.076 283.748 287.21 281.715 279.679C277.649 264.617 273.174 246.906 271.529 236.292L271.431 236.307L271.529 236.292C269.487 223.156 268.036 205.397 267.096 190.921C266.626 183.683 266.284 177.267 266.059 172.66C265.947 170.357 265.864 168.505 265.809 167.23C265.781 166.593 265.761 166.099 265.747 165.765L265.732 165.385L265.73 165.347L285.631 162.744C288.185 165.483 289.425 168.242 289.914 171.662C290.407 175.105 290.139 179.217 289.679 184.658C289.621 185.336 289.561 186.034 289.499 186.753C288.562 197.588 287.201 213.335 289.185 238.256C290.021 248.757 292.345 265.992 294.459 280.598C295.517 287.902 296.521 294.55 297.262 299.372C297.632 301.783 297.937 303.737 298.148 305.089C298.254 305.765 298.337 306.29 298.393 306.646L298.457 307.051Z" fill="white" stroke="black" stroke-width="0.2"/>
<path d="M273.347 179.416C273.347 179.416 269.171 178.69 266.73 186.671C267.634 201.789 269.18 221.85 271.431 236.306C271.928 239.526 272.687 243.408 273.618 247.661C271.855 222.122 273.347 179.416 273.347 179.416Z" fill="#C0C0C0"/>
<path d="M268.004 238.117L268.004 238.117C267.602 248.704 267.762 265.974 268.023 280.596C268.154 287.907 268.309 294.557 268.432 299.378C268.494 301.789 268.547 303.743 268.585 305.095C268.604 305.77 268.619 306.295 268.63 306.651L268.642 307.056L268.643 307.091H259.673L259.664 307.034L259.598 306.618C259.541 306.253 259.456 305.714 259.348 305.021C259.132 303.634 258.822 301.629 258.45 299.155C257.704 294.208 256.706 287.387 255.693 279.892C253.667 264.902 251.584 247.222 251.353 236.45C251.132 226.097 252.923 208.541 254.771 193.568C255.694 186.083 256.632 179.245 257.339 174.279C257.692 171.796 257.987 169.78 258.195 168.386C258.298 167.688 258.38 167.146 258.436 166.779C258.463 166.595 258.485 166.455 258.499 166.36L258.509 166.292L278.278 163.716L278.275 163.73L278.196 164.165C278.127 164.548 278.026 165.112 277.897 165.837C277.638 167.289 277.268 169.389 276.82 171.981C275.925 177.164 274.723 184.316 273.492 192.189C271.031 207.934 268.456 226.57 268.004 238.117Z" fill="white" stroke="black" stroke-width="0.2"/>
<path d="M299.916 307.608H287.63L286.672 303.473L299.825 303.563L299.916 307.608Z" fill="#313B6B"/>
<path opacity="0.2" d="M299.916 307.608H287.63L286.672 303.473L299.825 303.563L299.916 307.608Z" fill="black"/>
<path d="M285.208 121.119C288.742 121.464 294.112 131.539 294.112 131.539L285.19 138.405C285.19 138.405 277.804 131.902 278.681 128.247C279.594 124.447 281.818 120.802 285.208 121.119Z" fill="#313B6B"/>
<path opacity="0.1" d="M285.208 121.119C288.742 121.464 294.112 131.539 294.112 131.539L285.19 138.405C285.19 138.405 277.804 131.902 278.681 128.247C279.594 124.447 281.818 120.802 285.208 121.119Z" fill="black"/>
<path d="M282.541 125.455C281.64 125.212 280.707 125.108 279.774 125.147C279.3 126.138 278.933 127.178 278.681 128.248C277.777 131.876 285.189 138.406 285.189 138.406L285.849 137.898L282.541 125.455Z" fill="#313B6B"/>
<path opacity="0.3" d="M282.541 125.455C281.64 125.212 280.707 125.108 279.774 125.147C279.3 126.138 278.933 127.178 278.681 128.248C277.777 131.876 285.189 138.406 285.189 138.406L285.849 137.898L282.541 125.455Z" fill="black"/>
<path d="M247.46 156.069L247.46 156.07L247.153 157.076L247.153 157.076L247.152 157.078C247.063 157.392 247.063 157.725 247.152 158.04L247.154 158.047L247.157 158.053C247.675 159.204 248.496 160.19 249.532 160.906C252.218 162.839 255.142 164.414 258.232 165.593L257.46 168.757C253.676 168.245 250.016 167.042 246.664 165.207L246.663 165.207C244.595 164.099 242.911 162.387 241.833 160.299C241.218 158.971 241.004 157.49 241.218 156.041L241.218 156.041L241.219 156.038C241.239 155.861 241.269 155.687 241.307 155.514C241.307 155.513 241.307 155.513 241.307 155.513L241.398 155.133L241.398 155.133L241.398 155.132L241.551 154.444C241.551 154.444 241.551 154.443 241.551 154.443C241.66 153.982 241.768 153.538 241.885 153.086L241.885 153.085C242.788 149.462 243.944 146.019 245.164 142.601C246.373 139.214 247.635 135.873 249.055 132.541L255.265 135.185C254.885 136.149 254.502 137.116 254.118 138.084C251.912 143.652 249.683 149.28 247.85 154.842C247.737 155.167 247.641 155.482 247.545 155.796C247.517 155.887 247.489 155.978 247.46 156.069Z" fill="#F6CCBD" stroke="black" stroke-width="0.2"/>
<path d="M249.906 125.953C249.906 125.953 246.851 127.504 258.422 166.202L285.705 162.629C283.788 151.546 282.884 144.681 285.208 121.119C281.295 120.838 277.368 120.838 273.456 121.119C269.29 121.362 265.148 121.908 261.062 122.751C255.828 123.921 249.906 125.953 249.906 125.953Z" fill="#313B6B"/>
<path opacity="0.1" d="M249.906 125.953C249.906 125.953 246.851 127.504 258.422 166.202L285.705 162.629C283.788 151.546 282.884 144.681 285.208 121.119C281.295 120.838 277.368 120.838 273.456 121.119C269.29 121.362 265.148 121.908 261.062 122.751C255.828 123.921 249.906 125.953 249.906 125.953Z" fill="black"/>
<path d="M285.904 160.968L287.468 163.245C287.585 163.426 287.386 163.644 287.079 163.689L258.467 167.444C258.223 167.444 257.997 167.38 257.961 167.226L257.4 164.805C257.355 164.641 257.554 164.469 257.825 164.433L285.452 160.805C285.535 160.792 285.62 160.8 285.699 160.828C285.778 160.857 285.848 160.905 285.904 160.968Z" fill="#313B6B"/>
<path opacity="0.2" d="M285.904 160.968L287.468 163.245C287.585 163.426 287.386 163.644 287.079 163.689L258.467 167.444C258.223 167.444 257.997 167.38 257.961 167.226L257.4 164.805C257.355 164.641 257.554 164.469 257.825 164.433L285.452 160.805C285.535 160.792 285.62 160.8 285.699 160.828C285.778 160.857 285.848 160.905 285.904 160.968Z" fill="black"/>
<path d="M282.595 164.552L283.336 164.452C283.481 164.452 283.58 164.344 283.562 164.253L282.803 161.115C282.774 161.061 282.728 161.02 282.672 160.996C282.616 160.973 282.554 160.97 282.496 160.988L281.754 161.079C281.601 161.079 281.501 161.188 281.528 161.287L282.288 164.416C282.306 164.516 282.45 164.57 282.595 164.552Z" fill="#263238"/>
<path d="M264.66 166.873L265.401 166.774C265.546 166.774 265.654 166.665 265.627 166.574L264.868 163.436C264.838 163.383 264.792 163.341 264.736 163.317C264.681 163.292 264.619 163.287 264.56 163.3L263.819 163.4C263.674 163.4 263.566 163.509 263.593 163.599L264.352 166.737C264.37 166.873 264.515 166.928 264.66 166.873Z" fill="#263238"/>
<path d="M251.181 139.084C251.931 142.585 252.989 147.02 254.535 152.634L254.869 138.404L251.181 139.084Z" fill="#313B6B"/>
<path opacity="0.3" d="M251.181 139.084C251.931 142.585 252.989 147.02 254.535 152.634L254.869 138.404L251.181 139.084Z" fill="black"/>
<path d="M249.906 125.953C246.516 127.322 243.578 138.958 243.578 138.958L255.24 144.654C255.24 144.654 260.872 130.424 258.35 127.649C255.828 124.874 253.812 124.384 249.906 125.953Z" fill="#313B6B"/>
<path opacity="0.1" d="M249.906 125.953C246.516 127.322 243.578 138.958 243.578 138.958L255.24 144.654C255.24 144.654 260.872 130.424 258.35 127.649C255.828 124.874 253.812 124.384 249.906 125.953Z" fill="black"/>
<path d="M270.31 307.608H258.024L257.066 303.473L270.744 303.563L270.31 307.608Z" fill="#313B6B"/>
<path opacity="0.2" d="M270.31 307.608H258.024L257.066 303.473L270.744 303.563L270.31 307.608Z" fill="black"/>
<path d="M258.54 164.406L257.554 163.998C257.312 163.899 257.048 163.867 256.789 163.903C256.53 163.94 256.285 164.044 256.08 164.206C255.874 164.369 255.715 164.582 255.618 164.826C255.522 165.07 255.491 165.335 255.529 165.594L256.243 170.319C256.278 170.556 256.364 170.782 256.496 170.981C256.628 171.18 256.802 171.347 257.006 171.47C257.21 171.593 257.439 171.67 257.676 171.693C257.913 171.717 258.152 171.688 258.377 171.607C258.735 171.477 259.071 171.29 259.371 171.054C259.698 170.782 259.957 170.437 260.126 170.046C260.296 169.655 260.372 169.23 260.348 168.805L260.248 166.846C260.231 166.317 260.06 165.804 259.757 165.37C259.453 164.937 259.03 164.602 258.54 164.406Z" fill="#F6CCBD"/>
<path d="M279.039 164.715L277.806 164.901L276.174 165.934C275.592 167.248 274.416 169.916 274.373 170.069C274.329 170.222 272.826 177.855 272.08 181.653L272.866 194.397L272.923 197.168L273.714 196.602L277.481 190.677L278.76 179.177L279.039 164.715Z" fill="white"/>
</svg>
