<svg width="327" height="237" viewBox="0 0 327 237" fill="none" xmlns="http://www.w3.org/2000/svg">
<g clip-path="url(#clip0)">
<path d="M264.443 86.3924L264.444 86.3916C265.073 85.6682 265.506 84.6913 265.801 83.6173C266.096 82.5411 266.256 81.3509 266.33 80.186C266.478 77.8585 266.281 75.6045 266.103 74.5076C265.929 73.3704 266.696 72.3058 267.845 72.1339C269.005 71.9604 270.081 72.7234 270.254 73.851C270.332 74.3884 270.709 77.0084 270.55 80.0898C270.389 83.1835 269.69 86.6878 267.658 89.032C266.297 90.6005 264.446 91.5339 262.286 91.6836L262.058 91.6994L262.054 91.9286L261.667 113.965H257.043L256.776 103.569L256.77 103.341L256.543 103.326C254.304 103.176 252.414 102.242 251.015 100.636C248.983 98.2917 248.284 94.7873 248.124 91.6936C247.964 88.6123 248.341 85.9923 248.419 85.4548C248.592 84.3271 249.669 83.5641 250.828 83.7376C251.977 83.9095 252.744 84.9743 252.57 86.1118C252.392 87.2271 252.196 89.4811 252.343 91.8043C252.417 92.9668 252.577 94.1534 252.873 95.2267C253.167 96.2977 253.6 97.2721 254.229 97.9953L254.229 97.9955L254.236 98.003C254.813 98.6133 255.487 99.0331 256.374 99.1582L256.666 99.1994L256.659 98.9043L256.034 74.4258C256.034 74.4256 256.034 74.4254 256.034 74.4252C255.998 72.6789 257.406 71.25 259.18 71.25C260.959 71.25 262.363 72.6444 262.327 74.3873L262.327 74.3879L262.093 87.3024L262.087 87.6122L262.391 87.5522C263.222 87.388 263.897 87.0149 264.443 86.3924Z" fill="#E6E6E6" stroke="#313B6B" stroke-width="0.5"/>
<path d="M42.6529 113.351C41.267 113.24 40.081 112.688 39.1914 111.664C37.9002 110.167 37.4456 107.952 37.3391 105.988C37.2331 104.032 37.4744 102.375 37.5312 102.038L37.5312 102.038L37.5321 102.033C37.6277 101.371 38.2716 100.913 38.9674 101.011C39.6426 101.106 40.1012 101.743 40.0046 102.421C39.8846 103.134 39.7569 104.577 39.8508 106.065C39.8979 106.811 40.001 107.575 40.1918 108.267C40.3815 108.955 40.6622 109.588 41.0755 110.061C41.4304 110.497 41.9168 110.755 42.4783 110.841L42.7732 110.886L42.7658 110.587L42.3754 94.9743L42.3754 94.9743L42.3753 94.9724C42.341 93.9206 43.2016 93.0332 44.2726 93.0332C45.3494 93.0332 46.204 93.8878 46.1698 94.9339L46.1697 94.9373L46.0136 103.149L46.0079 103.445L46.3011 103.4C46.8698 103.314 47.3147 103.051 47.6649 102.621C48.0781 102.148 48.3589 101.515 48.5486 100.827C48.7394 100.134 48.8425 99.3706 48.8895 98.6249C48.9834 97.137 48.8558 95.6934 48.7358 94.9806C48.6392 94.3023 49.0977 93.6657 49.7729 93.5704C50.4675 93.4725 51.1103 93.9294 51.2077 94.5887C51.2116 94.6225 51.2172 94.6676 51.224 94.7234C51.2906 95.2632 51.4795 96.794 51.4011 98.5741C51.314 100.554 50.8974 102.788 49.6636 104.303C48.8136 105.287 47.6289 105.839 46.2821 105.95L46.0563 105.968L46.0526 106.195L45.8224 120.135H43.0334L42.8829 113.595L42.8777 113.369L42.6529 113.351Z" fill="#E6E6E6" stroke="#313B6B" stroke-width="0.5"/>
<path d="M330.137 159.475C330.137 167.535 325.464 175.25 316.932 182.301C308.401 189.35 296.043 195.709 280.749 201.055C250.164 211.745 207.895 218.361 161.194 218.361C114.492 218.361 72.2232 211.745 41.6381 201.055C26.3444 195.709 13.9857 189.35 5.45532 182.301C-3.07669 175.25 -7.75 167.535 -7.75 159.475C-7.75 151.414 -3.07669 143.699 5.45532 136.649C13.9857 129.599 26.3444 123.24 41.6381 117.895C72.2232 107.204 114.492 100.588 161.194 100.588C207.895 100.588 250.164 107.204 280.749 117.895C296.043 123.24 308.401 129.599 316.932 136.649C325.464 143.699 330.137 151.414 330.137 159.475Z" fill="url(#paint0_linear)" stroke="url(#paint1_linear)" stroke-width="0.5"/>
<path d="M209.934 114.928L209.932 114.926C208.417 113.954 207.969 111.979 208.948 110.492L208.948 110.491L217.371 97.513C217.371 97.5128 217.371 97.5125 217.371 97.5123C218.356 96.0176 220.359 95.572 221.869 96.5412C223.384 97.5136 223.832 99.4884 222.854 100.975L222.853 100.976L214.429 113.956L214.429 113.956L214.423 113.966C213.864 114.924 212.813 115.449 211.709 115.449C211.101 115.449 210.499 115.3 209.934 114.928Z" fill="#F6CCBD" stroke="#313B6B" stroke-width="0.5"/>
<path d="M235.812 86.1462C237.949 92.4767 234.485 99.3234 228.068 101.435C221.652 103.547 214.721 100.122 212.584 93.7913C210.447 87.4607 213.911 80.6141 220.328 78.5022C226.745 76.3903 233.676 79.8156 235.812 86.1462Z" fill="white" stroke="#313B6B" stroke-width="0.5"/>
<path d="M234.171 93.3565C234.171 95.7675 232.177 97.7365 229.736 97.7365C227.294 97.7365 225.3 95.7675 225.3 93.3565C225.3 90.9455 227.294 88.9766 229.736 88.9766C232.177 88.9766 234.171 90.9455 234.171 93.3565Z" fill="#313B6B"/>
<path d="M211.104 90.5011L211.104 90.501L211.099 90.5001C210.493 90.4004 210.06 89.834 210.126 89.2478L210.126 89.2478L210.127 89.2432C210.806 82.0239 217.12 76.4156 224.72 76.7315C231.837 77.0475 237.631 82.7338 237.991 89.755C238.07 91.3732 237.871 92.9135 237.47 94.3769C237.306 94.9607 236.708 95.3031 236.086 95.202L211.104 90.5011Z" fill="#F6CCBD" stroke="#313B6B" stroke-width="0.5"/>
<path d="M102.98 109.238H211.628C213.89 109.238 215.775 111.096 215.854 113.332V123.012C215.854 123.468 215.487 123.807 215.046 123.807H99.6433C99.1743 123.807 98.8353 123.44 98.8353 123.012V113.328C98.8353 111.058 100.674 109.238 102.98 109.238Z" fill="#F6CCBD" stroke="#313B6B" stroke-width="0.5"/>
<path d="M184.643 105.17V105.42H184.893H186.439C188.582 105.42 190.259 107.118 190.259 109.188C190.259 111.257 188.542 112.957 186.439 112.957H157.996H157.883L157.808 113.041C153.011 118.494 145.917 121.958 138.016 121.958C123.977 121.958 111.816 112.169 111.816 95.8875C111.816 83.5239 116.636 74.9074 123.584 69.3762C130.539 63.8385 139.646 61.3789 148.23 61.3789C168.319 61.3789 184.643 77.464 184.643 97.3341V105.17Z" fill="white" stroke="#313B6B" stroke-width="0.5"/>
<path d="M139.318 108.99C133.092 108.99 126.419 104.932 126.419 95.9708C126.419 85.3624 133.215 78.5312 143.713 78.5312C153.113 78.5312 160.763 86.0857 160.763 95.3681C160.763 96.9754 159.42 98.3014 157.792 98.3014C156.165 98.3014 154.822 96.9754 154.822 95.3681C154.822 89.3406 149.858 84.4382 143.754 84.4382C139.522 84.4382 132.441 85.925 132.441 96.011C132.441 102.802 138.22 103.123 139.4 103.123C142.289 103.123 144.608 100.793 144.608 97.98C144.608 96.4932 143.957 95.0868 142.818 94.0822C141.597 92.9972 141.434 91.1488 142.533 89.9433C143.632 88.7378 145.503 88.5771 146.724 89.662C149.166 91.7516 150.549 94.8055 150.549 97.98C150.509 104.048 145.503 108.99 139.318 108.99Z" fill="#313B6B"/>
<path d="M199.354 115.852L199.352 115.85C197.837 114.878 197.389 112.903 198.367 111.416L198.368 111.415L206.791 98.4368C206.791 98.4366 206.791 98.4364 206.791 98.4362C207.775 96.9415 209.779 96.4958 211.289 97.465C212.804 98.4374 213.252 100.412 212.273 101.899L212.273 101.9L203.849 114.88L203.849 114.879L203.843 114.89C203.283 115.848 202.233 116.373 201.129 116.373C200.521 116.373 199.919 116.224 199.354 115.852Z" fill="#F6CCBD" stroke="#313B6B" stroke-width="0.5"/>
<path d="M216.469 79.1897C223.051 80.7246 227.123 87.2367 225.57 93.7304C224.018 100.224 217.426 104.25 210.843 102.715C204.261 101.18 200.189 94.6679 201.742 88.1742C203.295 81.6805 209.886 77.6548 216.469 79.1897Z" fill="white" stroke="#313B6B" stroke-width="0.5"/>
<path d="M222.818 93.8409C222.818 96.2519 220.824 98.2209 218.383 98.2209C215.941 98.2209 213.947 96.2519 213.947 93.8409C213.947 91.4299 215.941 89.4609 218.383 89.4609C220.865 89.4609 222.818 91.4299 222.818 93.8409Z" fill="#313B6B"/>
<path d="M200.524 91.421L200.524 91.421L200.518 91.42C199.912 91.3203 199.48 90.754 199.546 90.1677L199.546 90.1677L199.547 90.1632C200.226 82.9438 206.539 77.3356 214.14 77.6514C221.215 77.9674 227.01 83.6529 227.41 90.6754C227.49 92.2935 227.291 93.8336 226.89 95.2969C226.725 95.8806 226.128 96.223 225.506 96.1219L200.524 91.421Z" fill="#F6CCBD" stroke="#313B6B" stroke-width="0.5"/>
<path d="M168.942 44.8143C168.942 45.5376 168.616 46.3011 167.965 46.7833C166.866 47.6271 165.32 47.4262 164.466 46.3412C161.047 41.9613 155.839 39.4297 150.264 39.4297C144.608 39.4297 139.399 42.0014 135.981 46.4618C135.127 47.5467 133.58 47.7477 132.482 46.944C131.383 46.1001 131.18 44.5732 131.993 43.4882C136.388 37.7822 143.021 34.5273 150.264 34.5273C157.426 34.5273 164.059 37.742 168.453 43.3677C168.779 43.7695 168.942 44.2919 168.942 44.8143Z" fill="#313B6B"/>
<path d="M159.827 52.5679C159.827 53.2912 159.501 54.0547 158.85 54.5369C157.752 55.3808 156.205 55.1798 155.351 54.0949C154.13 52.5277 152.258 51.6035 150.264 51.6035C148.23 51.6035 146.358 52.5278 145.137 54.1351C144.283 55.22 142.736 55.421 141.638 54.6173C140.539 53.7735 140.336 52.2465 141.149 51.1615C143.347 48.3085 146.643 46.7012 150.264 46.7012C153.845 46.7012 157.141 48.3085 159.298 51.0811C159.624 51.5232 159.827 52.0456 159.827 52.5679Z" fill="#313B6B"/>
<path d="M175.737 36.2547C175.737 36.978 175.412 37.7415 174.761 38.2237C173.662 39.0675 172.116 38.8666 171.261 37.7817C166.215 31.3121 158.565 27.6153 150.305 27.6153C141.963 27.6153 134.272 31.3925 129.186 37.9826C128.331 39.0675 126.785 39.2684 125.686 38.4648C124.588 37.6209 124.384 36.0939 125.198 35.009C131.22 27.1732 140.335 22.7129 150.305 22.7129C160.152 22.7129 169.227 27.1331 175.249 34.8081C175.575 35.2099 175.737 35.7323 175.737 36.2547Z" fill="#313B6B"/>
</g>
<defs>
<linearGradient id="paint0_linear" x1="161.19" y1="73.5135" x2="161.744" y2="178.852" gradientUnits="userSpaceOnUse">
<stop stop-color="white"/>
<stop offset="1" stop-color="#F5F6F9"/>
</linearGradient>
<linearGradient id="paint1_linear" x1="161.194" y1="100.338" x2="161.194" y2="156.008" gradientUnits="userSpaceOnUse">
<stop stop-color="#313B6B" stop-opacity="0.6"/>
<stop offset="1" stop-color="#313B6B" stop-opacity="0"/>
</linearGradient>
<clipPath id="clip0">
<rect width="327" height="237" fill="white"/>
</clipPath>
</defs>
</svg>
