<svg width="375" height="138" viewBox="0 0 375 138" fill="none" xmlns="http://www.w3.org/2000/svg">
<path d="M335.731 18.7062L335.731 18.7054C336.466 17.8607 336.974 16.7177 337.319 15.4569C337.666 14.1937 337.854 12.7958 337.941 11.4264C338.115 8.68979 337.884 6.03954 337.674 4.75137C337.466 3.38869 338.385 2.1123 339.762 1.90627C341.151 1.69859 342.441 2.612 342.649 3.96518C342.741 4.5986 343.186 7.68637 342.998 11.3182C342.809 14.9627 341.985 19.1008 339.582 21.8719C337.972 23.7273 335.781 24.8315 333.227 25.0085L332.999 25.0243L332.995 25.2535L332.539 51.2389H327.007L326.692 38.957L326.686 38.7291L326.459 38.7139C323.811 38.5367 321.576 37.4315 319.92 35.5321C317.518 32.7609 316.694 28.6228 316.505 24.9783C316.317 21.3462 316.762 18.2582 316.853 17.6251C317.061 16.272 318.352 15.3587 319.74 15.5664C321.118 15.7724 322.037 17.049 321.829 18.4119C321.619 19.7219 321.388 22.3722 321.562 25.1035C321.649 26.4701 321.837 27.8638 322.184 29.1235C322.529 30.381 323.037 31.521 323.771 32.3655L323.771 32.3656L323.778 32.3731C324.452 33.086 325.237 33.574 326.269 33.7196L326.562 33.7609L326.554 33.4657L325.819 4.64909C325.819 4.64887 325.819 4.64865 325.819 4.64843C325.776 2.56739 327.453 0.865234 329.568 0.865234C331.686 0.865234 333.359 2.52607 333.316 4.60371L333.316 4.60435L333.041 19.8075L333.035 20.1173L333.339 20.0573C334.309 19.8658 335.094 19.4311 335.731 18.7062Z" fill="#E6E6E6" stroke="#313B6B" stroke-width="0.5"/>
<path d="M50.2194 27.8047L50.2138 28.1011L50.5069 28.0566C51.1656 27.9565 51.6797 27.6527 52.0853 27.1538C52.5661 26.6044 52.8945 25.8654 53.1169 25.0586C53.3405 24.2477 53.4616 23.3517 53.5169 22.4757C53.6272 20.7274 53.4771 19.031 53.3363 18.1952C53.2189 17.3735 53.7744 16.6002 54.595 16.4844C55.4349 16.366 56.2162 16.9186 56.3345 17.7212C56.339 17.761 56.3456 17.8143 56.3537 17.8803C56.4321 18.5155 56.655 20.3211 56.5625 22.4206C56.4597 24.7543 55.9688 27.3958 54.5064 29.1918C53.4972 30.36 52.0909 31.0142 50.4948 31.1455L50.2691 31.1641L50.2653 31.3905L49.9936 47.8454H46.623L46.4448 40.1023L46.4396 39.8769L46.2148 39.8589C44.5727 39.7274 43.1652 39.073 42.1095 37.8571C40.5793 36.0834 40.0432 33.4643 39.9177 31.1485C39.7926 28.8417 40.0773 26.8872 40.1444 26.4896L40.1445 26.4896L40.1453 26.4837C40.2617 25.6791 41.0441 25.1246 41.8853 25.2433C42.7059 25.359 43.2614 26.1322 43.144 26.954C43.0033 27.7898 42.8531 29.4862 42.9635 31.2345C43.0187 32.1105 43.1398 33.0065 43.3634 33.8174C43.5858 34.6243 43.9142 35.3632 44.395 35.9126C44.8053 36.417 45.3679 36.7164 46.0194 36.8154L46.3143 36.8602L46.3068 36.562L45.8472 18.1821L45.8472 18.1821L45.8472 18.1802C45.8059 16.9166 46.8396 15.8516 48.1253 15.8516C49.4168 15.8516 50.4444 16.877 50.4033 18.1348L50.4033 18.1382L50.2194 27.8047Z" fill="#E6E6E6" stroke="#313B6B" stroke-width="0.5"/>
<path d="M384.738 94.1128C384.738 103.62 379.225 112.714 369.174 121.018C359.125 129.321 344.569 136.809 326.56 143.103C290.544 155.69 240.773 163.479 185.784 163.479C130.796 163.479 81.0247 155.69 45.0089 143.103C26.9998 136.809 12.4437 129.321 2.39469 121.018C-7.65591 112.714 -13.1689 103.62 -13.1689 94.1128C-13.1689 84.6051 -7.65591 75.5119 2.39469 67.2075C12.4437 58.9046 26.9998 51.4161 45.0089 45.1223C81.0247 32.5357 130.796 24.7461 185.784 24.7461C240.773 24.7461 290.544 32.5357 326.56 45.1223C344.569 51.4161 359.125 58.9046 369.174 67.2075C379.225 75.5119 384.738 84.6051 384.738 94.1128Z" fill="url(#paint0_linear)" stroke="url(#paint1_linear)" stroke-width="0.5"/>
<defs>
<linearGradient id="paint0_linear" x1="185.78" y1="-7.08201" x2="186.433" y2="116.924" gradientUnits="userSpaceOnUse">
<stop stop-color="white"/>
<stop offset="1" stop-color="#F5F6F9"/>
</linearGradient>
<linearGradient id="paint1_linear" x1="185.784" y1="24.4961" x2="185.784" y2="90.0318" gradientUnits="userSpaceOnUse">
<stop stop-color="#313B6B" stop-opacity="0.6"/>
<stop offset="1" stop-color="#313B6B" stop-opacity="0"/>
</linearGradient>
</defs>
</svg>
