<svg width="75" height="51" viewBox="0 0 75 51" fill="none" xmlns="http://www.w3.org/2000/svg">
<path d="M74.6815 40.1251L68.3669 10.2892C66.9349 4.44175 64.6495 0 54.144 0H20.8495C10.1824 0 8.05862 4.44175 6.62663 10.2892L0.323308 40.1251C-0.808057 45.0697 1.0393 49.0013 5.71669 50.5317C10.3941 52.062 14.0613 49.7071 16.6764 45.1132L19.1686 40.6902C19.3845 40.3075 19.7145 39.986 20.1219 39.7613C20.5294 39.5367 20.9983 39.4178 21.4766 39.4179H53.5234C54.0017 39.4178 54.4706 39.5367 54.8781 39.7613C55.2855 39.986 55.6155 40.3075 55.8314 40.6902L58.3236 45.1132C60.9322 49.7071 64.6075 52.0692 69.2833 50.5317C73.9591 48.9941 75.8016 45.0697 74.6815 40.1251ZM33.6178 23.187H25.8599V30.1431H20.6879V23.187H12.93V18.5496H20.6879V11.5935H25.8599V18.5496H33.6178V23.187ZM44.6082 23.7666C43.9689 23.7666 43.3439 23.5967 42.8123 23.2782C42.2808 22.9597 41.8664 22.507 41.6218 21.9774C41.3771 21.4478 41.3131 20.8651 41.4378 20.3028C41.5626 19.7406 41.8704 19.2242 42.3225 18.8188C42.7746 18.4135 43.3505 18.1374 43.9776 18.0256C44.6046 17.9138 45.2546 17.9712 45.8452 18.1905C46.4359 18.4099 46.9407 18.7814 47.2959 19.258C47.6511 19.7347 47.8407 20.295 47.8407 20.8683C47.8407 21.637 47.5001 22.3742 46.8939 22.9177C46.2877 23.4613 45.4655 23.7666 44.6082 23.7666ZM51.7196 30.1431C51.0803 30.1431 50.4554 29.9731 49.9238 29.6546C49.3922 29.3361 48.9779 28.8835 48.7332 28.3538C48.4886 27.8242 48.4246 27.2415 48.5493 26.6793C48.674 26.117 48.9819 25.6006 49.4339 25.1952C49.886 24.7899 50.462 24.5138 51.089 24.402C51.7161 24.2902 52.366 24.3476 52.9567 24.5669C53.5473 24.7863 54.0522 25.1578 54.4073 25.6344C54.7625 26.1111 54.9521 26.6714 54.9521 27.2447C54.9521 28.0134 54.6116 28.7506 54.0054 29.2942C53.3991 29.8377 52.577 30.1431 51.7196 30.1431ZM51.7196 17.3902C51.0803 17.3902 50.4554 17.2202 49.9238 16.9018C49.3922 16.5833 48.9779 16.1306 48.7332 15.601C48.4886 15.0714 48.4246 14.4886 48.5493 13.9264C48.674 13.3642 48.9819 12.8477 49.4339 12.4424C49.886 12.0371 50.462 11.761 51.089 11.6492C51.7161 11.5373 52.366 11.5947 52.9567 11.8141C53.5473 12.0335 54.0522 12.405 54.4073 12.8816C54.7625 13.3582 54.9521 13.9186 54.9521 14.4919C54.9521 15.2606 54.6116 15.9978 54.0054 16.5413C53.3991 17.0849 52.577 17.3902 51.7196 17.3902ZM58.8311 23.7666C58.1918 23.7666 57.5668 23.5967 57.0352 23.2782C56.5036 22.9597 56.0893 22.507 55.8447 21.9774C55.6 21.4478 55.536 20.8651 55.6607 20.3028C55.7854 19.7406 56.0933 19.2242 56.5454 18.8188C56.9974 18.4135 57.5734 18.1374 58.2005 18.0256C58.8275 17.9138 59.4774 17.9712 60.0681 18.1905C60.6588 18.4099 61.1636 18.7814 61.5188 19.258C61.874 19.7347 62.0636 20.295 62.0636 20.8683C62.0636 21.637 61.723 22.3742 61.1168 22.9177C60.5106 23.4613 59.6884 23.7666 58.8311 23.7666Z" fill="#15A78D"/>
</svg>
