<svg width="32" height="32" viewBox="0 0 32 32" fill="none" xmlns="http://www.w3.org/2000/svg">
<path fill-rule="evenodd" clip-rule="evenodd" d="M16.181 0.0532227C14.9947 0.0532227 14.033 1.01494 14.033 2.20127V13.6571H2.57676C1.39043 13.6571 0.428711 14.6188 0.428711 15.8051C0.428711 16.9914 1.39043 17.9532 2.57676 17.9532H14.033V29.4099C14.033 30.5962 14.9947 31.5579 16.181 31.5579C17.3674 31.5579 18.3291 30.5962 18.3291 29.4099V17.9532H29.7854C30.9717 17.9532 31.9334 16.9914 31.9334 15.8051C31.9334 14.6188 30.9717 13.6571 29.7854 13.6571H18.3291V2.20127C18.3291 1.01494 17.3674 0.0532227 16.181 0.0532227Z" fill="#313B6C" style="mix-blend-mode:color-burn"/>
<path fill-rule="evenodd" clip-rule="evenodd" d="M16.181 0.0532227C14.9947 0.0532227 14.033 1.01494 14.033 2.20127V13.6571H2.57676C1.39043 13.6571 0.428711 14.6188 0.428711 15.8051C0.428711 16.9914 1.39043 17.9532 2.57676 17.9532H14.033V29.4099C14.033 30.5962 14.9947 31.5579 16.181 31.5579C17.3674 31.5579 18.3291 30.5962 18.3291 29.4099V17.9532H29.7854C30.9717 17.9532 31.9334 16.9914 31.9334 15.8051C31.9334 14.6188 30.9717 13.6571 29.7854 13.6571H18.3291V2.20127C18.3291 1.01494 17.3674 0.0532227 16.181 0.0532227Z" fill="#313B6C" fill-opacity="0.5"/>
</svg>
