<svg width="19" height="19" viewBox="0 0 19 19" fill="none" xmlns="http://www.w3.org/2000/svg">
<path fill-rule="evenodd" clip-rule="evenodd" d="M5.03653 0C3.70582 0 2.54587 0.90566 2.22312 2.19665L0.0865257 10.743C0.0290183 10.9731 -6.10352e-05 11.2093 -6.10352e-05 11.4464V15.2086C-6.10352e-05 16.8102 1.29831 18.1086 2.89994 18.1086H16.0669C17.6685 18.1086 18.9669 16.8102 18.9669 15.2086V11.4464C18.9669 11.2093 18.9378 10.9731 18.8803 10.743L16.7437 2.19665C16.421 0.905663 15.261 0 13.9303 0H5.03653ZM3.96938 2.63321C4.0918 2.14353 4.53178 1.8 5.03653 1.8H13.9303C14.4351 1.8 14.875 2.14353 14.9975 2.63321L17.134 11.1796C17.1358 11.1864 17.1374 11.1933 17.139 11.2002H13.9872C13.3185 11.2002 12.694 11.5344 12.3231 12.0908L11.7938 12.8846C11.4229 13.441 10.7984 13.7752 10.1297 13.7752H8.83709C8.16838 13.7752 7.54392 13.441 7.17299 12.8846L6.64376 12.0908C6.27283 11.5344 5.64836 11.2002 4.97966 11.2002H1.82785C1.82942 11.1933 1.83107 11.1864 1.83278 11.1796L3.96938 2.63321Z" fill="#66676C"/>
</svg>
