<svg width="16" height="16" viewBox="0 0 16 16" fill="none" xmlns="http://www.w3.org/2000/svg">
<g clip-path="url(#clip0)">
<path d="M14.2706 0H12.0312C11.7724 0 11.5625 0.209875 11.5625 0.46875C11.5625 0.727625 11.7724 0.9375 12.0312 0.9375H14.2706C14.7073 0.9375 15.0625 1.29275 15.0625 1.72941V3.96875C15.0625 4.22762 15.2724 4.4375 15.5312 4.4375C15.7901 4.4375 16 4.22762 16 3.96875V1.72941C16 0.775813 15.2242 0 14.2706 0V0Z" fill="white" stroke="white" stroke-width="0.75" stroke-linecap="round" stroke-linejoin="round"/>
<path d="M0.46875 4.4375C0.727625 4.4375 0.9375 4.22762 0.9375 3.96875V1.72941C0.9375 1.29275 1.29275 0.9375 1.72938 0.9375H3.96875C4.22762 0.9375 4.4375 0.727625 4.4375 0.46875C4.4375 0.209875 4.22762 0 3.96875 0H1.72938C0.775813 0 0 0.775813 0 1.72941V3.96875C0 4.22762 0.209875 4.4375 0.46875 4.4375Z" fill="white" stroke="white" stroke-width="0.75" stroke-linecap="round" stroke-linejoin="round"/>
<path d="M3.96875 15.0625H1.72938C1.29275 15.0625 0.9375 14.7072 0.9375 14.2706V12.0312C0.9375 11.7724 0.727625 11.5625 0.46875 11.5625C0.209875 11.5625 0 11.7724 0 12.0312V14.2706C0 15.2242 0.775813 16 1.72938 16H3.96875C4.22762 16 4.4375 15.7901 4.4375 15.5312C4.4375 15.2724 4.22762 15.0625 3.96875 15.0625Z" fill="white" stroke="white" stroke-width="0.75" stroke-linecap="round" stroke-linejoin="round"/>
<path d="M15.5312 11.5625C15.2724 11.5625 15.0625 11.7724 15.0625 12.0312V14.2706C15.0625 14.7072 14.7073 15.0625 14.2706 15.0625H12.0312C11.7724 15.0625 11.5625 15.2724 11.5625 15.5312C11.5625 15.7901 11.7724 16 12.0312 16H14.2706C15.2242 16 16 15.2242 16 14.2706V12.0312C16 11.7724 15.7901 11.5625 15.5312 11.5625Z" fill="white" stroke="white" stroke-width="0.75" stroke-linecap="round" stroke-linejoin="round"/>
<path d="M0.03125 8C0.03125 8.25888 0.241125 8.46875 0.5 8.46875H15.5C15.7589 8.46875 15.9688 8.25888 15.9688 8C15.9688 7.74112 15.7589 7.53125 15.5 7.53125H0.5C0.241125 7.53125 0.03125 7.74112 0.03125 8Z" fill="white" stroke="white" stroke-width="0.5" stroke-linecap="round" stroke-linejoin="round"/>
</g>
<defs>
<clipPath id="clip0">
<rect width="16" height="16" fill="white"/>
</clipPath>
</defs>
</svg>
