<svg width="16" height="16" viewBox="0 0 16 16" fill="none" xmlns="http://www.w3.org/2000/svg">
<circle cx="8" cy="8" r="7.34375" stroke="#313B6C" stroke-opacity="0.5" stroke-width="1.3125"/>
<path d="M8.52682 9.44H7.30287C7.30287 9.14575 7.36673 8.86988 7.49445 8.61241C7.62216 8.34759 7.77826 8.12322 7.96274 7.93931C8.14722 7.74805 8.3317 7.56782 8.51618 7.39862C8.70066 7.22207 8.85675 7.0308 8.98447 6.82483C9.11219 6.61885 9.17604 6.4092 9.17604 6.19586C9.17604 5.89425 9.07316 5.65885 8.8674 5.48966C8.66163 5.32046 8.38491 5.23586 8.03724 5.23586C7.70376 5.23586 7.4164 5.32414 7.17516 5.50069C6.93392 5.67724 6.76008 5.92736 6.65365 6.25103L5.59999 5.6331C5.79157 5.11816 6.10731 4.71724 6.54722 4.43035C6.99423 4.14345 7.50154 4 8.06917 4C8.70775 4 9.25409 4.18759 9.70819 4.56276C10.1694 4.93793 10.4 5.45655 10.4 6.11862C10.4 6.42023 10.3361 6.70713 10.2084 6.97931C10.0807 7.25149 9.9246 7.48322 9.74012 7.67448C9.55564 7.86575 9.37117 8.05333 9.18669 8.23724C9.00221 8.41379 8.84611 8.60506 8.71839 8.81103C8.59068 9.01701 8.52682 9.22667 8.52682 9.44ZM7.92017 10.3448C8.14012 10.3448 8.32815 10.4257 8.48425 10.5876C8.64035 10.7494 8.71839 10.9444 8.71839 11.1724C8.71839 11.4005 8.64035 11.5954 8.48425 11.7572C8.32815 11.9191 8.14012 12 7.92017 12C7.70021 12 7.51219 11.9191 7.35609 11.7572C7.19999 11.5954 7.12194 11.4005 7.12194 11.1724C7.12194 10.9444 7.19644 10.7494 7.34545 10.5876C7.50154 10.4257 7.69312 10.3448 7.92017 10.3448Z" fill="#313B6C" fill-opacity="0.5"/>
</svg>
