<svg width="34" height="34" viewBox="0 0 34 34" fill="none" xmlns="http://www.w3.org/2000/svg">
<rect width="34" height="34" rx="12" fill="#595F80"/>
<g clip-path="url(#clip0)">
<path d="M20.2499 18.7504C19.8352 18.7504 19.4999 19.0864 19.4999 19.5003V22.5004C19.4999 22.9136 19.1639 23.2503 18.7499 23.2503H16.4999V12.0004C16.4999 11.3599 16.0919 10.7877 15.4784 10.5747L15.2564 10.5004H18.7499C19.1639 10.5004 19.4999 10.8371 19.4999 11.2505V13.5004C19.4999 13.9144 19.8352 14.2504 20.2499 14.2504C20.6646 14.2504 20.9998 13.9144 20.9998 13.5004V11.2505C20.9998 10.01 19.9903 9.00049 18.7499 9.00049H10.6875C10.6589 9.00049 10.635 9.01326 10.6073 9.01697C10.5712 9.01395 10.5367 9.00049 10.5 9.00049C9.67277 9.00049 9 9.67312 9 10.5004V24.0003C9 24.6408 9.408 25.213 10.0214 25.426L14.535 26.9306C14.688 26.9778 14.8401 27.0003 15 27.0003C15.8272 27.0003 16.4999 26.3276 16.4999 25.5003V24.7503H18.7499C19.9903 24.7503 20.9998 23.7409 20.9998 22.5004V19.5003C20.9998 19.0864 20.6646 18.7504 20.2499 18.7504Z" fill="white"/>
<path d="M26.7801 15.9699L23.7801 12.97C23.5657 12.7554 23.2431 12.6909 22.9627 12.8071C22.6829 12.9234 22.4999 13.1971 22.4999 13.5002V15.7502H19.5C19.0859 15.7502 18.7499 16.0861 18.7499 16.5001C18.7499 16.9141 19.0859 17.25 19.5 17.25H22.4999V19.5C22.4999 19.8031 22.6829 20.0768 22.9627 20.1931C23.2431 20.3093 23.5657 20.2447 23.7801 20.0304L26.7801 17.0303C27.0733 16.7371 27.0733 16.2631 26.7801 15.9699Z" fill="white"/>
</g>
<defs>
<clipPath id="clip0">
<rect width="18" height="18" fill="white" transform="translate(9 9)"/>
</clipPath>
</defs>
</svg>
