<svg width="34" height="34" viewBox="0 0 34 34" fill="none" xmlns="http://www.w3.org/2000/svg">
<rect width="34" height="34" rx="12" fill="#FF4069"/>
<path d="M16.0825 8.11573C16.4307 7.31285 17.5693 7.31285 17.9175 8.11573L19.6418 12.0923C19.9316 12.7606 20.5619 13.2185 21.287 13.2876L25.6018 13.6988C26.473 13.7818 26.8249 14.8646 26.1689 15.4439L22.9198 18.3127C22.3737 18.7948 22.133 19.5357 22.2914 20.2467L23.2337 24.4774C23.4239 25.3316 22.5028 26.0008 21.7492 25.5559L18.0168 23.3524C17.3895 22.982 16.6105 22.982 15.9832 23.3524L12.2508 25.5559C11.4972 26.0008 10.5761 25.3316 10.7663 24.4774L11.7086 20.2467C11.867 19.5357 11.6263 18.7948 11.0802 18.3127L7.83115 15.4439C7.17515 14.8646 7.527 13.7818 8.39817 13.6988L12.713 13.2876C13.4381 13.2185 14.0684 12.7606 14.3582 12.0923L16.0825 8.11573Z" fill="white"/>
</svg>
