<svg width="45" height="45" viewBox="0 0 45 45" fill="none" xmlns="http://www.w3.org/2000/svg">
<path d="M32.9578 44.249L30.7106 0.749023H14.2316L11.9845 44.249H32.9578Z" fill="#00AC8A"/>
<path d="M30.7112 0.749023H28.464L30.7112 44.249H32.9583L30.7112 0.749023Z" fill="#00AC8A"/>
<path d="M14.2316 1.5H16.4788L14.2316 45H11.9845L14.2316 1.5Z" fill="white"/>
<path d="M37.6024 31.8746C35.6548 34.1995 36.9282 37.9496 39.9244 38.2495C40.0742 38.2495 40.2239 38.2495 40.3738 38.2495H40.4487C43.6695 38.1746 45.2425 34.2745 43.1452 31.8746L41.3475 29.6995C40.8232 29.0995 39.9244 29.0995 39.4 29.6995L37.6024 31.8746Z" fill="#00AC8A"/>
<path d="M1.64792 8.62481C-0.299623 10.9498 0.97378 14.6998 3.96992 14.9998C4.11976 14.9998 4.26951 14.9998 4.41935 14.9998H4.49431C7.71517 14.9248 9.28816 11.0247 7.19087 8.62481L5.46804 6.44978C4.94374 5.84975 4.04489 5.84975 3.5205 6.44978L1.64792 8.62481Z" fill="#00AC8A"/>
<path d="M1.64792 31.8746C-0.299623 34.1995 0.97378 37.9496 3.96992 38.2495C4.11976 38.2495 4.26951 38.2495 4.41935 38.2495H4.49431C7.71517 38.1746 9.28816 34.2745 7.19087 31.8746L5.39317 29.6995C4.86886 29.0995 3.97001 29.0995 3.44562 29.6995L1.64792 31.8746Z" fill="#00AC8A"/>
<path d="M37.6024 8.62481C35.6548 10.9498 36.9282 14.6998 39.9244 14.9998C40.0742 14.9998 40.224 14.9998 40.3738 14.9998H40.4487C43.6695 14.9248 45.2425 11.0247 43.1452 8.62481L41.3475 6.44978C40.8232 5.84975 39.9244 5.84975 39.4 6.44978L37.6024 8.62481Z" fill="#00AC8A"/>
<path d="M43.2948 8.62481L41.4971 6.44978C40.9728 5.84975 40.0739 5.84975 39.5495 6.44978L39.3997 6.59981L41.0475 8.54984C42.9201 10.7249 41.8715 14.0248 39.3247 14.7749C39.5494 14.8498 39.7741 14.9249 39.9988 14.9249C40.1487 14.9249 40.2984 14.9249 40.4483 14.9249H40.5232C43.7442 14.9248 45.3172 11.0248 43.2948 8.62481Z" fill="#00AC8A"/>
<path d="M43.2948 31.8746L41.4971 29.6995C40.9728 29.0995 40.0739 29.0995 39.5495 29.6995L39.3997 29.8496L41.0475 31.7996C42.9201 33.9746 41.8715 37.2746 39.3247 38.0246C39.5494 38.0996 39.7741 38.1747 39.9988 38.1747C40.1487 38.1747 40.2984 38.1747 40.4483 38.1747H40.5232C43.7442 38.1746 45.3172 34.2746 43.2948 31.8746Z" fill="#00AC8A"/>
<path d="M7.34076 8.62481L5.46809 6.44978C4.94379 5.84975 4.04494 5.84975 3.52055 6.44978L3.3708 6.59981L5.01867 8.54984C6.89125 10.7249 5.84265 14.0248 3.29584 14.7749C3.52055 14.8498 3.74526 14.9249 3.96998 14.9249C4.11982 14.9249 4.26957 14.9249 4.4194 14.9249H4.49437C7.79019 14.9248 9.36318 11.0248 7.34076 8.62481Z" fill="#00AC8A"/>
<path d="M7.34118 31.8746L5.54347 29.6995C5.01917 29.0995 4.12031 29.0995 3.59593 29.6995L3.44609 29.8496L5.09396 31.7996C6.96654 33.9746 5.91793 37.2746 3.37112 38.0246C3.59584 38.0996 3.82055 38.1747 4.04526 38.1747C4.1951 38.1747 4.34485 38.1747 4.49469 38.1747H4.56957C7.7906 38.1746 9.36359 34.2746 7.34118 31.8746Z" fill="#00AC8A"/>
<path d="M44.1936 1.49994H0.749014C0.299588 1.49994 0 1.19997 0 0.749971C0 0.299971 0.299588 0 0.749014 0H44.1935C44.6429 0 44.9425 0.299971 44.9425 0.749971C44.9425 1.19997 44.643 1.49994 44.1936 1.49994Z" fill="#313B6C"/>
<path d="M32.9579 44.9999H11.9847C11.76 44.9999 11.6101 44.9249 11.4604 44.7749C11.3105 44.6249 11.2357 44.3999 11.2357 44.2499L13.4828 0.74997C13.4828 0.299971 13.8573 0 14.2318 0H30.7107C31.0853 0 31.4597 0.299971 31.4597 0.675L33.707 44.1749C33.707 44.3999 33.6321 44.55 33.4823 44.6999C33.3324 44.9249 33.1827 44.9999 32.9579 44.9999ZM12.8086 43.4999H32.2088L30.0367 1.49994H14.9059L12.8086 43.4999Z" fill="#313B6C"/>
<path d="M22.4715 44.9999C22.0221 44.9999 21.7225 44.7 21.7225 44.25V39.75C21.7225 39.3 22.0221 39 22.4715 39C22.9209 39 23.2205 39.3 23.2205 39.75V44.25C23.2205 44.7 22.9209 44.9999 22.4715 44.9999Z" fill="#313B6C"/>
<path d="M22.4715 35.2497C22.0221 35.2497 21.7225 34.9497 21.7225 34.4997V29.9997C21.7225 29.5497 22.0221 29.2498 22.4715 29.2498C22.9209 29.2498 23.2205 29.5497 23.2205 29.9997V34.4997C23.2205 34.9497 22.9209 35.2497 22.4715 35.2497Z" fill="#313B6C"/>
<path d="M22.4715 25.5C22.0221 25.5 21.7225 25.2 21.7225 24.75V20.25C21.7225 19.8 22.0221 19.5 22.4715 19.5C22.9209 19.5 23.2205 19.8 23.2205 20.25V24.75C23.2205 25.1999 22.9209 25.5 22.4715 25.5Z" fill="#313B6C"/>
<path d="M22.4715 15.7497C22.0221 15.7497 21.7225 15.4497 21.7225 14.9997V10.4997C21.7225 10.0497 22.0221 9.74976 22.4715 9.74976C22.9209 9.74976 23.2205 10.0497 23.2205 10.4997V14.9997C23.2205 15.4497 22.9209 15.7497 22.4715 15.7497Z" fill="#313B6C"/>
<path d="M22.4715 5.99994C22.0221 5.99994 21.7225 5.69997 21.7225 5.24997V0.749971C21.7225 0.299971 22.0221 0 22.4715 0C22.9209 0 23.2205 0.299971 23.2205 0.749971V5.24997C23.2205 5.69997 22.9209 5.99994 22.4715 5.99994Z" fill="#313B6C"/>
<path d="M4.49457 15.7502C4.34473 15.7502 4.12002 15.7502 3.97027 15.7502C2.3224 15.6002 0.974123 14.5503 0.374859 12.9753C-0.29928 11.3253 0.000308212 9.5253 1.12387 8.1753L2.92158 6.00027C3.74556 5.0253 5.24358 5.0253 6.06756 6.00027L7.86527 8.1753C9.06371 9.60027 9.28842 11.4753 8.5394 13.1253C7.79039 14.7003 6.29227 15.7503 4.56945 15.7503H4.49457V15.7502ZM4.49457 6.75024C4.41969 6.75024 4.26986 6.75024 4.12002 6.90027L2.24744 9.0753C1.49842 9.9753 1.27371 11.2503 1.72314 12.3753C2.17256 13.4254 2.99654 14.1004 4.12011 14.2503C4.26994 14.2503 4.41969 14.2503 4.49466 14.2503V15.0003L4.56953 14.2503C5.76797 14.2503 6.74179 13.5753 7.19121 12.4503C7.71552 11.3253 7.56577 9.9753 6.74179 9.0753L4.944 6.90027C4.79416 6.75024 4.56944 6.75024 4.49457 6.75024Z" fill="#313B6C"/>
<path d="M4.49428 19.5002C4.04486 19.5002 3.74527 19.2002 3.74527 18.7502V12.0002C3.74527 11.5502 4.04486 11.2502 4.49428 11.2502C4.94371 11.2502 5.2433 11.5502 5.2433 12.0002V18.7502C5.2433 19.2002 4.94371 19.5002 4.49428 19.5002Z" fill="#313B6C"/>
<path d="M4.49457 39C4.34473 39 4.12002 39 3.97027 39C2.3224 38.85 0.974123 37.8 0.374859 36.225C-0.29928 34.575 0.000308214 32.775 1.12387 31.425L2.92158 29.25C3.67059 28.35 5.24358 28.35 5.99269 29.25L7.79039 31.425C8.98883 32.85 9.21354 34.725 8.46453 36.375C7.71543 37.95 6.2174 39 4.49457 39ZM4.49457 30C4.41969 30 4.19498 30 4.12002 30.225L2.24744 32.325C1.49842 33.225 1.27371 34.5 1.72314 35.625C2.17256 36.675 2.99654 37.35 4.12011 37.5C4.26994 37.5 4.34482 37.5 4.49466 37.5V38.25L4.56953 37.5C5.76797 37.5 6.74179 36.825 7.19121 35.7C7.71551 34.575 7.56576 33.225 6.74179 32.325L4.94408 30.15C4.79416 30 4.56944 30 4.49457 30Z" fill="#313B6C"/>
<path d="M4.49428 42.7499C4.04486 42.7499 3.74527 42.45 3.74527 42V35.25C3.74527 34.8 4.04486 34.5 4.49428 34.5C4.94371 34.5 5.2433 34.8 5.2433 35.25V42C5.2433 42.45 4.94371 42.7499 4.49428 42.7499Z" fill="#313B6C"/>
<path d="M40.4482 15.7502C40.2983 15.7502 40.0736 15.7502 39.9239 15.7502C38.276 15.6001 36.9277 14.5502 36.3284 12.9752C35.6543 11.3252 35.9539 9.52523 37.0775 8.17523L38.8752 6.0002C39.6242 5.1002 41.1972 5.1002 41.9463 6.0002L43.744 8.17523C44.9424 9.6002 45.1671 11.4753 44.4181 13.2002C43.6691 14.7752 42.171 15.8252 40.4482 15.8252V15.7502ZM40.4482 6.75017C40.3733 6.75017 40.1486 6.75017 40.0736 6.97517L38.201 9.07523C37.452 9.97523 37.2273 11.2503 37.6767 12.3753C38.1262 13.4253 38.9501 14.1003 40.0737 14.2502C40.2235 14.2502 40.2984 14.2502 40.4482 14.2502V15.0002L40.5231 14.2502C41.7216 14.2502 42.6954 13.5752 43.1448 12.4502C43.6691 11.3252 43.5194 9.97523 42.6954 9.07523L40.8977 6.9002C40.7478 6.75017 40.523 6.75017 40.4482 6.75017Z" fill="#313B6C"/>
<path d="M40.4487 19.5002C39.9993 19.5002 39.6997 19.2002 39.6997 18.7502V12.0002C39.6997 11.5502 39.9993 11.2502 40.4487 11.2502C40.8981 11.2502 41.1977 11.5502 41.1977 12.0002V18.7502C41.1977 19.2002 40.8981 19.5002 40.4487 19.5002Z" fill="#313B6C"/>
<path d="M40.4482 38.9997C40.2983 38.9997 40.0736 38.9997 39.9239 38.9997C38.276 38.8497 36.9277 37.7997 36.3284 36.2247C35.6543 34.5748 35.9539 32.7748 37.0775 31.4248L38.95 29.2497C39.3246 28.7997 39.9238 28.4998 40.523 28.4998C41.1223 28.4998 41.6466 28.7248 42.096 29.2497L43.8937 31.4248C45.0922 32.8497 45.3169 34.7248 44.5679 36.3748C43.8189 37.9498 42.3207 38.9998 40.5979 38.9998L40.4482 38.9997ZM40.4482 29.9997C40.3733 29.9997 40.1486 29.9997 40.0736 30.2247L38.201 32.3247C37.452 33.2247 37.2273 34.4997 37.6767 35.6247C38.1261 36.6747 38.9501 37.3497 40.0737 37.4997C40.2235 37.4997 40.2984 37.4997 40.4482 37.4997V38.2496L40.5231 37.4997C41.7216 37.4997 42.6954 36.8247 43.1448 35.6997C43.6691 34.5747 43.5194 33.2247 42.6954 32.3247L40.8977 30.1496C40.7477 29.9997 40.523 29.9997 40.4482 29.9997Z" fill="#313B6C"/>
<path d="M40.4487 42.7499C39.9993 42.7499 39.6997 42.45 39.6997 42V35.25C39.6997 34.8 39.9993 34.5 40.4487 34.5C40.8981 34.5 41.1977 34.8 41.1977 35.25V42C41.1977 42.45 40.8981 42.7499 40.4487 42.7499Z" fill="#313B6C"/>
</svg>
