<svg width="34" height="34" viewBox="0 0 34 34" fill="none" xmlns="http://www.w3.org/2000/svg">
<rect width="34" height="34" rx="12" fill="#2870DD"/>
<path fill-rule="evenodd" clip-rule="evenodd" d="M18.935 7.63324C17.8175 6.68996 16.1826 6.68996 15.065 7.63324L13.8674 8.64411C13.709 8.77775 13.5131 8.85891 13.3066 8.87637L11.745 9.00844C10.2878 9.13168 9.13171 10.2877 9.00847 11.745L8.8764 13.3066C8.85894 13.5131 8.77778 13.709 8.64414 13.8673L7.63327 15.065C6.68999 16.1826 6.68999 17.8174 7.63327 18.935L8.64414 20.1327C8.77778 20.291 8.85894 20.4869 8.8764 20.6934L9.00847 22.255C9.13171 23.7123 10.2878 24.8683 11.745 24.9916L13.3066 25.1236C13.5131 25.1411 13.709 25.2222 13.8674 25.3559L15.065 26.3668C16.1826 27.31 17.8175 27.31 18.935 26.3668L20.1327 25.3559C20.291 25.2222 20.487 25.1411 20.6934 25.1236L22.2551 24.9916C23.7123 24.8683 24.8683 23.7123 24.9916 22.255L25.1237 20.6934C25.1411 20.4869 25.2223 20.291 25.3559 20.1327L26.3668 18.935C27.3101 17.8174 27.3101 16.1826 26.3668 15.065L25.3559 13.8673C25.2223 13.709 25.1411 13.5131 25.1237 13.3066L24.9916 11.745C24.8683 10.2877 23.7123 9.13168 22.2551 9.00844L20.6934 8.87637C20.487 8.85891 20.291 8.77775 20.1327 8.64411L18.935 7.63324ZM21.6364 15.1365C21.9879 14.785 21.9879 14.2151 21.6364 13.8637C21.2849 13.5122 20.7151 13.5122 20.3636 13.8637L16 18.2273L13.6364 15.8637C13.2849 15.5122 12.7151 15.5122 12.3636 15.8637C12.0121 16.2151 12.0121 16.785 12.3636 17.1365L15.3636 20.1365C15.7151 20.4879 16.2849 20.4879 16.6364 20.1365L21.6364 15.1365Z" fill="white"/>
</svg>
