<svg width="58" height="38" viewBox="0 0 58 38" fill="none" xmlns="http://www.w3.org/2000/svg">
<path d="M41.3615 7.9231H3.14615V36.6539H41.3615V7.9231Z" fill="white" stroke="#313B6C" stroke-width="1.5" stroke-miterlimit="10" stroke-linecap="round" stroke-linejoin="round"/>
<path d="M1 36.6538H56.3846" stroke="#313B6C" stroke-width="1.5" stroke-miterlimit="10" stroke-linecap="round" stroke-linejoin="round"/>
<path d="M50.7769 32.0154V36.6538" stroke="#313B6C" stroke-width="1.5" stroke-miterlimit="10" stroke-linecap="round" stroke-linejoin="round"/>
<path d="M56.3846 13.3923H45.1V32.9154H56.3846V13.3923Z" fill="white" stroke="#313B6C" stroke-width="1.5" stroke-miterlimit="10" stroke-linecap="round" stroke-linejoin="round"/>
<path d="M56.3846 27.446H45.1V32.9153H56.3846V27.446Z" fill="#00AC8A" stroke="#313B6C" stroke-width="1.5" stroke-miterlimit="10"/>
<path d="M23.7769 15.1924H7.3V28.6231H23.7769V15.1924Z" fill="white" stroke="#313B6C" stroke-width="1.5" stroke-miterlimit="10" stroke-linecap="round" stroke-linejoin="round"/>
<path d="M37.2769 15.1924H27.8615V36.6539H37.2769V15.1924Z" fill="#00AC8A" stroke="#313B6C" stroke-width="1.5" stroke-miterlimit="10"/>
<path d="M21.3538 11.9386C22.9461 12.3539 24.6077 11.3847 25.0231 9.79241C25.0923 9.51549 25.0923 9.30779 25.0923 9.03087V1.06934H19.1385V9.03087C19.1385 9.30779 19.1385 9.51549 19.2077 9.79241C19.4846 10.8309 20.3154 11.6616 21.3538 11.9386Z" fill="white" stroke="#313B6C" stroke-width="1.5" stroke-miterlimit="10" stroke-linecap="round" stroke-linejoin="round"/>
<path d="M15.4 11.9386C16.9923 12.3539 18.6538 11.3847 19.0692 9.79241C19.1385 9.51549 19.1385 9.30779 19.1385 9.03087V1.06934H14.0846L13.1846 9.1001C13.1846 9.3078 13.1846 9.58472 13.2538 9.79241C13.5308 10.8309 14.2923 11.6616 15.4 11.9386Z" fill="#00AC8A" stroke="#313B6C" stroke-width="1.5" stroke-miterlimit="10"/>
<path d="M9.23845 11.9385C10.8308 12.3538 12.4923 11.3846 12.9077 9.7923C12.9769 9.51538 12.9769 9.30769 12.9769 9.03076C12.9769 8.96153 12.9769 8.96153 12.9769 8.8923L13.8769 1H7.92307L7.02307 9.03076C7.02307 9.23846 7.02307 9.51538 7.0923 9.72307C7.36922 10.8308 8.19999 11.6615 9.23845 11.9385Z" fill="white" stroke="#313B6C" stroke-width="1.5" stroke-miterlimit="10" stroke-linecap="round" stroke-linejoin="round"/>
<path d="M6.95384 8.89231L7.85384 1H2.8L1 9.1C1.06923 10.6923 2.38461 12.0077 3.97692 12.0077C4.53077 12.0077 5.01538 11.8692 5.5 11.5923C6.19231 11.1769 6.67692 10.5538 6.88461 9.72308C6.95384 9.44615 6.95384 9.23846 6.95384 8.96154C6.95384 8.96154 6.95384 8.96154 6.95384 8.89231Z" fill="#00AC8A" stroke="#313B6C" stroke-width="1.5" stroke-miterlimit="10"/>
<path d="M27.3077 11.9386C28.9 12.3539 30.5615 11.3847 30.9769 9.79241C31.0462 9.58472 31.0462 9.3078 31.0462 9.1001L30.1462 1.06934H25.0923V9.03087C25.0923 9.30779 25.0923 9.51549 25.1615 9.72318C25.4385 10.8309 26.2692 11.6616 27.3077 11.9386Z" fill="#00AC8A" stroke="#313B6C" stroke-width="1.5" stroke-miterlimit="10"/>
<path d="M31.0461 9.03077C31.0461 9.30769 31.0461 9.51538 31.1154 9.72308C31.3923 10.7615 32.2231 11.5923 33.2615 11.8692C34.8538 12.2846 36.5154 11.3154 36.9308 9.72308C37 9.51538 37 9.23846 37 9.03077L36.1 1H30.1461L31.0461 8.89231C31.0461 8.96154 31.0461 8.96154 31.0461 9.03077Z" fill="white" stroke="#313B6C" stroke-width="1.5" stroke-miterlimit="10" stroke-linecap="round" stroke-linejoin="round"/>
<path d="M37.2769 9.03087C37.2769 9.3078 37.2769 9.51549 37.3461 9.79241C37.5538 10.554 38.0385 11.2463 38.7308 11.6616C39.2154 11.9386 39.7 12.077 40.2538 12.077C41.8461 12.077 43.1615 10.8309 43.2308 9.16934L41.4308 1.06934H36.3769L37.2769 8.96164C37.2769 8.96164 37.2769 8.96164 37.2769 9.03087Z" fill="#00AC8A" stroke="#313B6C" stroke-width="1.5" stroke-miterlimit="10"/>
<path d="M14.5692 19.7615L12.3538 22.8769" stroke="#313B6C" stroke-width="1.5" stroke-miterlimit="10" stroke-linecap="round" stroke-linejoin="round"/>
<path d="M17.7538 20.3845L15.5385 23.4999" stroke="#313B6C" stroke-width="1.5" stroke-miterlimit="10" stroke-linecap="round" stroke-linejoin="round"/>
<path d="M30.2154 23.7769V26.9615" stroke="#313B6C" stroke-width="1.5" stroke-miterlimit="10" stroke-linecap="round" stroke-linejoin="round"/>
</svg>
