<svg width="34" height="34" viewBox="0 0 34 34" fill="none" xmlns="http://www.w3.org/2000/svg">
<rect width="34" height="34" rx="12" fill="#FF9431"/>
<g clip-path="url(#clip0)">
<path d="M24.5286 10.3333C24.5286 11.8291 23.3161 13.0417 21.8203 13.0417C20.3245 13.0417 19.112 11.8291 19.112 10.3333C19.112 8.83762 20.3245 7.625 21.8203 7.625C23.3161 7.625 24.5286 8.83762 24.5286 10.3333Z" fill="white"/>
<path d="M21.8203 13.6667C19.9819 13.6667 18.487 12.1717 18.487 10.3333C18.487 8.49506 19.9819 7 21.8203 7C23.6587 7 25.1536 8.49506 25.1536 10.3333C25.1536 12.1717 23.6587 13.6667 21.8203 13.6667ZM21.8203 8.25C20.6712 8.25 19.737 9.18506 19.737 10.3333C19.737 11.4817 20.6712 12.4167 21.8203 12.4167C22.9695 12.4167 23.9036 11.4817 23.9036 10.3333C23.9036 9.18506 22.9695 8.25 21.8203 8.25Z" fill="white"/>
<path d="M24.5286 23.6669C24.5286 25.1626 23.3161 26.3752 21.8203 26.3752C20.3245 26.3752 19.112 25.1626 19.112 23.6669C19.112 22.1711 20.3245 20.9585 21.8203 20.9585C23.3161 20.9585 24.5286 22.1711 24.5286 23.6669Z" fill="white"/>
<path d="M21.8203 27.0002C19.9819 27.0002 18.487 25.5052 18.487 23.6669C18.487 21.8286 19.9819 20.3335 21.8203 20.3335C23.6587 20.3335 25.1536 21.8286 25.1536 23.6669C25.1536 25.5052 23.6587 27.0002 21.8203 27.0002ZM21.8203 21.5835C20.6712 21.5835 19.737 22.5186 19.737 23.6669C19.737 24.8152 20.6712 25.7502 21.8203 25.7502C22.9695 25.7502 23.9036 24.8152 23.9036 23.6669C23.9036 22.5186 22.9695 21.5835 21.8203 21.5835Z" fill="white"/>
<path d="M12.862 16.9998C12.862 18.4956 11.6494 19.7081 10.1536 19.7081C8.65793 19.7081 7.44531 18.4956 7.44531 16.9998C7.44531 15.504 8.65793 14.2915 10.1536 14.2915C11.6494 14.2915 12.862 15.504 12.862 16.9998Z" fill="white"/>
<path d="M10.1536 20.3331C8.31537 20.3331 6.82031 18.8382 6.82031 16.9998C6.82031 15.1614 8.31537 13.6665 10.1536 13.6665C11.992 13.6665 13.487 15.1614 13.487 16.9998C13.487 18.8382 11.992 20.3331 10.1536 20.3331ZM10.1536 14.9165C9.00446 14.9165 8.07031 15.8514 8.07031 16.9998C8.07031 18.1482 9.00446 19.0831 10.1536 19.0831C11.3029 19.0831 12.237 18.1482 12.237 16.9998C12.237 15.8514 11.3029 14.9165 10.1536 14.9165Z" fill="white"/>
<path d="M12.1212 16.6C11.8311 16.6 11.5495 16.4491 11.3961 16.1791C11.1686 15.78 11.3087 15.2708 11.7079 15.0424L19.4402 10.6341C19.8394 10.4049 20.3486 10.545 20.577 10.9457C20.8045 11.3449 20.6645 11.854 20.2653 12.0825L12.5327 16.4907C12.4027 16.5649 12.2611 16.6 12.1212 16.6Z" fill="white"/>
<path d="M19.8528 23.4753C19.7128 23.4753 19.5712 23.4402 19.4411 23.3661L11.7086 18.9578C11.3094 18.7303 11.1695 18.2211 11.397 17.821C11.6236 17.4211 12.1336 17.2802 12.5337 17.5094L20.2662 21.9177C20.6654 22.1452 20.8053 22.6544 20.5778 23.0545C20.4237 23.3244 20.142 23.4753 19.8528 23.4753Z" fill="white"/>
</g>
<defs>
<clipPath id="clip0">
<rect width="20" height="20" fill="white" transform="translate(6 7)"/>
</clipPath>
</defs>
</svg>
