<svg width="22" height="22" viewBox="0 0 22 22" fill="none" xmlns="http://www.w3.org/2000/svg">
<path d="M4 9.607H3.38596C4.04336 5.9974 7.20416 3.25 11 3.25C14.7958 3.25 17.9566 5.9974 18.614 9.607H18C17.3088 9.607 16.75 10.1671 16.75 10.857V15V16V17C16.75 17.9649 15.9649 18.75 15 18.75H13.25V18V17.75H13H9H8.75V18V21V21.25H9H11H13H15C17.2643 21.25 19.1198 19.4715 19.2434 17.2377C20.3565 17.1243 21.25 16.243 21.25 15.143V15V11.714V11C21.25 5.34793 16.6521 0.75 11 0.75C5.34793 0.75 0.75 5.34793 0.75 11V11.714V15V15.143C0.75 16.3222 1.77671 17.25 3 17.25H4C4.69123 17.25 5.25 16.6899 5.25 16V10.857C5.25 10.1671 4.69123 9.607 4 9.607Z" fill="#66676C" stroke="#66676C" stroke-width="0.5"/>
</svg>
