<svg width="34" height="34" viewBox="0 0 34 34" fill="none" xmlns="http://www.w3.org/2000/svg">
<rect width="34" height="34" rx="12" fill="#8621A9"/>
<path d="M17 7C11.486 7 7 11.486 7 17V17.714V21V21.143C7 22.167 7.897 23 9 23H10C10.553 23 11 22.552 11 22V16.857C11 16.305 10.553 15.857 10 15.857H9.092C9.648 11.987 12.978 9 17 9C21.022 9 24.352 11.987 24.908 15.857H24C23.447 15.857 23 16.305 23 16.857V21V22V23C23 24.103 22.103 25 21 25H19V24H15V27H17H19H21C23.206 27 25 25.206 25 23C26.103 23 27 22.167 27 21.143V21V17.714V17C27 11.486 22.514 7 17 7Z" fill="white"/>
</svg>
