<svg width="44" height="43" viewBox="0 0 44 43" fill="none" xmlns="http://www.w3.org/2000/svg">
<path d="M22.1741 37.605H16.1409V42.1298H22.1741V37.605Z" fill="#00AC8A" stroke="#313B6C" stroke-width="1.5" stroke-miterlimit="10"/>
<path d="M38.1851 37.605H32.152V42.1298H38.1851V37.605Z" fill="#00AC8A" stroke="#313B6C" stroke-width="1.5" stroke-miterlimit="10"/>
<path d="M5.52482 16.199V29.2515" stroke="#313B6C" stroke-width="1.5" stroke-miterlimit="10" stroke-linecap="round" stroke-linejoin="round"/>
<path d="M8.30939 16.1989H2.74033C1.75414 16.1989 1 15.4448 1 14.4586V8.8895C1 7.90331 1.75414 7.14917 2.74033 7.14917H8.30939C9.29558 7.14917 10.0497 7.90331 10.0497 8.8895V14.4586C10.0497 15.4448 9.23757 16.1989 8.30939 16.1989Z" fill="white" stroke="#313B6C" stroke-width="1.5" stroke-miterlimit="10" stroke-linecap="round" stroke-linejoin="round"/>
<path d="M7.43914 29.4255H3.61042V42.072H7.43914V29.4255Z" fill="#00AC8A" stroke="#313B6C" stroke-width="1.5" stroke-miterlimit="10"/>
<path d="M41.4337 33.3122H12.8923V3.90055C12.8923 2.27624 14.2265 1 15.7928 1H38.5331C40.1574 1 41.4337 2.33425 41.4337 3.90055V33.3122Z" fill="#00AC8A" stroke="#313B6C" stroke-width="1.5" stroke-miterlimit="10"/>
<path fill-rule="evenodd" clip-rule="evenodd" d="M23.1602 33.1381V30.8177C23.1602 30.3536 23.7403 29.9475 24.4364 29.9475H29.8895C30.5856 29.9475 31.1657 30.3536 31.1657 30.8177V33.1381" fill="white"/>
<path d="M23.1602 33.1381V30.8177C23.1602 30.3536 23.7403 29.9475 24.4364 29.9475H29.8895C30.5856 29.9475 31.1657 30.3536 31.1657 30.8177V33.1381" stroke="#313B6C" stroke-width="1.5" stroke-miterlimit="10" stroke-linecap="round" stroke-linejoin="round"/>
<path d="M41.4337 33.312H12.8923V33.7181L14.4586 38.1269H25.3646H28.9613H39.8674L41.4337 33.7181V33.312Z" fill="white" stroke="#313B6C" stroke-width="1.5" stroke-miterlimit="10" stroke-linecap="round" stroke-linejoin="round"/>
<path d="M12.8923 22.29L13.2403 22.406C22.4061 25.0165 32.2679 24.9585 41.4337 22.29V7.55518H12.8923V22.29Z" fill="white" stroke="#313B6C" stroke-width="1.5" stroke-miterlimit="10" stroke-linecap="round" stroke-linejoin="round"/>
<path d="M19.5636 7.55546V5.23502C19.5636 4.19082 20.3757 3.37866 21.4199 3.37866H32.8481C33.8923 3.37866 34.7045 4.19082 34.7045 5.23502V7.55546H19.5636Z" fill="white"/>
<path d="M32.8481 3.84258C33.6603 3.84258 34.2984 4.4807 34.2984 5.29285V7.20722H20.0277V5.29285C20.0277 4.4807 20.6658 3.84258 21.478 3.84258H32.8481ZM32.8481 2.97241H21.42C20.1437 2.97241 19.0995 4.01661 19.0995 5.29285V8.07738H35.1106V5.29285C35.1686 3.9586 34.1244 2.97241 32.8481 2.97241Z" fill="#313B6C"/>
<path d="M26.1768 14.3425L23.0442 17.5911" stroke="#313B6C" stroke-width="1.5" stroke-miterlimit="10" stroke-linecap="round" stroke-linejoin="round"/>
<path d="M31.2818 14.3423L28.0912 17.5909" stroke="#313B6C" stroke-width="1.5" stroke-miterlimit="10" stroke-linecap="round" stroke-linejoin="round"/>
<path d="M18.1132 30.1214C19.2666 30.1214 20.2016 29.1864 20.2016 28.033C20.2016 26.8796 19.2666 25.9446 18.1132 25.9446C16.9598 25.9446 16.0248 26.8796 16.0248 28.033C16.0248 29.1864 16.9598 30.1214 18.1132 30.1214Z" fill="white" stroke="#313B6C" stroke-width="1.5" stroke-miterlimit="10" stroke-linecap="round" stroke-linejoin="round"/>
<path d="M36.2128 30.1211C37.3662 30.1211 38.3012 29.1861 38.3012 28.0327C38.3012 26.8793 37.3662 25.9443 36.2128 25.9443C35.0594 25.9443 34.1244 26.8793 34.1244 28.0327C34.1244 29.1861 35.0594 30.1211 36.2128 30.1211Z" fill="white" stroke="#313B6C" stroke-width="1.5" stroke-miterlimit="10" stroke-linecap="round" stroke-linejoin="round"/>
<path d="M1 42.1875H43" stroke="#313B6C" stroke-width="1.5" stroke-miterlimit="10" stroke-linecap="round" stroke-linejoin="round"/>
</svg>
