<svg width="24" height="19" viewBox="0 0 24 19" fill="none" xmlns="http://www.w3.org/2000/svg">
<path d="M24 2.20856C23.1167 2.58334 22.1689 2.83752 21.173 2.95099C22.1898 2.36796 22.9682 1.44318 23.3371 0.344631C22.3833 0.884558 21.3305 1.27661 20.2087 1.48915C19.3103 0.571544 18.0326 0 16.6153 0C13.8963 0 11.6917 2.11093 11.6917 4.71297C11.6917 5.08201 11.7352 5.44245 11.8192 5.78712C7.72801 5.59036 4.1002 3.71351 1.67216 0.861578C1.24773 1.55662 1.00628 2.36649 1.00628 3.231C1.00628 4.86663 1.87612 6.30981 3.19589 7.15416C2.38902 7.12832 1.63016 6.91579 0.965805 6.56252V6.6214C0.965805 8.90465 2.66349 10.8102 4.91456 11.2439C4.50212 11.3502 4.06722 11.4091 3.6173 11.4091C3.29938 11.4091 2.99193 11.3789 2.69047 11.3215C3.31734 13.1954 5.13503 14.5582 7.28864 14.5956C5.60444 15.8593 3.48083 16.6103 1.17428 16.6103C0.776864 16.6103 0.385412 16.5873 0 16.5457C2.1791 17.8855 4.76612 18.6667 7.5466 18.6667C16.6034 18.6667 21.554 11.4837 21.554 5.25437L21.5375 4.64407C22.5048 3.98346 23.3416 3.15346 24 2.20856Z" fill="#B2B7D0"/>
</svg>
